M48
INCH,TZ
T1C0.024
T2C0.025
T3C0.030
T4C0.032
T5C0.035
T6C0.040
T7C0.049
T8C0.067
%
G90
G05
T1
X82874Y-59449
X82874Y-62441
X85866Y-59449
X85866Y-62441
T2
X90945Y-69291
X91929Y-66437
X98031Y-72441
X98819Y-70866
T3
X56260Y-49409
X56260Y-53543
X56260Y-57677
X56260Y-61811
X56260Y-65945
X56260Y-70079
X56260Y-74213
X56260Y-78346
X59843Y-49409
X59843Y-53543
X59843Y-57677
X59843Y-61811
X59843Y-65945
X59843Y-70079
X59843Y-74213
X59843Y-78346
X65353Y-51379
X65353Y-55513
X65353Y-59647
X65353Y-63781
X65353Y-67914
X65353Y-72048
X65353Y-76182
X65353Y-80316
X67887Y-48846
X67887Y-52980
X67887Y-57113
X67887Y-61247
X67887Y-65381
X67887Y-69515
X67887Y-73649
X67887Y-77783
X69685Y-55000
X69685Y-56890
X70630Y-70079
X71654Y-64921
X71654Y-68504
X74213Y-70079
X75197Y-70079
X75591Y-55787
X75591Y-57677
X78780Y-70079
X79724Y-43563
X79724Y-47146
X81693Y-43563
X81693Y-47146
X83563Y-43563
X83563Y-47146
X84409Y-82677
X84409Y-85236
X84449Y-77362
X84449Y-80118
X85630Y-43504
X85630Y-47087
X87992Y-82677
X87992Y-85236
X88031Y-77362
X88031Y-80118
X88642Y-48327
X88681Y-46752
X91929Y-82283
X91929Y-84252
X92224Y-48327
X92264Y-46752
X92717Y-55394
X92717Y-57283
X93110Y-70472
X96693Y-70472
X98819Y-55591
X98819Y-57480
X100503Y-52147
X100503Y-55986
X100503Y-60120
X100503Y-64057
X100503Y-68190
X100503Y-72226
X100503Y-76261
X100503Y-80297
X100984Y-83228
X100984Y-84528
X103402Y-50041
X103402Y-53880
X103402Y-58014
X103402Y-61951
X103402Y-66085
X103402Y-70120
X103402Y-74155
X103402Y-78191
X103642Y-43799
X103642Y-47382
X109055Y-53937
X109055Y-57972
X109055Y-62008
X109055Y-66043
X109055Y-70079
X109055Y-74114
X109055Y-78150
X109154Y-49902
X112638Y-53937
X112638Y-57972
X112638Y-62008
X112638Y-66043
X112638Y-70079
X112638Y-74114
X112638Y-78150
X112736Y-49902
T4
X61000Y-49394
X61000Y-50394
X61000Y-51394
X61000Y-53528
X61000Y-54528
X61000Y-55528
X61000Y-57661
X61000Y-58661
X61000Y-59661
X61000Y-61795
X61000Y-62795
X61000Y-63795
X61000Y-65929
X61000Y-66929
X61000Y-67929
X61000Y-70063
X61000Y-71063
X61000Y-72063
X61000Y-74197
X61000Y-75197
X61000Y-76197
X61000Y-78331
X61000Y-79331
X61000Y-80331
X64000Y-49394
X64000Y-50394
X64000Y-51394
X64000Y-53528
X64000Y-54528
X64000Y-55528
X64000Y-57661
X64000Y-58661
X64000Y-59661
X64000Y-61795
X64000Y-62795
X64000Y-63795
X64000Y-65929
X64000Y-66929
X64000Y-67929
X64000Y-70063
X64000Y-71063
X64000Y-72063
X64000Y-74197
X64000Y-75197
X64000Y-76197
X64000Y-78331
X64000Y-79331
X64000Y-80331
X70941Y-49996
X70941Y-50996
X70941Y-51996
X70941Y-52996
X70941Y-53996
X70941Y-54996
X70941Y-55996
X70941Y-56996
X70941Y-57996
X70941Y-58996
X70941Y-59996
X70941Y-60996
X70941Y-61996
X70941Y-62996
X73941Y-49996
X73941Y-50996
X73941Y-51996
X73941Y-52996
X73941Y-53996
X73941Y-54996
X73941Y-55996
X73941Y-56996
X73941Y-57996
X73941Y-58996
X73941Y-59996
X73941Y-60996
X73941Y-61996
X73941Y-62996
X74197Y-65626
X74197Y-68626
X75197Y-65626
X75197Y-68626
X76197Y-65626
X76197Y-68626
X79799Y-49878
X79799Y-52878
X80315Y-65445
X80315Y-66445
X80799Y-49878
X80799Y-52878
X80850Y-54209
X80850Y-57209
X81799Y-49878
X81799Y-52878
X81850Y-54209
X81850Y-57209
X82146Y-68307
X82480Y-65445
X82480Y-66445
X82799Y-49878
X82799Y-52878
X82850Y-54209
X82850Y-57209
X83146Y-68307
X83850Y-54209
X83850Y-57209
X84146Y-68307
X84646Y-65445
X84646Y-66445
X84850Y-54209
X84850Y-57209
X85146Y-68307
X85803Y-49878
X85803Y-52878
X85850Y-54209
X85850Y-57209
X86146Y-68307
X86803Y-49878
X86803Y-52878
X86811Y-65445
X86811Y-66445
X86850Y-54209
X86850Y-57209
X87146Y-68307
X87803Y-49878
X87803Y-52878
X87850Y-54209
X87850Y-57209
X88803Y-49878
X88803Y-52878
X88976Y-65445
X88976Y-66445
X93201Y-72441
X94201Y-72441
X94366Y-49996
X94366Y-50996
X94366Y-51996
X94366Y-52996
X94366Y-53996
X94366Y-54996
X94366Y-55996
X94366Y-56996
X94366Y-57996
X94366Y-58996
X94366Y-59996
X94366Y-60996
X94366Y-61996
X94366Y-62996
X97366Y-49996
X97366Y-50996
X97366Y-51996
X97366Y-52996
X97366Y-53996
X97366Y-54996
X97366Y-55996
X97366Y-56996
X97366Y-57996
X97366Y-58996
X97366Y-59996
X97366Y-60996
X97366Y-61996
X97366Y-62996
X100780Y-45571
X101780Y-45571
X104799Y-49886
X104799Y-50886
X104799Y-51886
X104799Y-53921
X104799Y-54921
X104799Y-55921
X104799Y-58055
X104799Y-59055
X104799Y-60055
X104799Y-61992
X104799Y-62992
X104799Y-63992
X104799Y-66028
X104799Y-67028
X104799Y-68028
X104799Y-70063
X104799Y-71063
X104799Y-72063
X104799Y-74098
X104799Y-75098
X104799Y-76098
X104799Y-78134
X104799Y-79134
X104799Y-80134
X107799Y-49886
X107799Y-50886
X107799Y-51886
X107799Y-53921
X107799Y-54921
X107799Y-55921
X107799Y-58055
X107799Y-59055
X107799Y-60055
X107799Y-61992
X107799Y-62992
X107799Y-63992
X107799Y-66028
X107799Y-67028
X107799Y-68028
X107799Y-70063
X107799Y-71063
X107799Y-72063
X107799Y-74098
X107799Y-75098
X107799Y-76098
X107799Y-78134
X107799Y-79134
X107799Y-80134
T5
X70888Y-47496
X71388Y-46496
X71888Y-47496
X72388Y-46496
X72888Y-47496
X73388Y-46496
X73888Y-47496
X74388Y-46496
X94313Y-47496
X94813Y-46496
X95313Y-47496
X95813Y-46496
X96313Y-47496
X96813Y-46496
X97313Y-47496
X97813Y-46496
T6
X54626Y-49394
X54626Y-50394
X54626Y-51394
X54626Y-53528
X54626Y-54528
X54626Y-55528
X54626Y-57661
X54626Y-58661
X54626Y-59661
X54626Y-61795
X54626Y-62795
X54626Y-63795
X54626Y-65929
X54626Y-66929
X54626Y-67929
X54626Y-70063
X54626Y-71063
X54626Y-72063
X54626Y-74197
X54626Y-75197
X54626Y-76197
X54626Y-78331
X54626Y-79331
X54626Y-80331
X97047Y-82268
X97047Y-83268
X97047Y-84268
X114567Y-49886
X114567Y-50886
X114567Y-51886
X114567Y-53921
X114567Y-54921
X114567Y-55921
X114567Y-57957
X114567Y-58957
X114567Y-59957
X114567Y-61992
X114567Y-62992
X114567Y-63992
X114567Y-66028
X114567Y-67028
X114567Y-68028
X114567Y-70063
X114567Y-71063
X114567Y-72063
X114567Y-74098
X114567Y-75098
X114567Y-76098
X114567Y-78134
X114567Y-79134
X114567Y-80134
T7
X49606Y-49606
X49606Y-51181
X49606Y-53740
X49606Y-55315
X49606Y-57874
X49606Y-59449
X49606Y-62008
X49606Y-63583
X49606Y-66142
X49606Y-67717
X49606Y-70276
X49606Y-71850
X49606Y-74409
X49606Y-75984
X49606Y-78543
X49606Y-80118
X49606Y-82874
X49606Y-84449
X70472Y-75079
X70472Y-82559
X82480Y-75079
X82480Y-77520
X82480Y-80039
X82480Y-82559
X119291Y-50098
X119291Y-51673
X119291Y-54134
X119291Y-55709
X119291Y-58169
X119291Y-59744
X119291Y-62205
X119291Y-63780
X119291Y-66240
X119291Y-67815
X119291Y-70276
X119291Y-71850
X119291Y-74311
X119291Y-75886
X119291Y-78346
X119291Y-79921
X119291Y-82677
X119291Y-84252
T8
X53661Y-84449
X56319Y-84449
X60098Y-84449
X62756Y-84449
X106142Y-84252
X108799Y-84252
X112579Y-84252
X115236Y-84252
T0
M30
