G04 (created by PCBNEW (2013-07-07 BZR 4022)-stable) date 9/7/2014 7:10:48 AM*
%MOIN*%
G04 Gerber Fmt 3.4, Leading zero omitted, Abs format*
%FSLAX34Y34*%
G01*
G70*
G90*
G04 APERTURE LIST*
%ADD10C,0.00590551*%
%ADD11C,0.0885827*%
%ADD12C,0.07*%
%ADD13R,0.07X0.07*%
%ADD14R,0.0885827X0.0885827*%
%ADD15R,0.055X0.055*%
%ADD16C,0.055*%
%ADD17C,0.1437*%
%ADD18R,0.0591X0.0591*%
%ADD19C,0.0591*%
%ADD20C,0.0688976*%
%ADD21C,0.066*%
%ADD22R,0.0688976X0.0688976*%
%ADD23R,0.0629921X0.0629921*%
%ADD24C,0.0629921*%
%ADD25C,0.129921*%
G04 APERTURE END LIST*
G54D10*
G54D11*
X70472Y-75078D03*
X70472Y-82559D03*
X82480Y-75078D03*
X82480Y-77519D03*
X82480Y-80039D03*
X82480Y-82559D03*
G54D12*
X97047Y-82267D03*
X97047Y-83267D03*
G54D13*
X97047Y-84267D03*
G54D12*
X114566Y-51885D03*
X114566Y-50885D03*
G54D13*
X114566Y-49885D03*
G54D12*
X114566Y-55921D03*
X114566Y-54921D03*
G54D13*
X114566Y-53921D03*
G54D12*
X114566Y-59956D03*
X114566Y-58956D03*
G54D13*
X114566Y-57956D03*
G54D12*
X114566Y-63992D03*
X114566Y-62992D03*
G54D13*
X114566Y-61992D03*
G54D12*
X114566Y-68027D03*
X114566Y-67027D03*
G54D13*
X114566Y-66027D03*
G54D12*
X114566Y-72062D03*
X114566Y-71062D03*
G54D13*
X114566Y-70062D03*
G54D12*
X114566Y-76098D03*
X114566Y-75098D03*
G54D13*
X114566Y-74098D03*
G54D12*
X114566Y-80133D03*
X114566Y-79133D03*
G54D13*
X114566Y-78133D03*
G54D12*
X54625Y-51393D03*
X54625Y-50393D03*
G54D13*
X54625Y-49393D03*
G54D12*
X54625Y-55527D03*
X54625Y-54527D03*
G54D13*
X54625Y-53527D03*
G54D12*
X54625Y-59661D03*
X54625Y-58661D03*
G54D13*
X54625Y-57661D03*
G54D12*
X54625Y-63795D03*
X54625Y-62795D03*
G54D13*
X54625Y-61795D03*
G54D12*
X54625Y-72062D03*
X54625Y-71062D03*
G54D13*
X54625Y-70062D03*
G54D12*
X54625Y-76196D03*
X54625Y-75196D03*
G54D13*
X54625Y-74196D03*
G54D12*
X54625Y-80330D03*
X54625Y-79330D03*
G54D13*
X54625Y-78330D03*
G54D12*
X54625Y-67929D03*
X54625Y-66929D03*
G54D13*
X54625Y-65929D03*
G54D14*
X119291Y-71850D03*
G54D11*
X119291Y-70275D03*
G54D14*
X49606Y-51181D03*
G54D11*
X49606Y-49606D03*
G54D14*
X49606Y-55314D03*
G54D11*
X49606Y-53740D03*
G54D14*
X49606Y-59448D03*
G54D11*
X49606Y-57874D03*
G54D14*
X49606Y-63582D03*
G54D11*
X49606Y-62007D03*
G54D14*
X49606Y-67716D03*
G54D11*
X49606Y-66141D03*
G54D14*
X49606Y-71850D03*
G54D11*
X49606Y-70275D03*
G54D14*
X49606Y-75984D03*
G54D11*
X49606Y-74409D03*
G54D14*
X119291Y-79921D03*
G54D11*
X119291Y-78346D03*
G54D14*
X119291Y-75885D03*
G54D11*
X119291Y-74311D03*
G54D14*
X119291Y-67814D03*
G54D11*
X119291Y-66240D03*
G54D14*
X119291Y-63779D03*
G54D11*
X119291Y-62204D03*
G54D14*
X119291Y-59744D03*
G54D11*
X119291Y-58169D03*
G54D14*
X119291Y-55708D03*
G54D11*
X119291Y-54133D03*
G54D14*
X119291Y-51673D03*
G54D11*
X119291Y-50098D03*
G54D14*
X49606Y-80118D03*
G54D11*
X49606Y-78543D03*
G54D15*
X100779Y-45570D03*
G54D16*
X101779Y-45570D03*
G54D17*
X70299Y-43996D03*
X74972Y-43996D03*
G54D18*
X74387Y-46496D03*
G54D19*
X73887Y-47496D03*
X73387Y-46496D03*
X72887Y-47496D03*
X72387Y-46496D03*
X71887Y-47496D03*
X71387Y-46496D03*
X70887Y-47496D03*
G54D17*
X93724Y-43996D03*
X98397Y-43996D03*
G54D18*
X97812Y-46496D03*
G54D19*
X97312Y-47496D03*
X96812Y-46496D03*
X96312Y-47496D03*
X95812Y-46496D03*
X95312Y-47496D03*
X94812Y-46496D03*
X94312Y-47496D03*
G54D20*
X112637Y-70078D03*
X109055Y-70078D03*
X112637Y-74114D03*
X109055Y-74114D03*
X100503Y-55985D03*
X103401Y-53879D03*
X112637Y-78149D03*
X109055Y-78149D03*
X112637Y-66043D03*
X109055Y-66043D03*
X112637Y-62007D03*
X109055Y-62007D03*
X112637Y-57972D03*
X109055Y-57972D03*
X112637Y-53937D03*
X109055Y-53937D03*
X112736Y-49901D03*
X109153Y-49901D03*
X96692Y-70472D03*
X93110Y-70472D03*
X100503Y-60119D03*
X103401Y-58013D03*
X65353Y-76182D03*
X67886Y-73648D03*
X65353Y-80316D03*
X67886Y-77782D03*
X65353Y-72048D03*
X67886Y-69514D03*
X65353Y-67914D03*
X67886Y-65381D03*
X65353Y-63780D03*
X67886Y-61247D03*
X65353Y-59646D03*
X67886Y-57113D03*
X65353Y-55512D03*
X67886Y-52979D03*
X65353Y-51379D03*
X67886Y-48845D03*
X100503Y-64056D03*
X103401Y-61950D03*
X100503Y-68190D03*
X103401Y-66084D03*
X56259Y-57677D03*
X59842Y-57677D03*
X103641Y-47381D03*
X103641Y-43799D03*
X83562Y-43562D03*
X83562Y-47145D03*
X85629Y-47086D03*
X85629Y-43503D03*
X92263Y-46751D03*
X88681Y-46751D03*
X88641Y-48326D03*
X92224Y-48326D03*
X100503Y-72225D03*
X103401Y-70120D03*
X100503Y-76261D03*
X103401Y-74155D03*
X56259Y-49409D03*
X59842Y-49409D03*
X56259Y-53543D03*
X59842Y-53543D03*
X100503Y-52147D03*
X103401Y-50041D03*
X56259Y-61811D03*
X59842Y-61811D03*
X56259Y-65944D03*
X59842Y-65944D03*
X56259Y-70078D03*
X59842Y-70078D03*
X56259Y-74212D03*
X59842Y-74212D03*
X56259Y-78346D03*
X59842Y-78346D03*
X70629Y-70078D03*
X74212Y-70078D03*
X78779Y-70078D03*
X75196Y-70078D03*
X100503Y-80296D03*
X103401Y-78190D03*
G54D21*
X93200Y-72440D03*
X94200Y-72440D03*
G54D15*
X85803Y-52877D03*
G54D16*
X86803Y-52877D03*
X87803Y-52877D03*
X88803Y-52877D03*
X88803Y-49877D03*
X87803Y-49877D03*
X86803Y-49877D03*
X85803Y-49877D03*
G54D15*
X79799Y-52877D03*
G54D16*
X80799Y-52877D03*
X81799Y-52877D03*
X82799Y-52877D03*
X82799Y-49877D03*
X81799Y-49877D03*
X80799Y-49877D03*
X79799Y-49877D03*
G54D15*
X74196Y-68625D03*
G54D16*
X75196Y-68625D03*
X76196Y-68625D03*
X76196Y-65625D03*
X75196Y-65625D03*
X74196Y-65625D03*
G54D15*
X104799Y-58055D03*
G54D16*
X104799Y-59055D03*
X104799Y-60055D03*
X107799Y-60055D03*
X107799Y-59055D03*
X107799Y-58055D03*
G54D15*
X64000Y-80330D03*
G54D16*
X64000Y-79330D03*
X64000Y-78330D03*
X61000Y-78330D03*
X61000Y-79330D03*
X61000Y-80330D03*
G54D15*
X64000Y-76196D03*
G54D16*
X64000Y-75196D03*
X64000Y-74196D03*
X61000Y-74196D03*
X61000Y-75196D03*
X61000Y-76196D03*
G54D15*
X104799Y-49885D03*
G54D16*
X104799Y-50885D03*
X104799Y-51885D03*
X107799Y-51885D03*
X107799Y-50885D03*
X107799Y-49885D03*
G54D15*
X104799Y-53921D03*
G54D16*
X104799Y-54921D03*
X104799Y-55921D03*
X107799Y-55921D03*
X107799Y-54921D03*
X107799Y-53921D03*
G54D15*
X64000Y-72062D03*
G54D16*
X64000Y-71062D03*
X64000Y-70062D03*
X61000Y-70062D03*
X61000Y-71062D03*
X61000Y-72062D03*
G54D15*
X64000Y-67929D03*
G54D16*
X64000Y-66929D03*
X64000Y-65929D03*
X61000Y-65929D03*
X61000Y-66929D03*
X61000Y-67929D03*
G54D15*
X64000Y-63795D03*
G54D16*
X64000Y-62795D03*
X64000Y-61795D03*
X61000Y-61795D03*
X61000Y-62795D03*
X61000Y-63795D03*
G54D15*
X104799Y-61992D03*
G54D16*
X104799Y-62992D03*
X104799Y-63992D03*
X107799Y-63992D03*
X107799Y-62992D03*
X107799Y-61992D03*
G54D15*
X104799Y-66027D03*
G54D16*
X104799Y-67027D03*
X104799Y-68027D03*
X107799Y-68027D03*
X107799Y-67027D03*
X107799Y-66027D03*
G54D15*
X104799Y-70062D03*
G54D16*
X104799Y-71062D03*
X104799Y-72062D03*
X107799Y-72062D03*
X107799Y-71062D03*
X107799Y-70062D03*
G54D15*
X64000Y-59661D03*
G54D16*
X64000Y-58661D03*
X64000Y-57661D03*
X61000Y-57661D03*
X61000Y-58661D03*
X61000Y-59661D03*
G54D15*
X64000Y-55527D03*
G54D16*
X64000Y-54527D03*
X64000Y-53527D03*
X61000Y-53527D03*
X61000Y-54527D03*
X61000Y-55527D03*
G54D15*
X64000Y-51393D03*
G54D16*
X64000Y-50393D03*
X64000Y-49393D03*
X61000Y-49393D03*
X61000Y-50393D03*
X61000Y-51393D03*
G54D15*
X104799Y-78133D03*
G54D16*
X104799Y-79133D03*
X104799Y-80133D03*
X107799Y-80133D03*
X107799Y-79133D03*
X107799Y-78133D03*
G54D15*
X104799Y-74098D03*
G54D16*
X104799Y-75098D03*
X104799Y-76098D03*
X107799Y-76098D03*
X107799Y-75098D03*
X107799Y-74098D03*
G54D20*
X88031Y-80118D03*
X84448Y-80118D03*
X84409Y-85236D03*
X87992Y-85236D03*
X84409Y-82677D03*
X87992Y-82677D03*
X88031Y-77362D03*
X84448Y-77362D03*
X81692Y-43562D03*
X81692Y-47145D03*
X79724Y-43562D03*
X79724Y-47145D03*
G54D22*
X100984Y-84527D03*
G54D20*
X100984Y-83228D03*
G54D23*
X85866Y-62440D03*
G54D24*
X82874Y-62440D03*
X85866Y-59448D03*
X82874Y-59448D03*
G54D22*
X91929Y-84251D03*
G54D20*
X91929Y-82283D03*
G54D14*
X119291Y-84251D03*
G54D11*
X119291Y-82677D03*
G54D14*
X49606Y-84448D03*
G54D11*
X49606Y-82874D03*
G54D25*
X53661Y-84448D03*
X56318Y-84448D03*
X60098Y-84448D03*
X62755Y-84448D03*
X115236Y-84251D03*
X112578Y-84251D03*
X108799Y-84251D03*
X106141Y-84251D03*
G54D20*
X69685Y-56889D03*
X69685Y-55000D03*
X75590Y-57677D03*
X75590Y-55787D03*
X71653Y-64921D03*
X71653Y-68503D03*
G54D15*
X82145Y-68307D03*
G54D16*
X83145Y-68307D03*
X84145Y-68307D03*
X85145Y-68307D03*
X86145Y-68307D03*
X87145Y-68307D03*
G54D21*
X80314Y-66444D03*
X80314Y-65444D03*
X82480Y-66444D03*
X82480Y-65444D03*
X84645Y-66444D03*
X84645Y-65444D03*
X86811Y-66444D03*
X86811Y-65444D03*
X88976Y-66444D03*
X88976Y-65444D03*
G54D15*
X80850Y-57208D03*
G54D16*
X81850Y-57208D03*
X82850Y-57208D03*
X83850Y-57208D03*
X84850Y-57208D03*
X85850Y-57208D03*
X86850Y-57208D03*
X87850Y-57208D03*
X87850Y-54208D03*
X86850Y-54208D03*
X85850Y-54208D03*
X84850Y-54208D03*
X83850Y-54208D03*
X82850Y-54208D03*
X81850Y-54208D03*
X80850Y-54208D03*
G54D20*
X92716Y-57283D03*
X92716Y-55393D03*
X98818Y-57480D03*
X98818Y-55590D03*
G54D16*
X73940Y-61996D03*
X73940Y-60996D03*
X73940Y-59996D03*
X73940Y-58996D03*
X73940Y-57996D03*
X73940Y-56996D03*
X73940Y-55996D03*
X73940Y-54996D03*
X73940Y-53996D03*
X73940Y-52996D03*
X73940Y-51996D03*
X73940Y-50996D03*
X73940Y-49996D03*
G54D15*
X73940Y-62996D03*
G54D16*
X70940Y-49996D03*
X70940Y-50996D03*
X70940Y-51996D03*
X70940Y-52996D03*
X70940Y-53996D03*
X70940Y-54996D03*
X70940Y-55996D03*
X70940Y-56996D03*
X70940Y-57996D03*
X70940Y-58996D03*
X70940Y-59996D03*
X70940Y-60996D03*
X70940Y-61996D03*
X70940Y-62996D03*
X97366Y-61996D03*
X97366Y-60996D03*
X97366Y-59996D03*
X97366Y-58996D03*
X97366Y-57996D03*
X97366Y-56996D03*
X97366Y-55996D03*
X97366Y-54996D03*
X97366Y-53996D03*
X97366Y-52996D03*
X97366Y-51996D03*
X97366Y-50996D03*
X97366Y-49996D03*
G54D15*
X97366Y-62996D03*
G54D16*
X94366Y-49996D03*
X94366Y-50996D03*
X94366Y-51996D03*
X94366Y-52996D03*
X94366Y-53996D03*
X94366Y-54996D03*
X94366Y-55996D03*
X94366Y-56996D03*
X94366Y-57996D03*
X94366Y-58996D03*
X94366Y-59996D03*
X94366Y-60996D03*
X94366Y-61996D03*
X94366Y-62996D03*
M02*
