G04 (created by PCBNEW (2013-07-07 BZR 4022)-stable) date 9/7/2014 7:10:48 AM*
%MOIN*%
G04 Gerber Fmt 3.4, Leading zero omitted, Abs format*
%FSLAX34Y34*%
G01*
G70*
G90*
G04 APERTURE LIST*
%ADD10C,0.00590551*%
%ADD11C,0.011811*%
%ADD12C,0.00787402*%
%ADD13C,0.00984252*%
%ADD14C,0.015*%
%ADD15C,0.012*%
%ADD16C,0.005*%
%ADD17C,0.01*%
%ADD18C,0.006*%
%ADD19C,0.0001*%
%ADD20C,0.00492126*%
%ADD21C,0.008*%
%ADD22C,0.0107*%
%ADD23C,0.0035*%
%ADD24C,0.01125*%
G04 APERTURE END LIST*
G54D10*
G54D11*
X90944Y-72778D02*
X90944Y-72187D01*
X91169Y-72187D01*
X91226Y-72215D01*
X91254Y-72244D01*
X91282Y-72300D01*
X91282Y-72384D01*
X91254Y-72440D01*
X91226Y-72469D01*
X91169Y-72497D01*
X90944Y-72497D01*
X91479Y-72187D02*
X91619Y-72778D01*
X91732Y-72356D01*
X91844Y-72778D01*
X91985Y-72187D01*
X92547Y-72778D02*
X92350Y-72497D01*
X92210Y-72778D02*
X92210Y-72187D01*
X92435Y-72187D01*
X92491Y-72215D01*
X92519Y-72244D01*
X92547Y-72300D01*
X92547Y-72384D01*
X92519Y-72440D01*
X92491Y-72469D01*
X92435Y-72497D01*
X92210Y-72497D01*
G54D12*
X103543Y-86417D02*
X100787Y-86417D01*
X103543Y-81496D02*
X103543Y-86417D01*
X102165Y-81496D02*
X103543Y-81496D01*
X99606Y-71259D02*
X99606Y-81496D01*
X69291Y-71259D02*
X69291Y-85629D01*
X69488Y-71259D02*
X69291Y-71259D01*
X99606Y-71259D02*
X69488Y-71259D01*
X102165Y-81496D02*
X99606Y-81496D01*
X69291Y-86417D02*
X100787Y-86417D01*
X69291Y-85629D02*
X69291Y-86417D01*
G54D13*
X98214Y-70383D02*
X98514Y-70383D01*
X98364Y-70533D02*
X98364Y-70233D01*
X98889Y-70139D02*
X98701Y-70139D01*
X98682Y-70327D01*
X98701Y-70308D01*
X98739Y-70289D01*
X98832Y-70289D01*
X98870Y-70308D01*
X98889Y-70327D01*
X98907Y-70364D01*
X98907Y-70458D01*
X98889Y-70495D01*
X98870Y-70514D01*
X98832Y-70533D01*
X98739Y-70533D01*
X98701Y-70514D01*
X98682Y-70495D01*
X99020Y-70139D02*
X99151Y-70533D01*
X99282Y-70139D01*
X96944Y-71831D02*
X96906Y-71812D01*
X96850Y-71812D01*
X96794Y-71831D01*
X96756Y-71869D01*
X96737Y-71906D01*
X96719Y-71981D01*
X96719Y-72037D01*
X96737Y-72112D01*
X96756Y-72150D01*
X96794Y-72187D01*
X96850Y-72206D01*
X96887Y-72206D01*
X96944Y-72187D01*
X96962Y-72169D01*
X96962Y-72037D01*
X96887Y-72037D01*
X97131Y-72206D02*
X97131Y-71812D01*
X97356Y-72206D01*
X97356Y-71812D01*
X97544Y-72206D02*
X97544Y-71812D01*
X97637Y-71812D01*
X97694Y-71831D01*
X97731Y-71869D01*
X97750Y-71906D01*
X97769Y-71981D01*
X97769Y-72037D01*
X97750Y-72112D01*
X97731Y-72150D01*
X97694Y-72187D01*
X97637Y-72206D01*
X97544Y-72206D01*
G54D10*
X69881Y-72047D02*
X69881Y-71929D01*
X83149Y-71929D02*
X83149Y-72047D01*
X83149Y-85905D02*
X83149Y-85787D01*
X69881Y-85905D02*
X69881Y-85787D01*
X83149Y-82165D02*
X83149Y-72047D01*
X83149Y-71929D02*
X82362Y-71929D01*
X83149Y-82165D02*
X83149Y-85787D01*
X83149Y-85905D02*
X82322Y-85905D01*
X70551Y-85905D02*
X69881Y-85905D01*
X69881Y-85787D02*
X69881Y-72047D01*
X69881Y-71929D02*
X70551Y-71929D01*
X70551Y-85905D02*
X82362Y-85905D01*
X82362Y-71929D02*
X70551Y-71929D01*
G54D14*
X97797Y-81267D02*
X98047Y-81267D01*
X98047Y-81267D02*
X98047Y-85267D01*
X98047Y-85267D02*
X97797Y-85267D01*
X96297Y-81267D02*
X97797Y-81267D01*
X97797Y-81267D02*
X97797Y-85267D01*
X97797Y-85267D02*
X96297Y-85267D01*
X96297Y-85267D02*
X96297Y-81267D01*
X113816Y-52885D02*
X113566Y-52885D01*
X113566Y-52885D02*
X113566Y-48885D01*
X113566Y-48885D02*
X113816Y-48885D01*
X115316Y-52885D02*
X113816Y-52885D01*
X113816Y-52885D02*
X113816Y-48885D01*
X113816Y-48885D02*
X115316Y-48885D01*
X115316Y-48885D02*
X115316Y-52885D01*
X113816Y-56921D02*
X113566Y-56921D01*
X113566Y-56921D02*
X113566Y-52921D01*
X113566Y-52921D02*
X113816Y-52921D01*
X115316Y-56921D02*
X113816Y-56921D01*
X113816Y-56921D02*
X113816Y-52921D01*
X113816Y-52921D02*
X115316Y-52921D01*
X115316Y-52921D02*
X115316Y-56921D01*
X113816Y-60956D02*
X113566Y-60956D01*
X113566Y-60956D02*
X113566Y-56956D01*
X113566Y-56956D02*
X113816Y-56956D01*
X115316Y-60956D02*
X113816Y-60956D01*
X113816Y-60956D02*
X113816Y-56956D01*
X113816Y-56956D02*
X115316Y-56956D01*
X115316Y-56956D02*
X115316Y-60956D01*
X113816Y-64992D02*
X113566Y-64992D01*
X113566Y-64992D02*
X113566Y-60992D01*
X113566Y-60992D02*
X113816Y-60992D01*
X115316Y-64992D02*
X113816Y-64992D01*
X113816Y-64992D02*
X113816Y-60992D01*
X113816Y-60992D02*
X115316Y-60992D01*
X115316Y-60992D02*
X115316Y-64992D01*
X113816Y-69027D02*
X113566Y-69027D01*
X113566Y-69027D02*
X113566Y-65027D01*
X113566Y-65027D02*
X113816Y-65027D01*
X115316Y-69027D02*
X113816Y-69027D01*
X113816Y-69027D02*
X113816Y-65027D01*
X113816Y-65027D02*
X115316Y-65027D01*
X115316Y-65027D02*
X115316Y-69027D01*
X113816Y-73062D02*
X113566Y-73062D01*
X113566Y-73062D02*
X113566Y-69062D01*
X113566Y-69062D02*
X113816Y-69062D01*
X115316Y-73062D02*
X113816Y-73062D01*
X113816Y-73062D02*
X113816Y-69062D01*
X113816Y-69062D02*
X115316Y-69062D01*
X115316Y-69062D02*
X115316Y-73062D01*
X113816Y-77098D02*
X113566Y-77098D01*
X113566Y-77098D02*
X113566Y-73098D01*
X113566Y-73098D02*
X113816Y-73098D01*
X115316Y-77098D02*
X113816Y-77098D01*
X113816Y-77098D02*
X113816Y-73098D01*
X113816Y-73098D02*
X115316Y-73098D01*
X115316Y-73098D02*
X115316Y-77098D01*
X113816Y-81133D02*
X113566Y-81133D01*
X113566Y-81133D02*
X113566Y-77133D01*
X113566Y-77133D02*
X113816Y-77133D01*
X115316Y-81133D02*
X113816Y-81133D01*
X113816Y-81133D02*
X113816Y-77133D01*
X113816Y-77133D02*
X115316Y-77133D01*
X115316Y-77133D02*
X115316Y-81133D01*
X53875Y-52393D02*
X53625Y-52393D01*
X53625Y-52393D02*
X53625Y-48393D01*
X53625Y-48393D02*
X53875Y-48393D01*
X55375Y-52393D02*
X53875Y-52393D01*
X53875Y-52393D02*
X53875Y-48393D01*
X53875Y-48393D02*
X55375Y-48393D01*
X55375Y-48393D02*
X55375Y-52393D01*
X53875Y-56527D02*
X53625Y-56527D01*
X53625Y-56527D02*
X53625Y-52527D01*
X53625Y-52527D02*
X53875Y-52527D01*
X55375Y-56527D02*
X53875Y-56527D01*
X53875Y-56527D02*
X53875Y-52527D01*
X53875Y-52527D02*
X55375Y-52527D01*
X55375Y-52527D02*
X55375Y-56527D01*
X53875Y-60661D02*
X53625Y-60661D01*
X53625Y-60661D02*
X53625Y-56661D01*
X53625Y-56661D02*
X53875Y-56661D01*
X55375Y-60661D02*
X53875Y-60661D01*
X53875Y-60661D02*
X53875Y-56661D01*
X53875Y-56661D02*
X55375Y-56661D01*
X55375Y-56661D02*
X55375Y-60661D01*
X53875Y-64795D02*
X53625Y-64795D01*
X53625Y-64795D02*
X53625Y-60795D01*
X53625Y-60795D02*
X53875Y-60795D01*
X55375Y-64795D02*
X53875Y-64795D01*
X53875Y-64795D02*
X53875Y-60795D01*
X53875Y-60795D02*
X55375Y-60795D01*
X55375Y-60795D02*
X55375Y-64795D01*
X53875Y-73062D02*
X53625Y-73062D01*
X53625Y-73062D02*
X53625Y-69062D01*
X53625Y-69062D02*
X53875Y-69062D01*
X55375Y-73062D02*
X53875Y-73062D01*
X53875Y-73062D02*
X53875Y-69062D01*
X53875Y-69062D02*
X55375Y-69062D01*
X55375Y-69062D02*
X55375Y-73062D01*
X53875Y-77196D02*
X53625Y-77196D01*
X53625Y-77196D02*
X53625Y-73196D01*
X53625Y-73196D02*
X53875Y-73196D01*
X55375Y-77196D02*
X53875Y-77196D01*
X53875Y-77196D02*
X53875Y-73196D01*
X53875Y-73196D02*
X55375Y-73196D01*
X55375Y-73196D02*
X55375Y-77196D01*
X53875Y-81330D02*
X53625Y-81330D01*
X53625Y-81330D02*
X53625Y-77330D01*
X53625Y-77330D02*
X53875Y-77330D01*
X55375Y-81330D02*
X53875Y-81330D01*
X53875Y-81330D02*
X53875Y-77330D01*
X53875Y-77330D02*
X55375Y-77330D01*
X55375Y-77330D02*
X55375Y-81330D01*
X53875Y-68929D02*
X53625Y-68929D01*
X53625Y-68929D02*
X53625Y-64929D01*
X53625Y-64929D02*
X53875Y-64929D01*
X55375Y-68929D02*
X53875Y-68929D01*
X53875Y-68929D02*
X53875Y-64929D01*
X53875Y-64929D02*
X55375Y-64929D01*
X55375Y-64929D02*
X55375Y-68929D01*
G54D10*
X120964Y-73070D02*
X120984Y-69133D01*
X117618Y-69133D02*
X117618Y-73070D01*
X117618Y-73070D02*
X120964Y-73070D01*
X120964Y-69133D02*
X117618Y-69133D01*
X51279Y-52401D02*
X51299Y-48464D01*
X47933Y-48464D02*
X47933Y-52401D01*
X47933Y-52401D02*
X51279Y-52401D01*
X51279Y-48464D02*
X47933Y-48464D01*
X51279Y-56535D02*
X51299Y-52598D01*
X47933Y-52598D02*
X47933Y-56535D01*
X47933Y-56535D02*
X51279Y-56535D01*
X51279Y-52598D02*
X47933Y-52598D01*
X51279Y-60669D02*
X51299Y-56732D01*
X47933Y-56732D02*
X47933Y-60669D01*
X47933Y-60669D02*
X51279Y-60669D01*
X51279Y-56732D02*
X47933Y-56732D01*
X51279Y-64803D02*
X51299Y-60866D01*
X47933Y-60866D02*
X47933Y-64803D01*
X47933Y-64803D02*
X51279Y-64803D01*
X51279Y-60866D02*
X47933Y-60866D01*
X51279Y-68937D02*
X51299Y-65000D01*
X47933Y-65000D02*
X47933Y-68937D01*
X47933Y-68937D02*
X51279Y-68937D01*
X51279Y-65000D02*
X47933Y-65000D01*
X51279Y-73070D02*
X51299Y-69133D01*
X47933Y-69133D02*
X47933Y-73070D01*
X47933Y-73070D02*
X51279Y-73070D01*
X51279Y-69133D02*
X47933Y-69133D01*
X51279Y-77204D02*
X51299Y-73267D01*
X47933Y-73267D02*
X47933Y-77204D01*
X47933Y-77204D02*
X51279Y-77204D01*
X51279Y-73267D02*
X47933Y-73267D01*
X120964Y-81141D02*
X120984Y-77204D01*
X117618Y-77204D02*
X117618Y-81141D01*
X117618Y-81141D02*
X120964Y-81141D01*
X120964Y-77204D02*
X117618Y-77204D01*
X120964Y-77106D02*
X120984Y-73169D01*
X117618Y-73169D02*
X117618Y-77106D01*
X117618Y-77106D02*
X120964Y-77106D01*
X120964Y-73169D02*
X117618Y-73169D01*
X120964Y-69035D02*
X120984Y-65098D01*
X117618Y-65098D02*
X117618Y-69035D01*
X117618Y-69035D02*
X120964Y-69035D01*
X120964Y-65098D02*
X117618Y-65098D01*
X120964Y-65000D02*
X120984Y-61062D01*
X117618Y-61062D02*
X117618Y-65000D01*
X117618Y-65000D02*
X120964Y-65000D01*
X120964Y-61062D02*
X117618Y-61062D01*
X120964Y-60964D02*
X120984Y-57027D01*
X117618Y-57027D02*
X117618Y-60964D01*
X117618Y-60964D02*
X120964Y-60964D01*
X120964Y-57027D02*
X117618Y-57027D01*
X120964Y-56929D02*
X120984Y-52992D01*
X117618Y-52992D02*
X117618Y-56929D01*
X117618Y-56929D02*
X120964Y-56929D01*
X120964Y-52992D02*
X117618Y-52992D01*
X120964Y-52893D02*
X120984Y-48956D01*
X117618Y-48956D02*
X117618Y-52893D01*
X117618Y-52893D02*
X120964Y-52893D01*
X120964Y-48956D02*
X117618Y-48956D01*
X51279Y-81338D02*
X51299Y-77401D01*
X47933Y-77401D02*
X47933Y-81338D01*
X47933Y-81338D02*
X51279Y-81338D01*
X51279Y-77401D02*
X47933Y-77401D01*
G54D15*
X100279Y-46070D02*
X100279Y-45070D01*
X100279Y-45070D02*
X102279Y-45070D01*
X102279Y-45070D02*
X102279Y-46070D01*
X102279Y-46070D02*
X100279Y-46070D01*
G54D16*
X75637Y-40896D02*
X69637Y-40896D01*
X69637Y-40896D02*
X69637Y-47996D01*
X69637Y-47996D02*
X75637Y-47996D01*
X75637Y-47996D02*
X75637Y-40896D01*
X99062Y-40896D02*
X93062Y-40896D01*
X93062Y-40896D02*
X93062Y-47996D01*
X93062Y-47996D02*
X99062Y-47996D01*
X99062Y-47996D02*
X99062Y-40896D01*
G54D10*
X109606Y-69606D02*
X109606Y-70551D01*
X112047Y-69606D02*
X112047Y-70551D01*
X112047Y-69606D02*
X109606Y-69606D01*
X109606Y-70551D02*
X112047Y-70551D01*
X109606Y-73641D02*
X109606Y-74586D01*
X112047Y-73641D02*
X112047Y-74586D01*
X112047Y-73641D02*
X109606Y-73641D01*
X109606Y-74586D02*
X112047Y-74586D01*
X103233Y-54586D02*
X102678Y-53821D01*
X101258Y-56020D02*
X100703Y-55256D01*
X101258Y-56020D02*
X103233Y-54586D01*
X102678Y-53821D02*
X100703Y-55256D01*
X109606Y-77677D02*
X109606Y-78622D01*
X112047Y-77677D02*
X112047Y-78622D01*
X112047Y-77677D02*
X109606Y-77677D01*
X109606Y-78622D02*
X112047Y-78622D01*
X109606Y-65570D02*
X109606Y-66515D01*
X112047Y-65570D02*
X112047Y-66515D01*
X112047Y-65570D02*
X109606Y-65570D01*
X109606Y-66515D02*
X112047Y-66515D01*
X109606Y-61535D02*
X109606Y-62480D01*
X112047Y-61535D02*
X112047Y-62480D01*
X112047Y-61535D02*
X109606Y-61535D01*
X109606Y-62480D02*
X112047Y-62480D01*
X109606Y-57500D02*
X109606Y-58444D01*
X112047Y-57500D02*
X112047Y-58444D01*
X112047Y-57500D02*
X109606Y-57500D01*
X109606Y-58444D02*
X112047Y-58444D01*
X109606Y-53464D02*
X109606Y-54409D01*
X112047Y-53464D02*
X112047Y-54409D01*
X112047Y-53464D02*
X109606Y-53464D01*
X109606Y-54409D02*
X112047Y-54409D01*
X109704Y-49429D02*
X109704Y-50374D01*
X112145Y-49429D02*
X112145Y-50374D01*
X112145Y-49429D02*
X109704Y-49429D01*
X109704Y-50374D02*
X112145Y-50374D01*
X93661Y-70000D02*
X93661Y-70944D01*
X96102Y-70000D02*
X96102Y-70944D01*
X96102Y-70000D02*
X93661Y-70000D01*
X93661Y-70944D02*
X96102Y-70944D01*
X103233Y-58719D02*
X102678Y-57955D01*
X101258Y-60154D02*
X100703Y-59390D01*
X101258Y-60154D02*
X103233Y-58719D01*
X102678Y-57955D02*
X100703Y-59390D01*
X67830Y-74372D02*
X67162Y-73704D01*
X66104Y-76098D02*
X65436Y-75430D01*
X66104Y-76098D02*
X67830Y-74372D01*
X67162Y-73704D02*
X65436Y-75430D01*
X67830Y-78506D02*
X67162Y-77838D01*
X66104Y-80232D02*
X65436Y-79564D01*
X66104Y-80232D02*
X67830Y-78506D01*
X67162Y-77838D02*
X65436Y-79564D01*
X67830Y-70238D02*
X67162Y-69570D01*
X66104Y-71964D02*
X65436Y-71296D01*
X66104Y-71964D02*
X67830Y-70238D01*
X67162Y-69570D02*
X65436Y-71296D01*
X67830Y-66104D02*
X67162Y-65436D01*
X66104Y-67830D02*
X65436Y-67162D01*
X66104Y-67830D02*
X67830Y-66104D01*
X67162Y-65436D02*
X65436Y-67162D01*
X67830Y-61971D02*
X67162Y-61302D01*
X66104Y-63697D02*
X65436Y-63028D01*
X66104Y-63697D02*
X67830Y-61971D01*
X67162Y-61302D02*
X65436Y-63028D01*
X67830Y-57837D02*
X67162Y-57169D01*
X66104Y-59563D02*
X65436Y-58895D01*
X66104Y-59563D02*
X67830Y-57837D01*
X67162Y-57169D02*
X65436Y-58895D01*
X67830Y-53703D02*
X67162Y-53035D01*
X66104Y-55429D02*
X65436Y-54761D01*
X66104Y-55429D02*
X67830Y-53703D01*
X67162Y-53035D02*
X65436Y-54761D01*
X67830Y-49569D02*
X67162Y-48901D01*
X66104Y-51295D02*
X65436Y-50627D01*
X66104Y-51295D02*
X67830Y-49569D01*
X67162Y-48901D02*
X65436Y-50627D01*
X103233Y-62656D02*
X102678Y-61892D01*
X101258Y-64091D02*
X100703Y-63327D01*
X101258Y-64091D02*
X103233Y-62656D01*
X102678Y-61892D02*
X100703Y-63327D01*
X103233Y-66790D02*
X102678Y-66026D01*
X101258Y-68225D02*
X100703Y-67461D01*
X101258Y-68225D02*
X103233Y-66790D01*
X102678Y-66026D02*
X100703Y-67461D01*
X59291Y-58149D02*
X59291Y-57204D01*
X56850Y-58149D02*
X56850Y-57204D01*
X56850Y-58149D02*
X59291Y-58149D01*
X59291Y-57204D02*
X56850Y-57204D01*
X104114Y-44350D02*
X103169Y-44350D01*
X104114Y-46791D02*
X103169Y-46791D01*
X104114Y-46791D02*
X104114Y-44350D01*
X103169Y-44350D02*
X103169Y-46791D01*
X83090Y-46594D02*
X84035Y-46594D01*
X83090Y-44153D02*
X84035Y-44153D01*
X83090Y-44153D02*
X83090Y-46594D01*
X84035Y-46594D02*
X84035Y-44153D01*
X86102Y-44055D02*
X85157Y-44055D01*
X86102Y-46496D02*
X85157Y-46496D01*
X86102Y-46496D02*
X86102Y-44055D01*
X85157Y-44055D02*
X85157Y-46496D01*
X89232Y-46279D02*
X89232Y-47224D01*
X91673Y-46279D02*
X91673Y-47224D01*
X91673Y-46279D02*
X89232Y-46279D01*
X89232Y-47224D02*
X91673Y-47224D01*
X91673Y-48799D02*
X91673Y-47854D01*
X89232Y-48799D02*
X89232Y-47854D01*
X89232Y-48799D02*
X91673Y-48799D01*
X91673Y-47854D02*
X89232Y-47854D01*
X103233Y-70826D02*
X102678Y-70061D01*
X101258Y-72261D02*
X100703Y-71496D01*
X101258Y-72261D02*
X103233Y-70826D01*
X102678Y-70061D02*
X100703Y-71496D01*
X103233Y-74861D02*
X102678Y-74097D01*
X101258Y-76296D02*
X100703Y-75532D01*
X101258Y-76296D02*
X103233Y-74861D01*
X102678Y-74097D02*
X100703Y-75532D01*
X59291Y-49881D02*
X59291Y-48937D01*
X56850Y-49881D02*
X56850Y-48937D01*
X56850Y-49881D02*
X59291Y-49881D01*
X59291Y-48937D02*
X56850Y-48937D01*
X59291Y-54015D02*
X59291Y-53070D01*
X56850Y-54015D02*
X56850Y-53070D01*
X56850Y-54015D02*
X59291Y-54015D01*
X59291Y-53070D02*
X56850Y-53070D01*
X103233Y-50747D02*
X102678Y-49983D01*
X101258Y-52182D02*
X100703Y-51417D01*
X101258Y-52182D02*
X103233Y-50747D01*
X102678Y-49983D02*
X100703Y-51417D01*
X59291Y-62283D02*
X59291Y-61338D01*
X56850Y-62283D02*
X56850Y-61338D01*
X56850Y-62283D02*
X59291Y-62283D01*
X59291Y-61338D02*
X56850Y-61338D01*
X59291Y-66417D02*
X59291Y-65472D01*
X56850Y-66417D02*
X56850Y-65472D01*
X56850Y-66417D02*
X59291Y-66417D01*
X59291Y-65472D02*
X56850Y-65472D01*
X59291Y-70551D02*
X59291Y-69606D01*
X56850Y-70551D02*
X56850Y-69606D01*
X56850Y-70551D02*
X59291Y-70551D01*
X59291Y-69606D02*
X56850Y-69606D01*
X59291Y-74685D02*
X59291Y-73740D01*
X56850Y-74685D02*
X56850Y-73740D01*
X56850Y-74685D02*
X59291Y-74685D01*
X59291Y-73740D02*
X56850Y-73740D01*
X59291Y-78818D02*
X59291Y-77874D01*
X56850Y-78818D02*
X56850Y-77874D01*
X56850Y-78818D02*
X59291Y-78818D01*
X59291Y-77874D02*
X56850Y-77874D01*
X73661Y-70551D02*
X73661Y-69606D01*
X71220Y-70551D02*
X71220Y-69606D01*
X71220Y-70551D02*
X73661Y-70551D01*
X73661Y-69606D02*
X71220Y-69606D01*
X75748Y-69606D02*
X75748Y-70551D01*
X78188Y-69606D02*
X78188Y-70551D01*
X78188Y-69606D02*
X75748Y-69606D01*
X75748Y-70551D02*
X78188Y-70551D01*
X103233Y-78897D02*
X102678Y-78132D01*
X101258Y-80331D02*
X100703Y-79567D01*
X101258Y-80331D02*
X103233Y-78897D01*
X102678Y-78132D02*
X100703Y-79567D01*
G54D17*
X94420Y-72940D02*
X94420Y-71940D01*
G54D18*
X93339Y-72056D02*
G75*
G03X93200Y-72440I460J-384D01*
G74*
G01*
X93201Y-72440D02*
G75*
G03X93352Y-72838I599J0D01*
G74*
G01*
X94400Y-72440D02*
G75*
G03X94255Y-72050I-599J0D01*
G74*
G01*
X94261Y-72825D02*
G75*
G03X94400Y-72440I-460J384D01*
G74*
G01*
X94288Y-72091D02*
G75*
G03X93800Y-71840I-487J-349D01*
G74*
G01*
X93800Y-71840D02*
G75*
G03X93320Y-72080I0J-600D01*
G74*
G01*
X93800Y-73040D02*
G75*
G03X94273Y-72809I0J599D01*
G74*
G01*
X93327Y-72809D02*
G75*
G03X93800Y-73040I473J368D01*
G74*
G01*
X93800Y-72190D02*
G75*
G03X93550Y-72440I0J-250D01*
G74*
G01*
X93800Y-72040D02*
G75*
G03X93400Y-72440I0J-400D01*
G74*
G01*
X93800Y-72690D02*
G75*
G03X94050Y-72440I0J250D01*
G74*
G01*
X93800Y-72840D02*
G75*
G03X94200Y-72440I0J400D01*
G74*
G01*
G54D17*
X94414Y-71927D02*
G75*
G03X93800Y-71640I-613J-513D01*
G74*
G01*
X93800Y-71641D02*
G75*
G03X93095Y-72064I0J-799D01*
G74*
G01*
X93802Y-73239D02*
G75*
G03X94411Y-72956I-1J798D01*
G74*
G01*
X93106Y-72838D02*
G75*
G03X93800Y-73240I694J397D01*
G74*
G01*
X93096Y-72061D02*
G75*
G03X93000Y-72440I704J-379D01*
G74*
G01*
X93001Y-72440D02*
G75*
G03X93119Y-72859I799J0D01*
G74*
G01*
X85303Y-50877D02*
X85803Y-50877D01*
X85803Y-50877D02*
X85803Y-51877D01*
X85803Y-51877D02*
X85303Y-51877D01*
X85303Y-50377D02*
X89303Y-50377D01*
X89303Y-50377D02*
X89303Y-52377D01*
X89303Y-52377D02*
X85303Y-52377D01*
X85303Y-52377D02*
X85303Y-50377D01*
X79299Y-50877D02*
X79799Y-50877D01*
X79799Y-50877D02*
X79799Y-51877D01*
X79799Y-51877D02*
X79299Y-51877D01*
X79299Y-50377D02*
X83299Y-50377D01*
X83299Y-50377D02*
X83299Y-52377D01*
X83299Y-52377D02*
X79299Y-52377D01*
X79299Y-52377D02*
X79299Y-50377D01*
G54D14*
X73446Y-66125D02*
X76946Y-66125D01*
X76946Y-66125D02*
X76946Y-68125D01*
X76946Y-68125D02*
X73446Y-68125D01*
X73446Y-68125D02*
X73446Y-66125D01*
X73446Y-66875D02*
X73946Y-66875D01*
X73946Y-66875D02*
X73946Y-67375D01*
X73946Y-67375D02*
X73446Y-67375D01*
X107299Y-57305D02*
X107299Y-60805D01*
X107299Y-60805D02*
X105299Y-60805D01*
X105299Y-60805D02*
X105299Y-57305D01*
X105299Y-57305D02*
X107299Y-57305D01*
X106549Y-57305D02*
X106549Y-57805D01*
X106549Y-57805D02*
X106049Y-57805D01*
X106049Y-57805D02*
X106049Y-57305D01*
X61500Y-81080D02*
X61500Y-77580D01*
X61500Y-77580D02*
X63500Y-77580D01*
X63500Y-77580D02*
X63500Y-81080D01*
X63500Y-81080D02*
X61500Y-81080D01*
X62250Y-81080D02*
X62250Y-80580D01*
X62250Y-80580D02*
X62750Y-80580D01*
X62750Y-80580D02*
X62750Y-81080D01*
X61500Y-76946D02*
X61500Y-73446D01*
X61500Y-73446D02*
X63500Y-73446D01*
X63500Y-73446D02*
X63500Y-76946D01*
X63500Y-76946D02*
X61500Y-76946D01*
X62250Y-76946D02*
X62250Y-76446D01*
X62250Y-76446D02*
X62750Y-76446D01*
X62750Y-76446D02*
X62750Y-76946D01*
X107299Y-49135D02*
X107299Y-52635D01*
X107299Y-52635D02*
X105299Y-52635D01*
X105299Y-52635D02*
X105299Y-49135D01*
X105299Y-49135D02*
X107299Y-49135D01*
X106549Y-49135D02*
X106549Y-49635D01*
X106549Y-49635D02*
X106049Y-49635D01*
X106049Y-49635D02*
X106049Y-49135D01*
X107299Y-53171D02*
X107299Y-56671D01*
X107299Y-56671D02*
X105299Y-56671D01*
X105299Y-56671D02*
X105299Y-53171D01*
X105299Y-53171D02*
X107299Y-53171D01*
X106549Y-53171D02*
X106549Y-53671D01*
X106549Y-53671D02*
X106049Y-53671D01*
X106049Y-53671D02*
X106049Y-53171D01*
X61500Y-72812D02*
X61500Y-69312D01*
X61500Y-69312D02*
X63500Y-69312D01*
X63500Y-69312D02*
X63500Y-72812D01*
X63500Y-72812D02*
X61500Y-72812D01*
X62250Y-72812D02*
X62250Y-72312D01*
X62250Y-72312D02*
X62750Y-72312D01*
X62750Y-72312D02*
X62750Y-72812D01*
X61500Y-68679D02*
X61500Y-65179D01*
X61500Y-65179D02*
X63500Y-65179D01*
X63500Y-65179D02*
X63500Y-68679D01*
X63500Y-68679D02*
X61500Y-68679D01*
X62250Y-68679D02*
X62250Y-68179D01*
X62250Y-68179D02*
X62750Y-68179D01*
X62750Y-68179D02*
X62750Y-68679D01*
X61500Y-64545D02*
X61500Y-61045D01*
X61500Y-61045D02*
X63500Y-61045D01*
X63500Y-61045D02*
X63500Y-64545D01*
X63500Y-64545D02*
X61500Y-64545D01*
X62250Y-64545D02*
X62250Y-64045D01*
X62250Y-64045D02*
X62750Y-64045D01*
X62750Y-64045D02*
X62750Y-64545D01*
X107299Y-61242D02*
X107299Y-64742D01*
X107299Y-64742D02*
X105299Y-64742D01*
X105299Y-64742D02*
X105299Y-61242D01*
X105299Y-61242D02*
X107299Y-61242D01*
X106549Y-61242D02*
X106549Y-61742D01*
X106549Y-61742D02*
X106049Y-61742D01*
X106049Y-61742D02*
X106049Y-61242D01*
X107299Y-65277D02*
X107299Y-68777D01*
X107299Y-68777D02*
X105299Y-68777D01*
X105299Y-68777D02*
X105299Y-65277D01*
X105299Y-65277D02*
X107299Y-65277D01*
X106549Y-65277D02*
X106549Y-65777D01*
X106549Y-65777D02*
X106049Y-65777D01*
X106049Y-65777D02*
X106049Y-65277D01*
X107299Y-69312D02*
X107299Y-72812D01*
X107299Y-72812D02*
X105299Y-72812D01*
X105299Y-72812D02*
X105299Y-69312D01*
X105299Y-69312D02*
X107299Y-69312D01*
X106549Y-69312D02*
X106549Y-69812D01*
X106549Y-69812D02*
X106049Y-69812D01*
X106049Y-69812D02*
X106049Y-69312D01*
X61500Y-60411D02*
X61500Y-56911D01*
X61500Y-56911D02*
X63500Y-56911D01*
X63500Y-56911D02*
X63500Y-60411D01*
X63500Y-60411D02*
X61500Y-60411D01*
X62250Y-60411D02*
X62250Y-59911D01*
X62250Y-59911D02*
X62750Y-59911D01*
X62750Y-59911D02*
X62750Y-60411D01*
X61500Y-56277D02*
X61500Y-52777D01*
X61500Y-52777D02*
X63500Y-52777D01*
X63500Y-52777D02*
X63500Y-56277D01*
X63500Y-56277D02*
X61500Y-56277D01*
X62250Y-56277D02*
X62250Y-55777D01*
X62250Y-55777D02*
X62750Y-55777D01*
X62750Y-55777D02*
X62750Y-56277D01*
X61500Y-52143D02*
X61500Y-48643D01*
X61500Y-48643D02*
X63500Y-48643D01*
X63500Y-48643D02*
X63500Y-52143D01*
X63500Y-52143D02*
X61500Y-52143D01*
X62250Y-52143D02*
X62250Y-51643D01*
X62250Y-51643D02*
X62750Y-51643D01*
X62750Y-51643D02*
X62750Y-52143D01*
X107299Y-77383D02*
X107299Y-80883D01*
X107299Y-80883D02*
X105299Y-80883D01*
X105299Y-80883D02*
X105299Y-77383D01*
X105299Y-77383D02*
X107299Y-77383D01*
X106549Y-77383D02*
X106549Y-77883D01*
X106549Y-77883D02*
X106049Y-77883D01*
X106049Y-77883D02*
X106049Y-77383D01*
X107299Y-73348D02*
X107299Y-76848D01*
X107299Y-76848D02*
X105299Y-76848D01*
X105299Y-76848D02*
X105299Y-73348D01*
X105299Y-73348D02*
X107299Y-73348D01*
X106549Y-73348D02*
X106549Y-73848D01*
X106549Y-73848D02*
X106049Y-73848D01*
X106049Y-73848D02*
X106049Y-73348D01*
G54D10*
X85000Y-79645D02*
X85000Y-80590D01*
X87440Y-79645D02*
X87440Y-80590D01*
X87440Y-79645D02*
X85000Y-79645D01*
X85000Y-80590D02*
X87440Y-80590D01*
X87440Y-85708D02*
X87440Y-84763D01*
X85000Y-85708D02*
X85000Y-84763D01*
X85000Y-85708D02*
X87440Y-85708D01*
X87440Y-84763D02*
X85000Y-84763D01*
X87440Y-83149D02*
X87440Y-82204D01*
X85000Y-83149D02*
X85000Y-82204D01*
X85000Y-83149D02*
X87440Y-83149D01*
X87440Y-82204D02*
X85000Y-82204D01*
X85000Y-76889D02*
X85000Y-77834D01*
X87440Y-76889D02*
X87440Y-77834D01*
X87440Y-76889D02*
X85000Y-76889D01*
X85000Y-77834D02*
X87440Y-77834D01*
X81220Y-46594D02*
X82165Y-46594D01*
X81220Y-44153D02*
X82165Y-44153D01*
X81220Y-44153D02*
X81220Y-46594D01*
X82165Y-46594D02*
X82165Y-44153D01*
X79251Y-46594D02*
X80196Y-46594D01*
X79251Y-44153D02*
X80196Y-44153D01*
X79251Y-44153D02*
X79251Y-46594D01*
X80196Y-46594D02*
X80196Y-44153D01*
X102007Y-82794D02*
G75*
G03X99920Y-82835I-1023J-1063D01*
G74*
G01*
X102474Y-83937D02*
G75*
G03X102474Y-83937I-1490J0D01*
G74*
G01*
X86830Y-59468D02*
X86830Y-63484D01*
X82854Y-58484D02*
X85944Y-58484D01*
X81811Y-59488D02*
X81811Y-62480D01*
X86811Y-63484D02*
X82795Y-63484D01*
X81811Y-62460D02*
G75*
G03X82834Y-63484I1023J0D01*
G74*
G01*
X82854Y-58484D02*
G75*
G03X81811Y-59488I-19J-1023D01*
G74*
G01*
X86830Y-59487D02*
G75*
G03X85904Y-58484I-964J38D01*
G74*
G01*
X93740Y-81378D02*
G75*
G03X90039Y-81456I-1811J-1889D01*
G74*
G01*
X94488Y-83267D02*
G75*
G03X94488Y-83267I-2559J0D01*
G74*
G01*
X120964Y-85472D02*
X120984Y-81535D01*
X117618Y-81535D02*
X117618Y-85472D01*
X117618Y-85472D02*
X120964Y-85472D01*
X120964Y-81535D02*
X117618Y-81535D01*
X51279Y-85669D02*
X51299Y-81732D01*
X47933Y-81732D02*
X47933Y-85669D01*
X47933Y-85669D02*
X51279Y-85669D01*
X51279Y-81732D02*
X47933Y-81732D01*
X53641Y-85334D02*
X53641Y-85728D01*
X53641Y-85728D02*
X62795Y-85728D01*
X62795Y-85728D02*
X62795Y-85334D01*
X53641Y-83169D02*
X62795Y-83169D01*
X62795Y-83169D02*
X62795Y-83562D01*
X53641Y-83169D02*
X53641Y-83562D01*
X115255Y-83366D02*
X115255Y-82972D01*
X115255Y-82972D02*
X106102Y-82972D01*
X106102Y-82972D02*
X106102Y-83366D01*
X115255Y-85531D02*
X106102Y-85531D01*
X106102Y-85531D02*
X106102Y-85137D01*
X115255Y-85531D02*
X115255Y-85137D01*
X69055Y-57559D02*
G75*
G03X70276Y-57597I629J591D01*
G74*
G01*
X70314Y-54409D02*
G75*
G03X69055Y-54409I-629J-629D01*
G74*
G01*
X74961Y-58346D02*
G75*
G03X76181Y-58385I629J591D01*
G74*
G01*
X76220Y-55196D02*
G75*
G03X74960Y-55196I-629J-629D01*
G74*
G01*
X71181Y-67952D02*
X72125Y-67952D01*
X71181Y-65511D02*
X72125Y-65511D01*
X71181Y-65511D02*
X71181Y-67952D01*
X72125Y-67952D02*
X72125Y-65511D01*
G54D13*
X87645Y-67807D02*
X81645Y-67807D01*
X81645Y-67807D02*
X81645Y-68807D01*
X81645Y-68807D02*
X87645Y-68807D01*
X87645Y-67807D02*
X87645Y-68807D01*
G54D15*
X81645Y-68807D02*
X81645Y-67807D01*
X82645Y-67807D02*
X82645Y-68807D01*
G54D17*
X80814Y-65224D02*
X79814Y-65224D01*
G54D18*
X79930Y-66305D02*
G75*
G03X80314Y-66444I384J460D01*
G74*
G01*
X80314Y-66444D02*
G75*
G03X80712Y-66293I0J599D01*
G74*
G01*
X80314Y-65245D02*
G75*
G03X79924Y-65389I0J-599D01*
G74*
G01*
X80699Y-65383D02*
G75*
G03X80314Y-65244I-384J-460D01*
G74*
G01*
X79965Y-65357D02*
G75*
G03X79714Y-65844I349J-487D01*
G74*
G01*
X79714Y-65844D02*
G75*
G03X79954Y-66324I600J0D01*
G74*
G01*
X80914Y-65844D02*
G75*
G03X80683Y-65371I-599J0D01*
G74*
G01*
X80683Y-66318D02*
G75*
G03X80914Y-65844I-368J473D01*
G74*
G01*
X80064Y-65844D02*
G75*
G03X80314Y-66094I250J0D01*
G74*
G01*
X79914Y-65844D02*
G75*
G03X80314Y-66244I400J0D01*
G74*
G01*
X80564Y-65844D02*
G75*
G03X80314Y-65594I-250J0D01*
G74*
G01*
X80714Y-65844D02*
G75*
G03X80314Y-65444I-400J0D01*
G74*
G01*
G54D17*
X79801Y-65231D02*
G75*
G03X79514Y-65844I513J-613D01*
G74*
G01*
X79515Y-65844D02*
G75*
G03X79938Y-66549I799J0D01*
G74*
G01*
X81113Y-65843D02*
G75*
G03X80830Y-65234I-798J-1D01*
G74*
G01*
X80712Y-66539D02*
G75*
G03X81114Y-65844I-397J694D01*
G74*
G01*
X79935Y-66549D02*
G75*
G03X80314Y-66644I379J704D01*
G74*
G01*
X80314Y-66644D02*
G75*
G03X80733Y-66525I0J799D01*
G74*
G01*
X82980Y-65224D02*
X81980Y-65224D01*
G54D18*
X82096Y-66305D02*
G75*
G03X82480Y-66444I384J460D01*
G74*
G01*
X82480Y-66444D02*
G75*
G03X82878Y-66293I0J599D01*
G74*
G01*
X82480Y-65245D02*
G75*
G03X82090Y-65389I0J-599D01*
G74*
G01*
X82864Y-65383D02*
G75*
G03X82480Y-65244I-384J-460D01*
G74*
G01*
X82131Y-65357D02*
G75*
G03X81880Y-65844I349J-487D01*
G74*
G01*
X81880Y-65844D02*
G75*
G03X82120Y-66324I600J0D01*
G74*
G01*
X83079Y-65844D02*
G75*
G03X82848Y-65371I-599J0D01*
G74*
G01*
X82848Y-66318D02*
G75*
G03X83080Y-65844I-368J473D01*
G74*
G01*
X82230Y-65844D02*
G75*
G03X82480Y-66094I250J0D01*
G74*
G01*
X82080Y-65844D02*
G75*
G03X82480Y-66244I400J0D01*
G74*
G01*
X82730Y-65844D02*
G75*
G03X82480Y-65594I-250J0D01*
G74*
G01*
X82880Y-65844D02*
G75*
G03X82480Y-65444I-400J0D01*
G74*
G01*
G54D17*
X81967Y-65231D02*
G75*
G03X81680Y-65844I513J-613D01*
G74*
G01*
X81681Y-65844D02*
G75*
G03X82103Y-66549I799J0D01*
G74*
G01*
X83279Y-65843D02*
G75*
G03X82996Y-65234I-798J-1D01*
G74*
G01*
X82877Y-66539D02*
G75*
G03X83280Y-65844I-397J694D01*
G74*
G01*
X82101Y-66549D02*
G75*
G03X82480Y-66644I379J704D01*
G74*
G01*
X82480Y-66644D02*
G75*
G03X82899Y-66525I0J799D01*
G74*
G01*
X85145Y-65224D02*
X84145Y-65224D01*
G54D18*
X84261Y-66305D02*
G75*
G03X84645Y-66444I384J460D01*
G74*
G01*
X84645Y-66444D02*
G75*
G03X85043Y-66293I0J599D01*
G74*
G01*
X84645Y-65245D02*
G75*
G03X84255Y-65389I0J-599D01*
G74*
G01*
X85029Y-65383D02*
G75*
G03X84645Y-65244I-384J-460D01*
G74*
G01*
X84296Y-65357D02*
G75*
G03X84045Y-65844I349J-487D01*
G74*
G01*
X84045Y-65844D02*
G75*
G03X84285Y-66324I600J0D01*
G74*
G01*
X85244Y-65844D02*
G75*
G03X85013Y-65371I-599J0D01*
G74*
G01*
X85014Y-66318D02*
G75*
G03X85245Y-65844I-368J473D01*
G74*
G01*
X84395Y-65844D02*
G75*
G03X84645Y-66094I250J0D01*
G74*
G01*
X84245Y-65844D02*
G75*
G03X84645Y-66244I400J0D01*
G74*
G01*
X84895Y-65844D02*
G75*
G03X84645Y-65594I-250J0D01*
G74*
G01*
X85045Y-65844D02*
G75*
G03X84645Y-65444I-400J0D01*
G74*
G01*
G54D17*
X84132Y-65231D02*
G75*
G03X83845Y-65844I513J-613D01*
G74*
G01*
X83846Y-65844D02*
G75*
G03X84269Y-66549I799J0D01*
G74*
G01*
X85444Y-65843D02*
G75*
G03X85161Y-65234I-798J-1D01*
G74*
G01*
X85043Y-66539D02*
G75*
G03X85445Y-65844I-397J694D01*
G74*
G01*
X84266Y-66549D02*
G75*
G03X84645Y-66644I379J704D01*
G74*
G01*
X84645Y-66644D02*
G75*
G03X85064Y-66525I0J799D01*
G74*
G01*
X87311Y-65224D02*
X86311Y-65224D01*
G54D18*
X86426Y-66305D02*
G75*
G03X86811Y-66444I384J460D01*
G74*
G01*
X86811Y-66444D02*
G75*
G03X87208Y-66293I0J599D01*
G74*
G01*
X86811Y-65245D02*
G75*
G03X86421Y-65389I0J-599D01*
G74*
G01*
X87195Y-65383D02*
G75*
G03X86811Y-65244I-384J-460D01*
G74*
G01*
X86461Y-65357D02*
G75*
G03X86211Y-65844I349J-487D01*
G74*
G01*
X86211Y-65844D02*
G75*
G03X86450Y-66324I600J0D01*
G74*
G01*
X87410Y-65844D02*
G75*
G03X87179Y-65371I-599J0D01*
G74*
G01*
X87179Y-66318D02*
G75*
G03X87411Y-65844I-368J473D01*
G74*
G01*
X86561Y-65844D02*
G75*
G03X86811Y-66094I250J0D01*
G74*
G01*
X86411Y-65844D02*
G75*
G03X86811Y-66244I400J0D01*
G74*
G01*
X87061Y-65844D02*
G75*
G03X86811Y-65594I-250J0D01*
G74*
G01*
X87211Y-65844D02*
G75*
G03X86811Y-65444I-400J0D01*
G74*
G01*
G54D17*
X86297Y-65231D02*
G75*
G03X86011Y-65844I513J-613D01*
G74*
G01*
X86012Y-65844D02*
G75*
G03X86434Y-66549I799J0D01*
G74*
G01*
X87609Y-65843D02*
G75*
G03X87326Y-65234I-798J-1D01*
G74*
G01*
X87208Y-66539D02*
G75*
G03X87611Y-65844I-397J694D01*
G74*
G01*
X86431Y-66549D02*
G75*
G03X86811Y-66644I379J704D01*
G74*
G01*
X86811Y-66644D02*
G75*
G03X87229Y-66525I0J799D01*
G74*
G01*
X89476Y-65224D02*
X88476Y-65224D01*
G54D18*
X88592Y-66305D02*
G75*
G03X88976Y-66444I384J460D01*
G74*
G01*
X88976Y-66444D02*
G75*
G03X89374Y-66293I0J599D01*
G74*
G01*
X88976Y-65245D02*
G75*
G03X88586Y-65389I0J-599D01*
G74*
G01*
X89360Y-65383D02*
G75*
G03X88976Y-65244I-384J-460D01*
G74*
G01*
X88627Y-65357D02*
G75*
G03X88376Y-65844I349J-487D01*
G74*
G01*
X88376Y-65844D02*
G75*
G03X88616Y-66324I600J0D01*
G74*
G01*
X89575Y-65844D02*
G75*
G03X89344Y-65371I-599J0D01*
G74*
G01*
X89344Y-66318D02*
G75*
G03X89576Y-65844I-368J473D01*
G74*
G01*
X88726Y-65844D02*
G75*
G03X88976Y-66094I250J0D01*
G74*
G01*
X88576Y-65844D02*
G75*
G03X88976Y-66244I400J0D01*
G74*
G01*
X89226Y-65844D02*
G75*
G03X88976Y-65594I-250J0D01*
G74*
G01*
X89376Y-65844D02*
G75*
G03X88976Y-65444I-400J0D01*
G74*
G01*
G54D17*
X88463Y-65231D02*
G75*
G03X88176Y-65844I513J-613D01*
G74*
G01*
X88177Y-65844D02*
G75*
G03X88600Y-66549I799J0D01*
G74*
G01*
X89775Y-65843D02*
G75*
G03X89492Y-65234I-798J-1D01*
G74*
G01*
X89373Y-66539D02*
G75*
G03X89776Y-65844I-397J694D01*
G74*
G01*
X88597Y-66549D02*
G75*
G03X88976Y-66644I379J704D01*
G74*
G01*
X88976Y-66644D02*
G75*
G03X89395Y-66525I0J799D01*
G74*
G01*
G54D14*
X79850Y-55208D02*
X79850Y-55208D01*
X79850Y-55208D02*
X80350Y-55208D01*
X80350Y-55208D02*
X80350Y-56208D01*
X80350Y-56208D02*
X79850Y-56208D01*
X79850Y-54708D02*
X88850Y-54708D01*
X88850Y-54708D02*
X88850Y-56708D01*
X88850Y-56708D02*
X79850Y-56708D01*
X79850Y-56708D02*
X79850Y-54708D01*
G54D10*
X92087Y-57953D02*
G75*
G03X93307Y-57991I629J591D01*
G74*
G01*
X93346Y-54803D02*
G75*
G03X92086Y-54803I-629J-629D01*
G74*
G01*
X98189Y-58150D02*
G75*
G03X99409Y-58188I629J591D01*
G74*
G01*
X99448Y-55000D02*
G75*
G03X98188Y-55000I-629J-629D01*
G74*
G01*
G54D14*
X71440Y-63996D02*
X71440Y-48996D01*
X71440Y-48996D02*
X73440Y-48996D01*
X73440Y-48996D02*
X73440Y-63996D01*
X73440Y-63996D02*
X71440Y-63996D01*
X71940Y-63996D02*
X71940Y-63496D01*
X71940Y-63496D02*
X72940Y-63496D01*
X72940Y-63496D02*
X72940Y-63996D01*
X94866Y-63996D02*
X94866Y-48996D01*
X94866Y-48996D02*
X96866Y-48996D01*
X96866Y-48996D02*
X96866Y-63996D01*
X96866Y-63996D02*
X94866Y-63996D01*
X95366Y-63996D02*
X95366Y-63496D01*
X95366Y-63496D02*
X96366Y-63496D01*
X96366Y-63496D02*
X96366Y-63996D01*
G54D19*
G36*
X97140Y-79548D02*
X97101Y-79544D01*
X97006Y-79526D01*
X96861Y-79495D01*
X96675Y-79452D01*
X96455Y-79399D01*
X96208Y-79339D01*
X95994Y-79286D01*
X95732Y-79220D01*
X95490Y-79160D01*
X95276Y-79107D01*
X95098Y-79063D01*
X94963Y-79030D01*
X94879Y-79010D01*
X94854Y-79005D01*
X94846Y-79036D01*
X94839Y-79124D01*
X94834Y-79256D01*
X94830Y-79424D01*
X94829Y-79588D01*
X94829Y-80171D01*
X93979Y-80171D01*
X93129Y-80171D01*
X93129Y-79593D01*
X93128Y-79404D01*
X93126Y-79238D01*
X93122Y-79108D01*
X93117Y-79024D01*
X93112Y-78998D01*
X93077Y-79003D01*
X92986Y-79023D01*
X92846Y-79058D01*
X92666Y-79105D01*
X92453Y-79163D01*
X92216Y-79228D01*
X92104Y-79260D01*
X91854Y-79330D01*
X91623Y-79395D01*
X91418Y-79452D01*
X91248Y-79500D01*
X91122Y-79535D01*
X91047Y-79555D01*
X91034Y-79559D01*
X91025Y-79549D01*
X91045Y-79506D01*
X91097Y-79425D01*
X91183Y-79305D01*
X91305Y-79143D01*
X91466Y-78935D01*
X91666Y-78679D01*
X91693Y-78645D01*
X91863Y-78429D01*
X92019Y-78230D01*
X92156Y-78054D01*
X92271Y-77907D01*
X92357Y-77795D01*
X92412Y-77723D01*
X92429Y-77698D01*
X92398Y-77697D01*
X92311Y-77702D01*
X92178Y-77712D01*
X92011Y-77727D01*
X91838Y-77743D01*
X91648Y-77761D01*
X91481Y-77775D01*
X91350Y-77785D01*
X91264Y-77789D01*
X91236Y-77788D01*
X91253Y-77760D01*
X91307Y-77687D01*
X91393Y-77574D01*
X91507Y-77428D01*
X91643Y-77255D01*
X91797Y-77061D01*
X91896Y-76938D01*
X92058Y-76734D01*
X92206Y-76548D01*
X92334Y-76385D01*
X92437Y-76251D01*
X92511Y-76154D01*
X92551Y-76098D01*
X92556Y-76087D01*
X92521Y-76086D01*
X92432Y-76094D01*
X92305Y-76108D01*
X92153Y-76128D01*
X91998Y-76147D01*
X91870Y-76160D01*
X91780Y-76165D01*
X91743Y-76162D01*
X91758Y-76133D01*
X91807Y-76055D01*
X91886Y-75935D01*
X91991Y-75779D01*
X92117Y-75594D01*
X92260Y-75385D01*
X92415Y-75159D01*
X92579Y-74922D01*
X92747Y-74680D01*
X92915Y-74439D01*
X93078Y-74206D01*
X93232Y-73987D01*
X93373Y-73788D01*
X93497Y-73615D01*
X93598Y-73474D01*
X93674Y-73372D01*
X93719Y-73315D01*
X93730Y-73304D01*
X93753Y-73330D01*
X93812Y-73403D01*
X93903Y-73519D01*
X94022Y-73670D01*
X94163Y-73853D01*
X94324Y-74062D01*
X94500Y-74290D01*
X94686Y-74533D01*
X94878Y-74785D01*
X95073Y-75040D01*
X95266Y-75292D01*
X95452Y-75537D01*
X95628Y-75769D01*
X95788Y-75982D01*
X95930Y-76170D01*
X96049Y-76329D01*
X96140Y-76452D01*
X96200Y-76534D01*
X96223Y-76569D01*
X96197Y-76570D01*
X96119Y-76552D01*
X95998Y-76518D01*
X95845Y-76470D01*
X95745Y-76437D01*
X95581Y-76384D01*
X95444Y-76343D01*
X95344Y-76317D01*
X95292Y-76309D01*
X95287Y-76314D01*
X95356Y-76406D01*
X95451Y-76534D01*
X95567Y-76691D01*
X95698Y-76869D01*
X95839Y-77062D01*
X95985Y-77262D01*
X96130Y-77461D01*
X96270Y-77653D01*
X96398Y-77830D01*
X96510Y-77985D01*
X96600Y-78110D01*
X96663Y-78198D01*
X96694Y-78243D01*
X96696Y-78247D01*
X96665Y-78245D01*
X96582Y-78228D01*
X96456Y-78198D01*
X96299Y-78159D01*
X96204Y-78134D01*
X96031Y-78089D01*
X95880Y-78051D01*
X95764Y-78022D01*
X95694Y-78006D01*
X95679Y-78004D01*
X95694Y-78027D01*
X95751Y-78091D01*
X95844Y-78191D01*
X95969Y-78321D01*
X96120Y-78476D01*
X96293Y-78650D01*
X96408Y-78767D01*
X96591Y-78951D01*
X96757Y-79121D01*
X96899Y-79270D01*
X97013Y-79393D01*
X97094Y-79483D01*
X97136Y-79536D01*
X97140Y-79548D01*
X97140Y-79548D01*
X97140Y-79548D01*
G37*
G36*
X93796Y-73054D02*
X93779Y-73071D01*
X93763Y-73054D01*
X93779Y-73038D01*
X93796Y-73054D01*
X93796Y-73054D01*
X93796Y-73054D01*
G37*
G36*
X93863Y-73054D02*
X93846Y-73071D01*
X93829Y-73054D01*
X93846Y-73038D01*
X93863Y-73054D01*
X93863Y-73054D01*
X93863Y-73054D01*
G37*
G54D10*
X82011Y-85198D02*
X82236Y-85198D01*
X82124Y-85592D02*
X82124Y-85198D01*
X82499Y-85386D02*
X82367Y-85386D01*
X82367Y-85592D02*
X82367Y-85198D01*
X82555Y-85198D01*
X82911Y-85592D02*
X82686Y-85592D01*
X82799Y-85592D02*
X82799Y-85198D01*
X82761Y-85254D01*
X82724Y-85292D01*
X82686Y-85311D01*
X70163Y-85198D02*
X70406Y-85198D01*
X70275Y-85348D01*
X70331Y-85348D01*
X70369Y-85367D01*
X70388Y-85386D01*
X70406Y-85423D01*
X70406Y-85517D01*
X70388Y-85554D01*
X70369Y-85573D01*
X70331Y-85592D01*
X70219Y-85592D01*
X70181Y-85573D01*
X70163Y-85554D01*
X70706Y-85386D02*
X70575Y-85386D01*
X70575Y-85592D02*
X70575Y-85198D01*
X70763Y-85198D01*
X70894Y-85573D02*
X70950Y-85592D01*
X71044Y-85592D01*
X71081Y-85573D01*
X71100Y-85554D01*
X71119Y-85517D01*
X71119Y-85479D01*
X71100Y-85442D01*
X71081Y-85423D01*
X71044Y-85404D01*
X70969Y-85386D01*
X70931Y-85367D01*
X70913Y-85348D01*
X70894Y-85311D01*
X70894Y-85273D01*
X70913Y-85236D01*
X70931Y-85217D01*
X70969Y-85198D01*
X71062Y-85198D01*
X71119Y-85217D01*
X71287Y-85442D02*
X71587Y-85442D01*
X71737Y-85198D02*
X71981Y-85198D01*
X71850Y-85348D01*
X71906Y-85348D01*
X71944Y-85367D01*
X71962Y-85386D01*
X71981Y-85423D01*
X71981Y-85517D01*
X71962Y-85554D01*
X71944Y-85573D01*
X71906Y-85592D01*
X71794Y-85592D01*
X71756Y-85573D01*
X71737Y-85554D01*
X72356Y-85592D02*
X72131Y-85592D01*
X72244Y-85592D02*
X72244Y-85198D01*
X72206Y-85254D01*
X72169Y-85292D01*
X72131Y-85311D01*
X72506Y-85236D02*
X72525Y-85217D01*
X72562Y-85198D01*
X72656Y-85198D01*
X72694Y-85217D01*
X72712Y-85236D01*
X72731Y-85273D01*
X72731Y-85311D01*
X72712Y-85367D01*
X72487Y-85592D01*
X72731Y-85592D01*
G54D20*
X96503Y-81458D02*
X96503Y-81777D01*
X96512Y-81814D01*
X96522Y-81833D01*
X96541Y-81852D01*
X96578Y-81852D01*
X96597Y-81833D01*
X96606Y-81814D01*
X96616Y-81777D01*
X96616Y-81458D01*
X96812Y-81852D02*
X96700Y-81852D01*
X96756Y-81852D02*
X96756Y-81458D01*
X96737Y-81514D01*
X96719Y-81552D01*
X96700Y-81571D01*
G54D21*
X112831Y-52857D02*
X112831Y-52628D01*
X113431Y-52743D02*
X112831Y-52743D01*
X113431Y-52286D02*
X113431Y-52514D01*
X113431Y-52400D02*
X112831Y-52400D01*
X112917Y-52438D01*
X112974Y-52476D01*
X113003Y-52514D01*
X112831Y-51943D02*
X112831Y-52019D01*
X112860Y-52057D01*
X112888Y-52076D01*
X112974Y-52114D01*
X113088Y-52133D01*
X113317Y-52133D01*
X113374Y-52114D01*
X113403Y-52095D01*
X113431Y-52057D01*
X113431Y-51981D01*
X113403Y-51943D01*
X113374Y-51924D01*
X113317Y-51905D01*
X113174Y-51905D01*
X113117Y-51924D01*
X113088Y-51943D01*
X113060Y-51981D01*
X113060Y-52057D01*
X113088Y-52095D01*
X113117Y-52114D01*
X113174Y-52133D01*
X112831Y-56794D02*
X112831Y-56565D01*
X113431Y-56680D02*
X112831Y-56680D01*
X113431Y-56223D02*
X113431Y-56451D01*
X113431Y-56337D02*
X112831Y-56337D01*
X112917Y-56375D01*
X112974Y-56413D01*
X113003Y-56451D01*
X112831Y-55861D02*
X112831Y-56051D01*
X113117Y-56070D01*
X113088Y-56051D01*
X113060Y-56013D01*
X113060Y-55918D01*
X113088Y-55880D01*
X113117Y-55861D01*
X113174Y-55842D01*
X113317Y-55842D01*
X113374Y-55861D01*
X113403Y-55880D01*
X113431Y-55918D01*
X113431Y-56013D01*
X113403Y-56051D01*
X113374Y-56070D01*
X112831Y-60731D02*
X112831Y-60502D01*
X113431Y-60617D02*
X112831Y-60617D01*
X113431Y-60160D02*
X113431Y-60388D01*
X113431Y-60274D02*
X112831Y-60274D01*
X112917Y-60312D01*
X112974Y-60350D01*
X113003Y-60388D01*
X113031Y-59817D02*
X113431Y-59817D01*
X112803Y-59912D02*
X113231Y-60007D01*
X113231Y-59760D01*
X112831Y-64668D02*
X112831Y-64439D01*
X113431Y-64554D02*
X112831Y-64554D01*
X113431Y-64097D02*
X113431Y-64325D01*
X113431Y-64211D02*
X112831Y-64211D01*
X112917Y-64249D01*
X112974Y-64287D01*
X113003Y-64325D01*
X112831Y-63963D02*
X112831Y-63716D01*
X113060Y-63849D01*
X113060Y-63792D01*
X113088Y-63754D01*
X113117Y-63735D01*
X113174Y-63716D01*
X113317Y-63716D01*
X113374Y-63735D01*
X113403Y-63754D01*
X113431Y-63792D01*
X113431Y-63906D01*
X113403Y-63944D01*
X113374Y-63963D01*
X112831Y-68605D02*
X112831Y-68376D01*
X113431Y-68491D02*
X112831Y-68491D01*
X113431Y-68034D02*
X113431Y-68262D01*
X113431Y-68148D02*
X112831Y-68148D01*
X112917Y-68186D01*
X112974Y-68224D01*
X113003Y-68262D01*
X112888Y-67881D02*
X112860Y-67862D01*
X112831Y-67824D01*
X112831Y-67729D01*
X112860Y-67691D01*
X112888Y-67672D01*
X112946Y-67653D01*
X113003Y-67653D01*
X113088Y-67672D01*
X113431Y-67900D01*
X113431Y-67653D01*
X112831Y-72739D02*
X112831Y-72510D01*
X113431Y-72625D02*
X112831Y-72625D01*
X113431Y-72167D02*
X113431Y-72396D01*
X113431Y-72282D02*
X112831Y-72282D01*
X112917Y-72320D01*
X112974Y-72358D01*
X113003Y-72396D01*
X113431Y-71786D02*
X113431Y-72015D01*
X113431Y-71901D02*
X112831Y-71901D01*
X112917Y-71939D01*
X112974Y-71977D01*
X113003Y-72015D01*
X112831Y-76873D02*
X112831Y-76644D01*
X113431Y-76758D02*
X112831Y-76758D01*
X113431Y-76301D02*
X113431Y-76530D01*
X113431Y-76416D02*
X112831Y-76416D01*
X112917Y-76454D01*
X112974Y-76492D01*
X113003Y-76530D01*
X112831Y-76054D02*
X112831Y-76016D01*
X112860Y-75977D01*
X112888Y-75958D01*
X112946Y-75939D01*
X113060Y-75920D01*
X113203Y-75920D01*
X113317Y-75939D01*
X113374Y-75958D01*
X113403Y-75977D01*
X113431Y-76016D01*
X113431Y-76054D01*
X113403Y-76092D01*
X113374Y-76111D01*
X113317Y-76130D01*
X113203Y-76149D01*
X113060Y-76149D01*
X112946Y-76130D01*
X112888Y-76111D01*
X112860Y-76092D01*
X112831Y-76054D01*
X112831Y-80619D02*
X112831Y-80391D01*
X113431Y-80505D02*
X112831Y-80505D01*
X113431Y-80238D02*
X113431Y-80162D01*
X113403Y-80124D01*
X113374Y-80105D01*
X113288Y-80067D01*
X113174Y-80048D01*
X112946Y-80048D01*
X112888Y-80067D01*
X112860Y-80086D01*
X112831Y-80124D01*
X112831Y-80200D01*
X112860Y-80238D01*
X112888Y-80257D01*
X112946Y-80276D01*
X113088Y-80276D01*
X113146Y-80257D01*
X113174Y-80238D01*
X113203Y-80200D01*
X113203Y-80124D01*
X113174Y-80086D01*
X113146Y-80067D01*
X113088Y-80048D01*
X55548Y-52273D02*
X55548Y-52044D01*
X56148Y-52158D02*
X55548Y-52158D01*
X55805Y-51854D02*
X55776Y-51892D01*
X55748Y-51911D01*
X55691Y-51930D01*
X55662Y-51930D01*
X55605Y-51911D01*
X55576Y-51892D01*
X55548Y-51854D01*
X55548Y-51778D01*
X55576Y-51739D01*
X55605Y-51720D01*
X55662Y-51701D01*
X55691Y-51701D01*
X55748Y-51720D01*
X55776Y-51739D01*
X55805Y-51778D01*
X55805Y-51854D01*
X55834Y-51892D01*
X55862Y-51911D01*
X55919Y-51930D01*
X56034Y-51930D01*
X56091Y-51911D01*
X56119Y-51892D01*
X56148Y-51854D01*
X56148Y-51778D01*
X56119Y-51739D01*
X56091Y-51720D01*
X56034Y-51701D01*
X55919Y-51701D01*
X55862Y-51720D01*
X55834Y-51739D01*
X55805Y-51778D01*
X55745Y-56407D02*
X55745Y-56178D01*
X56345Y-56292D02*
X55745Y-56292D01*
X55745Y-56083D02*
X55745Y-55816D01*
X56345Y-55988D01*
X55548Y-60344D02*
X55548Y-60115D01*
X56148Y-60229D02*
X55548Y-60229D01*
X55548Y-59810D02*
X55548Y-59886D01*
X55576Y-59925D01*
X55605Y-59944D01*
X55691Y-59982D01*
X55805Y-60001D01*
X56034Y-60001D01*
X56091Y-59982D01*
X56119Y-59963D01*
X56148Y-59925D01*
X56148Y-59848D01*
X56119Y-59810D01*
X56091Y-59791D01*
X56034Y-59772D01*
X55891Y-59772D01*
X55834Y-59791D01*
X55805Y-59810D01*
X55776Y-59848D01*
X55776Y-59925D01*
X55805Y-59963D01*
X55834Y-59982D01*
X55891Y-60001D01*
X55548Y-64674D02*
X55548Y-64446D01*
X56148Y-64560D02*
X55548Y-64560D01*
X55548Y-64122D02*
X55548Y-64312D01*
X55834Y-64331D01*
X55805Y-64312D01*
X55776Y-64274D01*
X55776Y-64179D01*
X55805Y-64141D01*
X55834Y-64122D01*
X55891Y-64103D01*
X56034Y-64103D01*
X56091Y-64122D01*
X56119Y-64141D01*
X56148Y-64179D01*
X56148Y-64274D01*
X56119Y-64312D01*
X56091Y-64331D01*
X55548Y-72942D02*
X55548Y-72713D01*
X56148Y-72828D02*
X55548Y-72828D01*
X55548Y-72618D02*
X55548Y-72371D01*
X55776Y-72504D01*
X55776Y-72447D01*
X55805Y-72409D01*
X55834Y-72390D01*
X55891Y-72371D01*
X56034Y-72371D01*
X56091Y-72390D01*
X56119Y-72409D01*
X56148Y-72447D01*
X56148Y-72561D01*
X56119Y-72599D01*
X56091Y-72618D01*
X55548Y-77076D02*
X55548Y-76847D01*
X56148Y-76962D02*
X55548Y-76962D01*
X55605Y-76733D02*
X55576Y-76714D01*
X55548Y-76676D01*
X55548Y-76581D01*
X55576Y-76543D01*
X55605Y-76524D01*
X55662Y-76504D01*
X55719Y-76504D01*
X55805Y-76524D01*
X56148Y-76752D01*
X56148Y-76504D01*
X55548Y-81210D02*
X55548Y-80981D01*
X56148Y-81095D02*
X55548Y-81095D01*
X56148Y-80638D02*
X56148Y-80867D01*
X56148Y-80753D02*
X55548Y-80753D01*
X55634Y-80791D01*
X55691Y-80829D01*
X55719Y-80867D01*
X55548Y-68808D02*
X55548Y-68580D01*
X56148Y-68694D02*
X55548Y-68694D01*
X55748Y-68275D02*
X56148Y-68275D01*
X55519Y-68370D02*
X55948Y-68465D01*
X55948Y-68218D01*
G54D10*
X118072Y-71747D02*
X118072Y-71522D01*
X118466Y-71634D02*
X118072Y-71634D01*
X118466Y-71166D02*
X118278Y-71297D01*
X118466Y-71391D02*
X118072Y-71391D01*
X118072Y-71241D01*
X118091Y-71203D01*
X118110Y-71184D01*
X118147Y-71166D01*
X118203Y-71166D01*
X118241Y-71184D01*
X118260Y-71203D01*
X118278Y-71241D01*
X118278Y-71391D01*
X118466Y-70791D02*
X118466Y-71016D01*
X118466Y-70903D02*
X118072Y-70903D01*
X118128Y-70941D01*
X118166Y-70978D01*
X118185Y-71016D01*
X118466Y-70416D02*
X118466Y-70641D01*
X118466Y-70528D02*
X118072Y-70528D01*
X118128Y-70566D01*
X118166Y-70603D01*
X118185Y-70641D01*
X120594Y-71494D02*
X120613Y-71512D01*
X120631Y-71569D01*
X120631Y-71606D01*
X120613Y-71662D01*
X120575Y-71700D01*
X120538Y-71719D01*
X120463Y-71737D01*
X120406Y-71737D01*
X120331Y-71719D01*
X120294Y-71700D01*
X120256Y-71662D01*
X120238Y-71606D01*
X120238Y-71569D01*
X120256Y-71512D01*
X120275Y-71494D01*
X120631Y-71325D02*
X120238Y-71325D01*
X120631Y-71156D02*
X120425Y-71156D01*
X120388Y-71175D01*
X120369Y-71212D01*
X120369Y-71269D01*
X120388Y-71306D01*
X120406Y-71325D01*
X120631Y-70763D02*
X120631Y-70988D01*
X120631Y-70875D02*
X120238Y-70875D01*
X120294Y-70913D01*
X120331Y-70950D01*
X120350Y-70988D01*
X120631Y-70388D02*
X120631Y-70613D01*
X120631Y-70500D02*
X120238Y-70500D01*
X120294Y-70538D01*
X120331Y-70575D01*
X120350Y-70613D01*
X50553Y-50890D02*
X50553Y-50665D01*
X50946Y-50778D02*
X50553Y-50778D01*
X50946Y-50309D02*
X50759Y-50440D01*
X50946Y-50534D02*
X50553Y-50534D01*
X50553Y-50384D01*
X50571Y-50346D01*
X50590Y-50328D01*
X50628Y-50309D01*
X50684Y-50309D01*
X50721Y-50328D01*
X50740Y-50346D01*
X50759Y-50384D01*
X50759Y-50534D01*
X50721Y-50084D02*
X50703Y-50121D01*
X50684Y-50140D01*
X50646Y-50159D01*
X50628Y-50159D01*
X50590Y-50140D01*
X50571Y-50121D01*
X50553Y-50084D01*
X50553Y-50009D01*
X50571Y-49971D01*
X50590Y-49953D01*
X50628Y-49934D01*
X50646Y-49934D01*
X50684Y-49953D01*
X50703Y-49971D01*
X50721Y-50009D01*
X50721Y-50084D01*
X50740Y-50121D01*
X50759Y-50140D01*
X50796Y-50159D01*
X50871Y-50159D01*
X50909Y-50140D01*
X50928Y-50121D01*
X50946Y-50084D01*
X50946Y-50009D01*
X50928Y-49971D01*
X50909Y-49953D01*
X50871Y-49934D01*
X50796Y-49934D01*
X50759Y-49953D01*
X50740Y-49971D01*
X50721Y-50009D01*
X48743Y-50637D02*
X48762Y-50656D01*
X48781Y-50712D01*
X48781Y-50749D01*
X48762Y-50806D01*
X48725Y-50843D01*
X48687Y-50862D01*
X48612Y-50881D01*
X48556Y-50881D01*
X48481Y-50862D01*
X48443Y-50843D01*
X48406Y-50806D01*
X48387Y-50749D01*
X48387Y-50712D01*
X48406Y-50656D01*
X48425Y-50637D01*
X48781Y-50468D02*
X48387Y-50468D01*
X48781Y-50299D02*
X48575Y-50299D01*
X48537Y-50318D01*
X48518Y-50356D01*
X48518Y-50412D01*
X48537Y-50449D01*
X48556Y-50468D01*
X48556Y-50056D02*
X48537Y-50093D01*
X48518Y-50112D01*
X48481Y-50131D01*
X48462Y-50131D01*
X48425Y-50112D01*
X48406Y-50093D01*
X48387Y-50056D01*
X48387Y-49981D01*
X48406Y-49943D01*
X48425Y-49925D01*
X48462Y-49906D01*
X48481Y-49906D01*
X48518Y-49925D01*
X48537Y-49943D01*
X48556Y-49981D01*
X48556Y-50056D01*
X48575Y-50093D01*
X48593Y-50112D01*
X48631Y-50131D01*
X48706Y-50131D01*
X48743Y-50112D01*
X48762Y-50093D01*
X48781Y-50056D01*
X48781Y-49981D01*
X48762Y-49943D01*
X48743Y-49925D01*
X48706Y-49906D01*
X48631Y-49906D01*
X48593Y-49925D01*
X48575Y-49943D01*
X48556Y-49981D01*
X50553Y-55024D02*
X50553Y-54799D01*
X50946Y-54911D02*
X50553Y-54911D01*
X50946Y-54443D02*
X50759Y-54574D01*
X50946Y-54668D02*
X50553Y-54668D01*
X50553Y-54518D01*
X50571Y-54480D01*
X50590Y-54461D01*
X50628Y-54443D01*
X50684Y-54443D01*
X50721Y-54461D01*
X50740Y-54480D01*
X50759Y-54518D01*
X50759Y-54668D01*
X50553Y-54311D02*
X50553Y-54049D01*
X50946Y-54218D01*
X48743Y-54771D02*
X48762Y-54790D01*
X48781Y-54846D01*
X48781Y-54883D01*
X48762Y-54940D01*
X48725Y-54977D01*
X48687Y-54996D01*
X48612Y-55014D01*
X48556Y-55014D01*
X48481Y-54996D01*
X48443Y-54977D01*
X48406Y-54940D01*
X48387Y-54883D01*
X48387Y-54846D01*
X48406Y-54790D01*
X48425Y-54771D01*
X48781Y-54602D02*
X48387Y-54602D01*
X48781Y-54433D02*
X48575Y-54433D01*
X48537Y-54452D01*
X48518Y-54490D01*
X48518Y-54546D01*
X48537Y-54583D01*
X48556Y-54602D01*
X48387Y-54283D02*
X48387Y-54021D01*
X48781Y-54190D01*
X50553Y-59158D02*
X50553Y-58933D01*
X50946Y-59045D02*
X50553Y-59045D01*
X50946Y-58577D02*
X50759Y-58708D01*
X50946Y-58802D02*
X50553Y-58802D01*
X50553Y-58652D01*
X50571Y-58614D01*
X50590Y-58595D01*
X50628Y-58577D01*
X50684Y-58577D01*
X50721Y-58595D01*
X50740Y-58614D01*
X50759Y-58652D01*
X50759Y-58802D01*
X50553Y-58239D02*
X50553Y-58314D01*
X50571Y-58352D01*
X50590Y-58370D01*
X50646Y-58408D01*
X50721Y-58427D01*
X50871Y-58427D01*
X50909Y-58408D01*
X50928Y-58389D01*
X50946Y-58352D01*
X50946Y-58277D01*
X50928Y-58239D01*
X50909Y-58220D01*
X50871Y-58202D01*
X50778Y-58202D01*
X50740Y-58220D01*
X50721Y-58239D01*
X50703Y-58277D01*
X50703Y-58352D01*
X50721Y-58389D01*
X50740Y-58408D01*
X50778Y-58427D01*
X48743Y-58905D02*
X48762Y-58923D01*
X48781Y-58980D01*
X48781Y-59017D01*
X48762Y-59073D01*
X48725Y-59111D01*
X48687Y-59130D01*
X48612Y-59148D01*
X48556Y-59148D01*
X48481Y-59130D01*
X48443Y-59111D01*
X48406Y-59073D01*
X48387Y-59017D01*
X48387Y-58980D01*
X48406Y-58923D01*
X48425Y-58905D01*
X48781Y-58736D02*
X48387Y-58736D01*
X48781Y-58567D02*
X48575Y-58567D01*
X48537Y-58586D01*
X48518Y-58623D01*
X48518Y-58680D01*
X48537Y-58717D01*
X48556Y-58736D01*
X48387Y-58211D02*
X48387Y-58286D01*
X48406Y-58323D01*
X48425Y-58342D01*
X48481Y-58380D01*
X48556Y-58398D01*
X48706Y-58398D01*
X48743Y-58380D01*
X48762Y-58361D01*
X48781Y-58323D01*
X48781Y-58248D01*
X48762Y-58211D01*
X48743Y-58192D01*
X48706Y-58173D01*
X48612Y-58173D01*
X48575Y-58192D01*
X48556Y-58211D01*
X48537Y-58248D01*
X48537Y-58323D01*
X48556Y-58361D01*
X48575Y-58380D01*
X48612Y-58398D01*
X50553Y-63292D02*
X50553Y-63067D01*
X50946Y-63179D02*
X50553Y-63179D01*
X50946Y-62710D02*
X50759Y-62842D01*
X50946Y-62935D02*
X50553Y-62935D01*
X50553Y-62785D01*
X50571Y-62748D01*
X50590Y-62729D01*
X50628Y-62710D01*
X50684Y-62710D01*
X50721Y-62729D01*
X50740Y-62748D01*
X50759Y-62785D01*
X50759Y-62935D01*
X50553Y-62354D02*
X50553Y-62542D01*
X50740Y-62560D01*
X50721Y-62542D01*
X50703Y-62504D01*
X50703Y-62410D01*
X50721Y-62373D01*
X50740Y-62354D01*
X50778Y-62335D01*
X50871Y-62335D01*
X50909Y-62354D01*
X50928Y-62373D01*
X50946Y-62410D01*
X50946Y-62504D01*
X50928Y-62542D01*
X50909Y-62560D01*
X48743Y-63038D02*
X48762Y-63057D01*
X48781Y-63113D01*
X48781Y-63151D01*
X48762Y-63207D01*
X48725Y-63245D01*
X48687Y-63263D01*
X48612Y-63282D01*
X48556Y-63282D01*
X48481Y-63263D01*
X48443Y-63245D01*
X48406Y-63207D01*
X48387Y-63151D01*
X48387Y-63113D01*
X48406Y-63057D01*
X48425Y-63038D01*
X48781Y-62870D02*
X48387Y-62870D01*
X48781Y-62701D02*
X48575Y-62701D01*
X48537Y-62720D01*
X48518Y-62757D01*
X48518Y-62814D01*
X48537Y-62851D01*
X48556Y-62870D01*
X48387Y-62326D02*
X48387Y-62514D01*
X48575Y-62532D01*
X48556Y-62514D01*
X48537Y-62476D01*
X48537Y-62382D01*
X48556Y-62345D01*
X48575Y-62326D01*
X48612Y-62307D01*
X48706Y-62307D01*
X48743Y-62326D01*
X48762Y-62345D01*
X48781Y-62382D01*
X48781Y-62476D01*
X48762Y-62514D01*
X48743Y-62532D01*
X50553Y-67425D02*
X50553Y-67200D01*
X50946Y-67313D02*
X50553Y-67313D01*
X50946Y-66844D02*
X50759Y-66976D01*
X50946Y-67069D02*
X50553Y-67069D01*
X50553Y-66919D01*
X50571Y-66882D01*
X50590Y-66863D01*
X50628Y-66844D01*
X50684Y-66844D01*
X50721Y-66863D01*
X50740Y-66882D01*
X50759Y-66919D01*
X50759Y-67069D01*
X50684Y-66507D02*
X50946Y-66507D01*
X50534Y-66601D02*
X50815Y-66694D01*
X50815Y-66451D01*
X48743Y-67172D02*
X48762Y-67191D01*
X48781Y-67247D01*
X48781Y-67285D01*
X48762Y-67341D01*
X48725Y-67379D01*
X48687Y-67397D01*
X48612Y-67416D01*
X48556Y-67416D01*
X48481Y-67397D01*
X48443Y-67379D01*
X48406Y-67341D01*
X48387Y-67285D01*
X48387Y-67247D01*
X48406Y-67191D01*
X48425Y-67172D01*
X48781Y-67004D02*
X48387Y-67004D01*
X48781Y-66835D02*
X48575Y-66835D01*
X48537Y-66854D01*
X48518Y-66891D01*
X48518Y-66947D01*
X48537Y-66985D01*
X48556Y-67004D01*
X48518Y-66479D02*
X48781Y-66479D01*
X48368Y-66572D02*
X48650Y-66666D01*
X48650Y-66422D01*
X50553Y-71559D02*
X50553Y-71334D01*
X50946Y-71447D02*
X50553Y-71447D01*
X50946Y-70978D02*
X50759Y-71109D01*
X50946Y-71203D02*
X50553Y-71203D01*
X50553Y-71053D01*
X50571Y-71016D01*
X50590Y-70997D01*
X50628Y-70978D01*
X50684Y-70978D01*
X50721Y-70997D01*
X50740Y-71016D01*
X50759Y-71053D01*
X50759Y-71203D01*
X50553Y-70847D02*
X50553Y-70603D01*
X50703Y-70734D01*
X50703Y-70678D01*
X50721Y-70641D01*
X50740Y-70622D01*
X50778Y-70603D01*
X50871Y-70603D01*
X50909Y-70622D01*
X50928Y-70641D01*
X50946Y-70678D01*
X50946Y-70791D01*
X50928Y-70828D01*
X50909Y-70847D01*
X48743Y-71306D02*
X48762Y-71325D01*
X48781Y-71381D01*
X48781Y-71419D01*
X48762Y-71475D01*
X48725Y-71512D01*
X48687Y-71531D01*
X48612Y-71550D01*
X48556Y-71550D01*
X48481Y-71531D01*
X48443Y-71512D01*
X48406Y-71475D01*
X48387Y-71419D01*
X48387Y-71381D01*
X48406Y-71325D01*
X48425Y-71306D01*
X48781Y-71137D02*
X48387Y-71137D01*
X48781Y-70969D02*
X48575Y-70969D01*
X48537Y-70988D01*
X48518Y-71025D01*
X48518Y-71081D01*
X48537Y-71119D01*
X48556Y-71137D01*
X48387Y-70819D02*
X48387Y-70575D01*
X48537Y-70706D01*
X48537Y-70650D01*
X48556Y-70613D01*
X48575Y-70594D01*
X48612Y-70575D01*
X48706Y-70575D01*
X48743Y-70594D01*
X48762Y-70613D01*
X48781Y-70650D01*
X48781Y-70763D01*
X48762Y-70800D01*
X48743Y-70819D01*
X50553Y-75693D02*
X50553Y-75468D01*
X50946Y-75581D02*
X50553Y-75581D01*
X50946Y-75112D02*
X50759Y-75243D01*
X50946Y-75337D02*
X50553Y-75337D01*
X50553Y-75187D01*
X50571Y-75149D01*
X50590Y-75131D01*
X50628Y-75112D01*
X50684Y-75112D01*
X50721Y-75131D01*
X50740Y-75149D01*
X50759Y-75187D01*
X50759Y-75337D01*
X50590Y-74962D02*
X50571Y-74943D01*
X50553Y-74906D01*
X50553Y-74812D01*
X50571Y-74775D01*
X50590Y-74756D01*
X50628Y-74737D01*
X50665Y-74737D01*
X50721Y-74756D01*
X50946Y-74981D01*
X50946Y-74737D01*
X48743Y-75440D02*
X48762Y-75459D01*
X48781Y-75515D01*
X48781Y-75553D01*
X48762Y-75609D01*
X48725Y-75646D01*
X48687Y-75665D01*
X48612Y-75684D01*
X48556Y-75684D01*
X48481Y-75665D01*
X48443Y-75646D01*
X48406Y-75609D01*
X48387Y-75553D01*
X48387Y-75515D01*
X48406Y-75459D01*
X48425Y-75440D01*
X48781Y-75271D02*
X48387Y-75271D01*
X48781Y-75103D02*
X48575Y-75103D01*
X48537Y-75121D01*
X48518Y-75159D01*
X48518Y-75215D01*
X48537Y-75253D01*
X48556Y-75271D01*
X48425Y-74934D02*
X48406Y-74915D01*
X48387Y-74878D01*
X48387Y-74784D01*
X48406Y-74746D01*
X48425Y-74728D01*
X48462Y-74709D01*
X48500Y-74709D01*
X48556Y-74728D01*
X48781Y-74953D01*
X48781Y-74709D01*
X117875Y-79630D02*
X117875Y-79405D01*
X118269Y-79518D02*
X117875Y-79518D01*
X118269Y-79049D02*
X118082Y-79180D01*
X118269Y-79274D02*
X117875Y-79274D01*
X117875Y-79124D01*
X117894Y-79086D01*
X117913Y-79068D01*
X117950Y-79049D01*
X118007Y-79049D01*
X118044Y-79068D01*
X118063Y-79086D01*
X118082Y-79124D01*
X118082Y-79274D01*
X118269Y-78862D02*
X118269Y-78787D01*
X118250Y-78749D01*
X118232Y-78730D01*
X118175Y-78693D01*
X118100Y-78674D01*
X117950Y-78674D01*
X117913Y-78693D01*
X117894Y-78712D01*
X117875Y-78749D01*
X117875Y-78824D01*
X117894Y-78862D01*
X117913Y-78880D01*
X117950Y-78899D01*
X118044Y-78899D01*
X118082Y-78880D01*
X118100Y-78862D01*
X118119Y-78824D01*
X118119Y-78749D01*
X118100Y-78712D01*
X118082Y-78693D01*
X118044Y-78674D01*
X120594Y-79377D02*
X120613Y-79396D01*
X120631Y-79452D01*
X120631Y-79490D01*
X120613Y-79546D01*
X120575Y-79583D01*
X120538Y-79602D01*
X120463Y-79621D01*
X120406Y-79621D01*
X120331Y-79602D01*
X120294Y-79583D01*
X120256Y-79546D01*
X120238Y-79490D01*
X120238Y-79452D01*
X120256Y-79396D01*
X120275Y-79377D01*
X120631Y-79208D02*
X120238Y-79208D01*
X120631Y-79040D02*
X120425Y-79040D01*
X120388Y-79058D01*
X120369Y-79096D01*
X120369Y-79152D01*
X120388Y-79190D01*
X120406Y-79208D01*
X120631Y-78833D02*
X120631Y-78758D01*
X120613Y-78721D01*
X120594Y-78702D01*
X120538Y-78665D01*
X120463Y-78646D01*
X120313Y-78646D01*
X120275Y-78665D01*
X120256Y-78683D01*
X120238Y-78721D01*
X120238Y-78796D01*
X120256Y-78833D01*
X120275Y-78852D01*
X120313Y-78871D01*
X120406Y-78871D01*
X120444Y-78852D01*
X120463Y-78833D01*
X120481Y-78796D01*
X120481Y-78721D01*
X120463Y-78683D01*
X120444Y-78665D01*
X120406Y-78646D01*
X117875Y-75684D02*
X117875Y-75459D01*
X118269Y-75571D02*
X117875Y-75571D01*
X118269Y-75103D02*
X118082Y-75234D01*
X118269Y-75328D02*
X117875Y-75328D01*
X117875Y-75178D01*
X117894Y-75140D01*
X117913Y-75121D01*
X117950Y-75103D01*
X118007Y-75103D01*
X118044Y-75121D01*
X118063Y-75140D01*
X118082Y-75178D01*
X118082Y-75328D01*
X118269Y-74728D02*
X118269Y-74953D01*
X118269Y-74840D02*
X117875Y-74840D01*
X117932Y-74878D01*
X117969Y-74915D01*
X117988Y-74953D01*
X117875Y-74484D02*
X117875Y-74446D01*
X117894Y-74409D01*
X117913Y-74390D01*
X117950Y-74371D01*
X118025Y-74353D01*
X118119Y-74353D01*
X118194Y-74371D01*
X118232Y-74390D01*
X118250Y-74409D01*
X118269Y-74446D01*
X118269Y-74484D01*
X118250Y-74521D01*
X118232Y-74540D01*
X118194Y-74559D01*
X118119Y-74578D01*
X118025Y-74578D01*
X117950Y-74559D01*
X117913Y-74540D01*
X117894Y-74521D01*
X117875Y-74484D01*
X120594Y-75431D02*
X120613Y-75449D01*
X120631Y-75506D01*
X120631Y-75543D01*
X120613Y-75599D01*
X120575Y-75637D01*
X120538Y-75656D01*
X120463Y-75674D01*
X120406Y-75674D01*
X120331Y-75656D01*
X120294Y-75637D01*
X120256Y-75599D01*
X120238Y-75543D01*
X120238Y-75506D01*
X120256Y-75449D01*
X120275Y-75431D01*
X120631Y-75262D02*
X120238Y-75262D01*
X120631Y-75093D02*
X120425Y-75093D01*
X120388Y-75112D01*
X120369Y-75149D01*
X120369Y-75206D01*
X120388Y-75243D01*
X120406Y-75262D01*
X120631Y-74700D02*
X120631Y-74925D01*
X120631Y-74812D02*
X120238Y-74812D01*
X120294Y-74850D01*
X120331Y-74887D01*
X120350Y-74925D01*
X120238Y-74456D02*
X120238Y-74418D01*
X120256Y-74381D01*
X120275Y-74362D01*
X120313Y-74343D01*
X120388Y-74325D01*
X120481Y-74325D01*
X120556Y-74343D01*
X120594Y-74362D01*
X120613Y-74381D01*
X120631Y-74418D01*
X120631Y-74456D01*
X120613Y-74493D01*
X120594Y-74512D01*
X120556Y-74531D01*
X120481Y-74550D01*
X120388Y-74550D01*
X120313Y-74531D01*
X120275Y-74512D01*
X120256Y-74493D01*
X120238Y-74456D01*
X118072Y-67613D02*
X118072Y-67388D01*
X118466Y-67500D02*
X118072Y-67500D01*
X118466Y-67032D02*
X118278Y-67163D01*
X118466Y-67257D02*
X118072Y-67257D01*
X118072Y-67107D01*
X118091Y-67069D01*
X118110Y-67050D01*
X118147Y-67032D01*
X118203Y-67032D01*
X118241Y-67050D01*
X118260Y-67069D01*
X118278Y-67107D01*
X118278Y-67257D01*
X118466Y-66657D02*
X118466Y-66882D01*
X118466Y-66769D02*
X118072Y-66769D01*
X118128Y-66807D01*
X118166Y-66844D01*
X118185Y-66882D01*
X118110Y-66507D02*
X118091Y-66488D01*
X118072Y-66451D01*
X118072Y-66357D01*
X118091Y-66319D01*
X118110Y-66301D01*
X118147Y-66282D01*
X118185Y-66282D01*
X118241Y-66301D01*
X118466Y-66526D01*
X118466Y-66282D01*
X120594Y-67360D02*
X120613Y-67379D01*
X120631Y-67435D01*
X120631Y-67472D01*
X120613Y-67529D01*
X120575Y-67566D01*
X120538Y-67585D01*
X120463Y-67604D01*
X120406Y-67604D01*
X120331Y-67585D01*
X120294Y-67566D01*
X120256Y-67529D01*
X120238Y-67472D01*
X120238Y-67435D01*
X120256Y-67379D01*
X120275Y-67360D01*
X120631Y-67191D02*
X120238Y-67191D01*
X120631Y-67022D02*
X120425Y-67022D01*
X120388Y-67041D01*
X120369Y-67079D01*
X120369Y-67135D01*
X120388Y-67172D01*
X120406Y-67191D01*
X120631Y-66629D02*
X120631Y-66854D01*
X120631Y-66741D02*
X120238Y-66741D01*
X120294Y-66779D01*
X120331Y-66816D01*
X120350Y-66854D01*
X120275Y-66479D02*
X120256Y-66460D01*
X120238Y-66422D01*
X120238Y-66329D01*
X120256Y-66291D01*
X120275Y-66272D01*
X120313Y-66254D01*
X120350Y-66254D01*
X120406Y-66272D01*
X120631Y-66497D01*
X120631Y-66254D01*
X118072Y-63676D02*
X118072Y-63451D01*
X118466Y-63563D02*
X118072Y-63563D01*
X118466Y-63095D02*
X118278Y-63226D01*
X118466Y-63320D02*
X118072Y-63320D01*
X118072Y-63170D01*
X118091Y-63132D01*
X118110Y-63113D01*
X118147Y-63095D01*
X118203Y-63095D01*
X118241Y-63113D01*
X118260Y-63132D01*
X118278Y-63170D01*
X118278Y-63320D01*
X118466Y-62720D02*
X118466Y-62945D01*
X118466Y-62832D02*
X118072Y-62832D01*
X118128Y-62870D01*
X118166Y-62907D01*
X118185Y-62945D01*
X118072Y-62589D02*
X118072Y-62345D01*
X118222Y-62476D01*
X118222Y-62420D01*
X118241Y-62382D01*
X118260Y-62364D01*
X118297Y-62345D01*
X118391Y-62345D01*
X118428Y-62364D01*
X118447Y-62382D01*
X118466Y-62420D01*
X118466Y-62532D01*
X118447Y-62570D01*
X118428Y-62589D01*
X120594Y-63423D02*
X120613Y-63442D01*
X120631Y-63498D01*
X120631Y-63535D01*
X120613Y-63592D01*
X120575Y-63629D01*
X120538Y-63648D01*
X120463Y-63667D01*
X120406Y-63667D01*
X120331Y-63648D01*
X120294Y-63629D01*
X120256Y-63592D01*
X120238Y-63535D01*
X120238Y-63498D01*
X120256Y-63442D01*
X120275Y-63423D01*
X120631Y-63254D02*
X120238Y-63254D01*
X120631Y-63085D02*
X120425Y-63085D01*
X120388Y-63104D01*
X120369Y-63142D01*
X120369Y-63198D01*
X120388Y-63235D01*
X120406Y-63254D01*
X120631Y-62692D02*
X120631Y-62917D01*
X120631Y-62804D02*
X120238Y-62804D01*
X120294Y-62842D01*
X120331Y-62879D01*
X120350Y-62917D01*
X120238Y-62560D02*
X120238Y-62317D01*
X120388Y-62448D01*
X120388Y-62392D01*
X120406Y-62354D01*
X120425Y-62335D01*
X120463Y-62317D01*
X120556Y-62317D01*
X120594Y-62335D01*
X120613Y-62354D01*
X120631Y-62392D01*
X120631Y-62504D01*
X120613Y-62542D01*
X120594Y-62560D01*
X118072Y-59542D02*
X118072Y-59317D01*
X118466Y-59430D02*
X118072Y-59430D01*
X118466Y-58961D02*
X118278Y-59092D01*
X118466Y-59186D02*
X118072Y-59186D01*
X118072Y-59036D01*
X118091Y-58998D01*
X118110Y-58980D01*
X118147Y-58961D01*
X118203Y-58961D01*
X118241Y-58980D01*
X118260Y-58998D01*
X118278Y-59036D01*
X118278Y-59186D01*
X118466Y-58586D02*
X118466Y-58811D01*
X118466Y-58698D02*
X118072Y-58698D01*
X118128Y-58736D01*
X118166Y-58773D01*
X118185Y-58811D01*
X118203Y-58248D02*
X118466Y-58248D01*
X118053Y-58342D02*
X118335Y-58436D01*
X118335Y-58192D01*
X120594Y-59486D02*
X120613Y-59505D01*
X120631Y-59561D01*
X120631Y-59598D01*
X120613Y-59655D01*
X120575Y-59692D01*
X120538Y-59711D01*
X120463Y-59730D01*
X120406Y-59730D01*
X120331Y-59711D01*
X120294Y-59692D01*
X120256Y-59655D01*
X120238Y-59598D01*
X120238Y-59561D01*
X120256Y-59505D01*
X120275Y-59486D01*
X120631Y-59317D02*
X120238Y-59317D01*
X120631Y-59148D02*
X120425Y-59148D01*
X120388Y-59167D01*
X120369Y-59205D01*
X120369Y-59261D01*
X120388Y-59298D01*
X120406Y-59317D01*
X120631Y-58755D02*
X120631Y-58980D01*
X120631Y-58867D02*
X120238Y-58867D01*
X120294Y-58905D01*
X120331Y-58942D01*
X120350Y-58980D01*
X120369Y-58417D02*
X120631Y-58417D01*
X120219Y-58511D02*
X120500Y-58605D01*
X120500Y-58361D01*
X118072Y-55605D02*
X118072Y-55380D01*
X118466Y-55493D02*
X118072Y-55493D01*
X118466Y-55024D02*
X118278Y-55155D01*
X118466Y-55249D02*
X118072Y-55249D01*
X118072Y-55099D01*
X118091Y-55061D01*
X118110Y-55043D01*
X118147Y-55024D01*
X118203Y-55024D01*
X118241Y-55043D01*
X118260Y-55061D01*
X118278Y-55099D01*
X118278Y-55249D01*
X118466Y-54649D02*
X118466Y-54874D01*
X118466Y-54761D02*
X118072Y-54761D01*
X118128Y-54799D01*
X118166Y-54836D01*
X118185Y-54874D01*
X118072Y-54293D02*
X118072Y-54480D01*
X118260Y-54499D01*
X118241Y-54480D01*
X118222Y-54443D01*
X118222Y-54349D01*
X118241Y-54311D01*
X118260Y-54293D01*
X118297Y-54274D01*
X118391Y-54274D01*
X118428Y-54293D01*
X118447Y-54311D01*
X118466Y-54349D01*
X118466Y-54443D01*
X118447Y-54480D01*
X118428Y-54499D01*
X120594Y-55352D02*
X120613Y-55371D01*
X120631Y-55427D01*
X120631Y-55464D01*
X120613Y-55521D01*
X120575Y-55558D01*
X120538Y-55577D01*
X120463Y-55596D01*
X120406Y-55596D01*
X120331Y-55577D01*
X120294Y-55558D01*
X120256Y-55521D01*
X120238Y-55464D01*
X120238Y-55427D01*
X120256Y-55371D01*
X120275Y-55352D01*
X120631Y-55183D02*
X120238Y-55183D01*
X120631Y-55014D02*
X120425Y-55014D01*
X120388Y-55033D01*
X120369Y-55071D01*
X120369Y-55127D01*
X120388Y-55164D01*
X120406Y-55183D01*
X120631Y-54621D02*
X120631Y-54846D01*
X120631Y-54733D02*
X120238Y-54733D01*
X120294Y-54771D01*
X120331Y-54808D01*
X120350Y-54846D01*
X120238Y-54265D02*
X120238Y-54452D01*
X120425Y-54471D01*
X120406Y-54452D01*
X120388Y-54415D01*
X120388Y-54321D01*
X120406Y-54283D01*
X120425Y-54265D01*
X120463Y-54246D01*
X120556Y-54246D01*
X120594Y-54265D01*
X120613Y-54283D01*
X120631Y-54321D01*
X120631Y-54415D01*
X120613Y-54452D01*
X120594Y-54471D01*
X118072Y-51471D02*
X118072Y-51246D01*
X118466Y-51359D02*
X118072Y-51359D01*
X118466Y-50890D02*
X118278Y-51021D01*
X118466Y-51115D02*
X118072Y-51115D01*
X118072Y-50965D01*
X118091Y-50928D01*
X118110Y-50909D01*
X118147Y-50890D01*
X118203Y-50890D01*
X118241Y-50909D01*
X118260Y-50928D01*
X118278Y-50965D01*
X118278Y-51115D01*
X118466Y-50515D02*
X118466Y-50740D01*
X118466Y-50628D02*
X118072Y-50628D01*
X118128Y-50665D01*
X118166Y-50703D01*
X118185Y-50740D01*
X118072Y-50178D02*
X118072Y-50253D01*
X118091Y-50290D01*
X118110Y-50309D01*
X118166Y-50346D01*
X118241Y-50365D01*
X118391Y-50365D01*
X118428Y-50346D01*
X118447Y-50328D01*
X118466Y-50290D01*
X118466Y-50215D01*
X118447Y-50178D01*
X118428Y-50159D01*
X118391Y-50140D01*
X118297Y-50140D01*
X118260Y-50159D01*
X118241Y-50178D01*
X118222Y-50215D01*
X118222Y-50290D01*
X118241Y-50328D01*
X118260Y-50346D01*
X118297Y-50365D01*
X120594Y-51218D02*
X120613Y-51237D01*
X120631Y-51293D01*
X120631Y-51331D01*
X120613Y-51387D01*
X120575Y-51424D01*
X120538Y-51443D01*
X120463Y-51462D01*
X120406Y-51462D01*
X120331Y-51443D01*
X120294Y-51424D01*
X120256Y-51387D01*
X120238Y-51331D01*
X120238Y-51293D01*
X120256Y-51237D01*
X120275Y-51218D01*
X120631Y-51049D02*
X120238Y-51049D01*
X120631Y-50881D02*
X120425Y-50881D01*
X120388Y-50899D01*
X120369Y-50937D01*
X120369Y-50993D01*
X120388Y-51031D01*
X120406Y-51049D01*
X120631Y-50487D02*
X120631Y-50712D01*
X120631Y-50599D02*
X120238Y-50599D01*
X120294Y-50637D01*
X120331Y-50674D01*
X120350Y-50712D01*
X120238Y-50149D02*
X120238Y-50224D01*
X120256Y-50262D01*
X120275Y-50281D01*
X120331Y-50318D01*
X120406Y-50337D01*
X120556Y-50337D01*
X120594Y-50318D01*
X120613Y-50299D01*
X120631Y-50262D01*
X120631Y-50187D01*
X120613Y-50149D01*
X120594Y-50131D01*
X120556Y-50112D01*
X120463Y-50112D01*
X120425Y-50131D01*
X120406Y-50149D01*
X120388Y-50187D01*
X120388Y-50262D01*
X120406Y-50299D01*
X120425Y-50318D01*
X120463Y-50337D01*
X50553Y-79827D02*
X50553Y-79602D01*
X50946Y-79715D02*
X50553Y-79715D01*
X50946Y-79246D02*
X50759Y-79377D01*
X50946Y-79471D02*
X50553Y-79471D01*
X50553Y-79321D01*
X50571Y-79283D01*
X50590Y-79265D01*
X50628Y-79246D01*
X50684Y-79246D01*
X50721Y-79265D01*
X50740Y-79283D01*
X50759Y-79321D01*
X50759Y-79471D01*
X50946Y-78871D02*
X50946Y-79096D01*
X50946Y-78983D02*
X50553Y-78983D01*
X50609Y-79021D01*
X50646Y-79058D01*
X50665Y-79096D01*
X48743Y-79574D02*
X48762Y-79593D01*
X48781Y-79649D01*
X48781Y-79686D01*
X48762Y-79743D01*
X48725Y-79780D01*
X48687Y-79799D01*
X48612Y-79818D01*
X48556Y-79818D01*
X48481Y-79799D01*
X48443Y-79780D01*
X48406Y-79743D01*
X48387Y-79686D01*
X48387Y-79649D01*
X48406Y-79593D01*
X48425Y-79574D01*
X48781Y-79405D02*
X48387Y-79405D01*
X48781Y-79236D02*
X48575Y-79236D01*
X48537Y-79255D01*
X48518Y-79293D01*
X48518Y-79349D01*
X48537Y-79386D01*
X48556Y-79405D01*
X48781Y-78843D02*
X48781Y-79068D01*
X48781Y-78955D02*
X48387Y-78955D01*
X48443Y-78993D01*
X48481Y-79030D01*
X48500Y-79068D01*
G54D22*
X100922Y-44165D02*
X100922Y-44651D01*
X100902Y-44749D01*
X100861Y-44814D01*
X100800Y-44846D01*
X100759Y-44846D01*
X101126Y-44846D02*
X101126Y-44165D01*
X101289Y-44165D01*
X101330Y-44197D01*
X101350Y-44230D01*
X101371Y-44295D01*
X101371Y-44392D01*
X101350Y-44457D01*
X101330Y-44489D01*
X101289Y-44522D01*
X101126Y-44522D01*
X101778Y-44846D02*
X101534Y-44846D01*
X101656Y-44846D02*
X101656Y-44165D01*
X101615Y-44262D01*
X101575Y-44327D01*
X101534Y-44360D01*
G54D15*
X72437Y-41473D02*
X72437Y-41902D01*
X72409Y-41987D01*
X72352Y-42044D01*
X72266Y-42073D01*
X72209Y-42073D01*
X73037Y-42073D02*
X72694Y-42073D01*
X72866Y-42073D02*
X72866Y-41473D01*
X72809Y-41559D01*
X72752Y-41616D01*
X72694Y-41644D01*
G54D21*
X70179Y-45177D02*
X70198Y-45158D01*
X70236Y-45139D01*
X70330Y-45139D01*
X70367Y-45158D01*
X70386Y-45177D01*
X70405Y-45214D01*
X70405Y-45252D01*
X70386Y-45308D01*
X70161Y-45533D01*
X70405Y-45533D01*
X70780Y-45533D02*
X70555Y-45533D01*
X70667Y-45533D02*
X70667Y-45139D01*
X70630Y-45195D01*
X70592Y-45233D01*
X70555Y-45252D01*
X71136Y-45139D02*
X70949Y-45139D01*
X70930Y-45327D01*
X70949Y-45308D01*
X70986Y-45289D01*
X71080Y-45289D01*
X71118Y-45308D01*
X71136Y-45327D01*
X71155Y-45364D01*
X71155Y-45458D01*
X71136Y-45495D01*
X71118Y-45514D01*
X71080Y-45533D01*
X70986Y-45533D01*
X70949Y-45514D01*
X70930Y-45495D01*
X71380Y-45308D02*
X71343Y-45289D01*
X71324Y-45270D01*
X71305Y-45233D01*
X71305Y-45214D01*
X71324Y-45177D01*
X71343Y-45158D01*
X71380Y-45139D01*
X71455Y-45139D01*
X71493Y-45158D01*
X71512Y-45177D01*
X71530Y-45214D01*
X71530Y-45233D01*
X71512Y-45270D01*
X71493Y-45289D01*
X71455Y-45308D01*
X71380Y-45308D01*
X71343Y-45327D01*
X71324Y-45345D01*
X71305Y-45383D01*
X71305Y-45458D01*
X71324Y-45495D01*
X71343Y-45514D01*
X71380Y-45533D01*
X71455Y-45533D01*
X71493Y-45514D01*
X71512Y-45495D01*
X71530Y-45458D01*
X71530Y-45383D01*
X71512Y-45345D01*
X71493Y-45327D01*
X71455Y-45308D01*
X71662Y-45139D02*
X71924Y-45139D01*
X71755Y-45533D01*
X72037Y-45139D02*
X72300Y-45139D01*
X72131Y-45533D01*
X72450Y-45383D02*
X72750Y-45383D01*
X73144Y-45533D02*
X72919Y-45533D01*
X73031Y-45533D02*
X73031Y-45139D01*
X72994Y-45195D01*
X72956Y-45233D01*
X72919Y-45252D01*
X73725Y-45683D02*
X73707Y-45664D01*
X73669Y-45608D01*
X73650Y-45571D01*
X73632Y-45514D01*
X73613Y-45420D01*
X73613Y-45345D01*
X73632Y-45252D01*
X73650Y-45195D01*
X73669Y-45158D01*
X73707Y-45101D01*
X73725Y-45083D01*
X73951Y-45139D02*
X74026Y-45139D01*
X74063Y-45158D01*
X74101Y-45195D01*
X74119Y-45270D01*
X74119Y-45402D01*
X74101Y-45477D01*
X74063Y-45514D01*
X74026Y-45533D01*
X73951Y-45533D01*
X73913Y-45514D01*
X73876Y-45477D01*
X73857Y-45402D01*
X73857Y-45270D01*
X73876Y-45195D01*
X73913Y-45158D01*
X73951Y-45139D01*
X74288Y-45139D02*
X74288Y-45458D01*
X74307Y-45495D01*
X74326Y-45514D01*
X74363Y-45533D01*
X74438Y-45533D01*
X74476Y-45514D01*
X74495Y-45495D01*
X74513Y-45458D01*
X74513Y-45139D01*
X74645Y-45139D02*
X74870Y-45139D01*
X74757Y-45533D02*
X74757Y-45139D01*
X74964Y-45683D02*
X74983Y-45664D01*
X75020Y-45608D01*
X75039Y-45571D01*
X75058Y-45514D01*
X75076Y-45420D01*
X75076Y-45345D01*
X75058Y-45252D01*
X75039Y-45195D01*
X75020Y-45158D01*
X74983Y-45101D01*
X74964Y-45083D01*
G54D15*
X95862Y-41276D02*
X95862Y-41705D01*
X95834Y-41791D01*
X95777Y-41848D01*
X95691Y-41876D01*
X95634Y-41876D01*
X96120Y-41333D02*
X96148Y-41305D01*
X96205Y-41276D01*
X96348Y-41276D01*
X96405Y-41305D01*
X96434Y-41333D01*
X96462Y-41391D01*
X96462Y-41448D01*
X96434Y-41533D01*
X96091Y-41876D01*
X96462Y-41876D01*
G54D21*
X93966Y-45373D02*
X93985Y-45355D01*
X94022Y-45336D01*
X94116Y-45336D01*
X94153Y-45355D01*
X94172Y-45373D01*
X94191Y-45411D01*
X94191Y-45448D01*
X94172Y-45505D01*
X93947Y-45730D01*
X94191Y-45730D01*
X94566Y-45730D02*
X94341Y-45730D01*
X94454Y-45730D02*
X94454Y-45336D01*
X94416Y-45392D01*
X94379Y-45430D01*
X94341Y-45448D01*
X94923Y-45336D02*
X94735Y-45336D01*
X94716Y-45523D01*
X94735Y-45505D01*
X94773Y-45486D01*
X94866Y-45486D01*
X94904Y-45505D01*
X94923Y-45523D01*
X94941Y-45561D01*
X94941Y-45655D01*
X94923Y-45692D01*
X94904Y-45711D01*
X94866Y-45730D01*
X94773Y-45730D01*
X94735Y-45711D01*
X94716Y-45692D01*
X95167Y-45505D02*
X95129Y-45486D01*
X95110Y-45467D01*
X95091Y-45430D01*
X95091Y-45411D01*
X95110Y-45373D01*
X95129Y-45355D01*
X95167Y-45336D01*
X95242Y-45336D01*
X95279Y-45355D01*
X95298Y-45373D01*
X95317Y-45411D01*
X95317Y-45430D01*
X95298Y-45467D01*
X95279Y-45486D01*
X95242Y-45505D01*
X95167Y-45505D01*
X95129Y-45523D01*
X95110Y-45542D01*
X95091Y-45580D01*
X95091Y-45655D01*
X95110Y-45692D01*
X95129Y-45711D01*
X95167Y-45730D01*
X95242Y-45730D01*
X95279Y-45711D01*
X95298Y-45692D01*
X95317Y-45655D01*
X95317Y-45580D01*
X95298Y-45542D01*
X95279Y-45523D01*
X95242Y-45505D01*
X95448Y-45336D02*
X95711Y-45336D01*
X95542Y-45730D01*
X95823Y-45336D02*
X96086Y-45336D01*
X95917Y-45730D01*
X96236Y-45580D02*
X96536Y-45580D01*
X96930Y-45730D02*
X96705Y-45730D01*
X96818Y-45730D02*
X96818Y-45336D01*
X96780Y-45392D01*
X96743Y-45430D01*
X96705Y-45448D01*
X97512Y-45880D02*
X97493Y-45861D01*
X97455Y-45805D01*
X97437Y-45767D01*
X97418Y-45711D01*
X97399Y-45617D01*
X97399Y-45542D01*
X97418Y-45448D01*
X97437Y-45392D01*
X97455Y-45355D01*
X97493Y-45298D01*
X97512Y-45280D01*
X97662Y-45730D02*
X97662Y-45336D01*
X97849Y-45730D02*
X97849Y-45336D01*
X98075Y-45730D01*
X98075Y-45336D01*
X98225Y-45880D02*
X98243Y-45861D01*
X98281Y-45805D01*
X98300Y-45767D01*
X98319Y-45711D01*
X98337Y-45617D01*
X98337Y-45542D01*
X98319Y-45448D01*
X98300Y-45392D01*
X98281Y-45355D01*
X98243Y-45298D01*
X98225Y-45280D01*
G54D10*
X110564Y-70238D02*
X110339Y-70238D01*
X110451Y-70238D02*
X110451Y-69844D01*
X110414Y-69900D01*
X110376Y-69938D01*
X110339Y-69956D01*
X110789Y-70013D02*
X110751Y-69994D01*
X110733Y-69975D01*
X110714Y-69938D01*
X110714Y-69919D01*
X110733Y-69881D01*
X110751Y-69863D01*
X110789Y-69844D01*
X110864Y-69844D01*
X110901Y-69863D01*
X110920Y-69881D01*
X110939Y-69919D01*
X110939Y-69938D01*
X110920Y-69975D01*
X110901Y-69994D01*
X110864Y-70013D01*
X110789Y-70013D01*
X110751Y-70031D01*
X110733Y-70050D01*
X110714Y-70088D01*
X110714Y-70163D01*
X110733Y-70200D01*
X110751Y-70219D01*
X110789Y-70238D01*
X110864Y-70238D01*
X110901Y-70219D01*
X110920Y-70200D01*
X110939Y-70163D01*
X110939Y-70088D01*
X110920Y-70050D01*
X110901Y-70031D01*
X110864Y-70013D01*
X111182Y-69844D02*
X111220Y-69844D01*
X111257Y-69863D01*
X111276Y-69881D01*
X111295Y-69919D01*
X111314Y-69994D01*
X111314Y-70088D01*
X111295Y-70163D01*
X111276Y-70200D01*
X111257Y-70219D01*
X111220Y-70238D01*
X111182Y-70238D01*
X111145Y-70219D01*
X111126Y-70200D01*
X111107Y-70163D01*
X111089Y-70088D01*
X111089Y-69994D01*
X111107Y-69919D01*
X111126Y-69881D01*
X111145Y-69863D01*
X111182Y-69844D01*
X110564Y-74371D02*
X110339Y-74371D01*
X110451Y-74371D02*
X110451Y-73978D01*
X110414Y-74034D01*
X110376Y-74071D01*
X110339Y-74090D01*
X110789Y-74146D02*
X110751Y-74128D01*
X110733Y-74109D01*
X110714Y-74071D01*
X110714Y-74053D01*
X110733Y-74015D01*
X110751Y-73997D01*
X110789Y-73978D01*
X110864Y-73978D01*
X110901Y-73997D01*
X110920Y-74015D01*
X110939Y-74053D01*
X110939Y-74071D01*
X110920Y-74109D01*
X110901Y-74128D01*
X110864Y-74146D01*
X110789Y-74146D01*
X110751Y-74165D01*
X110733Y-74184D01*
X110714Y-74221D01*
X110714Y-74296D01*
X110733Y-74334D01*
X110751Y-74353D01*
X110789Y-74371D01*
X110864Y-74371D01*
X110901Y-74353D01*
X110920Y-74334D01*
X110939Y-74296D01*
X110939Y-74221D01*
X110920Y-74184D01*
X110901Y-74165D01*
X110864Y-74146D01*
X111182Y-73978D02*
X111220Y-73978D01*
X111257Y-73997D01*
X111276Y-74015D01*
X111295Y-74053D01*
X111314Y-74128D01*
X111314Y-74221D01*
X111295Y-74296D01*
X111276Y-74334D01*
X111257Y-74353D01*
X111220Y-74371D01*
X111182Y-74371D01*
X111145Y-74353D01*
X111126Y-74334D01*
X111107Y-74296D01*
X111089Y-74221D01*
X111089Y-74128D01*
X111107Y-74053D01*
X111126Y-74015D01*
X111145Y-73997D01*
X111182Y-73978D01*
X101588Y-54907D02*
X101527Y-54952D01*
X101508Y-54989D01*
X101503Y-55015D01*
X101506Y-55082D01*
X101535Y-55154D01*
X101623Y-55276D01*
X101660Y-55295D01*
X101687Y-55299D01*
X101728Y-55292D01*
X101789Y-55248D01*
X101808Y-55211D01*
X101812Y-55185D01*
X101805Y-55143D01*
X101750Y-55067D01*
X101713Y-55048D01*
X101687Y-55044D01*
X101645Y-55051D01*
X101585Y-55095D01*
X101565Y-55132D01*
X101561Y-55158D01*
X101568Y-55200D01*
X101899Y-54890D02*
X101858Y-54897D01*
X101832Y-54892D01*
X101794Y-54873D01*
X101783Y-54858D01*
X101776Y-54817D01*
X101781Y-54790D01*
X101800Y-54753D01*
X101861Y-54709D01*
X101902Y-54702D01*
X101928Y-54706D01*
X101965Y-54726D01*
X101976Y-54741D01*
X101983Y-54782D01*
X101979Y-54808D01*
X101960Y-54846D01*
X101899Y-54890D01*
X101880Y-54927D01*
X101876Y-54953D01*
X101883Y-54994D01*
X101927Y-55055D01*
X101964Y-55074D01*
X101990Y-55079D01*
X102031Y-55072D01*
X102092Y-55028D01*
X102111Y-54990D01*
X102115Y-54964D01*
X102109Y-54923D01*
X102065Y-54862D01*
X102027Y-54843D01*
X102001Y-54839D01*
X101960Y-54846D01*
X102118Y-54522D02*
X102149Y-54500D01*
X102190Y-54493D01*
X102216Y-54497D01*
X102254Y-54516D01*
X102313Y-54566D01*
X102368Y-54642D01*
X102397Y-54714D01*
X102404Y-54755D01*
X102399Y-54781D01*
X102380Y-54818D01*
X102350Y-54840D01*
X102308Y-54847D01*
X102282Y-54843D01*
X102245Y-54824D01*
X102186Y-54774D01*
X102131Y-54698D01*
X102102Y-54627D01*
X102095Y-54585D01*
X102099Y-54559D01*
X102118Y-54522D01*
X110564Y-78308D02*
X110339Y-78308D01*
X110451Y-78308D02*
X110451Y-77915D01*
X110414Y-77971D01*
X110376Y-78008D01*
X110339Y-78027D01*
X110789Y-78083D02*
X110751Y-78065D01*
X110733Y-78046D01*
X110714Y-78008D01*
X110714Y-77990D01*
X110733Y-77952D01*
X110751Y-77934D01*
X110789Y-77915D01*
X110864Y-77915D01*
X110901Y-77934D01*
X110920Y-77952D01*
X110939Y-77990D01*
X110939Y-78008D01*
X110920Y-78046D01*
X110901Y-78065D01*
X110864Y-78083D01*
X110789Y-78083D01*
X110751Y-78102D01*
X110733Y-78121D01*
X110714Y-78158D01*
X110714Y-78233D01*
X110733Y-78271D01*
X110751Y-78290D01*
X110789Y-78308D01*
X110864Y-78308D01*
X110901Y-78290D01*
X110920Y-78271D01*
X110939Y-78233D01*
X110939Y-78158D01*
X110920Y-78121D01*
X110901Y-78102D01*
X110864Y-78083D01*
X111182Y-77915D02*
X111220Y-77915D01*
X111257Y-77934D01*
X111276Y-77952D01*
X111295Y-77990D01*
X111314Y-78065D01*
X111314Y-78158D01*
X111295Y-78233D01*
X111276Y-78271D01*
X111257Y-78290D01*
X111220Y-78308D01*
X111182Y-78308D01*
X111145Y-78290D01*
X111126Y-78271D01*
X111107Y-78233D01*
X111089Y-78158D01*
X111089Y-78065D01*
X111107Y-77990D01*
X111126Y-77952D01*
X111145Y-77934D01*
X111182Y-77915D01*
X110564Y-66301D02*
X110339Y-66301D01*
X110451Y-66301D02*
X110451Y-65907D01*
X110414Y-65963D01*
X110376Y-66001D01*
X110339Y-66019D01*
X110789Y-66076D02*
X110751Y-66057D01*
X110733Y-66038D01*
X110714Y-66001D01*
X110714Y-65982D01*
X110733Y-65944D01*
X110751Y-65926D01*
X110789Y-65907D01*
X110864Y-65907D01*
X110901Y-65926D01*
X110920Y-65944D01*
X110939Y-65982D01*
X110939Y-66001D01*
X110920Y-66038D01*
X110901Y-66057D01*
X110864Y-66076D01*
X110789Y-66076D01*
X110751Y-66094D01*
X110733Y-66113D01*
X110714Y-66151D01*
X110714Y-66226D01*
X110733Y-66263D01*
X110751Y-66282D01*
X110789Y-66301D01*
X110864Y-66301D01*
X110901Y-66282D01*
X110920Y-66263D01*
X110939Y-66226D01*
X110939Y-66151D01*
X110920Y-66113D01*
X110901Y-66094D01*
X110864Y-66076D01*
X111182Y-65907D02*
X111220Y-65907D01*
X111257Y-65926D01*
X111276Y-65944D01*
X111295Y-65982D01*
X111314Y-66057D01*
X111314Y-66151D01*
X111295Y-66226D01*
X111276Y-66263D01*
X111257Y-66282D01*
X111220Y-66301D01*
X111182Y-66301D01*
X111145Y-66282D01*
X111126Y-66263D01*
X111107Y-66226D01*
X111089Y-66151D01*
X111089Y-66057D01*
X111107Y-65982D01*
X111126Y-65944D01*
X111145Y-65926D01*
X111182Y-65907D01*
X110564Y-62167D02*
X110339Y-62167D01*
X110451Y-62167D02*
X110451Y-61773D01*
X110414Y-61829D01*
X110376Y-61867D01*
X110339Y-61886D01*
X110789Y-61942D02*
X110751Y-61923D01*
X110733Y-61904D01*
X110714Y-61867D01*
X110714Y-61848D01*
X110733Y-61811D01*
X110751Y-61792D01*
X110789Y-61773D01*
X110864Y-61773D01*
X110901Y-61792D01*
X110920Y-61811D01*
X110939Y-61848D01*
X110939Y-61867D01*
X110920Y-61904D01*
X110901Y-61923D01*
X110864Y-61942D01*
X110789Y-61942D01*
X110751Y-61961D01*
X110733Y-61979D01*
X110714Y-62017D01*
X110714Y-62092D01*
X110733Y-62129D01*
X110751Y-62148D01*
X110789Y-62167D01*
X110864Y-62167D01*
X110901Y-62148D01*
X110920Y-62129D01*
X110939Y-62092D01*
X110939Y-62017D01*
X110920Y-61979D01*
X110901Y-61961D01*
X110864Y-61942D01*
X111182Y-61773D02*
X111220Y-61773D01*
X111257Y-61792D01*
X111276Y-61811D01*
X111295Y-61848D01*
X111314Y-61923D01*
X111314Y-62017D01*
X111295Y-62092D01*
X111276Y-62129D01*
X111257Y-62148D01*
X111220Y-62167D01*
X111182Y-62167D01*
X111145Y-62148D01*
X111126Y-62129D01*
X111107Y-62092D01*
X111089Y-62017D01*
X111089Y-61923D01*
X111107Y-61848D01*
X111126Y-61811D01*
X111145Y-61792D01*
X111182Y-61773D01*
X110564Y-58230D02*
X110339Y-58230D01*
X110451Y-58230D02*
X110451Y-57836D01*
X110414Y-57892D01*
X110376Y-57930D01*
X110339Y-57949D01*
X110789Y-58005D02*
X110751Y-57986D01*
X110733Y-57967D01*
X110714Y-57930D01*
X110714Y-57911D01*
X110733Y-57874D01*
X110751Y-57855D01*
X110789Y-57836D01*
X110864Y-57836D01*
X110901Y-57855D01*
X110920Y-57874D01*
X110939Y-57911D01*
X110939Y-57930D01*
X110920Y-57967D01*
X110901Y-57986D01*
X110864Y-58005D01*
X110789Y-58005D01*
X110751Y-58023D01*
X110733Y-58042D01*
X110714Y-58080D01*
X110714Y-58155D01*
X110733Y-58192D01*
X110751Y-58211D01*
X110789Y-58230D01*
X110864Y-58230D01*
X110901Y-58211D01*
X110920Y-58192D01*
X110939Y-58155D01*
X110939Y-58080D01*
X110920Y-58042D01*
X110901Y-58023D01*
X110864Y-58005D01*
X111182Y-57836D02*
X111220Y-57836D01*
X111257Y-57855D01*
X111276Y-57874D01*
X111295Y-57911D01*
X111314Y-57986D01*
X111314Y-58080D01*
X111295Y-58155D01*
X111276Y-58192D01*
X111257Y-58211D01*
X111220Y-58230D01*
X111182Y-58230D01*
X111145Y-58211D01*
X111126Y-58192D01*
X111107Y-58155D01*
X111089Y-58080D01*
X111089Y-57986D01*
X111107Y-57911D01*
X111126Y-57874D01*
X111145Y-57855D01*
X111182Y-57836D01*
X110564Y-54096D02*
X110339Y-54096D01*
X110451Y-54096D02*
X110451Y-53702D01*
X110414Y-53758D01*
X110376Y-53796D01*
X110339Y-53815D01*
X110789Y-53871D02*
X110751Y-53852D01*
X110733Y-53833D01*
X110714Y-53796D01*
X110714Y-53777D01*
X110733Y-53740D01*
X110751Y-53721D01*
X110789Y-53702D01*
X110864Y-53702D01*
X110901Y-53721D01*
X110920Y-53740D01*
X110939Y-53777D01*
X110939Y-53796D01*
X110920Y-53833D01*
X110901Y-53852D01*
X110864Y-53871D01*
X110789Y-53871D01*
X110751Y-53890D01*
X110733Y-53908D01*
X110714Y-53946D01*
X110714Y-54021D01*
X110733Y-54058D01*
X110751Y-54077D01*
X110789Y-54096D01*
X110864Y-54096D01*
X110901Y-54077D01*
X110920Y-54058D01*
X110939Y-54021D01*
X110939Y-53946D01*
X110920Y-53908D01*
X110901Y-53890D01*
X110864Y-53871D01*
X111182Y-53702D02*
X111220Y-53702D01*
X111257Y-53721D01*
X111276Y-53740D01*
X111295Y-53777D01*
X111314Y-53852D01*
X111314Y-53946D01*
X111295Y-54021D01*
X111276Y-54058D01*
X111257Y-54077D01*
X111220Y-54096D01*
X111182Y-54096D01*
X111145Y-54077D01*
X111126Y-54058D01*
X111107Y-54021D01*
X111089Y-53946D01*
X111089Y-53852D01*
X111107Y-53777D01*
X111126Y-53740D01*
X111145Y-53721D01*
X111182Y-53702D01*
X110564Y-50159D02*
X110339Y-50159D01*
X110451Y-50159D02*
X110451Y-49765D01*
X110414Y-49821D01*
X110376Y-49859D01*
X110339Y-49878D01*
X110789Y-49934D02*
X110751Y-49915D01*
X110733Y-49896D01*
X110714Y-49859D01*
X110714Y-49840D01*
X110733Y-49803D01*
X110751Y-49784D01*
X110789Y-49765D01*
X110864Y-49765D01*
X110901Y-49784D01*
X110920Y-49803D01*
X110939Y-49840D01*
X110939Y-49859D01*
X110920Y-49896D01*
X110901Y-49915D01*
X110864Y-49934D01*
X110789Y-49934D01*
X110751Y-49953D01*
X110733Y-49971D01*
X110714Y-50009D01*
X110714Y-50084D01*
X110733Y-50121D01*
X110751Y-50140D01*
X110789Y-50159D01*
X110864Y-50159D01*
X110901Y-50140D01*
X110920Y-50121D01*
X110939Y-50084D01*
X110939Y-50009D01*
X110920Y-49971D01*
X110901Y-49953D01*
X110864Y-49934D01*
X111182Y-49765D02*
X111220Y-49765D01*
X111257Y-49784D01*
X111276Y-49803D01*
X111295Y-49840D01*
X111314Y-49915D01*
X111314Y-50009D01*
X111295Y-50084D01*
X111276Y-50121D01*
X111257Y-50140D01*
X111220Y-50159D01*
X111182Y-50159D01*
X111145Y-50140D01*
X111126Y-50121D01*
X111107Y-50084D01*
X111089Y-50009D01*
X111089Y-49915D01*
X111107Y-49840D01*
X111126Y-49803D01*
X111145Y-49784D01*
X111182Y-49765D01*
X94581Y-70238D02*
X94506Y-70238D01*
X94469Y-70256D01*
X94450Y-70275D01*
X94413Y-70331D01*
X94394Y-70406D01*
X94394Y-70556D01*
X94413Y-70594D01*
X94431Y-70613D01*
X94469Y-70631D01*
X94544Y-70631D01*
X94581Y-70613D01*
X94600Y-70594D01*
X94619Y-70556D01*
X94619Y-70463D01*
X94600Y-70425D01*
X94581Y-70406D01*
X94544Y-70388D01*
X94469Y-70388D01*
X94431Y-70406D01*
X94413Y-70425D01*
X94394Y-70463D01*
X94844Y-70406D02*
X94806Y-70388D01*
X94788Y-70369D01*
X94769Y-70331D01*
X94769Y-70313D01*
X94788Y-70275D01*
X94806Y-70256D01*
X94844Y-70238D01*
X94919Y-70238D01*
X94956Y-70256D01*
X94975Y-70275D01*
X94994Y-70313D01*
X94994Y-70331D01*
X94975Y-70369D01*
X94956Y-70388D01*
X94919Y-70406D01*
X94844Y-70406D01*
X94806Y-70425D01*
X94788Y-70444D01*
X94769Y-70481D01*
X94769Y-70556D01*
X94788Y-70594D01*
X94806Y-70613D01*
X94844Y-70631D01*
X94919Y-70631D01*
X94956Y-70613D01*
X94975Y-70594D01*
X94994Y-70556D01*
X94994Y-70481D01*
X94975Y-70444D01*
X94956Y-70425D01*
X94919Y-70406D01*
X95238Y-70238D02*
X95275Y-70238D01*
X95313Y-70256D01*
X95331Y-70275D01*
X95350Y-70313D01*
X95369Y-70388D01*
X95369Y-70481D01*
X95350Y-70556D01*
X95331Y-70594D01*
X95313Y-70613D01*
X95275Y-70631D01*
X95238Y-70631D01*
X95200Y-70613D01*
X95181Y-70594D01*
X95163Y-70556D01*
X95144Y-70481D01*
X95144Y-70388D01*
X95163Y-70313D01*
X95181Y-70275D01*
X95200Y-70256D01*
X95238Y-70238D01*
X101588Y-59041D02*
X101527Y-59085D01*
X101508Y-59123D01*
X101503Y-59149D01*
X101506Y-59216D01*
X101535Y-59288D01*
X101623Y-59409D01*
X101660Y-59429D01*
X101687Y-59433D01*
X101728Y-59426D01*
X101789Y-59382D01*
X101808Y-59345D01*
X101812Y-59318D01*
X101805Y-59277D01*
X101750Y-59201D01*
X101713Y-59182D01*
X101687Y-59178D01*
X101645Y-59185D01*
X101585Y-59229D01*
X101565Y-59266D01*
X101561Y-59292D01*
X101568Y-59334D01*
X101899Y-59024D02*
X101858Y-59030D01*
X101832Y-59026D01*
X101794Y-59007D01*
X101783Y-58992D01*
X101776Y-58950D01*
X101781Y-58924D01*
X101800Y-58887D01*
X101861Y-58843D01*
X101902Y-58836D01*
X101928Y-58840D01*
X101965Y-58860D01*
X101976Y-58875D01*
X101983Y-58916D01*
X101979Y-58942D01*
X101960Y-58979D01*
X101899Y-59024D01*
X101880Y-59061D01*
X101876Y-59087D01*
X101883Y-59128D01*
X101927Y-59189D01*
X101964Y-59208D01*
X101990Y-59212D01*
X102031Y-59206D01*
X102092Y-59161D01*
X102111Y-59124D01*
X102115Y-59098D01*
X102109Y-59057D01*
X102065Y-58996D01*
X102027Y-58977D01*
X102001Y-58973D01*
X101960Y-58979D01*
X102118Y-58656D02*
X102149Y-58634D01*
X102190Y-58627D01*
X102216Y-58631D01*
X102254Y-58650D01*
X102313Y-58700D01*
X102368Y-58776D01*
X102397Y-58847D01*
X102404Y-58889D01*
X102399Y-58915D01*
X102380Y-58952D01*
X102350Y-58974D01*
X102308Y-58981D01*
X102282Y-58977D01*
X102245Y-58958D01*
X102186Y-58908D01*
X102131Y-58832D01*
X102102Y-58760D01*
X102095Y-58719D01*
X102099Y-58693D01*
X102118Y-58656D01*
X66157Y-75046D02*
X66104Y-75099D01*
X66091Y-75139D01*
X66091Y-75165D01*
X66104Y-75231D01*
X66144Y-75298D01*
X66250Y-75404D01*
X66290Y-75417D01*
X66316Y-75417D01*
X66356Y-75404D01*
X66409Y-75351D01*
X66422Y-75311D01*
X66422Y-75285D01*
X66409Y-75245D01*
X66343Y-75178D01*
X66303Y-75165D01*
X66276Y-75165D01*
X66237Y-75178D01*
X66184Y-75231D01*
X66170Y-75271D01*
X66170Y-75298D01*
X66184Y-75338D01*
X66462Y-74980D02*
X66422Y-74993D01*
X66396Y-74993D01*
X66356Y-74980D01*
X66343Y-74966D01*
X66329Y-74927D01*
X66329Y-74900D01*
X66343Y-74860D01*
X66396Y-74807D01*
X66436Y-74794D01*
X66462Y-74794D01*
X66502Y-74807D01*
X66515Y-74821D01*
X66528Y-74860D01*
X66528Y-74887D01*
X66515Y-74927D01*
X66462Y-74980D01*
X66449Y-75019D01*
X66449Y-75046D01*
X66462Y-75086D01*
X66515Y-75139D01*
X66555Y-75152D01*
X66581Y-75152D01*
X66621Y-75139D01*
X66674Y-75086D01*
X66687Y-75046D01*
X66687Y-75019D01*
X66674Y-74980D01*
X66621Y-74927D01*
X66581Y-74913D01*
X66555Y-74913D01*
X66515Y-74927D01*
X66621Y-74582D02*
X66648Y-74555D01*
X66687Y-74542D01*
X66714Y-74542D01*
X66754Y-74555D01*
X66820Y-74595D01*
X66886Y-74661D01*
X66926Y-74728D01*
X66939Y-74768D01*
X66939Y-74794D01*
X66926Y-74834D01*
X66899Y-74860D01*
X66860Y-74874D01*
X66833Y-74874D01*
X66793Y-74860D01*
X66727Y-74821D01*
X66661Y-74754D01*
X66621Y-74688D01*
X66608Y-74648D01*
X66608Y-74622D01*
X66621Y-74582D01*
X66157Y-79180D02*
X66104Y-79233D01*
X66091Y-79273D01*
X66091Y-79299D01*
X66104Y-79365D01*
X66144Y-79432D01*
X66250Y-79538D01*
X66290Y-79551D01*
X66316Y-79551D01*
X66356Y-79538D01*
X66409Y-79485D01*
X66422Y-79445D01*
X66422Y-79418D01*
X66409Y-79379D01*
X66343Y-79312D01*
X66303Y-79299D01*
X66276Y-79299D01*
X66237Y-79312D01*
X66184Y-79365D01*
X66170Y-79405D01*
X66170Y-79432D01*
X66184Y-79471D01*
X66462Y-79113D02*
X66422Y-79127D01*
X66396Y-79127D01*
X66356Y-79113D01*
X66343Y-79100D01*
X66329Y-79060D01*
X66329Y-79034D01*
X66343Y-78994D01*
X66396Y-78941D01*
X66436Y-78928D01*
X66462Y-78928D01*
X66502Y-78941D01*
X66515Y-78954D01*
X66528Y-78994D01*
X66528Y-79021D01*
X66515Y-79060D01*
X66462Y-79113D01*
X66449Y-79153D01*
X66449Y-79180D01*
X66462Y-79220D01*
X66515Y-79273D01*
X66555Y-79286D01*
X66581Y-79286D01*
X66621Y-79273D01*
X66674Y-79220D01*
X66687Y-79180D01*
X66687Y-79153D01*
X66674Y-79113D01*
X66621Y-79060D01*
X66581Y-79047D01*
X66555Y-79047D01*
X66515Y-79060D01*
X66621Y-78716D02*
X66648Y-78689D01*
X66687Y-78676D01*
X66714Y-78676D01*
X66754Y-78689D01*
X66820Y-78729D01*
X66886Y-78795D01*
X66926Y-78862D01*
X66939Y-78901D01*
X66939Y-78928D01*
X66926Y-78968D01*
X66899Y-78994D01*
X66860Y-79007D01*
X66833Y-79007D01*
X66793Y-78994D01*
X66727Y-78954D01*
X66661Y-78888D01*
X66621Y-78822D01*
X66608Y-78782D01*
X66608Y-78756D01*
X66621Y-78716D01*
X66354Y-70715D02*
X66301Y-70768D01*
X66288Y-70808D01*
X66288Y-70834D01*
X66301Y-70901D01*
X66341Y-70967D01*
X66447Y-71073D01*
X66487Y-71086D01*
X66513Y-71086D01*
X66553Y-71073D01*
X66606Y-71020D01*
X66619Y-70980D01*
X66619Y-70954D01*
X66606Y-70914D01*
X66540Y-70848D01*
X66500Y-70834D01*
X66473Y-70834D01*
X66434Y-70848D01*
X66380Y-70901D01*
X66367Y-70941D01*
X66367Y-70967D01*
X66380Y-71007D01*
X66659Y-70649D02*
X66619Y-70662D01*
X66593Y-70662D01*
X66553Y-70649D01*
X66540Y-70636D01*
X66526Y-70596D01*
X66526Y-70569D01*
X66540Y-70530D01*
X66593Y-70477D01*
X66632Y-70463D01*
X66659Y-70463D01*
X66699Y-70477D01*
X66712Y-70490D01*
X66725Y-70530D01*
X66725Y-70556D01*
X66712Y-70596D01*
X66659Y-70649D01*
X66646Y-70689D01*
X66646Y-70715D01*
X66659Y-70755D01*
X66712Y-70808D01*
X66752Y-70821D01*
X66778Y-70821D01*
X66818Y-70808D01*
X66871Y-70755D01*
X66884Y-70715D01*
X66884Y-70689D01*
X66871Y-70649D01*
X66818Y-70596D01*
X66778Y-70583D01*
X66752Y-70583D01*
X66712Y-70596D01*
X66818Y-70251D02*
X66844Y-70225D01*
X66884Y-70211D01*
X66911Y-70211D01*
X66951Y-70225D01*
X67017Y-70264D01*
X67083Y-70331D01*
X67123Y-70397D01*
X67136Y-70437D01*
X67136Y-70463D01*
X67123Y-70503D01*
X67096Y-70530D01*
X67057Y-70543D01*
X67030Y-70543D01*
X66990Y-70530D01*
X66924Y-70490D01*
X66858Y-70424D01*
X66818Y-70357D01*
X66805Y-70317D01*
X66805Y-70291D01*
X66818Y-70251D01*
X66157Y-66778D02*
X66104Y-66831D01*
X66091Y-66871D01*
X66091Y-66897D01*
X66104Y-66964D01*
X66144Y-67030D01*
X66250Y-67136D01*
X66290Y-67149D01*
X66316Y-67149D01*
X66356Y-67136D01*
X66409Y-67083D01*
X66422Y-67043D01*
X66422Y-67017D01*
X66409Y-66977D01*
X66343Y-66911D01*
X66303Y-66897D01*
X66276Y-66897D01*
X66237Y-66911D01*
X66184Y-66964D01*
X66170Y-67004D01*
X66170Y-67030D01*
X66184Y-67070D01*
X66462Y-66712D02*
X66422Y-66725D01*
X66396Y-66725D01*
X66356Y-66712D01*
X66343Y-66699D01*
X66329Y-66659D01*
X66329Y-66632D01*
X66343Y-66593D01*
X66396Y-66540D01*
X66436Y-66526D01*
X66462Y-66526D01*
X66502Y-66540D01*
X66515Y-66553D01*
X66528Y-66593D01*
X66528Y-66619D01*
X66515Y-66659D01*
X66462Y-66712D01*
X66449Y-66752D01*
X66449Y-66778D01*
X66462Y-66818D01*
X66515Y-66871D01*
X66555Y-66884D01*
X66581Y-66884D01*
X66621Y-66871D01*
X66674Y-66818D01*
X66687Y-66778D01*
X66687Y-66752D01*
X66674Y-66712D01*
X66621Y-66659D01*
X66581Y-66646D01*
X66555Y-66646D01*
X66515Y-66659D01*
X66621Y-66314D02*
X66648Y-66288D01*
X66687Y-66274D01*
X66714Y-66274D01*
X66754Y-66288D01*
X66820Y-66327D01*
X66886Y-66394D01*
X66926Y-66460D01*
X66939Y-66500D01*
X66939Y-66526D01*
X66926Y-66566D01*
X66899Y-66593D01*
X66860Y-66606D01*
X66833Y-66606D01*
X66793Y-66593D01*
X66727Y-66553D01*
X66661Y-66487D01*
X66621Y-66420D01*
X66608Y-66380D01*
X66608Y-66354D01*
X66621Y-66314D01*
X66157Y-62644D02*
X66104Y-62697D01*
X66091Y-62737D01*
X66091Y-62764D01*
X66104Y-62830D01*
X66144Y-62896D01*
X66250Y-63002D01*
X66290Y-63016D01*
X66316Y-63016D01*
X66356Y-63002D01*
X66409Y-62949D01*
X66422Y-62909D01*
X66422Y-62883D01*
X66409Y-62843D01*
X66343Y-62777D01*
X66303Y-62764D01*
X66276Y-62764D01*
X66237Y-62777D01*
X66184Y-62830D01*
X66170Y-62870D01*
X66170Y-62896D01*
X66184Y-62936D01*
X66462Y-62578D02*
X66422Y-62591D01*
X66396Y-62591D01*
X66356Y-62578D01*
X66343Y-62565D01*
X66329Y-62525D01*
X66329Y-62499D01*
X66343Y-62459D01*
X66396Y-62406D01*
X66436Y-62392D01*
X66462Y-62392D01*
X66502Y-62406D01*
X66515Y-62419D01*
X66528Y-62459D01*
X66528Y-62485D01*
X66515Y-62525D01*
X66462Y-62578D01*
X66449Y-62618D01*
X66449Y-62644D01*
X66462Y-62684D01*
X66515Y-62737D01*
X66555Y-62750D01*
X66581Y-62750D01*
X66621Y-62737D01*
X66674Y-62684D01*
X66687Y-62644D01*
X66687Y-62618D01*
X66674Y-62578D01*
X66621Y-62525D01*
X66581Y-62512D01*
X66555Y-62512D01*
X66515Y-62525D01*
X66621Y-62180D02*
X66648Y-62154D01*
X66687Y-62141D01*
X66714Y-62141D01*
X66754Y-62154D01*
X66820Y-62194D01*
X66886Y-62260D01*
X66926Y-62326D01*
X66939Y-62366D01*
X66939Y-62392D01*
X66926Y-62432D01*
X66899Y-62459D01*
X66860Y-62472D01*
X66833Y-62472D01*
X66793Y-62459D01*
X66727Y-62419D01*
X66661Y-62353D01*
X66621Y-62286D01*
X66608Y-62247D01*
X66608Y-62220D01*
X66621Y-62180D01*
X66157Y-58510D02*
X66104Y-58563D01*
X66091Y-58603D01*
X66091Y-58630D01*
X66104Y-58696D01*
X66144Y-58762D01*
X66250Y-58868D01*
X66290Y-58882D01*
X66316Y-58882D01*
X66356Y-58868D01*
X66409Y-58815D01*
X66422Y-58776D01*
X66422Y-58749D01*
X66409Y-58709D01*
X66343Y-58643D01*
X66303Y-58630D01*
X66276Y-58630D01*
X66237Y-58643D01*
X66184Y-58696D01*
X66170Y-58736D01*
X66170Y-58762D01*
X66184Y-58802D01*
X66462Y-58444D02*
X66422Y-58457D01*
X66396Y-58457D01*
X66356Y-58444D01*
X66343Y-58431D01*
X66329Y-58391D01*
X66329Y-58365D01*
X66343Y-58325D01*
X66396Y-58272D01*
X66436Y-58259D01*
X66462Y-58259D01*
X66502Y-58272D01*
X66515Y-58285D01*
X66528Y-58325D01*
X66528Y-58351D01*
X66515Y-58391D01*
X66462Y-58444D01*
X66449Y-58484D01*
X66449Y-58510D01*
X66462Y-58550D01*
X66515Y-58603D01*
X66555Y-58617D01*
X66581Y-58617D01*
X66621Y-58603D01*
X66674Y-58550D01*
X66687Y-58510D01*
X66687Y-58484D01*
X66674Y-58444D01*
X66621Y-58391D01*
X66581Y-58378D01*
X66555Y-58378D01*
X66515Y-58391D01*
X66621Y-58046D02*
X66648Y-58020D01*
X66687Y-58007D01*
X66714Y-58007D01*
X66754Y-58020D01*
X66820Y-58060D01*
X66886Y-58126D01*
X66926Y-58192D01*
X66939Y-58232D01*
X66939Y-58259D01*
X66926Y-58298D01*
X66899Y-58325D01*
X66860Y-58338D01*
X66833Y-58338D01*
X66793Y-58325D01*
X66727Y-58285D01*
X66661Y-58219D01*
X66621Y-58153D01*
X66608Y-58113D01*
X66608Y-58086D01*
X66621Y-58046D01*
X66157Y-54377D02*
X66104Y-54430D01*
X66091Y-54469D01*
X66091Y-54496D01*
X66104Y-54562D01*
X66144Y-54628D01*
X66250Y-54735D01*
X66290Y-54748D01*
X66316Y-54748D01*
X66356Y-54735D01*
X66409Y-54682D01*
X66422Y-54642D01*
X66422Y-54615D01*
X66409Y-54575D01*
X66343Y-54509D01*
X66303Y-54496D01*
X66276Y-54496D01*
X66237Y-54509D01*
X66184Y-54562D01*
X66170Y-54602D01*
X66170Y-54628D01*
X66184Y-54668D01*
X66462Y-54310D02*
X66422Y-54324D01*
X66396Y-54324D01*
X66356Y-54310D01*
X66343Y-54297D01*
X66329Y-54257D01*
X66329Y-54231D01*
X66343Y-54191D01*
X66396Y-54138D01*
X66436Y-54125D01*
X66462Y-54125D01*
X66502Y-54138D01*
X66515Y-54151D01*
X66528Y-54191D01*
X66528Y-54218D01*
X66515Y-54257D01*
X66462Y-54310D01*
X66449Y-54350D01*
X66449Y-54377D01*
X66462Y-54416D01*
X66515Y-54469D01*
X66555Y-54483D01*
X66581Y-54483D01*
X66621Y-54469D01*
X66674Y-54416D01*
X66687Y-54377D01*
X66687Y-54350D01*
X66674Y-54310D01*
X66621Y-54257D01*
X66581Y-54244D01*
X66555Y-54244D01*
X66515Y-54257D01*
X66621Y-53913D02*
X66648Y-53886D01*
X66687Y-53873D01*
X66714Y-53873D01*
X66754Y-53886D01*
X66820Y-53926D01*
X66886Y-53992D01*
X66926Y-54058D01*
X66939Y-54098D01*
X66939Y-54125D01*
X66926Y-54165D01*
X66899Y-54191D01*
X66860Y-54204D01*
X66833Y-54204D01*
X66793Y-54191D01*
X66727Y-54151D01*
X66661Y-54085D01*
X66621Y-54019D01*
X66608Y-53979D01*
X66608Y-53952D01*
X66621Y-53913D01*
X66157Y-50243D02*
X66104Y-50296D01*
X66091Y-50336D01*
X66091Y-50362D01*
X66104Y-50428D01*
X66144Y-50495D01*
X66250Y-50601D01*
X66290Y-50614D01*
X66316Y-50614D01*
X66356Y-50601D01*
X66409Y-50548D01*
X66422Y-50508D01*
X66422Y-50481D01*
X66409Y-50442D01*
X66343Y-50375D01*
X66303Y-50362D01*
X66276Y-50362D01*
X66237Y-50375D01*
X66184Y-50428D01*
X66170Y-50468D01*
X66170Y-50495D01*
X66184Y-50534D01*
X66462Y-50176D02*
X66422Y-50190D01*
X66396Y-50190D01*
X66356Y-50176D01*
X66343Y-50163D01*
X66329Y-50123D01*
X66329Y-50097D01*
X66343Y-50057D01*
X66396Y-50004D01*
X66436Y-49991D01*
X66462Y-49991D01*
X66502Y-50004D01*
X66515Y-50017D01*
X66528Y-50057D01*
X66528Y-50084D01*
X66515Y-50123D01*
X66462Y-50176D01*
X66449Y-50216D01*
X66449Y-50243D01*
X66462Y-50283D01*
X66515Y-50336D01*
X66555Y-50349D01*
X66581Y-50349D01*
X66621Y-50336D01*
X66674Y-50283D01*
X66687Y-50243D01*
X66687Y-50216D01*
X66674Y-50176D01*
X66621Y-50123D01*
X66581Y-50110D01*
X66555Y-50110D01*
X66515Y-50123D01*
X66621Y-49779D02*
X66648Y-49752D01*
X66687Y-49739D01*
X66714Y-49739D01*
X66754Y-49752D01*
X66820Y-49792D01*
X66886Y-49858D01*
X66926Y-49925D01*
X66939Y-49964D01*
X66939Y-49991D01*
X66926Y-50031D01*
X66899Y-50057D01*
X66860Y-50070D01*
X66833Y-50070D01*
X66793Y-50057D01*
X66727Y-50017D01*
X66661Y-49951D01*
X66621Y-49885D01*
X66608Y-49845D01*
X66608Y-49819D01*
X66621Y-49779D01*
X101588Y-62978D02*
X101527Y-63022D01*
X101508Y-63060D01*
X101503Y-63086D01*
X101506Y-63153D01*
X101535Y-63225D01*
X101623Y-63346D01*
X101660Y-63366D01*
X101687Y-63370D01*
X101728Y-63363D01*
X101789Y-63319D01*
X101808Y-63282D01*
X101812Y-63256D01*
X101805Y-63214D01*
X101750Y-63138D01*
X101713Y-63119D01*
X101687Y-63115D01*
X101645Y-63122D01*
X101585Y-63166D01*
X101565Y-63203D01*
X101561Y-63229D01*
X101568Y-63271D01*
X101899Y-62961D02*
X101858Y-62967D01*
X101832Y-62963D01*
X101794Y-62944D01*
X101783Y-62929D01*
X101776Y-62887D01*
X101781Y-62861D01*
X101800Y-62824D01*
X101861Y-62780D01*
X101902Y-62773D01*
X101928Y-62777D01*
X101965Y-62797D01*
X101976Y-62812D01*
X101983Y-62853D01*
X101979Y-62879D01*
X101960Y-62917D01*
X101899Y-62961D01*
X101880Y-62998D01*
X101876Y-63024D01*
X101883Y-63065D01*
X101927Y-63126D01*
X101964Y-63145D01*
X101990Y-63149D01*
X102031Y-63143D01*
X102092Y-63099D01*
X102111Y-63061D01*
X102115Y-63035D01*
X102109Y-62994D01*
X102065Y-62933D01*
X102027Y-62914D01*
X102001Y-62910D01*
X101960Y-62917D01*
X102118Y-62593D02*
X102149Y-62571D01*
X102190Y-62564D01*
X102216Y-62568D01*
X102254Y-62587D01*
X102313Y-62637D01*
X102368Y-62713D01*
X102397Y-62784D01*
X102404Y-62826D01*
X102399Y-62852D01*
X102380Y-62889D01*
X102350Y-62911D01*
X102308Y-62918D01*
X102282Y-62914D01*
X102245Y-62895D01*
X102186Y-62845D01*
X102131Y-62769D01*
X102102Y-62697D01*
X102095Y-62656D01*
X102099Y-62630D01*
X102118Y-62593D01*
X101588Y-67112D02*
X101527Y-67156D01*
X101508Y-67193D01*
X101503Y-67220D01*
X101506Y-67287D01*
X101535Y-67359D01*
X101623Y-67480D01*
X101660Y-67500D01*
X101687Y-67504D01*
X101728Y-67497D01*
X101789Y-67453D01*
X101808Y-67416D01*
X101812Y-67389D01*
X101805Y-67348D01*
X101750Y-67272D01*
X101713Y-67253D01*
X101687Y-67249D01*
X101645Y-67256D01*
X101585Y-67300D01*
X101565Y-67337D01*
X101561Y-67363D01*
X101568Y-67404D01*
X101899Y-67094D02*
X101858Y-67101D01*
X101832Y-67097D01*
X101794Y-67078D01*
X101783Y-67063D01*
X101776Y-67021D01*
X101781Y-66995D01*
X101800Y-66958D01*
X101861Y-66914D01*
X101902Y-66907D01*
X101928Y-66911D01*
X101965Y-66930D01*
X101976Y-66946D01*
X101983Y-66987D01*
X101979Y-67013D01*
X101960Y-67050D01*
X101899Y-67094D01*
X101880Y-67132D01*
X101876Y-67158D01*
X101883Y-67199D01*
X101927Y-67260D01*
X101964Y-67279D01*
X101990Y-67283D01*
X102031Y-67276D01*
X102092Y-67232D01*
X102111Y-67195D01*
X102115Y-67169D01*
X102109Y-67128D01*
X102065Y-67067D01*
X102027Y-67048D01*
X102001Y-67043D01*
X101960Y-67050D01*
X102118Y-66727D02*
X102149Y-66704D01*
X102190Y-66698D01*
X102216Y-66702D01*
X102254Y-66721D01*
X102313Y-66771D01*
X102368Y-66847D01*
X102397Y-66918D01*
X102404Y-66960D01*
X102399Y-66986D01*
X102380Y-67023D01*
X102350Y-67045D01*
X102308Y-67052D01*
X102282Y-67048D01*
X102245Y-67028D01*
X102186Y-66979D01*
X102131Y-66903D01*
X102102Y-66831D01*
X102095Y-66790D01*
X102099Y-66764D01*
X102118Y-66727D01*
X57808Y-57836D02*
X57583Y-57836D01*
X57695Y-57836D02*
X57695Y-57442D01*
X57658Y-57499D01*
X57620Y-57536D01*
X57583Y-57555D01*
X58033Y-57611D02*
X57995Y-57592D01*
X57977Y-57574D01*
X57958Y-57536D01*
X57958Y-57517D01*
X57977Y-57480D01*
X57995Y-57461D01*
X58033Y-57442D01*
X58108Y-57442D01*
X58145Y-57461D01*
X58164Y-57480D01*
X58183Y-57517D01*
X58183Y-57536D01*
X58164Y-57574D01*
X58145Y-57592D01*
X58108Y-57611D01*
X58033Y-57611D01*
X57995Y-57630D01*
X57977Y-57649D01*
X57958Y-57686D01*
X57958Y-57761D01*
X57977Y-57799D01*
X57995Y-57817D01*
X58033Y-57836D01*
X58108Y-57836D01*
X58145Y-57817D01*
X58164Y-57799D01*
X58183Y-57761D01*
X58183Y-57686D01*
X58164Y-57649D01*
X58145Y-57630D01*
X58108Y-57611D01*
X58427Y-57442D02*
X58464Y-57442D01*
X58502Y-57461D01*
X58520Y-57480D01*
X58539Y-57517D01*
X58558Y-57592D01*
X58558Y-57686D01*
X58539Y-57761D01*
X58520Y-57799D01*
X58502Y-57817D01*
X58464Y-57836D01*
X58427Y-57836D01*
X58389Y-57817D01*
X58370Y-57799D01*
X58352Y-57761D01*
X58333Y-57686D01*
X58333Y-57592D01*
X58352Y-57517D01*
X58370Y-57480D01*
X58389Y-57461D01*
X58427Y-57442D01*
X103801Y-45833D02*
X103801Y-46058D01*
X103801Y-45945D02*
X103407Y-45945D01*
X103463Y-45983D01*
X103501Y-46020D01*
X103519Y-46058D01*
X103444Y-45683D02*
X103426Y-45664D01*
X103407Y-45627D01*
X103407Y-45533D01*
X103426Y-45495D01*
X103444Y-45477D01*
X103482Y-45458D01*
X103519Y-45458D01*
X103576Y-45477D01*
X103801Y-45702D01*
X103801Y-45458D01*
X103407Y-45214D02*
X103407Y-45177D01*
X103426Y-45139D01*
X103444Y-45120D01*
X103482Y-45102D01*
X103557Y-45083D01*
X103651Y-45083D01*
X103726Y-45102D01*
X103763Y-45120D01*
X103782Y-45139D01*
X103801Y-45177D01*
X103801Y-45214D01*
X103782Y-45252D01*
X103763Y-45270D01*
X103726Y-45289D01*
X103651Y-45308D01*
X103557Y-45308D01*
X103482Y-45289D01*
X103444Y-45270D01*
X103426Y-45252D01*
X103407Y-45214D01*
X83366Y-45969D02*
X83347Y-45950D01*
X83328Y-45913D01*
X83328Y-45819D01*
X83347Y-45781D01*
X83366Y-45763D01*
X83403Y-45744D01*
X83441Y-45744D01*
X83497Y-45763D01*
X83722Y-45988D01*
X83722Y-45744D01*
X83328Y-45613D02*
X83328Y-45350D01*
X83722Y-45519D01*
X83722Y-45200D02*
X83328Y-45200D01*
X83722Y-44975D02*
X83497Y-45144D01*
X83328Y-44975D02*
X83553Y-45200D01*
X85789Y-45359D02*
X85789Y-45584D01*
X85789Y-45472D02*
X85395Y-45472D01*
X85451Y-45509D01*
X85489Y-45547D01*
X85508Y-45584D01*
X85789Y-45191D02*
X85395Y-45191D01*
X85789Y-44966D02*
X85564Y-45134D01*
X85395Y-44966D02*
X85620Y-45191D01*
X89955Y-46555D02*
X89974Y-46536D01*
X90012Y-46517D01*
X90105Y-46517D01*
X90143Y-46536D01*
X90162Y-46555D01*
X90180Y-46592D01*
X90180Y-46630D01*
X90162Y-46686D01*
X89937Y-46911D01*
X90180Y-46911D01*
X90312Y-46517D02*
X90574Y-46517D01*
X90405Y-46911D01*
X90724Y-46911D02*
X90724Y-46517D01*
X90949Y-46911D02*
X90780Y-46686D01*
X90949Y-46517D02*
X90724Y-46742D01*
X90368Y-48486D02*
X90143Y-48486D01*
X90255Y-48486D02*
X90255Y-48092D01*
X90218Y-48148D01*
X90180Y-48186D01*
X90143Y-48204D01*
X90537Y-48486D02*
X90537Y-48092D01*
X90762Y-48486D02*
X90593Y-48261D01*
X90762Y-48092D02*
X90537Y-48317D01*
X101588Y-71049D02*
X101527Y-71093D01*
X101508Y-71131D01*
X101503Y-71157D01*
X101506Y-71224D01*
X101535Y-71296D01*
X101623Y-71417D01*
X101660Y-71437D01*
X101687Y-71441D01*
X101728Y-71434D01*
X101789Y-71390D01*
X101808Y-71353D01*
X101812Y-71326D01*
X101805Y-71285D01*
X101750Y-71209D01*
X101713Y-71190D01*
X101687Y-71186D01*
X101645Y-71193D01*
X101585Y-71237D01*
X101565Y-71274D01*
X101561Y-71300D01*
X101568Y-71341D01*
X101899Y-71031D02*
X101858Y-71038D01*
X101832Y-71034D01*
X101794Y-71015D01*
X101783Y-71000D01*
X101776Y-70958D01*
X101781Y-70932D01*
X101800Y-70895D01*
X101861Y-70851D01*
X101902Y-70844D01*
X101928Y-70848D01*
X101965Y-70867D01*
X101976Y-70883D01*
X101983Y-70924D01*
X101979Y-70950D01*
X101960Y-70987D01*
X101899Y-71031D01*
X101880Y-71069D01*
X101876Y-71095D01*
X101883Y-71136D01*
X101927Y-71197D01*
X101964Y-71216D01*
X101990Y-71220D01*
X102031Y-71213D01*
X102092Y-71169D01*
X102111Y-71132D01*
X102115Y-71106D01*
X102109Y-71065D01*
X102065Y-71004D01*
X102027Y-70985D01*
X102001Y-70980D01*
X101960Y-70987D01*
X102118Y-70664D02*
X102149Y-70641D01*
X102190Y-70635D01*
X102216Y-70639D01*
X102254Y-70658D01*
X102313Y-70708D01*
X102368Y-70784D01*
X102397Y-70855D01*
X102404Y-70897D01*
X102399Y-70923D01*
X102380Y-70960D01*
X102350Y-70982D01*
X102308Y-70989D01*
X102282Y-70985D01*
X102245Y-70965D01*
X102186Y-70916D01*
X102131Y-70840D01*
X102102Y-70768D01*
X102095Y-70727D01*
X102099Y-70701D01*
X102118Y-70664D01*
X101588Y-75183D02*
X101527Y-75227D01*
X101508Y-75264D01*
X101503Y-75291D01*
X101506Y-75358D01*
X101535Y-75430D01*
X101623Y-75551D01*
X101660Y-75570D01*
X101687Y-75575D01*
X101728Y-75568D01*
X101789Y-75524D01*
X101808Y-75486D01*
X101812Y-75460D01*
X101805Y-75419D01*
X101750Y-75343D01*
X101713Y-75324D01*
X101687Y-75320D01*
X101645Y-75326D01*
X101585Y-75371D01*
X101565Y-75408D01*
X101561Y-75434D01*
X101568Y-75475D01*
X101899Y-75165D02*
X101858Y-75172D01*
X101832Y-75168D01*
X101794Y-75149D01*
X101783Y-75134D01*
X101776Y-75092D01*
X101781Y-75066D01*
X101800Y-75029D01*
X101861Y-74985D01*
X101902Y-74978D01*
X101928Y-74982D01*
X101965Y-75001D01*
X101976Y-75016D01*
X101983Y-75058D01*
X101979Y-75084D01*
X101960Y-75121D01*
X101899Y-75165D01*
X101880Y-75203D01*
X101876Y-75229D01*
X101883Y-75270D01*
X101927Y-75331D01*
X101964Y-75350D01*
X101990Y-75354D01*
X102031Y-75347D01*
X102092Y-75303D01*
X102111Y-75266D01*
X102115Y-75240D01*
X102109Y-75198D01*
X102065Y-75138D01*
X102027Y-75119D01*
X102001Y-75114D01*
X101960Y-75121D01*
X102118Y-74797D02*
X102149Y-74775D01*
X102190Y-74768D01*
X102216Y-74773D01*
X102254Y-74792D01*
X102313Y-74842D01*
X102368Y-74917D01*
X102397Y-74989D01*
X102404Y-75030D01*
X102399Y-75057D01*
X102380Y-75094D01*
X102350Y-75116D01*
X102308Y-75123D01*
X102282Y-75119D01*
X102245Y-75099D01*
X102186Y-75050D01*
X102131Y-74974D01*
X102102Y-74902D01*
X102095Y-74861D01*
X102099Y-74835D01*
X102118Y-74797D01*
X57808Y-49568D02*
X57583Y-49568D01*
X57695Y-49568D02*
X57695Y-49175D01*
X57658Y-49231D01*
X57620Y-49268D01*
X57583Y-49287D01*
X58033Y-49343D02*
X57995Y-49325D01*
X57977Y-49306D01*
X57958Y-49268D01*
X57958Y-49250D01*
X57977Y-49212D01*
X57995Y-49193D01*
X58033Y-49175D01*
X58108Y-49175D01*
X58145Y-49193D01*
X58164Y-49212D01*
X58183Y-49250D01*
X58183Y-49268D01*
X58164Y-49306D01*
X58145Y-49325D01*
X58108Y-49343D01*
X58033Y-49343D01*
X57995Y-49362D01*
X57977Y-49381D01*
X57958Y-49418D01*
X57958Y-49493D01*
X57977Y-49531D01*
X57995Y-49550D01*
X58033Y-49568D01*
X58108Y-49568D01*
X58145Y-49550D01*
X58164Y-49531D01*
X58183Y-49493D01*
X58183Y-49418D01*
X58164Y-49381D01*
X58145Y-49362D01*
X58108Y-49343D01*
X58427Y-49175D02*
X58464Y-49175D01*
X58502Y-49193D01*
X58520Y-49212D01*
X58539Y-49250D01*
X58558Y-49325D01*
X58558Y-49418D01*
X58539Y-49493D01*
X58520Y-49531D01*
X58502Y-49550D01*
X58464Y-49568D01*
X58427Y-49568D01*
X58389Y-49550D01*
X58370Y-49531D01*
X58352Y-49493D01*
X58333Y-49418D01*
X58333Y-49325D01*
X58352Y-49250D01*
X58370Y-49212D01*
X58389Y-49193D01*
X58427Y-49175D01*
X57808Y-53702D02*
X57583Y-53702D01*
X57695Y-53702D02*
X57695Y-53308D01*
X57658Y-53365D01*
X57620Y-53402D01*
X57583Y-53421D01*
X58033Y-53477D02*
X57995Y-53458D01*
X57977Y-53440D01*
X57958Y-53402D01*
X57958Y-53383D01*
X57977Y-53346D01*
X57995Y-53327D01*
X58033Y-53308D01*
X58108Y-53308D01*
X58145Y-53327D01*
X58164Y-53346D01*
X58183Y-53383D01*
X58183Y-53402D01*
X58164Y-53440D01*
X58145Y-53458D01*
X58108Y-53477D01*
X58033Y-53477D01*
X57995Y-53496D01*
X57977Y-53515D01*
X57958Y-53552D01*
X57958Y-53627D01*
X57977Y-53665D01*
X57995Y-53683D01*
X58033Y-53702D01*
X58108Y-53702D01*
X58145Y-53683D01*
X58164Y-53665D01*
X58183Y-53627D01*
X58183Y-53552D01*
X58164Y-53515D01*
X58145Y-53496D01*
X58108Y-53477D01*
X58427Y-53308D02*
X58464Y-53308D01*
X58502Y-53327D01*
X58520Y-53346D01*
X58539Y-53383D01*
X58558Y-53458D01*
X58558Y-53552D01*
X58539Y-53627D01*
X58520Y-53665D01*
X58502Y-53683D01*
X58464Y-53702D01*
X58427Y-53702D01*
X58389Y-53683D01*
X58370Y-53665D01*
X58352Y-53627D01*
X58333Y-53552D01*
X58333Y-53458D01*
X58352Y-53383D01*
X58370Y-53346D01*
X58389Y-53327D01*
X58427Y-53308D01*
X101588Y-51167D02*
X101527Y-51211D01*
X101508Y-51249D01*
X101503Y-51275D01*
X101506Y-51342D01*
X101535Y-51414D01*
X101623Y-51535D01*
X101660Y-51555D01*
X101687Y-51559D01*
X101728Y-51552D01*
X101789Y-51508D01*
X101808Y-51471D01*
X101812Y-51444D01*
X101805Y-51403D01*
X101750Y-51327D01*
X101713Y-51308D01*
X101687Y-51304D01*
X101645Y-51311D01*
X101585Y-51355D01*
X101565Y-51392D01*
X101561Y-51418D01*
X101568Y-51460D01*
X101899Y-51150D02*
X101858Y-51156D01*
X101832Y-51152D01*
X101794Y-51133D01*
X101783Y-51118D01*
X101776Y-51076D01*
X101781Y-51050D01*
X101800Y-51013D01*
X101861Y-50969D01*
X101902Y-50962D01*
X101928Y-50966D01*
X101965Y-50986D01*
X101976Y-51001D01*
X101983Y-51042D01*
X101979Y-51068D01*
X101960Y-51105D01*
X101899Y-51150D01*
X101880Y-51187D01*
X101876Y-51213D01*
X101883Y-51254D01*
X101927Y-51315D01*
X101964Y-51334D01*
X101990Y-51338D01*
X102031Y-51332D01*
X102092Y-51287D01*
X102111Y-51250D01*
X102115Y-51224D01*
X102109Y-51183D01*
X102065Y-51122D01*
X102027Y-51103D01*
X102001Y-51099D01*
X101960Y-51105D01*
X102118Y-50782D02*
X102149Y-50760D01*
X102190Y-50753D01*
X102216Y-50757D01*
X102254Y-50776D01*
X102313Y-50826D01*
X102368Y-50902D01*
X102397Y-50973D01*
X102404Y-51015D01*
X102399Y-51041D01*
X102380Y-51078D01*
X102350Y-51100D01*
X102308Y-51107D01*
X102282Y-51103D01*
X102245Y-51084D01*
X102186Y-51034D01*
X102131Y-50958D01*
X102102Y-50886D01*
X102095Y-50845D01*
X102099Y-50819D01*
X102118Y-50782D01*
X57808Y-61970D02*
X57583Y-61970D01*
X57695Y-61970D02*
X57695Y-61576D01*
X57658Y-61632D01*
X57620Y-61670D01*
X57583Y-61689D01*
X58033Y-61745D02*
X57995Y-61726D01*
X57977Y-61707D01*
X57958Y-61670D01*
X57958Y-61651D01*
X57977Y-61614D01*
X57995Y-61595D01*
X58033Y-61576D01*
X58108Y-61576D01*
X58145Y-61595D01*
X58164Y-61614D01*
X58183Y-61651D01*
X58183Y-61670D01*
X58164Y-61707D01*
X58145Y-61726D01*
X58108Y-61745D01*
X58033Y-61745D01*
X57995Y-61764D01*
X57977Y-61782D01*
X57958Y-61820D01*
X57958Y-61895D01*
X57977Y-61932D01*
X57995Y-61951D01*
X58033Y-61970D01*
X58108Y-61970D01*
X58145Y-61951D01*
X58164Y-61932D01*
X58183Y-61895D01*
X58183Y-61820D01*
X58164Y-61782D01*
X58145Y-61764D01*
X58108Y-61745D01*
X58427Y-61576D02*
X58464Y-61576D01*
X58502Y-61595D01*
X58520Y-61614D01*
X58539Y-61651D01*
X58558Y-61726D01*
X58558Y-61820D01*
X58539Y-61895D01*
X58520Y-61932D01*
X58502Y-61951D01*
X58464Y-61970D01*
X58427Y-61970D01*
X58389Y-61951D01*
X58370Y-61932D01*
X58352Y-61895D01*
X58333Y-61820D01*
X58333Y-61726D01*
X58352Y-61651D01*
X58370Y-61614D01*
X58389Y-61595D01*
X58427Y-61576D01*
X57808Y-66104D02*
X57583Y-66104D01*
X57695Y-66104D02*
X57695Y-65710D01*
X57658Y-65766D01*
X57620Y-65804D01*
X57583Y-65823D01*
X58033Y-65879D02*
X57995Y-65860D01*
X57977Y-65841D01*
X57958Y-65804D01*
X57958Y-65785D01*
X57977Y-65748D01*
X57995Y-65729D01*
X58033Y-65710D01*
X58108Y-65710D01*
X58145Y-65729D01*
X58164Y-65748D01*
X58183Y-65785D01*
X58183Y-65804D01*
X58164Y-65841D01*
X58145Y-65860D01*
X58108Y-65879D01*
X58033Y-65879D01*
X57995Y-65898D01*
X57977Y-65916D01*
X57958Y-65954D01*
X57958Y-66029D01*
X57977Y-66066D01*
X57995Y-66085D01*
X58033Y-66104D01*
X58108Y-66104D01*
X58145Y-66085D01*
X58164Y-66066D01*
X58183Y-66029D01*
X58183Y-65954D01*
X58164Y-65916D01*
X58145Y-65898D01*
X58108Y-65879D01*
X58427Y-65710D02*
X58464Y-65710D01*
X58502Y-65729D01*
X58520Y-65748D01*
X58539Y-65785D01*
X58558Y-65860D01*
X58558Y-65954D01*
X58539Y-66029D01*
X58520Y-66066D01*
X58502Y-66085D01*
X58464Y-66104D01*
X58427Y-66104D01*
X58389Y-66085D01*
X58370Y-66066D01*
X58352Y-66029D01*
X58333Y-65954D01*
X58333Y-65860D01*
X58352Y-65785D01*
X58370Y-65748D01*
X58389Y-65729D01*
X58427Y-65710D01*
X57808Y-70238D02*
X57583Y-70238D01*
X57695Y-70238D02*
X57695Y-69844D01*
X57658Y-69900D01*
X57620Y-69938D01*
X57583Y-69956D01*
X58033Y-70013D02*
X57995Y-69994D01*
X57977Y-69975D01*
X57958Y-69938D01*
X57958Y-69919D01*
X57977Y-69881D01*
X57995Y-69863D01*
X58033Y-69844D01*
X58108Y-69844D01*
X58145Y-69863D01*
X58164Y-69881D01*
X58183Y-69919D01*
X58183Y-69938D01*
X58164Y-69975D01*
X58145Y-69994D01*
X58108Y-70013D01*
X58033Y-70013D01*
X57995Y-70031D01*
X57977Y-70050D01*
X57958Y-70088D01*
X57958Y-70163D01*
X57977Y-70200D01*
X57995Y-70219D01*
X58033Y-70238D01*
X58108Y-70238D01*
X58145Y-70219D01*
X58164Y-70200D01*
X58183Y-70163D01*
X58183Y-70088D01*
X58164Y-70050D01*
X58145Y-70031D01*
X58108Y-70013D01*
X58427Y-69844D02*
X58464Y-69844D01*
X58502Y-69863D01*
X58520Y-69881D01*
X58539Y-69919D01*
X58558Y-69994D01*
X58558Y-70088D01*
X58539Y-70163D01*
X58520Y-70200D01*
X58502Y-70219D01*
X58464Y-70238D01*
X58427Y-70238D01*
X58389Y-70219D01*
X58370Y-70200D01*
X58352Y-70163D01*
X58333Y-70088D01*
X58333Y-69994D01*
X58352Y-69919D01*
X58370Y-69881D01*
X58389Y-69863D01*
X58427Y-69844D01*
X57808Y-74371D02*
X57583Y-74371D01*
X57695Y-74371D02*
X57695Y-73978D01*
X57658Y-74034D01*
X57620Y-74071D01*
X57583Y-74090D01*
X58033Y-74146D02*
X57995Y-74128D01*
X57977Y-74109D01*
X57958Y-74071D01*
X57958Y-74053D01*
X57977Y-74015D01*
X57995Y-73997D01*
X58033Y-73978D01*
X58108Y-73978D01*
X58145Y-73997D01*
X58164Y-74015D01*
X58183Y-74053D01*
X58183Y-74071D01*
X58164Y-74109D01*
X58145Y-74128D01*
X58108Y-74146D01*
X58033Y-74146D01*
X57995Y-74165D01*
X57977Y-74184D01*
X57958Y-74221D01*
X57958Y-74296D01*
X57977Y-74334D01*
X57995Y-74353D01*
X58033Y-74371D01*
X58108Y-74371D01*
X58145Y-74353D01*
X58164Y-74334D01*
X58183Y-74296D01*
X58183Y-74221D01*
X58164Y-74184D01*
X58145Y-74165D01*
X58108Y-74146D01*
X58427Y-73978D02*
X58464Y-73978D01*
X58502Y-73997D01*
X58520Y-74015D01*
X58539Y-74053D01*
X58558Y-74128D01*
X58558Y-74221D01*
X58539Y-74296D01*
X58520Y-74334D01*
X58502Y-74353D01*
X58464Y-74371D01*
X58427Y-74371D01*
X58389Y-74353D01*
X58370Y-74334D01*
X58352Y-74296D01*
X58333Y-74221D01*
X58333Y-74128D01*
X58352Y-74053D01*
X58370Y-74015D01*
X58389Y-73997D01*
X58427Y-73978D01*
X57808Y-78505D02*
X57583Y-78505D01*
X57695Y-78505D02*
X57695Y-78112D01*
X57658Y-78168D01*
X57620Y-78205D01*
X57583Y-78224D01*
X58033Y-78280D02*
X57995Y-78262D01*
X57977Y-78243D01*
X57958Y-78205D01*
X57958Y-78187D01*
X57977Y-78149D01*
X57995Y-78130D01*
X58033Y-78112D01*
X58108Y-78112D01*
X58145Y-78130D01*
X58164Y-78149D01*
X58183Y-78187D01*
X58183Y-78205D01*
X58164Y-78243D01*
X58145Y-78262D01*
X58108Y-78280D01*
X58033Y-78280D01*
X57995Y-78299D01*
X57977Y-78318D01*
X57958Y-78355D01*
X57958Y-78430D01*
X57977Y-78468D01*
X57995Y-78487D01*
X58033Y-78505D01*
X58108Y-78505D01*
X58145Y-78487D01*
X58164Y-78468D01*
X58183Y-78430D01*
X58183Y-78355D01*
X58164Y-78318D01*
X58145Y-78299D01*
X58108Y-78280D01*
X58427Y-78112D02*
X58464Y-78112D01*
X58502Y-78130D01*
X58520Y-78149D01*
X58539Y-78187D01*
X58558Y-78262D01*
X58558Y-78355D01*
X58539Y-78430D01*
X58520Y-78468D01*
X58502Y-78487D01*
X58464Y-78505D01*
X58427Y-78505D01*
X58389Y-78487D01*
X58370Y-78468D01*
X58352Y-78430D01*
X58333Y-78355D01*
X58333Y-78262D01*
X58352Y-78187D01*
X58370Y-78149D01*
X58389Y-78130D01*
X58427Y-78112D01*
X71934Y-69844D02*
X72197Y-69844D01*
X72028Y-70238D01*
X72534Y-69844D02*
X72347Y-69844D01*
X72328Y-70031D01*
X72347Y-70013D01*
X72384Y-69994D01*
X72478Y-69994D01*
X72515Y-70013D01*
X72534Y-70031D01*
X72553Y-70069D01*
X72553Y-70163D01*
X72534Y-70200D01*
X72515Y-70219D01*
X72478Y-70238D01*
X72384Y-70238D01*
X72347Y-70219D01*
X72328Y-70200D01*
X72797Y-69844D02*
X72834Y-69844D01*
X72872Y-69863D01*
X72890Y-69881D01*
X72909Y-69919D01*
X72928Y-69994D01*
X72928Y-70088D01*
X72909Y-70163D01*
X72890Y-70200D01*
X72872Y-70219D01*
X72834Y-70238D01*
X72797Y-70238D01*
X72759Y-70219D01*
X72740Y-70200D01*
X72722Y-70163D01*
X72703Y-70088D01*
X72703Y-69994D01*
X72722Y-69919D01*
X72740Y-69881D01*
X72759Y-69863D01*
X72797Y-69844D01*
X76462Y-69844D02*
X76724Y-69844D01*
X76556Y-70238D01*
X77062Y-69844D02*
X76874Y-69844D01*
X76856Y-70031D01*
X76874Y-70013D01*
X76912Y-69994D01*
X77005Y-69994D01*
X77043Y-70013D01*
X77062Y-70031D01*
X77080Y-70069D01*
X77080Y-70163D01*
X77062Y-70200D01*
X77043Y-70219D01*
X77005Y-70238D01*
X76912Y-70238D01*
X76874Y-70219D01*
X76856Y-70200D01*
X77324Y-69844D02*
X77362Y-69844D01*
X77399Y-69863D01*
X77418Y-69881D01*
X77437Y-69919D01*
X77455Y-69994D01*
X77455Y-70088D01*
X77437Y-70163D01*
X77418Y-70200D01*
X77399Y-70219D01*
X77362Y-70238D01*
X77324Y-70238D01*
X77287Y-70219D01*
X77268Y-70200D01*
X77249Y-70163D01*
X77230Y-70088D01*
X77230Y-69994D01*
X77249Y-69919D01*
X77268Y-69881D01*
X77287Y-69863D01*
X77324Y-69844D01*
X101391Y-79317D02*
X101330Y-79361D01*
X101311Y-79398D01*
X101307Y-79424D01*
X101309Y-79492D01*
X101338Y-79564D01*
X101426Y-79685D01*
X101464Y-79704D01*
X101490Y-79708D01*
X101531Y-79702D01*
X101592Y-79657D01*
X101611Y-79620D01*
X101615Y-79594D01*
X101608Y-79553D01*
X101553Y-79477D01*
X101516Y-79458D01*
X101490Y-79453D01*
X101449Y-79460D01*
X101388Y-79504D01*
X101369Y-79542D01*
X101364Y-79568D01*
X101371Y-79609D01*
X101702Y-79299D02*
X101661Y-79306D01*
X101635Y-79302D01*
X101598Y-79283D01*
X101586Y-79267D01*
X101580Y-79226D01*
X101584Y-79200D01*
X101603Y-79163D01*
X101664Y-79119D01*
X101705Y-79112D01*
X101731Y-79116D01*
X101768Y-79135D01*
X101780Y-79150D01*
X101786Y-79192D01*
X101782Y-79218D01*
X101763Y-79255D01*
X101702Y-79299D01*
X101683Y-79336D01*
X101679Y-79363D01*
X101686Y-79404D01*
X101730Y-79465D01*
X101767Y-79484D01*
X101793Y-79488D01*
X101834Y-79481D01*
X101895Y-79437D01*
X101914Y-79400D01*
X101919Y-79374D01*
X101912Y-79332D01*
X101868Y-79272D01*
X101830Y-79252D01*
X101804Y-79248D01*
X101763Y-79255D01*
X101922Y-78931D02*
X101952Y-78909D01*
X101993Y-78902D01*
X102019Y-78906D01*
X102057Y-78926D01*
X102116Y-78975D01*
X102171Y-79051D01*
X102200Y-79123D01*
X102207Y-79164D01*
X102203Y-79191D01*
X102183Y-79228D01*
X102153Y-79250D01*
X102112Y-79257D01*
X102085Y-79252D01*
X102048Y-79233D01*
X101989Y-79184D01*
X101934Y-79108D01*
X101905Y-79036D01*
X101898Y-78995D01*
X101902Y-78968D01*
X101922Y-78931D01*
G54D23*
X91039Y-72562D02*
X91039Y-72262D01*
X91153Y-72262D01*
X91182Y-72276D01*
X91196Y-72290D01*
X91210Y-72319D01*
X91210Y-72362D01*
X91196Y-72390D01*
X91182Y-72405D01*
X91153Y-72419D01*
X91039Y-72419D01*
X91396Y-72262D02*
X91453Y-72262D01*
X91482Y-72276D01*
X91510Y-72305D01*
X91525Y-72362D01*
X91525Y-72462D01*
X91510Y-72519D01*
X91482Y-72548D01*
X91453Y-72562D01*
X91396Y-72562D01*
X91367Y-72548D01*
X91339Y-72519D01*
X91325Y-72462D01*
X91325Y-72362D01*
X91339Y-72305D01*
X91367Y-72276D01*
X91396Y-72262D01*
X91625Y-72262D02*
X91696Y-72562D01*
X91753Y-72348D01*
X91810Y-72562D01*
X91882Y-72262D01*
X91996Y-72405D02*
X92096Y-72405D01*
X92139Y-72562D02*
X91996Y-72562D01*
X91996Y-72262D01*
X92139Y-72262D01*
X92439Y-72562D02*
X92339Y-72419D01*
X92267Y-72562D02*
X92267Y-72262D01*
X92382Y-72262D01*
X92410Y-72276D01*
X92425Y-72290D01*
X92439Y-72319D01*
X92439Y-72362D01*
X92425Y-72390D01*
X92410Y-72405D01*
X92382Y-72419D01*
X92267Y-72419D01*
G54D21*
X87058Y-51178D02*
X87058Y-51583D01*
X87080Y-51631D01*
X87101Y-51654D01*
X87144Y-51678D01*
X87230Y-51678D01*
X87273Y-51654D01*
X87294Y-51631D01*
X87315Y-51583D01*
X87315Y-51178D01*
X87487Y-51178D02*
X87765Y-51178D01*
X87615Y-51369D01*
X87680Y-51369D01*
X87723Y-51393D01*
X87744Y-51416D01*
X87765Y-51464D01*
X87765Y-51583D01*
X87744Y-51631D01*
X87723Y-51654D01*
X87680Y-51678D01*
X87551Y-51678D01*
X87508Y-51654D01*
X87487Y-51631D01*
X81054Y-51080D02*
X81054Y-51485D01*
X81076Y-51532D01*
X81097Y-51556D01*
X81140Y-51580D01*
X81226Y-51580D01*
X81269Y-51556D01*
X81290Y-51532D01*
X81311Y-51485D01*
X81311Y-51080D01*
X81719Y-51247D02*
X81719Y-51580D01*
X81611Y-51056D02*
X81504Y-51413D01*
X81783Y-51413D01*
X77254Y-67270D02*
X77254Y-67877D01*
X77273Y-67948D01*
X77292Y-67984D01*
X77330Y-68020D01*
X77406Y-68020D01*
X77444Y-67984D01*
X77463Y-67948D01*
X77482Y-67877D01*
X77482Y-67270D01*
X77654Y-67341D02*
X77673Y-67305D01*
X77711Y-67270D01*
X77806Y-67270D01*
X77844Y-67305D01*
X77863Y-67341D01*
X77882Y-67412D01*
X77882Y-67484D01*
X77863Y-67591D01*
X77635Y-68020D01*
X77882Y-68020D01*
X74493Y-67368D02*
X74493Y-66768D01*
X74493Y-67054D02*
X74693Y-67054D01*
X74693Y-67368D02*
X74693Y-66768D01*
X75043Y-67368D02*
X74843Y-67368D01*
X74943Y-67368D02*
X74943Y-66768D01*
X74910Y-66854D01*
X74877Y-66911D01*
X74843Y-66940D01*
X75377Y-67368D02*
X75177Y-67368D01*
X75277Y-67368D02*
X75277Y-66768D01*
X75243Y-66854D01*
X75210Y-66911D01*
X75177Y-66940D01*
X75510Y-67197D02*
X75677Y-67197D01*
X75477Y-67368D02*
X75593Y-66768D01*
X75710Y-67368D01*
X75810Y-67197D02*
X75977Y-67197D01*
X75777Y-67368D02*
X75893Y-66768D01*
X76010Y-67368D01*
X76310Y-67368D02*
X76110Y-67368D01*
X76210Y-67368D02*
X76210Y-66768D01*
X76177Y-66854D01*
X76143Y-66911D01*
X76110Y-66940D01*
X105784Y-56858D02*
X105784Y-56108D01*
X105918Y-56644D01*
X106051Y-56108D01*
X106051Y-56858D01*
X106451Y-56858D02*
X106223Y-56858D01*
X106337Y-56858D02*
X106337Y-56108D01*
X106299Y-56215D01*
X106261Y-56287D01*
X106223Y-56322D01*
X106794Y-56358D02*
X106794Y-56858D01*
X106699Y-56072D02*
X106603Y-56608D01*
X106851Y-56608D01*
X106542Y-60196D02*
X105942Y-60196D01*
X106370Y-60080D01*
X105942Y-59963D01*
X106542Y-59963D01*
X105942Y-59730D02*
X105942Y-59663D01*
X105970Y-59630D01*
X106027Y-59596D01*
X106142Y-59580D01*
X106342Y-59580D01*
X106456Y-59596D01*
X106513Y-59630D01*
X106542Y-59663D01*
X106542Y-59730D01*
X106513Y-59763D01*
X106456Y-59796D01*
X106342Y-59813D01*
X106142Y-59813D01*
X106027Y-59796D01*
X105970Y-59763D01*
X105942Y-59730D01*
X106484Y-59230D02*
X106513Y-59246D01*
X106542Y-59296D01*
X106542Y-59330D01*
X106513Y-59380D01*
X106456Y-59413D01*
X106399Y-59430D01*
X106284Y-59446D01*
X106199Y-59446D01*
X106084Y-59430D01*
X106027Y-59413D01*
X105970Y-59380D01*
X105942Y-59330D01*
X105942Y-59296D01*
X105970Y-59246D01*
X105999Y-59230D01*
X105942Y-59113D02*
X105942Y-58896D01*
X106170Y-59013D01*
X106170Y-58963D01*
X106199Y-58930D01*
X106227Y-58913D01*
X106284Y-58896D01*
X106427Y-58896D01*
X106484Y-58913D01*
X106513Y-58930D01*
X106542Y-58963D01*
X106542Y-59063D01*
X106513Y-59096D01*
X106484Y-59113D01*
X105942Y-58680D02*
X105942Y-58646D01*
X105970Y-58613D01*
X105999Y-58596D01*
X106056Y-58580D01*
X106170Y-58563D01*
X106313Y-58563D01*
X106427Y-58580D01*
X106484Y-58596D01*
X106513Y-58613D01*
X106542Y-58646D01*
X106542Y-58680D01*
X106513Y-58713D01*
X106484Y-58730D01*
X106427Y-58746D01*
X106313Y-58763D01*
X106170Y-58763D01*
X106056Y-58746D01*
X105999Y-58730D01*
X105970Y-58713D01*
X105942Y-58680D01*
X105999Y-58430D02*
X105970Y-58413D01*
X105942Y-58380D01*
X105942Y-58296D01*
X105970Y-58263D01*
X105999Y-58246D01*
X106056Y-58230D01*
X106113Y-58230D01*
X106199Y-58246D01*
X106542Y-58446D01*
X106542Y-58230D01*
X105942Y-58113D02*
X105942Y-57896D01*
X106170Y-58013D01*
X106170Y-57963D01*
X106199Y-57930D01*
X106227Y-57913D01*
X106284Y-57896D01*
X106427Y-57896D01*
X106484Y-57913D01*
X106513Y-57930D01*
X106542Y-57963D01*
X106542Y-58063D01*
X106513Y-58096D01*
X106484Y-58113D01*
X60699Y-77862D02*
X60699Y-77112D01*
X60833Y-77648D01*
X60966Y-77112D01*
X60966Y-77862D01*
X61366Y-77862D02*
X61137Y-77862D01*
X61252Y-77862D02*
X61252Y-77112D01*
X61214Y-77219D01*
X61176Y-77291D01*
X61137Y-77326D01*
X62841Y-80275D02*
X62241Y-80275D01*
X62669Y-80158D01*
X62241Y-80042D01*
X62841Y-80042D01*
X62241Y-79808D02*
X62241Y-79742D01*
X62269Y-79708D01*
X62326Y-79675D01*
X62441Y-79658D01*
X62641Y-79658D01*
X62755Y-79675D01*
X62812Y-79708D01*
X62841Y-79742D01*
X62841Y-79808D01*
X62812Y-79842D01*
X62755Y-79875D01*
X62641Y-79892D01*
X62441Y-79892D01*
X62326Y-79875D01*
X62269Y-79842D01*
X62241Y-79808D01*
X62784Y-79308D02*
X62812Y-79325D01*
X62841Y-79375D01*
X62841Y-79408D01*
X62812Y-79458D01*
X62755Y-79492D01*
X62698Y-79508D01*
X62584Y-79525D01*
X62498Y-79525D01*
X62384Y-79508D01*
X62326Y-79492D01*
X62269Y-79458D01*
X62241Y-79408D01*
X62241Y-79375D01*
X62269Y-79325D01*
X62298Y-79308D01*
X62241Y-79192D02*
X62241Y-78975D01*
X62469Y-79092D01*
X62469Y-79042D01*
X62498Y-79008D01*
X62526Y-78992D01*
X62584Y-78975D01*
X62726Y-78975D01*
X62784Y-78992D01*
X62812Y-79008D01*
X62841Y-79042D01*
X62841Y-79142D01*
X62812Y-79175D01*
X62784Y-79192D01*
X62241Y-78758D02*
X62241Y-78725D01*
X62269Y-78692D01*
X62298Y-78675D01*
X62355Y-78658D01*
X62469Y-78642D01*
X62612Y-78642D01*
X62726Y-78658D01*
X62784Y-78675D01*
X62812Y-78692D01*
X62841Y-78725D01*
X62841Y-78758D01*
X62812Y-78792D01*
X62784Y-78808D01*
X62726Y-78825D01*
X62612Y-78842D01*
X62469Y-78842D01*
X62355Y-78825D01*
X62298Y-78808D01*
X62269Y-78792D01*
X62241Y-78758D01*
X62298Y-78508D02*
X62269Y-78492D01*
X62241Y-78458D01*
X62241Y-78375D01*
X62269Y-78342D01*
X62298Y-78325D01*
X62355Y-78308D01*
X62412Y-78308D01*
X62498Y-78325D01*
X62841Y-78525D01*
X62841Y-78308D01*
X62241Y-78192D02*
X62241Y-77975D01*
X62469Y-78092D01*
X62469Y-78042D01*
X62498Y-78008D01*
X62526Y-77992D01*
X62584Y-77975D01*
X62726Y-77975D01*
X62784Y-77992D01*
X62812Y-78008D01*
X62841Y-78042D01*
X62841Y-78142D01*
X62812Y-78175D01*
X62784Y-78192D01*
X60699Y-73728D02*
X60699Y-72978D01*
X60833Y-73514D01*
X60966Y-72978D01*
X60966Y-73728D01*
X61137Y-73050D02*
X61156Y-73014D01*
X61195Y-72978D01*
X61290Y-72978D01*
X61328Y-73014D01*
X61347Y-73050D01*
X61366Y-73121D01*
X61366Y-73193D01*
X61347Y-73300D01*
X61118Y-73728D01*
X61366Y-73728D01*
X62841Y-76141D02*
X62241Y-76141D01*
X62669Y-76025D01*
X62241Y-75908D01*
X62841Y-75908D01*
X62241Y-75675D02*
X62241Y-75608D01*
X62269Y-75575D01*
X62326Y-75541D01*
X62441Y-75525D01*
X62641Y-75525D01*
X62755Y-75541D01*
X62812Y-75575D01*
X62841Y-75608D01*
X62841Y-75675D01*
X62812Y-75708D01*
X62755Y-75741D01*
X62641Y-75758D01*
X62441Y-75758D01*
X62326Y-75741D01*
X62269Y-75708D01*
X62241Y-75675D01*
X62784Y-75175D02*
X62812Y-75191D01*
X62841Y-75241D01*
X62841Y-75275D01*
X62812Y-75325D01*
X62755Y-75358D01*
X62698Y-75375D01*
X62584Y-75391D01*
X62498Y-75391D01*
X62384Y-75375D01*
X62326Y-75358D01*
X62269Y-75325D01*
X62241Y-75275D01*
X62241Y-75241D01*
X62269Y-75191D01*
X62298Y-75175D01*
X62241Y-75058D02*
X62241Y-74841D01*
X62469Y-74958D01*
X62469Y-74908D01*
X62498Y-74875D01*
X62526Y-74858D01*
X62584Y-74841D01*
X62726Y-74841D01*
X62784Y-74858D01*
X62812Y-74875D01*
X62841Y-74908D01*
X62841Y-75008D01*
X62812Y-75041D01*
X62784Y-75058D01*
X62241Y-74625D02*
X62241Y-74591D01*
X62269Y-74558D01*
X62298Y-74541D01*
X62355Y-74525D01*
X62469Y-74508D01*
X62612Y-74508D01*
X62726Y-74525D01*
X62784Y-74541D01*
X62812Y-74558D01*
X62841Y-74591D01*
X62841Y-74625D01*
X62812Y-74658D01*
X62784Y-74675D01*
X62726Y-74691D01*
X62612Y-74708D01*
X62469Y-74708D01*
X62355Y-74691D01*
X62298Y-74675D01*
X62269Y-74658D01*
X62241Y-74625D01*
X62298Y-74375D02*
X62269Y-74358D01*
X62241Y-74325D01*
X62241Y-74241D01*
X62269Y-74208D01*
X62298Y-74191D01*
X62355Y-74175D01*
X62412Y-74175D01*
X62498Y-74191D01*
X62841Y-74391D01*
X62841Y-74175D01*
X62241Y-74058D02*
X62241Y-73841D01*
X62469Y-73958D01*
X62469Y-73908D01*
X62498Y-73874D01*
X62526Y-73858D01*
X62584Y-73841D01*
X62726Y-73841D01*
X62784Y-73858D01*
X62812Y-73874D01*
X62841Y-73908D01*
X62841Y-74008D01*
X62812Y-74041D01*
X62784Y-74058D01*
X105784Y-48689D02*
X105784Y-47939D01*
X105918Y-48475D01*
X106051Y-47939D01*
X106051Y-48689D01*
X106451Y-48689D02*
X106223Y-48689D01*
X106337Y-48689D02*
X106337Y-47939D01*
X106299Y-48046D01*
X106261Y-48117D01*
X106223Y-48153D01*
X106794Y-47939D02*
X106718Y-47939D01*
X106680Y-47975D01*
X106661Y-48010D01*
X106623Y-48117D01*
X106603Y-48260D01*
X106603Y-48546D01*
X106623Y-48617D01*
X106642Y-48653D01*
X106680Y-48689D01*
X106756Y-48689D01*
X106794Y-48653D01*
X106813Y-48617D01*
X106832Y-48546D01*
X106832Y-48367D01*
X106813Y-48296D01*
X106794Y-48260D01*
X106756Y-48225D01*
X106680Y-48225D01*
X106642Y-48260D01*
X106623Y-48296D01*
X106603Y-48367D01*
X106542Y-52027D02*
X105942Y-52027D01*
X106370Y-51910D01*
X105942Y-51794D01*
X106542Y-51794D01*
X105942Y-51560D02*
X105942Y-51494D01*
X105970Y-51460D01*
X106027Y-51427D01*
X106142Y-51410D01*
X106342Y-51410D01*
X106456Y-51427D01*
X106513Y-51460D01*
X106542Y-51494D01*
X106542Y-51560D01*
X106513Y-51594D01*
X106456Y-51627D01*
X106342Y-51644D01*
X106142Y-51644D01*
X106027Y-51627D01*
X105970Y-51594D01*
X105942Y-51560D01*
X106484Y-51060D02*
X106513Y-51077D01*
X106542Y-51127D01*
X106542Y-51160D01*
X106513Y-51210D01*
X106456Y-51244D01*
X106399Y-51260D01*
X106284Y-51277D01*
X106199Y-51277D01*
X106084Y-51260D01*
X106027Y-51244D01*
X105970Y-51210D01*
X105942Y-51160D01*
X105942Y-51127D01*
X105970Y-51077D01*
X105999Y-51060D01*
X105942Y-50944D02*
X105942Y-50727D01*
X106170Y-50844D01*
X106170Y-50794D01*
X106199Y-50760D01*
X106227Y-50744D01*
X106284Y-50727D01*
X106427Y-50727D01*
X106484Y-50744D01*
X106513Y-50760D01*
X106542Y-50794D01*
X106542Y-50894D01*
X106513Y-50927D01*
X106484Y-50944D01*
X105942Y-50510D02*
X105942Y-50477D01*
X105970Y-50444D01*
X105999Y-50427D01*
X106056Y-50410D01*
X106170Y-50394D01*
X106313Y-50394D01*
X106427Y-50410D01*
X106484Y-50427D01*
X106513Y-50444D01*
X106542Y-50477D01*
X106542Y-50510D01*
X106513Y-50544D01*
X106484Y-50560D01*
X106427Y-50577D01*
X106313Y-50594D01*
X106170Y-50594D01*
X106056Y-50577D01*
X105999Y-50560D01*
X105970Y-50544D01*
X105942Y-50510D01*
X105999Y-50260D02*
X105970Y-50244D01*
X105942Y-50210D01*
X105942Y-50127D01*
X105970Y-50094D01*
X105999Y-50077D01*
X106056Y-50060D01*
X106113Y-50060D01*
X106199Y-50077D01*
X106542Y-50277D01*
X106542Y-50060D01*
X105942Y-49944D02*
X105942Y-49727D01*
X106170Y-49844D01*
X106170Y-49794D01*
X106199Y-49760D01*
X106227Y-49744D01*
X106284Y-49727D01*
X106427Y-49727D01*
X106484Y-49744D01*
X106513Y-49760D01*
X106542Y-49794D01*
X106542Y-49894D01*
X106513Y-49927D01*
X106484Y-49944D01*
X105784Y-52724D02*
X105784Y-51974D01*
X105918Y-52510D01*
X106051Y-51974D01*
X106051Y-52724D01*
X106451Y-52724D02*
X106223Y-52724D01*
X106337Y-52724D02*
X106337Y-51974D01*
X106299Y-52081D01*
X106261Y-52153D01*
X106223Y-52189D01*
X106813Y-51974D02*
X106623Y-51974D01*
X106603Y-52331D01*
X106623Y-52296D01*
X106661Y-52260D01*
X106756Y-52260D01*
X106794Y-52296D01*
X106813Y-52331D01*
X106832Y-52403D01*
X106832Y-52581D01*
X106813Y-52653D01*
X106794Y-52689D01*
X106756Y-52724D01*
X106661Y-52724D01*
X106623Y-52689D01*
X106603Y-52653D01*
X106542Y-56062D02*
X105942Y-56062D01*
X106370Y-55946D01*
X105942Y-55829D01*
X106542Y-55829D01*
X105942Y-55596D02*
X105942Y-55529D01*
X105970Y-55496D01*
X106027Y-55462D01*
X106142Y-55446D01*
X106342Y-55446D01*
X106456Y-55462D01*
X106513Y-55496D01*
X106542Y-55529D01*
X106542Y-55596D01*
X106513Y-55629D01*
X106456Y-55662D01*
X106342Y-55679D01*
X106142Y-55679D01*
X106027Y-55662D01*
X105970Y-55629D01*
X105942Y-55596D01*
X106484Y-55096D02*
X106513Y-55112D01*
X106542Y-55162D01*
X106542Y-55196D01*
X106513Y-55246D01*
X106456Y-55279D01*
X106399Y-55296D01*
X106284Y-55312D01*
X106199Y-55312D01*
X106084Y-55296D01*
X106027Y-55279D01*
X105970Y-55246D01*
X105942Y-55196D01*
X105942Y-55162D01*
X105970Y-55112D01*
X105999Y-55096D01*
X105942Y-54979D02*
X105942Y-54762D01*
X106170Y-54879D01*
X106170Y-54829D01*
X106199Y-54796D01*
X106227Y-54779D01*
X106284Y-54762D01*
X106427Y-54762D01*
X106484Y-54779D01*
X106513Y-54796D01*
X106542Y-54829D01*
X106542Y-54929D01*
X106513Y-54962D01*
X106484Y-54979D01*
X105942Y-54546D02*
X105942Y-54512D01*
X105970Y-54479D01*
X105999Y-54462D01*
X106056Y-54446D01*
X106170Y-54429D01*
X106313Y-54429D01*
X106427Y-54446D01*
X106484Y-54462D01*
X106513Y-54479D01*
X106542Y-54512D01*
X106542Y-54546D01*
X106513Y-54579D01*
X106484Y-54596D01*
X106427Y-54612D01*
X106313Y-54629D01*
X106170Y-54629D01*
X106056Y-54612D01*
X105999Y-54596D01*
X105970Y-54579D01*
X105942Y-54546D01*
X105999Y-54296D02*
X105970Y-54279D01*
X105942Y-54246D01*
X105942Y-54162D01*
X105970Y-54129D01*
X105999Y-54112D01*
X106056Y-54096D01*
X106113Y-54096D01*
X106199Y-54112D01*
X106542Y-54312D01*
X106542Y-54096D01*
X105942Y-53979D02*
X105942Y-53762D01*
X106170Y-53879D01*
X106170Y-53829D01*
X106199Y-53796D01*
X106227Y-53779D01*
X106284Y-53762D01*
X106427Y-53762D01*
X106484Y-53779D01*
X106513Y-53796D01*
X106542Y-53829D01*
X106542Y-53929D01*
X106513Y-53962D01*
X106484Y-53979D01*
X60699Y-69594D02*
X60699Y-68844D01*
X60833Y-69380D01*
X60966Y-68844D01*
X60966Y-69594D01*
X61118Y-68844D02*
X61366Y-68844D01*
X61233Y-69130D01*
X61290Y-69130D01*
X61328Y-69166D01*
X61347Y-69202D01*
X61366Y-69273D01*
X61366Y-69452D01*
X61347Y-69523D01*
X61328Y-69559D01*
X61290Y-69594D01*
X61176Y-69594D01*
X61137Y-69559D01*
X61118Y-69523D01*
X62841Y-72007D02*
X62241Y-72007D01*
X62669Y-71891D01*
X62241Y-71774D01*
X62841Y-71774D01*
X62241Y-71541D02*
X62241Y-71474D01*
X62269Y-71441D01*
X62326Y-71407D01*
X62441Y-71391D01*
X62641Y-71391D01*
X62755Y-71407D01*
X62812Y-71441D01*
X62841Y-71474D01*
X62841Y-71541D01*
X62812Y-71574D01*
X62755Y-71607D01*
X62641Y-71624D01*
X62441Y-71624D01*
X62326Y-71607D01*
X62269Y-71574D01*
X62241Y-71541D01*
X62784Y-71041D02*
X62812Y-71057D01*
X62841Y-71107D01*
X62841Y-71141D01*
X62812Y-71191D01*
X62755Y-71224D01*
X62698Y-71241D01*
X62584Y-71257D01*
X62498Y-71257D01*
X62384Y-71241D01*
X62326Y-71224D01*
X62269Y-71191D01*
X62241Y-71141D01*
X62241Y-71107D01*
X62269Y-71057D01*
X62298Y-71041D01*
X62241Y-70924D02*
X62241Y-70707D01*
X62469Y-70824D01*
X62469Y-70774D01*
X62498Y-70741D01*
X62526Y-70724D01*
X62584Y-70707D01*
X62726Y-70707D01*
X62784Y-70724D01*
X62812Y-70741D01*
X62841Y-70774D01*
X62841Y-70874D01*
X62812Y-70907D01*
X62784Y-70924D01*
X62241Y-70491D02*
X62241Y-70457D01*
X62269Y-70424D01*
X62298Y-70407D01*
X62355Y-70391D01*
X62469Y-70374D01*
X62612Y-70374D01*
X62726Y-70391D01*
X62784Y-70407D01*
X62812Y-70424D01*
X62841Y-70457D01*
X62841Y-70491D01*
X62812Y-70524D01*
X62784Y-70541D01*
X62726Y-70557D01*
X62612Y-70574D01*
X62469Y-70574D01*
X62355Y-70557D01*
X62298Y-70541D01*
X62269Y-70524D01*
X62241Y-70491D01*
X62298Y-70241D02*
X62269Y-70224D01*
X62241Y-70191D01*
X62241Y-70107D01*
X62269Y-70074D01*
X62298Y-70057D01*
X62355Y-70041D01*
X62412Y-70041D01*
X62498Y-70057D01*
X62841Y-70257D01*
X62841Y-70041D01*
X62241Y-69924D02*
X62241Y-69707D01*
X62469Y-69824D01*
X62469Y-69774D01*
X62498Y-69741D01*
X62526Y-69724D01*
X62584Y-69707D01*
X62726Y-69707D01*
X62784Y-69724D01*
X62812Y-69741D01*
X62841Y-69774D01*
X62841Y-69874D01*
X62812Y-69907D01*
X62784Y-69924D01*
X60699Y-65461D02*
X60699Y-64711D01*
X60833Y-65246D01*
X60966Y-64711D01*
X60966Y-65461D01*
X61328Y-64961D02*
X61328Y-65461D01*
X61233Y-64675D02*
X61137Y-65211D01*
X61385Y-65211D01*
X62841Y-67873D02*
X62241Y-67873D01*
X62669Y-67757D01*
X62241Y-67640D01*
X62841Y-67640D01*
X62241Y-67407D02*
X62241Y-67340D01*
X62269Y-67307D01*
X62326Y-67273D01*
X62441Y-67257D01*
X62641Y-67257D01*
X62755Y-67273D01*
X62812Y-67307D01*
X62841Y-67340D01*
X62841Y-67407D01*
X62812Y-67440D01*
X62755Y-67473D01*
X62641Y-67490D01*
X62441Y-67490D01*
X62326Y-67473D01*
X62269Y-67440D01*
X62241Y-67407D01*
X62784Y-66907D02*
X62812Y-66923D01*
X62841Y-66973D01*
X62841Y-67007D01*
X62812Y-67057D01*
X62755Y-67090D01*
X62698Y-67107D01*
X62584Y-67123D01*
X62498Y-67123D01*
X62384Y-67107D01*
X62326Y-67090D01*
X62269Y-67057D01*
X62241Y-67007D01*
X62241Y-66973D01*
X62269Y-66923D01*
X62298Y-66907D01*
X62241Y-66790D02*
X62241Y-66573D01*
X62469Y-66690D01*
X62469Y-66640D01*
X62498Y-66607D01*
X62526Y-66590D01*
X62584Y-66573D01*
X62726Y-66573D01*
X62784Y-66590D01*
X62812Y-66607D01*
X62841Y-66640D01*
X62841Y-66740D01*
X62812Y-66773D01*
X62784Y-66790D01*
X62241Y-66357D02*
X62241Y-66323D01*
X62269Y-66290D01*
X62298Y-66273D01*
X62355Y-66257D01*
X62469Y-66240D01*
X62612Y-66240D01*
X62726Y-66257D01*
X62784Y-66273D01*
X62812Y-66290D01*
X62841Y-66323D01*
X62841Y-66357D01*
X62812Y-66390D01*
X62784Y-66407D01*
X62726Y-66423D01*
X62612Y-66440D01*
X62469Y-66440D01*
X62355Y-66423D01*
X62298Y-66407D01*
X62269Y-66390D01*
X62241Y-66357D01*
X62298Y-66107D02*
X62269Y-66090D01*
X62241Y-66057D01*
X62241Y-65973D01*
X62269Y-65940D01*
X62298Y-65923D01*
X62355Y-65907D01*
X62412Y-65907D01*
X62498Y-65923D01*
X62841Y-66123D01*
X62841Y-65907D01*
X62241Y-65790D02*
X62241Y-65573D01*
X62469Y-65690D01*
X62469Y-65640D01*
X62498Y-65607D01*
X62526Y-65590D01*
X62584Y-65573D01*
X62726Y-65573D01*
X62784Y-65590D01*
X62812Y-65607D01*
X62841Y-65640D01*
X62841Y-65740D01*
X62812Y-65773D01*
X62784Y-65790D01*
X60699Y-61327D02*
X60699Y-60577D01*
X60833Y-61112D01*
X60966Y-60577D01*
X60966Y-61327D01*
X61347Y-60577D02*
X61156Y-60577D01*
X61137Y-60934D01*
X61156Y-60898D01*
X61195Y-60862D01*
X61290Y-60862D01*
X61328Y-60898D01*
X61347Y-60934D01*
X61366Y-61005D01*
X61366Y-61184D01*
X61347Y-61255D01*
X61328Y-61291D01*
X61290Y-61327D01*
X61195Y-61327D01*
X61156Y-61291D01*
X61137Y-61255D01*
X62841Y-63740D02*
X62241Y-63740D01*
X62669Y-63623D01*
X62241Y-63506D01*
X62841Y-63506D01*
X62241Y-63273D02*
X62241Y-63206D01*
X62269Y-63173D01*
X62326Y-63140D01*
X62441Y-63123D01*
X62641Y-63123D01*
X62755Y-63140D01*
X62812Y-63173D01*
X62841Y-63206D01*
X62841Y-63273D01*
X62812Y-63306D01*
X62755Y-63340D01*
X62641Y-63356D01*
X62441Y-63356D01*
X62326Y-63340D01*
X62269Y-63306D01*
X62241Y-63273D01*
X62784Y-62773D02*
X62812Y-62790D01*
X62841Y-62840D01*
X62841Y-62873D01*
X62812Y-62923D01*
X62755Y-62956D01*
X62698Y-62973D01*
X62584Y-62990D01*
X62498Y-62990D01*
X62384Y-62973D01*
X62326Y-62956D01*
X62269Y-62923D01*
X62241Y-62873D01*
X62241Y-62840D01*
X62269Y-62790D01*
X62298Y-62773D01*
X62241Y-62656D02*
X62241Y-62440D01*
X62469Y-62556D01*
X62469Y-62506D01*
X62498Y-62473D01*
X62526Y-62456D01*
X62584Y-62440D01*
X62726Y-62440D01*
X62784Y-62456D01*
X62812Y-62473D01*
X62841Y-62506D01*
X62841Y-62606D01*
X62812Y-62640D01*
X62784Y-62656D01*
X62241Y-62223D02*
X62241Y-62190D01*
X62269Y-62156D01*
X62298Y-62140D01*
X62355Y-62123D01*
X62469Y-62106D01*
X62612Y-62106D01*
X62726Y-62123D01*
X62784Y-62140D01*
X62812Y-62156D01*
X62841Y-62190D01*
X62841Y-62223D01*
X62812Y-62256D01*
X62784Y-62273D01*
X62726Y-62290D01*
X62612Y-62306D01*
X62469Y-62306D01*
X62355Y-62290D01*
X62298Y-62273D01*
X62269Y-62256D01*
X62241Y-62223D01*
X62298Y-61973D02*
X62269Y-61956D01*
X62241Y-61923D01*
X62241Y-61840D01*
X62269Y-61806D01*
X62298Y-61790D01*
X62355Y-61773D01*
X62412Y-61773D01*
X62498Y-61790D01*
X62841Y-61990D01*
X62841Y-61773D01*
X62241Y-61656D02*
X62241Y-61440D01*
X62469Y-61556D01*
X62469Y-61506D01*
X62498Y-61473D01*
X62526Y-61456D01*
X62584Y-61440D01*
X62726Y-61440D01*
X62784Y-61456D01*
X62812Y-61473D01*
X62841Y-61506D01*
X62841Y-61606D01*
X62812Y-61640D01*
X62784Y-61656D01*
X105784Y-60795D02*
X105784Y-60045D01*
X105918Y-60581D01*
X106051Y-60045D01*
X106051Y-60795D01*
X106451Y-60795D02*
X106223Y-60795D01*
X106337Y-60795D02*
X106337Y-60045D01*
X106299Y-60152D01*
X106261Y-60224D01*
X106223Y-60259D01*
X106584Y-60045D02*
X106832Y-60045D01*
X106699Y-60331D01*
X106756Y-60331D01*
X106794Y-60367D01*
X106813Y-60402D01*
X106832Y-60474D01*
X106832Y-60652D01*
X106813Y-60724D01*
X106794Y-60759D01*
X106756Y-60795D01*
X106642Y-60795D01*
X106603Y-60759D01*
X106584Y-60724D01*
X106542Y-64133D02*
X105942Y-64133D01*
X106370Y-64017D01*
X105942Y-63900D01*
X106542Y-63900D01*
X105942Y-63667D02*
X105942Y-63600D01*
X105970Y-63567D01*
X106027Y-63533D01*
X106142Y-63517D01*
X106342Y-63517D01*
X106456Y-63533D01*
X106513Y-63567D01*
X106542Y-63600D01*
X106542Y-63667D01*
X106513Y-63700D01*
X106456Y-63733D01*
X106342Y-63750D01*
X106142Y-63750D01*
X106027Y-63733D01*
X105970Y-63700D01*
X105942Y-63667D01*
X106484Y-63167D02*
X106513Y-63183D01*
X106542Y-63233D01*
X106542Y-63267D01*
X106513Y-63317D01*
X106456Y-63350D01*
X106399Y-63367D01*
X106284Y-63383D01*
X106199Y-63383D01*
X106084Y-63367D01*
X106027Y-63350D01*
X105970Y-63317D01*
X105942Y-63267D01*
X105942Y-63233D01*
X105970Y-63183D01*
X105999Y-63167D01*
X105942Y-63050D02*
X105942Y-62833D01*
X106170Y-62950D01*
X106170Y-62900D01*
X106199Y-62867D01*
X106227Y-62850D01*
X106284Y-62833D01*
X106427Y-62833D01*
X106484Y-62850D01*
X106513Y-62867D01*
X106542Y-62900D01*
X106542Y-63000D01*
X106513Y-63033D01*
X106484Y-63050D01*
X105942Y-62617D02*
X105942Y-62583D01*
X105970Y-62550D01*
X105999Y-62533D01*
X106056Y-62517D01*
X106170Y-62500D01*
X106313Y-62500D01*
X106427Y-62517D01*
X106484Y-62533D01*
X106513Y-62550D01*
X106542Y-62583D01*
X106542Y-62617D01*
X106513Y-62650D01*
X106484Y-62667D01*
X106427Y-62683D01*
X106313Y-62700D01*
X106170Y-62700D01*
X106056Y-62683D01*
X105999Y-62667D01*
X105970Y-62650D01*
X105942Y-62617D01*
X105999Y-62367D02*
X105970Y-62350D01*
X105942Y-62317D01*
X105942Y-62233D01*
X105970Y-62200D01*
X105999Y-62183D01*
X106056Y-62167D01*
X106113Y-62167D01*
X106199Y-62183D01*
X106542Y-62383D01*
X106542Y-62167D01*
X105942Y-62050D02*
X105942Y-61833D01*
X106170Y-61950D01*
X106170Y-61900D01*
X106199Y-61867D01*
X106227Y-61850D01*
X106284Y-61833D01*
X106427Y-61833D01*
X106484Y-61850D01*
X106513Y-61867D01*
X106542Y-61900D01*
X106542Y-62000D01*
X106513Y-62033D01*
X106484Y-62050D01*
X105784Y-64831D02*
X105784Y-64081D01*
X105918Y-64616D01*
X106051Y-64081D01*
X106051Y-64831D01*
X106451Y-64831D02*
X106223Y-64831D01*
X106337Y-64831D02*
X106337Y-64081D01*
X106299Y-64188D01*
X106261Y-64259D01*
X106223Y-64295D01*
X106603Y-64152D02*
X106623Y-64116D01*
X106661Y-64081D01*
X106756Y-64081D01*
X106794Y-64116D01*
X106813Y-64152D01*
X106832Y-64223D01*
X106832Y-64295D01*
X106813Y-64402D01*
X106584Y-64831D01*
X106832Y-64831D01*
X106542Y-68169D02*
X105942Y-68169D01*
X106370Y-68052D01*
X105942Y-67935D01*
X106542Y-67935D01*
X105942Y-67702D02*
X105942Y-67635D01*
X105970Y-67602D01*
X106027Y-67569D01*
X106142Y-67552D01*
X106342Y-67552D01*
X106456Y-67569D01*
X106513Y-67602D01*
X106542Y-67635D01*
X106542Y-67702D01*
X106513Y-67735D01*
X106456Y-67769D01*
X106342Y-67785D01*
X106142Y-67785D01*
X106027Y-67769D01*
X105970Y-67735D01*
X105942Y-67702D01*
X106484Y-67202D02*
X106513Y-67219D01*
X106542Y-67269D01*
X106542Y-67302D01*
X106513Y-67352D01*
X106456Y-67385D01*
X106399Y-67402D01*
X106284Y-67419D01*
X106199Y-67419D01*
X106084Y-67402D01*
X106027Y-67385D01*
X105970Y-67352D01*
X105942Y-67302D01*
X105942Y-67269D01*
X105970Y-67219D01*
X105999Y-67202D01*
X105942Y-67085D02*
X105942Y-66869D01*
X106170Y-66985D01*
X106170Y-66935D01*
X106199Y-66902D01*
X106227Y-66885D01*
X106284Y-66869D01*
X106427Y-66869D01*
X106484Y-66885D01*
X106513Y-66902D01*
X106542Y-66935D01*
X106542Y-67035D01*
X106513Y-67069D01*
X106484Y-67085D01*
X105942Y-66652D02*
X105942Y-66619D01*
X105970Y-66585D01*
X105999Y-66569D01*
X106056Y-66552D01*
X106170Y-66535D01*
X106313Y-66535D01*
X106427Y-66552D01*
X106484Y-66569D01*
X106513Y-66585D01*
X106542Y-66619D01*
X106542Y-66652D01*
X106513Y-66685D01*
X106484Y-66702D01*
X106427Y-66719D01*
X106313Y-66735D01*
X106170Y-66735D01*
X106056Y-66719D01*
X105999Y-66702D01*
X105970Y-66685D01*
X105942Y-66652D01*
X105999Y-66402D02*
X105970Y-66385D01*
X105942Y-66352D01*
X105942Y-66269D01*
X105970Y-66235D01*
X105999Y-66219D01*
X106056Y-66202D01*
X106113Y-66202D01*
X106199Y-66219D01*
X106542Y-66419D01*
X106542Y-66202D01*
X105942Y-66085D02*
X105942Y-65869D01*
X106170Y-65985D01*
X106170Y-65935D01*
X106199Y-65902D01*
X106227Y-65885D01*
X106284Y-65869D01*
X106427Y-65869D01*
X106484Y-65885D01*
X106513Y-65902D01*
X106542Y-65935D01*
X106542Y-66035D01*
X106513Y-66069D01*
X106484Y-66085D01*
X105784Y-68866D02*
X105784Y-68116D01*
X105918Y-68652D01*
X106051Y-68116D01*
X106051Y-68866D01*
X106451Y-68866D02*
X106223Y-68866D01*
X106337Y-68866D02*
X106337Y-68116D01*
X106299Y-68223D01*
X106261Y-68295D01*
X106223Y-68330D01*
X106832Y-68866D02*
X106603Y-68866D01*
X106718Y-68866D02*
X106718Y-68116D01*
X106680Y-68223D01*
X106642Y-68295D01*
X106603Y-68330D01*
X106542Y-72204D02*
X105942Y-72204D01*
X106370Y-72087D01*
X105942Y-71971D01*
X106542Y-71971D01*
X105942Y-71737D02*
X105942Y-71671D01*
X105970Y-71637D01*
X106027Y-71604D01*
X106142Y-71587D01*
X106342Y-71587D01*
X106456Y-71604D01*
X106513Y-71637D01*
X106542Y-71671D01*
X106542Y-71737D01*
X106513Y-71771D01*
X106456Y-71804D01*
X106342Y-71821D01*
X106142Y-71821D01*
X106027Y-71804D01*
X105970Y-71771D01*
X105942Y-71737D01*
X106484Y-71237D02*
X106513Y-71254D01*
X106542Y-71304D01*
X106542Y-71337D01*
X106513Y-71387D01*
X106456Y-71421D01*
X106399Y-71437D01*
X106284Y-71454D01*
X106199Y-71454D01*
X106084Y-71437D01*
X106027Y-71421D01*
X105970Y-71387D01*
X105942Y-71337D01*
X105942Y-71304D01*
X105970Y-71254D01*
X105999Y-71237D01*
X105942Y-71121D02*
X105942Y-70904D01*
X106170Y-71021D01*
X106170Y-70971D01*
X106199Y-70937D01*
X106227Y-70921D01*
X106284Y-70904D01*
X106427Y-70904D01*
X106484Y-70921D01*
X106513Y-70937D01*
X106542Y-70971D01*
X106542Y-71071D01*
X106513Y-71104D01*
X106484Y-71121D01*
X105942Y-70687D02*
X105942Y-70654D01*
X105970Y-70621D01*
X105999Y-70604D01*
X106056Y-70587D01*
X106170Y-70571D01*
X106313Y-70571D01*
X106427Y-70587D01*
X106484Y-70604D01*
X106513Y-70621D01*
X106542Y-70654D01*
X106542Y-70687D01*
X106513Y-70721D01*
X106484Y-70737D01*
X106427Y-70754D01*
X106313Y-70771D01*
X106170Y-70771D01*
X106056Y-70754D01*
X105999Y-70737D01*
X105970Y-70721D01*
X105942Y-70687D01*
X105999Y-70437D02*
X105970Y-70421D01*
X105942Y-70387D01*
X105942Y-70304D01*
X105970Y-70271D01*
X105999Y-70254D01*
X106056Y-70237D01*
X106113Y-70237D01*
X106199Y-70254D01*
X106542Y-70454D01*
X106542Y-70237D01*
X105942Y-70121D02*
X105942Y-69904D01*
X106170Y-70021D01*
X106170Y-69971D01*
X106199Y-69937D01*
X106227Y-69921D01*
X106284Y-69904D01*
X106427Y-69904D01*
X106484Y-69921D01*
X106513Y-69937D01*
X106542Y-69971D01*
X106542Y-70071D01*
X106513Y-70104D01*
X106484Y-70121D01*
X60699Y-57193D02*
X60699Y-56443D01*
X60833Y-56979D01*
X60966Y-56443D01*
X60966Y-57193D01*
X61328Y-56443D02*
X61252Y-56443D01*
X61214Y-56479D01*
X61195Y-56514D01*
X61156Y-56621D01*
X61137Y-56764D01*
X61137Y-57050D01*
X61156Y-57121D01*
X61176Y-57157D01*
X61214Y-57193D01*
X61290Y-57193D01*
X61328Y-57157D01*
X61347Y-57121D01*
X61366Y-57050D01*
X61366Y-56871D01*
X61347Y-56800D01*
X61328Y-56764D01*
X61290Y-56729D01*
X61214Y-56729D01*
X61176Y-56764D01*
X61156Y-56800D01*
X61137Y-56871D01*
X62841Y-59606D02*
X62241Y-59606D01*
X62669Y-59489D01*
X62241Y-59372D01*
X62841Y-59372D01*
X62241Y-59139D02*
X62241Y-59072D01*
X62269Y-59039D01*
X62326Y-59006D01*
X62441Y-58989D01*
X62641Y-58989D01*
X62755Y-59006D01*
X62812Y-59039D01*
X62841Y-59072D01*
X62841Y-59139D01*
X62812Y-59172D01*
X62755Y-59206D01*
X62641Y-59222D01*
X62441Y-59222D01*
X62326Y-59206D01*
X62269Y-59172D01*
X62241Y-59139D01*
X62784Y-58639D02*
X62812Y-58656D01*
X62841Y-58706D01*
X62841Y-58739D01*
X62812Y-58789D01*
X62755Y-58822D01*
X62698Y-58839D01*
X62584Y-58856D01*
X62498Y-58856D01*
X62384Y-58839D01*
X62326Y-58822D01*
X62269Y-58789D01*
X62241Y-58739D01*
X62241Y-58706D01*
X62269Y-58656D01*
X62298Y-58639D01*
X62241Y-58522D02*
X62241Y-58306D01*
X62469Y-58422D01*
X62469Y-58372D01*
X62498Y-58339D01*
X62526Y-58322D01*
X62584Y-58306D01*
X62726Y-58306D01*
X62784Y-58322D01*
X62812Y-58339D01*
X62841Y-58372D01*
X62841Y-58472D01*
X62812Y-58506D01*
X62784Y-58522D01*
X62241Y-58089D02*
X62241Y-58056D01*
X62269Y-58022D01*
X62298Y-58006D01*
X62355Y-57989D01*
X62469Y-57972D01*
X62612Y-57972D01*
X62726Y-57989D01*
X62784Y-58006D01*
X62812Y-58022D01*
X62841Y-58056D01*
X62841Y-58089D01*
X62812Y-58122D01*
X62784Y-58139D01*
X62726Y-58156D01*
X62612Y-58172D01*
X62469Y-58172D01*
X62355Y-58156D01*
X62298Y-58139D01*
X62269Y-58122D01*
X62241Y-58089D01*
X62298Y-57839D02*
X62269Y-57822D01*
X62241Y-57789D01*
X62241Y-57706D01*
X62269Y-57672D01*
X62298Y-57656D01*
X62355Y-57639D01*
X62412Y-57639D01*
X62498Y-57656D01*
X62841Y-57856D01*
X62841Y-57639D01*
X62241Y-57522D02*
X62241Y-57306D01*
X62469Y-57422D01*
X62469Y-57372D01*
X62498Y-57339D01*
X62526Y-57322D01*
X62584Y-57306D01*
X62726Y-57306D01*
X62784Y-57322D01*
X62812Y-57339D01*
X62841Y-57372D01*
X62841Y-57472D01*
X62812Y-57506D01*
X62784Y-57522D01*
X60699Y-53059D02*
X60699Y-52309D01*
X60833Y-52845D01*
X60966Y-52309D01*
X60966Y-53059D01*
X61118Y-52309D02*
X61385Y-52309D01*
X61214Y-53059D01*
X62841Y-55472D02*
X62241Y-55472D01*
X62669Y-55355D01*
X62241Y-55239D01*
X62841Y-55239D01*
X62241Y-55005D02*
X62241Y-54939D01*
X62269Y-54905D01*
X62326Y-54872D01*
X62441Y-54855D01*
X62641Y-54855D01*
X62755Y-54872D01*
X62812Y-54905D01*
X62841Y-54939D01*
X62841Y-55005D01*
X62812Y-55039D01*
X62755Y-55072D01*
X62641Y-55089D01*
X62441Y-55089D01*
X62326Y-55072D01*
X62269Y-55039D01*
X62241Y-55005D01*
X62784Y-54505D02*
X62812Y-54522D01*
X62841Y-54572D01*
X62841Y-54605D01*
X62812Y-54655D01*
X62755Y-54689D01*
X62698Y-54705D01*
X62584Y-54722D01*
X62498Y-54722D01*
X62384Y-54705D01*
X62326Y-54689D01*
X62269Y-54655D01*
X62241Y-54605D01*
X62241Y-54572D01*
X62269Y-54522D01*
X62298Y-54505D01*
X62241Y-54389D02*
X62241Y-54172D01*
X62469Y-54289D01*
X62469Y-54239D01*
X62498Y-54205D01*
X62526Y-54189D01*
X62584Y-54172D01*
X62726Y-54172D01*
X62784Y-54189D01*
X62812Y-54205D01*
X62841Y-54239D01*
X62841Y-54339D01*
X62812Y-54372D01*
X62784Y-54389D01*
X62241Y-53955D02*
X62241Y-53922D01*
X62269Y-53889D01*
X62298Y-53872D01*
X62355Y-53855D01*
X62469Y-53839D01*
X62612Y-53839D01*
X62726Y-53855D01*
X62784Y-53872D01*
X62812Y-53889D01*
X62841Y-53922D01*
X62841Y-53955D01*
X62812Y-53989D01*
X62784Y-54005D01*
X62726Y-54022D01*
X62612Y-54039D01*
X62469Y-54039D01*
X62355Y-54022D01*
X62298Y-54005D01*
X62269Y-53989D01*
X62241Y-53955D01*
X62298Y-53705D02*
X62269Y-53689D01*
X62241Y-53655D01*
X62241Y-53572D01*
X62269Y-53539D01*
X62298Y-53522D01*
X62355Y-53505D01*
X62412Y-53505D01*
X62498Y-53522D01*
X62841Y-53722D01*
X62841Y-53505D01*
X62241Y-53389D02*
X62241Y-53172D01*
X62469Y-53289D01*
X62469Y-53239D01*
X62498Y-53205D01*
X62526Y-53189D01*
X62584Y-53172D01*
X62726Y-53172D01*
X62784Y-53189D01*
X62812Y-53205D01*
X62841Y-53239D01*
X62841Y-53339D01*
X62812Y-53372D01*
X62784Y-53389D01*
X60699Y-48925D02*
X60699Y-48175D01*
X60833Y-48711D01*
X60966Y-48175D01*
X60966Y-48925D01*
X61214Y-48497D02*
X61176Y-48461D01*
X61156Y-48425D01*
X61137Y-48354D01*
X61137Y-48318D01*
X61156Y-48247D01*
X61176Y-48211D01*
X61214Y-48175D01*
X61290Y-48175D01*
X61328Y-48211D01*
X61347Y-48247D01*
X61366Y-48318D01*
X61366Y-48354D01*
X61347Y-48425D01*
X61328Y-48461D01*
X61290Y-48497D01*
X61214Y-48497D01*
X61176Y-48532D01*
X61156Y-48568D01*
X61137Y-48639D01*
X61137Y-48782D01*
X61156Y-48854D01*
X61176Y-48889D01*
X61214Y-48925D01*
X61290Y-48925D01*
X61328Y-48889D01*
X61347Y-48854D01*
X61366Y-48782D01*
X61366Y-48639D01*
X61347Y-48568D01*
X61328Y-48532D01*
X61290Y-48497D01*
X62841Y-51338D02*
X62241Y-51338D01*
X62669Y-51221D01*
X62241Y-51105D01*
X62841Y-51105D01*
X62241Y-50871D02*
X62241Y-50805D01*
X62269Y-50771D01*
X62326Y-50738D01*
X62441Y-50721D01*
X62641Y-50721D01*
X62755Y-50738D01*
X62812Y-50771D01*
X62841Y-50805D01*
X62841Y-50871D01*
X62812Y-50905D01*
X62755Y-50938D01*
X62641Y-50955D01*
X62441Y-50955D01*
X62326Y-50938D01*
X62269Y-50905D01*
X62241Y-50871D01*
X62784Y-50371D02*
X62812Y-50388D01*
X62841Y-50438D01*
X62841Y-50471D01*
X62812Y-50521D01*
X62755Y-50555D01*
X62698Y-50571D01*
X62584Y-50588D01*
X62498Y-50588D01*
X62384Y-50571D01*
X62326Y-50555D01*
X62269Y-50521D01*
X62241Y-50471D01*
X62241Y-50438D01*
X62269Y-50388D01*
X62298Y-50371D01*
X62241Y-50255D02*
X62241Y-50038D01*
X62469Y-50155D01*
X62469Y-50105D01*
X62498Y-50071D01*
X62526Y-50055D01*
X62584Y-50038D01*
X62726Y-50038D01*
X62784Y-50055D01*
X62812Y-50071D01*
X62841Y-50105D01*
X62841Y-50205D01*
X62812Y-50238D01*
X62784Y-50255D01*
X62241Y-49821D02*
X62241Y-49788D01*
X62269Y-49755D01*
X62298Y-49738D01*
X62355Y-49721D01*
X62469Y-49705D01*
X62612Y-49705D01*
X62726Y-49721D01*
X62784Y-49738D01*
X62812Y-49755D01*
X62841Y-49788D01*
X62841Y-49821D01*
X62812Y-49855D01*
X62784Y-49871D01*
X62726Y-49888D01*
X62612Y-49905D01*
X62469Y-49905D01*
X62355Y-49888D01*
X62298Y-49871D01*
X62269Y-49855D01*
X62241Y-49821D01*
X62298Y-49571D02*
X62269Y-49555D01*
X62241Y-49521D01*
X62241Y-49438D01*
X62269Y-49405D01*
X62298Y-49388D01*
X62355Y-49371D01*
X62412Y-49371D01*
X62498Y-49388D01*
X62841Y-49588D01*
X62841Y-49371D01*
X62241Y-49255D02*
X62241Y-49038D01*
X62469Y-49155D01*
X62469Y-49105D01*
X62498Y-49071D01*
X62526Y-49055D01*
X62584Y-49038D01*
X62726Y-49038D01*
X62784Y-49055D01*
X62812Y-49071D01*
X62841Y-49105D01*
X62841Y-49205D01*
X62812Y-49238D01*
X62784Y-49255D01*
X105975Y-76937D02*
X105975Y-76187D01*
X106108Y-76723D01*
X106242Y-76187D01*
X106242Y-76937D01*
X106451Y-76937D02*
X106527Y-76937D01*
X106565Y-76901D01*
X106584Y-76866D01*
X106623Y-76758D01*
X106642Y-76616D01*
X106642Y-76330D01*
X106623Y-76258D01*
X106603Y-76223D01*
X106565Y-76187D01*
X106489Y-76187D01*
X106451Y-76223D01*
X106432Y-76258D01*
X106413Y-76330D01*
X106413Y-76508D01*
X106432Y-76580D01*
X106451Y-76616D01*
X106489Y-76651D01*
X106565Y-76651D01*
X106603Y-76616D01*
X106623Y-76580D01*
X106642Y-76508D01*
X106542Y-80275D02*
X105942Y-80275D01*
X106370Y-80158D01*
X105942Y-80042D01*
X106542Y-80042D01*
X105942Y-79808D02*
X105942Y-79742D01*
X105970Y-79708D01*
X106027Y-79675D01*
X106142Y-79658D01*
X106342Y-79658D01*
X106456Y-79675D01*
X106513Y-79708D01*
X106542Y-79742D01*
X106542Y-79808D01*
X106513Y-79842D01*
X106456Y-79875D01*
X106342Y-79892D01*
X106142Y-79892D01*
X106027Y-79875D01*
X105970Y-79842D01*
X105942Y-79808D01*
X106484Y-79308D02*
X106513Y-79325D01*
X106542Y-79375D01*
X106542Y-79408D01*
X106513Y-79458D01*
X106456Y-79492D01*
X106399Y-79508D01*
X106284Y-79525D01*
X106199Y-79525D01*
X106084Y-79508D01*
X106027Y-79492D01*
X105970Y-79458D01*
X105942Y-79408D01*
X105942Y-79375D01*
X105970Y-79325D01*
X105999Y-79308D01*
X105942Y-79192D02*
X105942Y-78975D01*
X106170Y-79092D01*
X106170Y-79042D01*
X106199Y-79008D01*
X106227Y-78992D01*
X106284Y-78975D01*
X106427Y-78975D01*
X106484Y-78992D01*
X106513Y-79008D01*
X106542Y-79042D01*
X106542Y-79142D01*
X106513Y-79175D01*
X106484Y-79192D01*
X105942Y-78758D02*
X105942Y-78725D01*
X105970Y-78692D01*
X105999Y-78675D01*
X106056Y-78658D01*
X106170Y-78642D01*
X106313Y-78642D01*
X106427Y-78658D01*
X106484Y-78675D01*
X106513Y-78692D01*
X106542Y-78725D01*
X106542Y-78758D01*
X106513Y-78792D01*
X106484Y-78808D01*
X106427Y-78825D01*
X106313Y-78842D01*
X106170Y-78842D01*
X106056Y-78825D01*
X105999Y-78808D01*
X105970Y-78792D01*
X105942Y-78758D01*
X105999Y-78508D02*
X105970Y-78492D01*
X105942Y-78458D01*
X105942Y-78375D01*
X105970Y-78342D01*
X105999Y-78325D01*
X106056Y-78308D01*
X106113Y-78308D01*
X106199Y-78325D01*
X106542Y-78525D01*
X106542Y-78308D01*
X105942Y-78192D02*
X105942Y-77975D01*
X106170Y-78092D01*
X106170Y-78042D01*
X106199Y-78008D01*
X106227Y-77992D01*
X106284Y-77975D01*
X106427Y-77975D01*
X106484Y-77992D01*
X106513Y-78008D01*
X106542Y-78042D01*
X106542Y-78142D01*
X106513Y-78175D01*
X106484Y-78192D01*
X105784Y-72901D02*
X105784Y-72151D01*
X105918Y-72687D01*
X106051Y-72151D01*
X106051Y-72901D01*
X106451Y-72901D02*
X106223Y-72901D01*
X106337Y-72901D02*
X106337Y-72151D01*
X106299Y-72259D01*
X106261Y-72330D01*
X106223Y-72366D01*
X106699Y-72151D02*
X106737Y-72151D01*
X106775Y-72187D01*
X106794Y-72223D01*
X106813Y-72294D01*
X106832Y-72437D01*
X106832Y-72616D01*
X106813Y-72759D01*
X106794Y-72830D01*
X106775Y-72866D01*
X106737Y-72901D01*
X106699Y-72901D01*
X106661Y-72866D01*
X106642Y-72830D01*
X106623Y-72759D01*
X106603Y-72616D01*
X106603Y-72437D01*
X106623Y-72294D01*
X106642Y-72223D01*
X106661Y-72187D01*
X106699Y-72151D01*
X106542Y-76240D02*
X105942Y-76240D01*
X106370Y-76123D01*
X105942Y-76006D01*
X106542Y-76006D01*
X105942Y-75773D02*
X105942Y-75706D01*
X105970Y-75673D01*
X106027Y-75640D01*
X106142Y-75623D01*
X106342Y-75623D01*
X106456Y-75640D01*
X106513Y-75673D01*
X106542Y-75706D01*
X106542Y-75773D01*
X106513Y-75806D01*
X106456Y-75840D01*
X106342Y-75856D01*
X106142Y-75856D01*
X106027Y-75840D01*
X105970Y-75806D01*
X105942Y-75773D01*
X106484Y-75273D02*
X106513Y-75290D01*
X106542Y-75340D01*
X106542Y-75373D01*
X106513Y-75423D01*
X106456Y-75456D01*
X106399Y-75473D01*
X106284Y-75490D01*
X106199Y-75490D01*
X106084Y-75473D01*
X106027Y-75456D01*
X105970Y-75423D01*
X105942Y-75373D01*
X105942Y-75340D01*
X105970Y-75290D01*
X105999Y-75273D01*
X105942Y-75156D02*
X105942Y-74940D01*
X106170Y-75056D01*
X106170Y-75006D01*
X106199Y-74973D01*
X106227Y-74956D01*
X106284Y-74940D01*
X106427Y-74940D01*
X106484Y-74956D01*
X106513Y-74973D01*
X106542Y-75006D01*
X106542Y-75106D01*
X106513Y-75140D01*
X106484Y-75156D01*
X105942Y-74723D02*
X105942Y-74690D01*
X105970Y-74656D01*
X105999Y-74640D01*
X106056Y-74623D01*
X106170Y-74606D01*
X106313Y-74606D01*
X106427Y-74623D01*
X106484Y-74640D01*
X106513Y-74656D01*
X106542Y-74690D01*
X106542Y-74723D01*
X106513Y-74756D01*
X106484Y-74773D01*
X106427Y-74790D01*
X106313Y-74806D01*
X106170Y-74806D01*
X106056Y-74790D01*
X105999Y-74773D01*
X105970Y-74756D01*
X105942Y-74723D01*
X105999Y-74473D02*
X105970Y-74456D01*
X105942Y-74423D01*
X105942Y-74340D01*
X105970Y-74306D01*
X105999Y-74290D01*
X106056Y-74273D01*
X106113Y-74273D01*
X106199Y-74290D01*
X106542Y-74490D01*
X106542Y-74273D01*
X105942Y-74156D02*
X105942Y-73940D01*
X106170Y-74056D01*
X106170Y-74006D01*
X106199Y-73973D01*
X106227Y-73956D01*
X106284Y-73940D01*
X106427Y-73940D01*
X106484Y-73956D01*
X106513Y-73973D01*
X106542Y-74006D01*
X106542Y-74106D01*
X106513Y-74140D01*
X106484Y-74156D01*
G54D10*
X85376Y-80277D02*
X85151Y-80277D01*
X85264Y-80277D02*
X85264Y-79883D01*
X85226Y-79940D01*
X85189Y-79977D01*
X85151Y-79996D01*
X85545Y-80277D02*
X85545Y-79883D01*
X85770Y-80277D01*
X85770Y-79883D01*
X86145Y-79883D02*
X85958Y-79883D01*
X85939Y-80071D01*
X85958Y-80052D01*
X85995Y-80033D01*
X86089Y-80033D01*
X86126Y-80052D01*
X86145Y-80071D01*
X86164Y-80108D01*
X86164Y-80202D01*
X86145Y-80239D01*
X86126Y-80258D01*
X86089Y-80277D01*
X85995Y-80277D01*
X85958Y-80258D01*
X85939Y-80239D01*
X86389Y-80052D02*
X86351Y-80033D01*
X86332Y-80014D01*
X86314Y-79977D01*
X86314Y-79958D01*
X86332Y-79921D01*
X86351Y-79902D01*
X86389Y-79883D01*
X86464Y-79883D01*
X86501Y-79902D01*
X86520Y-79921D01*
X86539Y-79958D01*
X86539Y-79977D01*
X86520Y-80014D01*
X86501Y-80033D01*
X86464Y-80052D01*
X86389Y-80052D01*
X86351Y-80071D01*
X86332Y-80089D01*
X86314Y-80127D01*
X86314Y-80202D01*
X86332Y-80239D01*
X86351Y-80258D01*
X86389Y-80277D01*
X86464Y-80277D01*
X86501Y-80258D01*
X86520Y-80239D01*
X86539Y-80202D01*
X86539Y-80127D01*
X86520Y-80089D01*
X86501Y-80071D01*
X86464Y-80052D01*
X86914Y-80277D02*
X86689Y-80277D01*
X86801Y-80277D02*
X86801Y-79883D01*
X86764Y-79940D01*
X86726Y-79977D01*
X86689Y-79996D01*
X87045Y-79883D02*
X87307Y-79883D01*
X87139Y-80277D01*
X85376Y-85395D02*
X85151Y-85395D01*
X85264Y-85395D02*
X85264Y-85001D01*
X85226Y-85058D01*
X85189Y-85095D01*
X85151Y-85114D01*
X85545Y-85395D02*
X85545Y-85001D01*
X85770Y-85395D01*
X85770Y-85001D01*
X86145Y-85001D02*
X85958Y-85001D01*
X85939Y-85189D01*
X85958Y-85170D01*
X85995Y-85151D01*
X86089Y-85151D01*
X86126Y-85170D01*
X86145Y-85189D01*
X86164Y-85226D01*
X86164Y-85320D01*
X86145Y-85358D01*
X86126Y-85376D01*
X86089Y-85395D01*
X85995Y-85395D01*
X85958Y-85376D01*
X85939Y-85358D01*
X86389Y-85170D02*
X86351Y-85151D01*
X86332Y-85133D01*
X86314Y-85095D01*
X86314Y-85076D01*
X86332Y-85039D01*
X86351Y-85020D01*
X86389Y-85001D01*
X86464Y-85001D01*
X86501Y-85020D01*
X86520Y-85039D01*
X86539Y-85076D01*
X86539Y-85095D01*
X86520Y-85133D01*
X86501Y-85151D01*
X86464Y-85170D01*
X86389Y-85170D01*
X86351Y-85189D01*
X86332Y-85208D01*
X86314Y-85245D01*
X86314Y-85320D01*
X86332Y-85358D01*
X86351Y-85376D01*
X86389Y-85395D01*
X86464Y-85395D01*
X86501Y-85376D01*
X86520Y-85358D01*
X86539Y-85320D01*
X86539Y-85245D01*
X86520Y-85208D01*
X86501Y-85189D01*
X86464Y-85170D01*
X86914Y-85395D02*
X86689Y-85395D01*
X86801Y-85395D02*
X86801Y-85001D01*
X86764Y-85058D01*
X86726Y-85095D01*
X86689Y-85114D01*
X87045Y-85001D02*
X87307Y-85001D01*
X87139Y-85395D01*
X85376Y-82836D02*
X85151Y-82836D01*
X85264Y-82836D02*
X85264Y-82442D01*
X85226Y-82499D01*
X85189Y-82536D01*
X85151Y-82555D01*
X85545Y-82836D02*
X85545Y-82442D01*
X85770Y-82836D01*
X85770Y-82442D01*
X86145Y-82442D02*
X85958Y-82442D01*
X85939Y-82630D01*
X85958Y-82611D01*
X85995Y-82592D01*
X86089Y-82592D01*
X86126Y-82611D01*
X86145Y-82630D01*
X86164Y-82667D01*
X86164Y-82761D01*
X86145Y-82799D01*
X86126Y-82817D01*
X86089Y-82836D01*
X85995Y-82836D01*
X85958Y-82817D01*
X85939Y-82799D01*
X86389Y-82611D02*
X86351Y-82592D01*
X86332Y-82574D01*
X86314Y-82536D01*
X86314Y-82517D01*
X86332Y-82480D01*
X86351Y-82461D01*
X86389Y-82442D01*
X86464Y-82442D01*
X86501Y-82461D01*
X86520Y-82480D01*
X86539Y-82517D01*
X86539Y-82536D01*
X86520Y-82574D01*
X86501Y-82592D01*
X86464Y-82611D01*
X86389Y-82611D01*
X86351Y-82630D01*
X86332Y-82649D01*
X86314Y-82686D01*
X86314Y-82761D01*
X86332Y-82799D01*
X86351Y-82817D01*
X86389Y-82836D01*
X86464Y-82836D01*
X86501Y-82817D01*
X86520Y-82799D01*
X86539Y-82761D01*
X86539Y-82686D01*
X86520Y-82649D01*
X86501Y-82630D01*
X86464Y-82611D01*
X86914Y-82836D02*
X86689Y-82836D01*
X86801Y-82836D02*
X86801Y-82442D01*
X86764Y-82499D01*
X86726Y-82536D01*
X86689Y-82555D01*
X87045Y-82442D02*
X87307Y-82442D01*
X87139Y-82836D01*
X85376Y-77521D02*
X85151Y-77521D01*
X85264Y-77521D02*
X85264Y-77127D01*
X85226Y-77184D01*
X85189Y-77221D01*
X85151Y-77240D01*
X85545Y-77521D02*
X85545Y-77127D01*
X85770Y-77521D01*
X85770Y-77127D01*
X86145Y-77127D02*
X85958Y-77127D01*
X85939Y-77315D01*
X85958Y-77296D01*
X85995Y-77277D01*
X86089Y-77277D01*
X86126Y-77296D01*
X86145Y-77315D01*
X86164Y-77352D01*
X86164Y-77446D01*
X86145Y-77484D01*
X86126Y-77502D01*
X86089Y-77521D01*
X85995Y-77521D01*
X85958Y-77502D01*
X85939Y-77484D01*
X86389Y-77296D02*
X86351Y-77277D01*
X86332Y-77259D01*
X86314Y-77221D01*
X86314Y-77202D01*
X86332Y-77165D01*
X86351Y-77146D01*
X86389Y-77127D01*
X86464Y-77127D01*
X86501Y-77146D01*
X86520Y-77165D01*
X86539Y-77202D01*
X86539Y-77221D01*
X86520Y-77259D01*
X86501Y-77277D01*
X86464Y-77296D01*
X86389Y-77296D01*
X86351Y-77315D01*
X86332Y-77334D01*
X86314Y-77371D01*
X86314Y-77446D01*
X86332Y-77484D01*
X86351Y-77502D01*
X86389Y-77521D01*
X86464Y-77521D01*
X86501Y-77502D01*
X86520Y-77484D01*
X86539Y-77446D01*
X86539Y-77371D01*
X86520Y-77334D01*
X86501Y-77315D01*
X86464Y-77296D01*
X86914Y-77521D02*
X86689Y-77521D01*
X86801Y-77521D02*
X86801Y-77127D01*
X86764Y-77184D01*
X86726Y-77221D01*
X86689Y-77240D01*
X87045Y-77127D02*
X87307Y-77127D01*
X87139Y-77521D01*
X81753Y-46330D02*
X81360Y-46330D01*
X81753Y-46142D02*
X81360Y-46142D01*
X81753Y-45917D01*
X81360Y-45917D01*
X81360Y-45542D02*
X81360Y-45730D01*
X81547Y-45748D01*
X81528Y-45730D01*
X81510Y-45692D01*
X81510Y-45598D01*
X81528Y-45561D01*
X81547Y-45542D01*
X81585Y-45523D01*
X81678Y-45523D01*
X81716Y-45542D01*
X81735Y-45561D01*
X81753Y-45598D01*
X81753Y-45692D01*
X81735Y-45730D01*
X81716Y-45748D01*
X81397Y-45374D02*
X81378Y-45355D01*
X81360Y-45317D01*
X81360Y-45224D01*
X81378Y-45186D01*
X81397Y-45167D01*
X81435Y-45149D01*
X81472Y-45149D01*
X81528Y-45167D01*
X81753Y-45392D01*
X81753Y-45149D01*
X81360Y-45017D02*
X81360Y-44774D01*
X81510Y-44905D01*
X81510Y-44849D01*
X81528Y-44811D01*
X81547Y-44792D01*
X81585Y-44774D01*
X81678Y-44774D01*
X81716Y-44792D01*
X81735Y-44811D01*
X81753Y-44849D01*
X81753Y-44961D01*
X81735Y-44999D01*
X81716Y-45017D01*
X81753Y-44586D02*
X81753Y-44511D01*
X81735Y-44474D01*
X81716Y-44455D01*
X81660Y-44417D01*
X81585Y-44399D01*
X81435Y-44399D01*
X81397Y-44417D01*
X81378Y-44436D01*
X81360Y-44474D01*
X81360Y-44549D01*
X81378Y-44586D01*
X81397Y-44605D01*
X81435Y-44624D01*
X81528Y-44624D01*
X81566Y-44605D01*
X81585Y-44586D01*
X81603Y-44549D01*
X81603Y-44474D01*
X81585Y-44436D01*
X81566Y-44417D01*
X81528Y-44399D01*
X79883Y-46330D02*
X79490Y-46330D01*
X79883Y-46142D02*
X79490Y-46142D01*
X79883Y-45917D01*
X79490Y-45917D01*
X79490Y-45542D02*
X79490Y-45730D01*
X79677Y-45748D01*
X79658Y-45730D01*
X79640Y-45692D01*
X79640Y-45598D01*
X79658Y-45561D01*
X79677Y-45542D01*
X79715Y-45523D01*
X79808Y-45523D01*
X79846Y-45542D01*
X79865Y-45561D01*
X79883Y-45598D01*
X79883Y-45692D01*
X79865Y-45730D01*
X79846Y-45748D01*
X79527Y-45374D02*
X79508Y-45355D01*
X79490Y-45317D01*
X79490Y-45224D01*
X79508Y-45186D01*
X79527Y-45167D01*
X79565Y-45149D01*
X79602Y-45149D01*
X79658Y-45167D01*
X79883Y-45392D01*
X79883Y-45149D01*
X79527Y-44999D02*
X79508Y-44980D01*
X79490Y-44942D01*
X79490Y-44849D01*
X79508Y-44811D01*
X79527Y-44792D01*
X79565Y-44774D01*
X79602Y-44774D01*
X79658Y-44792D01*
X79883Y-45017D01*
X79883Y-44774D01*
X79883Y-44586D02*
X79883Y-44511D01*
X79865Y-44474D01*
X79846Y-44455D01*
X79790Y-44417D01*
X79715Y-44399D01*
X79565Y-44399D01*
X79527Y-44417D01*
X79508Y-44436D01*
X79490Y-44474D01*
X79490Y-44549D01*
X79508Y-44586D01*
X79527Y-44605D01*
X79565Y-44624D01*
X79658Y-44624D01*
X79696Y-44605D01*
X79715Y-44586D01*
X79733Y-44549D01*
X79733Y-44474D01*
X79715Y-44436D01*
X79696Y-44417D01*
X79658Y-44399D01*
X100131Y-83980D02*
X100112Y-83998D01*
X100056Y-84017D01*
X100018Y-84017D01*
X99962Y-83998D01*
X99925Y-83961D01*
X99906Y-83923D01*
X99887Y-83848D01*
X99887Y-83792D01*
X99906Y-83717D01*
X99925Y-83680D01*
X99962Y-83642D01*
X100018Y-83623D01*
X100056Y-83623D01*
X100112Y-83642D01*
X100131Y-83661D01*
X100281Y-83661D02*
X100299Y-83642D01*
X100337Y-83623D01*
X100431Y-83623D01*
X100468Y-83642D01*
X100487Y-83661D01*
X100506Y-83698D01*
X100506Y-83736D01*
X100487Y-83792D01*
X100262Y-84017D01*
X100506Y-84017D01*
X100993Y-85976D02*
X100993Y-85676D01*
X101143Y-85826D02*
X100843Y-85826D01*
X87101Y-62954D02*
X87101Y-63273D01*
X87120Y-63310D01*
X87139Y-63329D01*
X87176Y-63348D01*
X87251Y-63348D01*
X87289Y-63329D01*
X87307Y-63310D01*
X87326Y-63273D01*
X87326Y-62954D01*
X87701Y-62954D02*
X87514Y-62954D01*
X87495Y-63142D01*
X87514Y-63123D01*
X87551Y-63104D01*
X87645Y-63104D01*
X87682Y-63123D01*
X87701Y-63142D01*
X87720Y-63179D01*
X87720Y-63273D01*
X87701Y-63310D01*
X87682Y-63329D01*
X87645Y-63348D01*
X87551Y-63348D01*
X87514Y-63329D01*
X87495Y-63310D01*
X82902Y-61379D02*
X82677Y-61379D01*
X82789Y-61379D02*
X82789Y-60986D01*
X82752Y-61042D01*
X82714Y-61079D01*
X82677Y-61098D01*
X83127Y-61154D02*
X83089Y-61136D01*
X83070Y-61117D01*
X83052Y-61079D01*
X83052Y-61061D01*
X83070Y-61023D01*
X83089Y-61004D01*
X83127Y-60986D01*
X83202Y-60986D01*
X83239Y-61004D01*
X83258Y-61023D01*
X83277Y-61061D01*
X83277Y-61079D01*
X83258Y-61117D01*
X83239Y-61136D01*
X83202Y-61154D01*
X83127Y-61154D01*
X83089Y-61173D01*
X83070Y-61192D01*
X83052Y-61229D01*
X83052Y-61304D01*
X83070Y-61342D01*
X83089Y-61361D01*
X83127Y-61379D01*
X83202Y-61379D01*
X83239Y-61361D01*
X83258Y-61342D01*
X83277Y-61304D01*
X83277Y-61229D01*
X83258Y-61192D01*
X83239Y-61173D01*
X83202Y-61154D01*
X83445Y-61342D02*
X83464Y-61361D01*
X83445Y-61379D01*
X83427Y-61361D01*
X83445Y-61342D01*
X83445Y-61379D01*
X83802Y-61117D02*
X83802Y-61379D01*
X83708Y-60967D02*
X83614Y-61248D01*
X83858Y-61248D01*
X83970Y-60986D02*
X84214Y-60986D01*
X84083Y-61136D01*
X84139Y-61136D01*
X84176Y-61154D01*
X84195Y-61173D01*
X84214Y-61211D01*
X84214Y-61304D01*
X84195Y-61342D01*
X84176Y-61361D01*
X84139Y-61379D01*
X84026Y-61379D01*
X83989Y-61361D01*
X83970Y-61342D01*
X84364Y-61023D02*
X84383Y-61004D01*
X84420Y-60986D01*
X84514Y-60986D01*
X84551Y-61004D01*
X84570Y-61023D01*
X84589Y-61061D01*
X84589Y-61098D01*
X84570Y-61154D01*
X84345Y-61379D01*
X84589Y-61379D01*
X84758Y-61379D02*
X84758Y-60986D01*
X84889Y-61267D01*
X85020Y-60986D01*
X85020Y-61379D01*
X85208Y-61379D02*
X85208Y-60986D01*
X85208Y-61173D02*
X85433Y-61173D01*
X85433Y-61379D02*
X85433Y-60986D01*
X85583Y-60986D02*
X85845Y-60986D01*
X85583Y-61379D01*
X85845Y-61379D01*
X91863Y-81421D02*
X91844Y-81439D01*
X91788Y-81458D01*
X91751Y-81458D01*
X91694Y-81439D01*
X91657Y-81402D01*
X91638Y-81364D01*
X91619Y-81289D01*
X91619Y-81233D01*
X91638Y-81158D01*
X91657Y-81121D01*
X91694Y-81083D01*
X91751Y-81064D01*
X91788Y-81064D01*
X91844Y-81083D01*
X91863Y-81102D01*
X92238Y-81458D02*
X92013Y-81458D01*
X92125Y-81458D02*
X92125Y-81064D01*
X92088Y-81121D01*
X92050Y-81158D01*
X92013Y-81177D01*
X90907Y-83070D02*
X90926Y-83052D01*
X90963Y-83033D01*
X91057Y-83033D01*
X91094Y-83052D01*
X91113Y-83070D01*
X91132Y-83108D01*
X91132Y-83145D01*
X91113Y-83202D01*
X90888Y-83427D01*
X91132Y-83427D01*
X91282Y-83070D02*
X91301Y-83052D01*
X91338Y-83033D01*
X91432Y-83033D01*
X91469Y-83052D01*
X91488Y-83070D01*
X91507Y-83108D01*
X91507Y-83145D01*
X91488Y-83202D01*
X91263Y-83427D01*
X91507Y-83427D01*
X91751Y-83033D02*
X91788Y-83033D01*
X91826Y-83052D01*
X91844Y-83070D01*
X91863Y-83108D01*
X91882Y-83183D01*
X91882Y-83277D01*
X91863Y-83352D01*
X91844Y-83389D01*
X91826Y-83408D01*
X91788Y-83427D01*
X91751Y-83427D01*
X91713Y-83408D01*
X91694Y-83389D01*
X91676Y-83352D01*
X91657Y-83277D01*
X91657Y-83183D01*
X91676Y-83108D01*
X91694Y-83070D01*
X91713Y-83052D01*
X91751Y-83033D01*
X92125Y-83033D02*
X92163Y-83033D01*
X92200Y-83052D01*
X92219Y-83070D01*
X92238Y-83108D01*
X92257Y-83183D01*
X92257Y-83277D01*
X92238Y-83352D01*
X92219Y-83389D01*
X92200Y-83408D01*
X92163Y-83427D01*
X92125Y-83427D01*
X92088Y-83408D01*
X92069Y-83389D01*
X92050Y-83352D01*
X92032Y-83277D01*
X92032Y-83183D01*
X92050Y-83108D01*
X92069Y-83070D01*
X92088Y-83052D01*
X92125Y-83033D01*
X92594Y-83164D02*
X92594Y-83427D01*
X92425Y-83164D02*
X92425Y-83370D01*
X92444Y-83408D01*
X92482Y-83427D01*
X92538Y-83427D01*
X92575Y-83408D01*
X92594Y-83389D01*
X92913Y-83220D02*
X92782Y-83220D01*
X92782Y-83427D02*
X92782Y-83033D01*
X92969Y-83033D01*
X91938Y-85386D02*
X91938Y-85086D01*
X92088Y-85236D02*
X91788Y-85236D01*
X117875Y-84148D02*
X117875Y-83923D01*
X118269Y-84036D02*
X117875Y-84036D01*
X118269Y-83567D02*
X118082Y-83698D01*
X118269Y-83792D02*
X117875Y-83792D01*
X117875Y-83642D01*
X117894Y-83605D01*
X117913Y-83586D01*
X117950Y-83567D01*
X118007Y-83567D01*
X118044Y-83586D01*
X118063Y-83605D01*
X118082Y-83642D01*
X118082Y-83792D01*
X118269Y-83192D02*
X118269Y-83417D01*
X118269Y-83305D02*
X117875Y-83305D01*
X117932Y-83342D01*
X117969Y-83380D01*
X117988Y-83417D01*
X117875Y-83061D02*
X117875Y-82799D01*
X118269Y-82967D01*
X120631Y-84617D02*
X120631Y-84842D01*
X120631Y-84730D02*
X120238Y-84730D01*
X120294Y-84767D01*
X120331Y-84805D01*
X120350Y-84842D01*
X120275Y-84467D02*
X120256Y-84448D01*
X120238Y-84411D01*
X120238Y-84317D01*
X120256Y-84280D01*
X120275Y-84261D01*
X120313Y-84242D01*
X120350Y-84242D01*
X120406Y-84261D01*
X120631Y-84486D01*
X120631Y-84242D01*
X120238Y-83998D02*
X120238Y-83961D01*
X120256Y-83923D01*
X120275Y-83905D01*
X120313Y-83886D01*
X120388Y-83867D01*
X120481Y-83867D01*
X120556Y-83886D01*
X120594Y-83905D01*
X120613Y-83923D01*
X120631Y-83961D01*
X120631Y-83998D01*
X120613Y-84036D01*
X120594Y-84055D01*
X120556Y-84073D01*
X120481Y-84092D01*
X120388Y-84092D01*
X120313Y-84073D01*
X120275Y-84055D01*
X120256Y-84036D01*
X120238Y-83998D01*
X120238Y-83755D02*
X120631Y-83623D01*
X120238Y-83492D01*
X120519Y-83080D02*
X120519Y-82892D01*
X120631Y-83117D02*
X120238Y-82986D01*
X120631Y-82855D01*
X120219Y-82442D02*
X120725Y-82780D01*
X120594Y-82086D02*
X120613Y-82105D01*
X120631Y-82161D01*
X120631Y-82199D01*
X120613Y-82255D01*
X120575Y-82292D01*
X120538Y-82311D01*
X120463Y-82330D01*
X120406Y-82330D01*
X120331Y-82311D01*
X120294Y-82292D01*
X120256Y-82255D01*
X120238Y-82199D01*
X120238Y-82161D01*
X120256Y-82105D01*
X120275Y-82086D01*
X50553Y-84158D02*
X50553Y-83933D01*
X50946Y-84045D02*
X50553Y-84045D01*
X50946Y-83577D02*
X50759Y-83708D01*
X50946Y-83802D02*
X50553Y-83802D01*
X50553Y-83652D01*
X50571Y-83614D01*
X50590Y-83595D01*
X50628Y-83577D01*
X50684Y-83577D01*
X50721Y-83595D01*
X50740Y-83614D01*
X50759Y-83652D01*
X50759Y-83802D01*
X50553Y-83333D02*
X50553Y-83295D01*
X50571Y-83258D01*
X50590Y-83239D01*
X50628Y-83220D01*
X50703Y-83202D01*
X50796Y-83202D01*
X50871Y-83220D01*
X50909Y-83239D01*
X50928Y-83258D01*
X50946Y-83295D01*
X50946Y-83333D01*
X50928Y-83370D01*
X50909Y-83389D01*
X50871Y-83408D01*
X50796Y-83427D01*
X50703Y-83427D01*
X50628Y-83408D01*
X50590Y-83389D01*
X50571Y-83370D01*
X50553Y-83333D01*
X48584Y-84814D02*
X48584Y-85039D01*
X48584Y-84926D02*
X48190Y-84926D01*
X48247Y-84964D01*
X48284Y-85001D01*
X48303Y-85039D01*
X48228Y-84664D02*
X48209Y-84645D01*
X48190Y-84608D01*
X48190Y-84514D01*
X48209Y-84476D01*
X48228Y-84458D01*
X48265Y-84439D01*
X48303Y-84439D01*
X48359Y-84458D01*
X48584Y-84683D01*
X48584Y-84439D01*
X48190Y-84195D02*
X48190Y-84158D01*
X48209Y-84120D01*
X48228Y-84101D01*
X48265Y-84083D01*
X48340Y-84064D01*
X48434Y-84064D01*
X48509Y-84083D01*
X48547Y-84101D01*
X48565Y-84120D01*
X48584Y-84158D01*
X48584Y-84195D01*
X48565Y-84233D01*
X48547Y-84251D01*
X48509Y-84270D01*
X48434Y-84289D01*
X48340Y-84289D01*
X48265Y-84270D01*
X48228Y-84251D01*
X48209Y-84233D01*
X48190Y-84195D01*
X48190Y-83952D02*
X48584Y-83820D01*
X48190Y-83689D01*
X48472Y-83277D02*
X48472Y-83089D01*
X48584Y-83314D02*
X48190Y-83183D01*
X48584Y-83052D01*
X48172Y-82639D02*
X48678Y-82977D01*
X48547Y-82283D02*
X48565Y-82302D01*
X48584Y-82358D01*
X48584Y-82395D01*
X48565Y-82452D01*
X48528Y-82489D01*
X48490Y-82508D01*
X48415Y-82527D01*
X48359Y-82527D01*
X48284Y-82508D01*
X48247Y-82489D01*
X48209Y-82452D01*
X48190Y-82395D01*
X48190Y-82358D01*
X48209Y-82302D01*
X48228Y-82283D01*
X58136Y-85386D02*
X58005Y-85386D01*
X58005Y-85592D02*
X58005Y-85198D01*
X58192Y-85198D01*
X58548Y-85592D02*
X58323Y-85592D01*
X58436Y-85592D02*
X58436Y-85198D01*
X58398Y-85254D01*
X58361Y-85292D01*
X58323Y-85311D01*
X57231Y-83722D02*
X57006Y-83722D01*
X57119Y-83722D02*
X57119Y-83328D01*
X57081Y-83384D01*
X57044Y-83422D01*
X57006Y-83441D01*
X57475Y-83328D02*
X57513Y-83328D01*
X57550Y-83347D01*
X57569Y-83366D01*
X57588Y-83403D01*
X57606Y-83478D01*
X57606Y-83572D01*
X57588Y-83647D01*
X57569Y-83684D01*
X57550Y-83703D01*
X57513Y-83722D01*
X57475Y-83722D01*
X57438Y-83703D01*
X57419Y-83684D01*
X57400Y-83647D01*
X57381Y-83572D01*
X57381Y-83478D01*
X57400Y-83403D01*
X57419Y-83366D01*
X57438Y-83347D01*
X57475Y-83328D01*
X57756Y-83609D02*
X57944Y-83609D01*
X57719Y-83722D02*
X57850Y-83328D01*
X57981Y-83722D01*
X58019Y-83759D02*
X58319Y-83759D01*
X58544Y-83516D02*
X58413Y-83516D01*
X58413Y-83722D02*
X58413Y-83328D01*
X58600Y-83328D01*
X58750Y-83328D02*
X58750Y-83647D01*
X58769Y-83684D01*
X58787Y-83703D01*
X58825Y-83722D01*
X58900Y-83722D01*
X58937Y-83703D01*
X58956Y-83684D01*
X58975Y-83647D01*
X58975Y-83328D01*
X59144Y-83703D02*
X59200Y-83722D01*
X59294Y-83722D01*
X59331Y-83703D01*
X59350Y-83684D01*
X59369Y-83647D01*
X59369Y-83609D01*
X59350Y-83572D01*
X59331Y-83553D01*
X59294Y-83534D01*
X59219Y-83516D01*
X59181Y-83497D01*
X59162Y-83478D01*
X59144Y-83441D01*
X59144Y-83403D01*
X59162Y-83366D01*
X59181Y-83347D01*
X59219Y-83328D01*
X59312Y-83328D01*
X59369Y-83347D01*
X59537Y-83516D02*
X59669Y-83516D01*
X59725Y-83722D02*
X59537Y-83722D01*
X59537Y-83328D01*
X59725Y-83328D01*
X110498Y-83220D02*
X110367Y-83220D01*
X110367Y-83427D02*
X110367Y-83033D01*
X110554Y-83033D01*
X110686Y-83070D02*
X110704Y-83052D01*
X110742Y-83033D01*
X110836Y-83033D01*
X110873Y-83052D01*
X110892Y-83070D01*
X110911Y-83108D01*
X110911Y-83145D01*
X110892Y-83202D01*
X110667Y-83427D01*
X110911Y-83427D01*
X109397Y-85297D02*
X109172Y-85297D01*
X109284Y-85297D02*
X109284Y-84903D01*
X109247Y-84959D01*
X109209Y-84997D01*
X109172Y-85015D01*
X109640Y-84903D02*
X109678Y-84903D01*
X109715Y-84922D01*
X109734Y-84940D01*
X109753Y-84978D01*
X109772Y-85053D01*
X109772Y-85147D01*
X109753Y-85222D01*
X109734Y-85259D01*
X109715Y-85278D01*
X109678Y-85297D01*
X109640Y-85297D01*
X109603Y-85278D01*
X109584Y-85259D01*
X109565Y-85222D01*
X109547Y-85147D01*
X109547Y-85053D01*
X109565Y-84978D01*
X109584Y-84940D01*
X109603Y-84922D01*
X109640Y-84903D01*
X109922Y-85184D02*
X110109Y-85184D01*
X109884Y-85297D02*
X110015Y-84903D01*
X110147Y-85297D01*
X110184Y-85334D02*
X110484Y-85334D01*
X110709Y-85090D02*
X110578Y-85090D01*
X110578Y-85297D02*
X110578Y-84903D01*
X110765Y-84903D01*
X110915Y-84903D02*
X110915Y-85222D01*
X110934Y-85259D01*
X110953Y-85278D01*
X110990Y-85297D01*
X111065Y-85297D01*
X111103Y-85278D01*
X111122Y-85259D01*
X111140Y-85222D01*
X111140Y-84903D01*
X111309Y-85278D02*
X111365Y-85297D01*
X111459Y-85297D01*
X111497Y-85278D01*
X111515Y-85259D01*
X111534Y-85222D01*
X111534Y-85184D01*
X111515Y-85147D01*
X111497Y-85128D01*
X111459Y-85109D01*
X111384Y-85090D01*
X111347Y-85072D01*
X111328Y-85053D01*
X111309Y-85015D01*
X111309Y-84978D01*
X111328Y-84940D01*
X111347Y-84922D01*
X111384Y-84903D01*
X111478Y-84903D01*
X111534Y-84922D01*
X111703Y-85090D02*
X111834Y-85090D01*
X111890Y-85297D02*
X111703Y-85297D01*
X111703Y-84903D01*
X111890Y-84903D01*
X69619Y-53862D02*
X69600Y-53880D01*
X69544Y-53899D01*
X69506Y-53899D01*
X69450Y-53880D01*
X69413Y-53843D01*
X69394Y-53805D01*
X69375Y-53730D01*
X69375Y-53674D01*
X69394Y-53599D01*
X69413Y-53562D01*
X69450Y-53524D01*
X69506Y-53505D01*
X69544Y-53505D01*
X69600Y-53524D01*
X69619Y-53543D01*
X69750Y-53505D02*
X69994Y-53505D01*
X69863Y-53655D01*
X69919Y-53655D01*
X69956Y-53674D01*
X69975Y-53693D01*
X69994Y-53730D01*
X69994Y-53824D01*
X69975Y-53862D01*
X69956Y-53880D01*
X69919Y-53899D01*
X69806Y-53899D01*
X69769Y-53880D01*
X69750Y-53862D01*
X69052Y-56027D02*
X69071Y-56046D01*
X69052Y-56064D01*
X69033Y-56046D01*
X69052Y-56027D01*
X69052Y-56064D01*
X69446Y-56064D02*
X69221Y-56064D01*
X69333Y-56064D02*
X69333Y-55671D01*
X69296Y-55727D01*
X69258Y-55764D01*
X69221Y-55783D01*
X69783Y-55802D02*
X69783Y-56064D01*
X69614Y-55802D02*
X69614Y-56008D01*
X69633Y-56046D01*
X69670Y-56064D01*
X69727Y-56064D01*
X69764Y-56046D01*
X69783Y-56027D01*
X70102Y-55858D02*
X69970Y-55858D01*
X69970Y-56064D02*
X69970Y-55671D01*
X70158Y-55671D01*
X75426Y-54649D02*
X75407Y-54668D01*
X75351Y-54686D01*
X75314Y-54686D01*
X75257Y-54668D01*
X75220Y-54630D01*
X75201Y-54593D01*
X75182Y-54518D01*
X75182Y-54461D01*
X75201Y-54386D01*
X75220Y-54349D01*
X75257Y-54311D01*
X75314Y-54293D01*
X75351Y-54293D01*
X75407Y-54311D01*
X75426Y-54330D01*
X75763Y-54424D02*
X75763Y-54686D01*
X75670Y-54274D02*
X75576Y-54555D01*
X75820Y-54555D01*
X74957Y-56814D02*
X74976Y-56833D01*
X74957Y-56852D01*
X74939Y-56833D01*
X74957Y-56814D01*
X74957Y-56852D01*
X75351Y-56852D02*
X75126Y-56852D01*
X75239Y-56852D02*
X75239Y-56458D01*
X75201Y-56514D01*
X75164Y-56552D01*
X75126Y-56571D01*
X75688Y-56589D02*
X75688Y-56852D01*
X75520Y-56589D02*
X75520Y-56796D01*
X75538Y-56833D01*
X75576Y-56852D01*
X75632Y-56852D01*
X75670Y-56833D01*
X75688Y-56814D01*
X76007Y-56646D02*
X75876Y-56646D01*
X75876Y-56852D02*
X75876Y-56458D01*
X76063Y-56458D01*
X71456Y-67229D02*
X71437Y-67210D01*
X71419Y-67172D01*
X71419Y-67079D01*
X71437Y-67041D01*
X71456Y-67022D01*
X71494Y-67004D01*
X71531Y-67004D01*
X71587Y-67022D01*
X71812Y-67247D01*
X71812Y-67004D01*
X71419Y-66872D02*
X71419Y-66610D01*
X71812Y-66779D01*
X71812Y-66460D02*
X71419Y-66460D01*
X71812Y-66235D02*
X71587Y-66404D01*
X71419Y-66235D02*
X71644Y-66460D01*
G54D21*
X84300Y-67509D02*
X84133Y-67271D01*
X84014Y-67509D02*
X84014Y-67009D01*
X84205Y-67009D01*
X84252Y-67033D01*
X84276Y-67057D01*
X84300Y-67104D01*
X84300Y-67176D01*
X84276Y-67223D01*
X84252Y-67247D01*
X84205Y-67271D01*
X84014Y-67271D01*
X84514Y-67509D02*
X84514Y-67009D01*
X84800Y-67509D01*
X84800Y-67009D01*
X85300Y-67509D02*
X85014Y-67509D01*
X85157Y-67509D02*
X85157Y-67009D01*
X85109Y-67080D01*
X85062Y-67128D01*
X85014Y-67152D01*
G54D23*
X80093Y-64491D02*
X80093Y-64191D01*
X80164Y-64191D01*
X80207Y-64205D01*
X80236Y-64234D01*
X80250Y-64262D01*
X80264Y-64320D01*
X80264Y-64362D01*
X80250Y-64420D01*
X80236Y-64448D01*
X80207Y-64477D01*
X80164Y-64491D01*
X80093Y-64491D01*
X80436Y-64320D02*
X80407Y-64305D01*
X80393Y-64291D01*
X80379Y-64262D01*
X80379Y-64248D01*
X80393Y-64220D01*
X80407Y-64205D01*
X80436Y-64191D01*
X80493Y-64191D01*
X80522Y-64205D01*
X80536Y-64220D01*
X80550Y-64248D01*
X80550Y-64262D01*
X80536Y-64291D01*
X80522Y-64305D01*
X80493Y-64320D01*
X80436Y-64320D01*
X80407Y-64334D01*
X80393Y-64348D01*
X80379Y-64377D01*
X80379Y-64434D01*
X80393Y-64462D01*
X80407Y-64477D01*
X80436Y-64491D01*
X80493Y-64491D01*
X80522Y-64477D01*
X80536Y-64462D01*
X80550Y-64434D01*
X80550Y-64377D01*
X80536Y-64348D01*
X80522Y-64334D01*
X80493Y-64320D01*
X80122Y-64885D02*
X79979Y-64885D01*
X79979Y-64585D01*
X80222Y-64728D02*
X80322Y-64728D01*
X80364Y-64885D02*
X80222Y-64885D01*
X80222Y-64585D01*
X80364Y-64585D01*
X80493Y-64885D02*
X80493Y-64585D01*
X80564Y-64585D01*
X80607Y-64599D01*
X80636Y-64628D01*
X80650Y-64656D01*
X80664Y-64713D01*
X80664Y-64756D01*
X80650Y-64813D01*
X80636Y-64842D01*
X80607Y-64870D01*
X80564Y-64885D01*
X80493Y-64885D01*
X82258Y-64491D02*
X82258Y-64191D01*
X82330Y-64191D01*
X82373Y-64205D01*
X82401Y-64234D01*
X82416Y-64262D01*
X82430Y-64320D01*
X82430Y-64362D01*
X82416Y-64420D01*
X82401Y-64448D01*
X82373Y-64477D01*
X82330Y-64491D01*
X82258Y-64491D01*
X82573Y-64491D02*
X82630Y-64491D01*
X82658Y-64477D01*
X82673Y-64462D01*
X82701Y-64420D01*
X82716Y-64362D01*
X82716Y-64248D01*
X82701Y-64220D01*
X82687Y-64205D01*
X82658Y-64191D01*
X82601Y-64191D01*
X82573Y-64205D01*
X82558Y-64220D01*
X82544Y-64248D01*
X82544Y-64320D01*
X82558Y-64348D01*
X82573Y-64362D01*
X82601Y-64377D01*
X82658Y-64377D01*
X82687Y-64362D01*
X82701Y-64348D01*
X82716Y-64320D01*
X82287Y-64885D02*
X82144Y-64885D01*
X82144Y-64585D01*
X82387Y-64728D02*
X82487Y-64728D01*
X82530Y-64885D02*
X82387Y-64885D01*
X82387Y-64585D01*
X82530Y-64585D01*
X82658Y-64885D02*
X82658Y-64585D01*
X82730Y-64585D01*
X82773Y-64599D01*
X82801Y-64628D01*
X82816Y-64656D01*
X82830Y-64713D01*
X82830Y-64756D01*
X82816Y-64813D01*
X82801Y-64842D01*
X82773Y-64870D01*
X82730Y-64885D01*
X82658Y-64885D01*
X84281Y-64491D02*
X84281Y-64191D01*
X84352Y-64191D01*
X84395Y-64205D01*
X84424Y-64234D01*
X84438Y-64262D01*
X84452Y-64320D01*
X84452Y-64362D01*
X84438Y-64420D01*
X84424Y-64448D01*
X84395Y-64477D01*
X84352Y-64491D01*
X84281Y-64491D01*
X84738Y-64491D02*
X84567Y-64491D01*
X84652Y-64491D02*
X84652Y-64191D01*
X84624Y-64234D01*
X84595Y-64262D01*
X84567Y-64277D01*
X84924Y-64191D02*
X84952Y-64191D01*
X84981Y-64205D01*
X84995Y-64220D01*
X85009Y-64248D01*
X85024Y-64305D01*
X85024Y-64377D01*
X85009Y-64434D01*
X84995Y-64462D01*
X84981Y-64477D01*
X84952Y-64491D01*
X84924Y-64491D01*
X84895Y-64477D01*
X84881Y-64462D01*
X84867Y-64434D01*
X84852Y-64377D01*
X84852Y-64305D01*
X84867Y-64248D01*
X84881Y-64220D01*
X84895Y-64205D01*
X84924Y-64191D01*
X84452Y-64885D02*
X84309Y-64885D01*
X84309Y-64585D01*
X84552Y-64728D02*
X84652Y-64728D01*
X84695Y-64885D02*
X84552Y-64885D01*
X84552Y-64585D01*
X84695Y-64585D01*
X84824Y-64885D02*
X84824Y-64585D01*
X84895Y-64585D01*
X84938Y-64599D01*
X84967Y-64628D01*
X84981Y-64656D01*
X84995Y-64713D01*
X84995Y-64756D01*
X84981Y-64813D01*
X84967Y-64842D01*
X84938Y-64870D01*
X84895Y-64885D01*
X84824Y-64885D01*
X86446Y-64491D02*
X86446Y-64191D01*
X86518Y-64191D01*
X86561Y-64205D01*
X86589Y-64234D01*
X86603Y-64262D01*
X86618Y-64320D01*
X86618Y-64362D01*
X86603Y-64420D01*
X86589Y-64448D01*
X86561Y-64477D01*
X86518Y-64491D01*
X86446Y-64491D01*
X86903Y-64491D02*
X86732Y-64491D01*
X86818Y-64491D02*
X86818Y-64191D01*
X86789Y-64234D01*
X86761Y-64262D01*
X86732Y-64277D01*
X87189Y-64491D02*
X87018Y-64491D01*
X87103Y-64491D02*
X87103Y-64191D01*
X87075Y-64234D01*
X87046Y-64262D01*
X87018Y-64277D01*
X86618Y-64885D02*
X86475Y-64885D01*
X86475Y-64585D01*
X86718Y-64728D02*
X86818Y-64728D01*
X86861Y-64885D02*
X86718Y-64885D01*
X86718Y-64585D01*
X86861Y-64585D01*
X86989Y-64885D02*
X86989Y-64585D01*
X87061Y-64585D01*
X87103Y-64599D01*
X87132Y-64628D01*
X87146Y-64656D01*
X87161Y-64713D01*
X87161Y-64756D01*
X87146Y-64813D01*
X87132Y-64842D01*
X87103Y-64870D01*
X87061Y-64885D01*
X86989Y-64885D01*
X88612Y-64491D02*
X88612Y-64191D01*
X88683Y-64191D01*
X88726Y-64205D01*
X88754Y-64234D01*
X88769Y-64262D01*
X88783Y-64320D01*
X88783Y-64362D01*
X88769Y-64420D01*
X88754Y-64448D01*
X88726Y-64477D01*
X88683Y-64491D01*
X88612Y-64491D01*
X89069Y-64491D02*
X88897Y-64491D01*
X88983Y-64491D02*
X88983Y-64191D01*
X88954Y-64234D01*
X88926Y-64262D01*
X88897Y-64277D01*
X89183Y-64220D02*
X89197Y-64205D01*
X89226Y-64191D01*
X89297Y-64191D01*
X89326Y-64205D01*
X89340Y-64220D01*
X89354Y-64248D01*
X89354Y-64277D01*
X89340Y-64320D01*
X89169Y-64491D01*
X89354Y-64491D01*
X88783Y-64885D02*
X88640Y-64885D01*
X88640Y-64585D01*
X88883Y-64728D02*
X88983Y-64728D01*
X89026Y-64885D02*
X88883Y-64885D01*
X88883Y-64585D01*
X89026Y-64585D01*
X89154Y-64885D02*
X89154Y-64585D01*
X89226Y-64585D01*
X89269Y-64599D01*
X89297Y-64628D01*
X89312Y-64656D01*
X89326Y-64713D01*
X89326Y-64756D01*
X89312Y-64813D01*
X89297Y-64842D01*
X89269Y-64870D01*
X89226Y-64885D01*
X89154Y-64885D01*
G54D24*
X81507Y-54851D02*
X81507Y-55337D01*
X81528Y-55394D01*
X81550Y-55422D01*
X81593Y-55451D01*
X81678Y-55451D01*
X81721Y-55422D01*
X81743Y-55394D01*
X81764Y-55337D01*
X81764Y-54851D01*
X82043Y-55108D02*
X82000Y-55080D01*
X81978Y-55051D01*
X81957Y-54994D01*
X81957Y-54965D01*
X81978Y-54908D01*
X82000Y-54880D01*
X82043Y-54851D01*
X82128Y-54851D01*
X82171Y-54880D01*
X82193Y-54908D01*
X82214Y-54965D01*
X82214Y-54994D01*
X82193Y-55051D01*
X82171Y-55080D01*
X82128Y-55108D01*
X82043Y-55108D01*
X82000Y-55137D01*
X81978Y-55165D01*
X81957Y-55222D01*
X81957Y-55337D01*
X81978Y-55394D01*
X82000Y-55422D01*
X82043Y-55451D01*
X82128Y-55451D01*
X82171Y-55422D01*
X82193Y-55394D01*
X82214Y-55337D01*
X82214Y-55222D01*
X82193Y-55165D01*
X82171Y-55137D01*
X82128Y-55108D01*
G54D15*
G54D24*
X84855Y-56345D02*
X84855Y-55745D01*
X84962Y-55745D01*
X85026Y-55773D01*
X85069Y-55830D01*
X85090Y-55888D01*
X85112Y-56002D01*
X85112Y-56088D01*
X85090Y-56202D01*
X85069Y-56259D01*
X85026Y-56316D01*
X84962Y-56345D01*
X84855Y-56345D01*
X85305Y-56345D02*
X85305Y-55745D01*
X85519Y-56345D02*
X85519Y-55745D01*
X85690Y-55745D01*
X85733Y-55773D01*
X85755Y-55802D01*
X85776Y-55859D01*
X85776Y-55945D01*
X85755Y-56002D01*
X85733Y-56030D01*
X85690Y-56059D01*
X85519Y-56059D01*
X85947Y-56316D02*
X86012Y-56345D01*
X86119Y-56345D01*
X86162Y-56316D01*
X86183Y-56288D01*
X86205Y-56230D01*
X86205Y-56173D01*
X86183Y-56116D01*
X86162Y-56088D01*
X86119Y-56059D01*
X86033Y-56030D01*
X85990Y-56002D01*
X85969Y-55973D01*
X85947Y-55916D01*
X85947Y-55859D01*
X85969Y-55802D01*
X85990Y-55773D01*
X86033Y-55745D01*
X86140Y-55745D01*
X86205Y-55773D01*
X86355Y-55745D02*
X86462Y-56345D01*
X86547Y-55916D01*
X86633Y-56345D01*
X86740Y-55745D01*
X86912Y-56345D02*
X86912Y-55745D01*
X87062Y-55745D02*
X87319Y-55745D01*
X87190Y-56345D02*
X87190Y-55745D01*
X87726Y-56288D02*
X87705Y-56316D01*
X87640Y-56345D01*
X87597Y-56345D01*
X87533Y-56316D01*
X87490Y-56259D01*
X87469Y-56202D01*
X87447Y-56088D01*
X87447Y-56002D01*
X87469Y-55888D01*
X87490Y-55830D01*
X87533Y-55773D01*
X87597Y-55745D01*
X87640Y-55745D01*
X87705Y-55773D01*
X87726Y-55802D01*
X87919Y-56345D02*
X87919Y-55745D01*
X87919Y-56030D02*
X88176Y-56030D01*
X88176Y-56345D02*
X88176Y-55745D01*
G54D15*
G54D10*
X92650Y-54354D02*
X92632Y-54372D01*
X92575Y-54391D01*
X92538Y-54391D01*
X92482Y-54372D01*
X92444Y-54335D01*
X92425Y-54297D01*
X92407Y-54222D01*
X92407Y-54166D01*
X92425Y-54091D01*
X92444Y-54054D01*
X92482Y-54016D01*
X92538Y-53997D01*
X92575Y-53997D01*
X92632Y-54016D01*
X92650Y-54035D01*
X92988Y-53997D02*
X92913Y-53997D01*
X92875Y-54016D01*
X92857Y-54035D01*
X92819Y-54091D01*
X92800Y-54166D01*
X92800Y-54316D01*
X92819Y-54354D01*
X92838Y-54372D01*
X92875Y-54391D01*
X92950Y-54391D01*
X92988Y-54372D01*
X93007Y-54354D01*
X93025Y-54316D01*
X93025Y-54222D01*
X93007Y-54185D01*
X92988Y-54166D01*
X92950Y-54147D01*
X92875Y-54147D01*
X92838Y-54166D01*
X92819Y-54185D01*
X92800Y-54222D01*
X92182Y-56421D02*
X92200Y-56439D01*
X92182Y-56458D01*
X92163Y-56439D01*
X92182Y-56421D01*
X92182Y-56458D01*
X92575Y-56458D02*
X92350Y-56458D01*
X92463Y-56458D02*
X92463Y-56064D01*
X92425Y-56121D01*
X92388Y-56158D01*
X92350Y-56177D01*
X92913Y-56196D02*
X92913Y-56458D01*
X92744Y-56196D02*
X92744Y-56402D01*
X92763Y-56439D01*
X92800Y-56458D01*
X92857Y-56458D01*
X92894Y-56439D01*
X92913Y-56421D01*
X93232Y-56252D02*
X93100Y-56252D01*
X93100Y-56458D02*
X93100Y-56064D01*
X93288Y-56064D01*
X98753Y-54452D02*
X98734Y-54471D01*
X98678Y-54490D01*
X98640Y-54490D01*
X98584Y-54471D01*
X98547Y-54433D01*
X98528Y-54396D01*
X98509Y-54321D01*
X98509Y-54265D01*
X98528Y-54190D01*
X98547Y-54152D01*
X98584Y-54115D01*
X98640Y-54096D01*
X98678Y-54096D01*
X98734Y-54115D01*
X98753Y-54133D01*
X99109Y-54096D02*
X98922Y-54096D01*
X98903Y-54283D01*
X98922Y-54265D01*
X98959Y-54246D01*
X99053Y-54246D01*
X99090Y-54265D01*
X99109Y-54283D01*
X99128Y-54321D01*
X99128Y-54415D01*
X99109Y-54452D01*
X99090Y-54471D01*
X99053Y-54490D01*
X98959Y-54490D01*
X98922Y-54471D01*
X98903Y-54452D01*
X98186Y-56617D02*
X98204Y-56636D01*
X98186Y-56655D01*
X98167Y-56636D01*
X98186Y-56617D01*
X98186Y-56655D01*
X98579Y-56655D02*
X98354Y-56655D01*
X98467Y-56655D02*
X98467Y-56261D01*
X98429Y-56317D01*
X98392Y-56355D01*
X98354Y-56374D01*
X98917Y-56392D02*
X98917Y-56655D01*
X98748Y-56392D02*
X98748Y-56599D01*
X98767Y-56636D01*
X98804Y-56655D01*
X98861Y-56655D01*
X98898Y-56636D01*
X98917Y-56617D01*
X99236Y-56449D02*
X99104Y-56449D01*
X99104Y-56655D02*
X99104Y-56261D01*
X99292Y-56261D01*
G54D24*
X72083Y-61169D02*
X72569Y-61169D01*
X72626Y-61148D01*
X72655Y-61126D01*
X72683Y-61083D01*
X72683Y-60998D01*
X72655Y-60955D01*
X72626Y-60933D01*
X72569Y-60912D01*
X72083Y-60912D01*
X72083Y-60741D02*
X72083Y-60441D01*
X72683Y-60633D01*
G54D15*
G54D24*
X72512Y-55323D02*
X72512Y-55109D01*
X72683Y-55366D02*
X72083Y-55216D01*
X72683Y-55066D01*
X72083Y-54980D02*
X72083Y-54723D01*
X72683Y-54851D02*
X72083Y-54851D01*
X72683Y-54573D02*
X72083Y-54573D01*
X72512Y-54423D01*
X72083Y-54273D01*
X72683Y-54273D01*
X72369Y-54059D02*
X72369Y-53909D01*
X72683Y-53844D02*
X72683Y-54059D01*
X72083Y-54059D01*
X72083Y-53844D01*
X72112Y-53416D02*
X72083Y-53459D01*
X72083Y-53523D01*
X72112Y-53587D01*
X72169Y-53630D01*
X72226Y-53651D01*
X72340Y-53673D01*
X72426Y-53673D01*
X72540Y-53651D01*
X72598Y-53630D01*
X72655Y-53587D01*
X72683Y-53523D01*
X72683Y-53480D01*
X72655Y-53416D01*
X72626Y-53394D01*
X72426Y-53394D01*
X72426Y-53480D01*
X72512Y-53223D02*
X72512Y-53009D01*
X72683Y-53266D02*
X72083Y-53116D01*
X72683Y-52966D01*
X72083Y-52859D02*
X72083Y-52580D01*
X72312Y-52730D01*
X72312Y-52666D01*
X72340Y-52623D01*
X72369Y-52601D01*
X72426Y-52580D01*
X72569Y-52580D01*
X72626Y-52601D01*
X72655Y-52623D01*
X72683Y-52666D01*
X72683Y-52794D01*
X72655Y-52837D01*
X72626Y-52859D01*
X72140Y-52409D02*
X72112Y-52387D01*
X72083Y-52344D01*
X72083Y-52237D01*
X72112Y-52194D01*
X72140Y-52173D01*
X72198Y-52151D01*
X72255Y-52151D01*
X72340Y-52173D01*
X72683Y-52430D01*
X72683Y-52151D01*
X72340Y-51894D02*
X72312Y-51937D01*
X72283Y-51959D01*
X72226Y-51980D01*
X72198Y-51980D01*
X72140Y-51959D01*
X72112Y-51937D01*
X72083Y-51894D01*
X72083Y-51809D01*
X72112Y-51766D01*
X72140Y-51744D01*
X72198Y-51723D01*
X72226Y-51723D01*
X72283Y-51744D01*
X72312Y-51766D01*
X72340Y-51809D01*
X72340Y-51894D01*
X72369Y-51937D01*
X72398Y-51959D01*
X72455Y-51980D01*
X72569Y-51980D01*
X72626Y-51959D01*
X72655Y-51937D01*
X72683Y-51894D01*
X72683Y-51809D01*
X72655Y-51766D01*
X72626Y-51744D01*
X72569Y-51723D01*
X72455Y-51723D01*
X72398Y-51744D01*
X72369Y-51766D01*
X72340Y-51809D01*
X72683Y-51530D02*
X72083Y-51530D01*
X72083Y-51359D01*
X72112Y-51316D01*
X72140Y-51294D01*
X72198Y-51273D01*
X72283Y-51273D01*
X72340Y-51294D01*
X72369Y-51316D01*
X72398Y-51359D01*
X72398Y-51530D01*
X72455Y-51080D02*
X72455Y-50737D01*
X72683Y-50523D02*
X72083Y-50523D01*
X72083Y-50351D01*
X72112Y-50309D01*
X72140Y-50287D01*
X72198Y-50266D01*
X72283Y-50266D01*
X72340Y-50287D01*
X72369Y-50309D01*
X72398Y-50351D01*
X72398Y-50523D01*
X72083Y-50073D02*
X72569Y-50073D01*
X72626Y-50051D01*
X72655Y-50030D01*
X72683Y-49987D01*
X72683Y-49901D01*
X72655Y-49859D01*
X72626Y-49837D01*
X72569Y-49816D01*
X72083Y-49816D01*
G54D15*
G54D24*
X95508Y-61338D02*
X95994Y-61338D01*
X96051Y-61317D01*
X96080Y-61296D01*
X96108Y-61253D01*
X96108Y-61167D01*
X96080Y-61124D01*
X96051Y-61103D01*
X95994Y-61081D01*
X95508Y-61081D01*
X95508Y-60674D02*
X95508Y-60760D01*
X95537Y-60803D01*
X95566Y-60824D01*
X95651Y-60867D01*
X95766Y-60888D01*
X95994Y-60888D01*
X96051Y-60867D01*
X96080Y-60846D01*
X96108Y-60803D01*
X96108Y-60717D01*
X96080Y-60674D01*
X96051Y-60653D01*
X95994Y-60631D01*
X95851Y-60631D01*
X95794Y-60653D01*
X95766Y-60674D01*
X95737Y-60717D01*
X95737Y-60803D01*
X95766Y-60846D01*
X95794Y-60867D01*
X95851Y-60888D01*
G54D15*
G54D24*
X95937Y-55260D02*
X95937Y-55046D01*
X96108Y-55303D02*
X95508Y-55153D01*
X96108Y-55003D01*
X95508Y-54917D02*
X95508Y-54660D01*
X96108Y-54788D02*
X95508Y-54788D01*
X96108Y-54510D02*
X95508Y-54510D01*
X95937Y-54360D01*
X95508Y-54210D01*
X96108Y-54210D01*
X95794Y-53996D02*
X95794Y-53846D01*
X96108Y-53781D02*
X96108Y-53996D01*
X95508Y-53996D01*
X95508Y-53781D01*
X95537Y-53353D02*
X95508Y-53396D01*
X95508Y-53460D01*
X95537Y-53524D01*
X95594Y-53567D01*
X95651Y-53588D01*
X95766Y-53610D01*
X95851Y-53610D01*
X95966Y-53588D01*
X96023Y-53567D01*
X96080Y-53524D01*
X96108Y-53460D01*
X96108Y-53417D01*
X96080Y-53353D01*
X96051Y-53331D01*
X95851Y-53331D01*
X95851Y-53417D01*
X95937Y-53160D02*
X95937Y-52946D01*
X96108Y-53203D02*
X95508Y-53053D01*
X96108Y-52903D01*
X95508Y-52796D02*
X95508Y-52517D01*
X95737Y-52667D01*
X95737Y-52603D01*
X95766Y-52560D01*
X95794Y-52538D01*
X95851Y-52517D01*
X95994Y-52517D01*
X96051Y-52538D01*
X96080Y-52560D01*
X96108Y-52603D01*
X96108Y-52731D01*
X96080Y-52774D01*
X96051Y-52796D01*
X95566Y-52346D02*
X95537Y-52324D01*
X95508Y-52281D01*
X95508Y-52174D01*
X95537Y-52131D01*
X95566Y-52110D01*
X95623Y-52088D01*
X95680Y-52088D01*
X95766Y-52110D01*
X96108Y-52367D01*
X96108Y-52088D01*
X95766Y-51831D02*
X95737Y-51874D01*
X95708Y-51896D01*
X95651Y-51917D01*
X95623Y-51917D01*
X95566Y-51896D01*
X95537Y-51874D01*
X95508Y-51831D01*
X95508Y-51746D01*
X95537Y-51703D01*
X95566Y-51681D01*
X95623Y-51660D01*
X95651Y-51660D01*
X95708Y-51681D01*
X95737Y-51703D01*
X95766Y-51746D01*
X95766Y-51831D01*
X95794Y-51874D01*
X95823Y-51896D01*
X95880Y-51917D01*
X95994Y-51917D01*
X96051Y-51896D01*
X96080Y-51874D01*
X96108Y-51831D01*
X96108Y-51746D01*
X96080Y-51703D01*
X96051Y-51681D01*
X95994Y-51660D01*
X95880Y-51660D01*
X95823Y-51681D01*
X95794Y-51703D01*
X95766Y-51746D01*
X96108Y-51467D02*
X95508Y-51467D01*
X95508Y-51296D01*
X95537Y-51253D01*
X95566Y-51231D01*
X95623Y-51210D01*
X95708Y-51210D01*
X95766Y-51231D01*
X95794Y-51253D01*
X95823Y-51296D01*
X95823Y-51467D01*
X95880Y-51017D02*
X95880Y-50674D01*
X96108Y-50460D02*
X95508Y-50460D01*
X95508Y-50288D01*
X95537Y-50246D01*
X95566Y-50224D01*
X95623Y-50203D01*
X95708Y-50203D01*
X95766Y-50224D01*
X95794Y-50246D01*
X95823Y-50288D01*
X95823Y-50460D01*
X95508Y-50010D02*
X95994Y-50010D01*
X96051Y-49988D01*
X96080Y-49967D01*
X96108Y-49924D01*
X96108Y-49838D01*
X96080Y-49796D01*
X96051Y-49774D01*
X95994Y-49753D01*
X95508Y-49753D01*
G54D15*
M02*
