G04 (created by PCBNEW (2013-07-07 BZR 4022)-stable) date 9/7/2014 7:10:48 AM*
%MOIN*%
G04 Gerber Fmt 3.4, Leading zero omitted, Abs format*
%FSLAX34Y34*%
G01*
G70*
G90*
G04 APERTURE LIST*
%ADD10C,0.00590551*%
%ADD11C,0.0885827*%
%ADD12C,0.07*%
%ADD13R,0.07X0.07*%
%ADD14R,0.0885827X0.0885827*%
%ADD15R,0.055X0.055*%
%ADD16C,0.055*%
%ADD17C,0.1437*%
%ADD18R,0.0591X0.0591*%
%ADD19C,0.0591*%
%ADD20C,0.0688976*%
%ADD21C,0.066*%
%ADD22R,0.0688976X0.0688976*%
%ADD23R,0.0629921X0.0629921*%
%ADD24C,0.0629921*%
%ADD25C,0.129921*%
%ADD26C,0.035*%
%ADD27C,0.01*%
%ADD28C,0.019685*%
%ADD29C,0.0472441*%
%ADD30C,0.110236*%
%ADD31C,0.0590551*%
%ADD32C,0.108268*%
G04 APERTURE END LIST*
G54D10*
G54D11*
X70472Y-75078D03*
X70472Y-82559D03*
X82480Y-75078D03*
X82480Y-77519D03*
X82480Y-80039D03*
X82480Y-82559D03*
G54D12*
X97047Y-82267D03*
X97047Y-83267D03*
G54D13*
X97047Y-84267D03*
G54D12*
X114566Y-51885D03*
X114566Y-50885D03*
G54D13*
X114566Y-49885D03*
G54D12*
X114566Y-55921D03*
X114566Y-54921D03*
G54D13*
X114566Y-53921D03*
G54D12*
X114566Y-59956D03*
X114566Y-58956D03*
G54D13*
X114566Y-57956D03*
G54D12*
X114566Y-63992D03*
X114566Y-62992D03*
G54D13*
X114566Y-61992D03*
G54D12*
X114566Y-68027D03*
X114566Y-67027D03*
G54D13*
X114566Y-66027D03*
G54D12*
X114566Y-72062D03*
X114566Y-71062D03*
G54D13*
X114566Y-70062D03*
G54D12*
X114566Y-76098D03*
X114566Y-75098D03*
G54D13*
X114566Y-74098D03*
G54D12*
X114566Y-80133D03*
X114566Y-79133D03*
G54D13*
X114566Y-78133D03*
G54D12*
X54625Y-51393D03*
X54625Y-50393D03*
G54D13*
X54625Y-49393D03*
G54D12*
X54625Y-55527D03*
X54625Y-54527D03*
G54D13*
X54625Y-53527D03*
G54D12*
X54625Y-59661D03*
X54625Y-58661D03*
G54D13*
X54625Y-57661D03*
G54D12*
X54625Y-63795D03*
X54625Y-62795D03*
G54D13*
X54625Y-61795D03*
G54D12*
X54625Y-72062D03*
X54625Y-71062D03*
G54D13*
X54625Y-70062D03*
G54D12*
X54625Y-76196D03*
X54625Y-75196D03*
G54D13*
X54625Y-74196D03*
G54D12*
X54625Y-80330D03*
X54625Y-79330D03*
G54D13*
X54625Y-78330D03*
G54D12*
X54625Y-67929D03*
X54625Y-66929D03*
G54D13*
X54625Y-65929D03*
G54D14*
X119291Y-71850D03*
G54D11*
X119291Y-70275D03*
G54D14*
X49606Y-51181D03*
G54D11*
X49606Y-49606D03*
G54D14*
X49606Y-55314D03*
G54D11*
X49606Y-53740D03*
G54D14*
X49606Y-59448D03*
G54D11*
X49606Y-57874D03*
G54D14*
X49606Y-63582D03*
G54D11*
X49606Y-62007D03*
G54D14*
X49606Y-67716D03*
G54D11*
X49606Y-66141D03*
G54D14*
X49606Y-71850D03*
G54D11*
X49606Y-70275D03*
G54D14*
X49606Y-75984D03*
G54D11*
X49606Y-74409D03*
G54D14*
X119291Y-79921D03*
G54D11*
X119291Y-78346D03*
G54D14*
X119291Y-75885D03*
G54D11*
X119291Y-74311D03*
G54D14*
X119291Y-67814D03*
G54D11*
X119291Y-66240D03*
G54D14*
X119291Y-63779D03*
G54D11*
X119291Y-62204D03*
G54D14*
X119291Y-59744D03*
G54D11*
X119291Y-58169D03*
G54D14*
X119291Y-55708D03*
G54D11*
X119291Y-54133D03*
G54D14*
X119291Y-51673D03*
G54D11*
X119291Y-50098D03*
G54D14*
X49606Y-80118D03*
G54D11*
X49606Y-78543D03*
G54D15*
X100779Y-45570D03*
G54D16*
X101779Y-45570D03*
G54D17*
X70299Y-43996D03*
X74972Y-43996D03*
G54D18*
X74387Y-46496D03*
G54D19*
X73887Y-47496D03*
X73387Y-46496D03*
X72887Y-47496D03*
X72387Y-46496D03*
X71887Y-47496D03*
X71387Y-46496D03*
X70887Y-47496D03*
G54D17*
X93724Y-43996D03*
X98397Y-43996D03*
G54D18*
X97812Y-46496D03*
G54D19*
X97312Y-47496D03*
X96812Y-46496D03*
X96312Y-47496D03*
X95812Y-46496D03*
X95312Y-47496D03*
X94812Y-46496D03*
X94312Y-47496D03*
G54D20*
X112637Y-70078D03*
X109055Y-70078D03*
X112637Y-74114D03*
X109055Y-74114D03*
X100503Y-55985D03*
X103401Y-53879D03*
X112637Y-78149D03*
X109055Y-78149D03*
X112637Y-66043D03*
X109055Y-66043D03*
X112637Y-62007D03*
X109055Y-62007D03*
X112637Y-57972D03*
X109055Y-57972D03*
X112637Y-53937D03*
X109055Y-53937D03*
X112736Y-49901D03*
X109153Y-49901D03*
X96692Y-70472D03*
X93110Y-70472D03*
X100503Y-60119D03*
X103401Y-58013D03*
X65353Y-76182D03*
X67886Y-73648D03*
X65353Y-80316D03*
X67886Y-77782D03*
X65353Y-72048D03*
X67886Y-69514D03*
X65353Y-67914D03*
X67886Y-65381D03*
X65353Y-63780D03*
X67886Y-61247D03*
X65353Y-59646D03*
X67886Y-57113D03*
X65353Y-55512D03*
X67886Y-52979D03*
X65353Y-51379D03*
X67886Y-48845D03*
X100503Y-64056D03*
X103401Y-61950D03*
X100503Y-68190D03*
X103401Y-66084D03*
X56259Y-57677D03*
X59842Y-57677D03*
X103641Y-47381D03*
X103641Y-43799D03*
X83562Y-43562D03*
X83562Y-47145D03*
X85629Y-47086D03*
X85629Y-43503D03*
X92263Y-46751D03*
X88681Y-46751D03*
X88641Y-48326D03*
X92224Y-48326D03*
X100503Y-72225D03*
X103401Y-70120D03*
X100503Y-76261D03*
X103401Y-74155D03*
X56259Y-49409D03*
X59842Y-49409D03*
X56259Y-53543D03*
X59842Y-53543D03*
X100503Y-52147D03*
X103401Y-50041D03*
X56259Y-61811D03*
X59842Y-61811D03*
X56259Y-65944D03*
X59842Y-65944D03*
X56259Y-70078D03*
X59842Y-70078D03*
X56259Y-74212D03*
X59842Y-74212D03*
X56259Y-78346D03*
X59842Y-78346D03*
X70629Y-70078D03*
X74212Y-70078D03*
X78779Y-70078D03*
X75196Y-70078D03*
X100503Y-80296D03*
X103401Y-78190D03*
G54D21*
X93200Y-72440D03*
X94200Y-72440D03*
G54D15*
X85803Y-52877D03*
G54D16*
X86803Y-52877D03*
X87803Y-52877D03*
X88803Y-52877D03*
X88803Y-49877D03*
X87803Y-49877D03*
X86803Y-49877D03*
X85803Y-49877D03*
G54D15*
X79799Y-52877D03*
G54D16*
X80799Y-52877D03*
X81799Y-52877D03*
X82799Y-52877D03*
X82799Y-49877D03*
X81799Y-49877D03*
X80799Y-49877D03*
X79799Y-49877D03*
G54D15*
X74196Y-68625D03*
G54D16*
X75196Y-68625D03*
X76196Y-68625D03*
X76196Y-65625D03*
X75196Y-65625D03*
X74196Y-65625D03*
G54D15*
X104799Y-58055D03*
G54D16*
X104799Y-59055D03*
X104799Y-60055D03*
X107799Y-60055D03*
X107799Y-59055D03*
X107799Y-58055D03*
G54D15*
X64000Y-80330D03*
G54D16*
X64000Y-79330D03*
X64000Y-78330D03*
X61000Y-78330D03*
X61000Y-79330D03*
X61000Y-80330D03*
G54D15*
X64000Y-76196D03*
G54D16*
X64000Y-75196D03*
X64000Y-74196D03*
X61000Y-74196D03*
X61000Y-75196D03*
X61000Y-76196D03*
G54D15*
X104799Y-49885D03*
G54D16*
X104799Y-50885D03*
X104799Y-51885D03*
X107799Y-51885D03*
X107799Y-50885D03*
X107799Y-49885D03*
G54D15*
X104799Y-53921D03*
G54D16*
X104799Y-54921D03*
X104799Y-55921D03*
X107799Y-55921D03*
X107799Y-54921D03*
X107799Y-53921D03*
G54D15*
X64000Y-72062D03*
G54D16*
X64000Y-71062D03*
X64000Y-70062D03*
X61000Y-70062D03*
X61000Y-71062D03*
X61000Y-72062D03*
G54D15*
X64000Y-67929D03*
G54D16*
X64000Y-66929D03*
X64000Y-65929D03*
X61000Y-65929D03*
X61000Y-66929D03*
X61000Y-67929D03*
G54D15*
X64000Y-63795D03*
G54D16*
X64000Y-62795D03*
X64000Y-61795D03*
X61000Y-61795D03*
X61000Y-62795D03*
X61000Y-63795D03*
G54D15*
X104799Y-61992D03*
G54D16*
X104799Y-62992D03*
X104799Y-63992D03*
X107799Y-63992D03*
X107799Y-62992D03*
X107799Y-61992D03*
G54D15*
X104799Y-66027D03*
G54D16*
X104799Y-67027D03*
X104799Y-68027D03*
X107799Y-68027D03*
X107799Y-67027D03*
X107799Y-66027D03*
G54D15*
X104799Y-70062D03*
G54D16*
X104799Y-71062D03*
X104799Y-72062D03*
X107799Y-72062D03*
X107799Y-71062D03*
X107799Y-70062D03*
G54D15*
X64000Y-59661D03*
G54D16*
X64000Y-58661D03*
X64000Y-57661D03*
X61000Y-57661D03*
X61000Y-58661D03*
X61000Y-59661D03*
G54D15*
X64000Y-55527D03*
G54D16*
X64000Y-54527D03*
X64000Y-53527D03*
X61000Y-53527D03*
X61000Y-54527D03*
X61000Y-55527D03*
G54D15*
X64000Y-51393D03*
G54D16*
X64000Y-50393D03*
X64000Y-49393D03*
X61000Y-49393D03*
X61000Y-50393D03*
X61000Y-51393D03*
G54D15*
X104799Y-78133D03*
G54D16*
X104799Y-79133D03*
X104799Y-80133D03*
X107799Y-80133D03*
X107799Y-79133D03*
X107799Y-78133D03*
G54D15*
X104799Y-74098D03*
G54D16*
X104799Y-75098D03*
X104799Y-76098D03*
X107799Y-76098D03*
X107799Y-75098D03*
X107799Y-74098D03*
G54D20*
X88031Y-80118D03*
X84448Y-80118D03*
X84409Y-85236D03*
X87992Y-85236D03*
X84409Y-82677D03*
X87992Y-82677D03*
X88031Y-77362D03*
X84448Y-77362D03*
X81692Y-43562D03*
X81692Y-47145D03*
X79724Y-43562D03*
X79724Y-47145D03*
G54D22*
X100984Y-84527D03*
G54D20*
X100984Y-83228D03*
G54D23*
X85866Y-62440D03*
G54D24*
X82874Y-62440D03*
X85866Y-59448D03*
X82874Y-59448D03*
G54D22*
X91929Y-84251D03*
G54D20*
X91929Y-82283D03*
G54D14*
X119291Y-84251D03*
G54D11*
X119291Y-82677D03*
G54D14*
X49606Y-84448D03*
G54D11*
X49606Y-82874D03*
G54D25*
X53661Y-84448D03*
X56318Y-84448D03*
X60098Y-84448D03*
X62755Y-84448D03*
X115236Y-84251D03*
X112578Y-84251D03*
X108799Y-84251D03*
X106141Y-84251D03*
G54D20*
X69685Y-56889D03*
X69685Y-55000D03*
X75590Y-57677D03*
X75590Y-55787D03*
X71653Y-64921D03*
X71653Y-68503D03*
G54D15*
X82145Y-68307D03*
G54D16*
X83145Y-68307D03*
X84145Y-68307D03*
X85145Y-68307D03*
X86145Y-68307D03*
X87145Y-68307D03*
G54D21*
X80314Y-66444D03*
X80314Y-65444D03*
X82480Y-66444D03*
X82480Y-65444D03*
X84645Y-66444D03*
X84645Y-65444D03*
X86811Y-66444D03*
X86811Y-65444D03*
X88976Y-66444D03*
X88976Y-65444D03*
G54D15*
X80850Y-57208D03*
G54D16*
X81850Y-57208D03*
X82850Y-57208D03*
X83850Y-57208D03*
X84850Y-57208D03*
X85850Y-57208D03*
X86850Y-57208D03*
X87850Y-57208D03*
X87850Y-54208D03*
X86850Y-54208D03*
X85850Y-54208D03*
X84850Y-54208D03*
X83850Y-54208D03*
X82850Y-54208D03*
X81850Y-54208D03*
X80850Y-54208D03*
G54D20*
X92716Y-57283D03*
X92716Y-55393D03*
X98818Y-57480D03*
X98818Y-55590D03*
G54D16*
X73940Y-61996D03*
X73940Y-60996D03*
X73940Y-59996D03*
X73940Y-58996D03*
X73940Y-57996D03*
X73940Y-56996D03*
X73940Y-55996D03*
X73940Y-54996D03*
X73940Y-53996D03*
X73940Y-52996D03*
X73940Y-51996D03*
X73940Y-50996D03*
X73940Y-49996D03*
G54D15*
X73940Y-62996D03*
G54D16*
X70940Y-49996D03*
X70940Y-50996D03*
X70940Y-51996D03*
X70940Y-52996D03*
X70940Y-53996D03*
X70940Y-54996D03*
X70940Y-55996D03*
X70940Y-56996D03*
X70940Y-57996D03*
X70940Y-58996D03*
X70940Y-59996D03*
X70940Y-60996D03*
X70940Y-61996D03*
X70940Y-62996D03*
X97366Y-61996D03*
X97366Y-60996D03*
X97366Y-59996D03*
X97366Y-58996D03*
X97366Y-57996D03*
X97366Y-56996D03*
X97366Y-55996D03*
X97366Y-54996D03*
X97366Y-53996D03*
X97366Y-52996D03*
X97366Y-51996D03*
X97366Y-50996D03*
X97366Y-49996D03*
G54D15*
X97366Y-62996D03*
G54D16*
X94366Y-49996D03*
X94366Y-50996D03*
X94366Y-51996D03*
X94366Y-52996D03*
X94366Y-53996D03*
X94366Y-54996D03*
X94366Y-55996D03*
X94366Y-56996D03*
X94366Y-57996D03*
X94366Y-58996D03*
X94366Y-59996D03*
X94366Y-60996D03*
X94366Y-61996D03*
X94366Y-62996D03*
G54D26*
X90944Y-69291D03*
X98818Y-70866D03*
X98031Y-72440D03*
X91929Y-66437D03*
G54D27*
X88681Y-46751D02*
X87893Y-46751D01*
X83956Y-48031D02*
X85803Y-49877D01*
X81594Y-48031D02*
X83956Y-48031D01*
X81003Y-47440D02*
X81594Y-48031D01*
X81003Y-46751D02*
X81003Y-47440D01*
X81299Y-46456D02*
X81003Y-46751D01*
X87598Y-46456D02*
X81299Y-46456D01*
X87893Y-46751D02*
X87598Y-46456D01*
X81799Y-52877D02*
X81799Y-52846D01*
X84767Y-49877D02*
X85803Y-49877D01*
X81799Y-52846D02*
X84767Y-49877D01*
X85866Y-59448D02*
X88090Y-59448D01*
X88090Y-59448D02*
X90944Y-62303D01*
X90944Y-67027D02*
X90944Y-62303D01*
X90944Y-67027D02*
X90944Y-69291D01*
X97366Y-56996D02*
X98334Y-56996D01*
X98334Y-56996D02*
X98818Y-57480D01*
X92716Y-55393D02*
X93968Y-55393D01*
X93968Y-55393D02*
X94366Y-54996D01*
X73940Y-56996D02*
X74909Y-56996D01*
X74909Y-56996D02*
X75590Y-57677D01*
X69685Y-55000D02*
X70937Y-55000D01*
X70937Y-55000D02*
X70940Y-54996D01*
G54D28*
X97047Y-83267D02*
X98818Y-81496D01*
X98818Y-81496D02*
X98818Y-70866D01*
G54D27*
X74387Y-46496D02*
X76318Y-46496D01*
X76968Y-47145D02*
X79724Y-47145D01*
X76318Y-46496D02*
X76968Y-47145D01*
X82799Y-49877D02*
X82799Y-49826D01*
X74915Y-48523D02*
X73887Y-47496D01*
X81496Y-48523D02*
X74915Y-48523D01*
X82799Y-49826D02*
X81496Y-48523D01*
X88803Y-49877D02*
X93527Y-49877D01*
X95312Y-48683D02*
X95312Y-47496D01*
X95275Y-48720D02*
X95312Y-48683D01*
X94685Y-48720D02*
X95275Y-48720D01*
X93527Y-49877D02*
X94685Y-48720D01*
X71887Y-47496D02*
X71887Y-46297D01*
X73931Y-46039D02*
X74387Y-46496D01*
X72145Y-46039D02*
X73931Y-46039D01*
X71887Y-46297D02*
X72145Y-46039D01*
X97312Y-47496D02*
X97312Y-46996D01*
X97312Y-46996D02*
X97812Y-46496D01*
X95312Y-47496D02*
X95417Y-47496D01*
X96864Y-47047D02*
X97312Y-47496D01*
X95866Y-47047D02*
X96864Y-47047D01*
X95417Y-47496D02*
X95866Y-47047D01*
X74387Y-46496D02*
X74387Y-46996D01*
X74387Y-46996D02*
X73887Y-47496D01*
X75590Y-55787D02*
X77677Y-55787D01*
X79255Y-54208D02*
X80850Y-54208D01*
X77677Y-55787D02*
X79255Y-54208D01*
X73940Y-55996D02*
X74417Y-55996D01*
X74625Y-55787D02*
X75590Y-55787D01*
X74417Y-55996D02*
X74625Y-55787D01*
X92716Y-57283D02*
X92716Y-69685D01*
X97366Y-55996D02*
X98413Y-55996D01*
X98413Y-55996D02*
X98818Y-55590D01*
G54D28*
X80314Y-69685D02*
X80314Y-68700D01*
X80314Y-68700D02*
X77240Y-65625D01*
X77240Y-65625D02*
X76196Y-65625D01*
X80314Y-69685D02*
X80905Y-69685D01*
X80905Y-69685D02*
X89173Y-69685D01*
X92716Y-69685D02*
X89173Y-69685D01*
X98031Y-70866D02*
X98031Y-70669D01*
X98031Y-70669D02*
X97047Y-69685D01*
X97047Y-69685D02*
X92716Y-69685D01*
X98031Y-72440D02*
X98031Y-70866D01*
G54D27*
X70940Y-56996D02*
X69791Y-56996D01*
X69791Y-56996D02*
X69685Y-56889D01*
X94200Y-72440D02*
X98031Y-72440D01*
G54D28*
X97047Y-82267D02*
X97062Y-82267D01*
X98031Y-81299D02*
X98031Y-72440D01*
X97062Y-82267D02*
X98031Y-81299D01*
G54D27*
X92716Y-57283D02*
X94078Y-57283D01*
X94078Y-57283D02*
X94366Y-56996D01*
G54D29*
X49606Y-51181D02*
X52460Y-51181D01*
X52673Y-51393D02*
X54625Y-51393D01*
X52460Y-51181D02*
X52673Y-51393D01*
G54D30*
X115236Y-84251D02*
X112578Y-84251D01*
X119291Y-84251D02*
X115236Y-84251D01*
G54D27*
X64000Y-50393D02*
X68700Y-50393D01*
X69098Y-49996D02*
X70940Y-49996D01*
X68700Y-50393D02*
X69098Y-49996D01*
X104799Y-54921D02*
X103346Y-54921D01*
X96740Y-48622D02*
X94366Y-50996D01*
X99015Y-48622D02*
X96740Y-48622D01*
X101968Y-51574D02*
X99015Y-48622D01*
X101968Y-53543D02*
X101968Y-51574D01*
X103346Y-54921D02*
X101968Y-53543D01*
X104799Y-50885D02*
X102066Y-50885D01*
X94688Y-49996D02*
X94366Y-49996D01*
X96456Y-48228D02*
X94688Y-49996D01*
X99409Y-48228D02*
X96456Y-48228D01*
X102066Y-50885D02*
X99409Y-48228D01*
X104799Y-79133D02*
X104133Y-79133D01*
X95078Y-63708D02*
X94366Y-62996D01*
X95078Y-65551D02*
X95078Y-63708D01*
X101181Y-71653D02*
X95078Y-65551D01*
X101181Y-78149D02*
X101181Y-71653D01*
X102952Y-79921D02*
X101181Y-78149D01*
X103346Y-79921D02*
X102952Y-79921D01*
X104133Y-79133D02*
X103346Y-79921D01*
X104799Y-59055D02*
X103346Y-59055D01*
X103346Y-59055D02*
X101574Y-57283D01*
X101574Y-57283D02*
X101574Y-51771D01*
X101574Y-51771D02*
X98818Y-49015D01*
X98818Y-49015D02*
X97047Y-49015D01*
X97047Y-49015D02*
X96062Y-50000D01*
X96062Y-50000D02*
X96062Y-56299D01*
X96062Y-56299D02*
X94366Y-57996D01*
X64000Y-79330D02*
X64000Y-79307D01*
X70078Y-63858D02*
X70940Y-62996D01*
X70078Y-70078D02*
X70078Y-63858D01*
X68700Y-71456D02*
X70078Y-70078D01*
X68700Y-74606D02*
X68700Y-71456D01*
X64000Y-79307D02*
X68700Y-74606D01*
X64000Y-75196D02*
X64173Y-75196D01*
X69488Y-63448D02*
X70940Y-61996D01*
X69488Y-69881D02*
X69488Y-63448D01*
X64173Y-75196D02*
X69488Y-69881D01*
X64000Y-71062D02*
X64173Y-71062D01*
X68897Y-63039D02*
X70940Y-60996D01*
X68897Y-66338D02*
X68897Y-63039D01*
X64173Y-71062D02*
X68897Y-66338D01*
X64000Y-66929D02*
X64007Y-66929D01*
X64007Y-66929D02*
X70940Y-59996D01*
X64000Y-62795D02*
X64000Y-62771D01*
X69153Y-58996D02*
X70940Y-58996D01*
X67716Y-60433D02*
X69153Y-58996D01*
X66338Y-60433D02*
X67716Y-60433D01*
X64000Y-62771D02*
X66338Y-60433D01*
X70940Y-57996D02*
X65035Y-57996D01*
X64370Y-58661D02*
X64000Y-58661D01*
X65035Y-57996D02*
X64370Y-58661D01*
X64000Y-54527D02*
X64173Y-54527D01*
X69082Y-50996D02*
X70940Y-50996D01*
X68110Y-51968D02*
X69082Y-50996D01*
X66732Y-51968D02*
X68110Y-51968D01*
X64173Y-54527D02*
X66732Y-51968D01*
X73940Y-60996D02*
X75322Y-60996D01*
X82381Y-53295D02*
X82799Y-52877D01*
X82381Y-54822D02*
X82381Y-53295D01*
X81496Y-55708D02*
X82381Y-54822D01*
X80610Y-55708D02*
X81496Y-55708D01*
X75322Y-60996D02*
X80610Y-55708D01*
X85803Y-52877D02*
X85850Y-52877D01*
X91929Y-56889D02*
X91929Y-66437D01*
X88582Y-53543D02*
X91929Y-56889D01*
X86515Y-53543D02*
X88582Y-53543D01*
X85850Y-52877D02*
X86515Y-53543D01*
X103401Y-61950D02*
X104757Y-61950D01*
X104757Y-61950D02*
X104799Y-61992D01*
X87803Y-49877D02*
X87803Y-47629D01*
X87893Y-47539D02*
X90748Y-47539D01*
X87803Y-47629D02*
X87893Y-47539D01*
X88641Y-48326D02*
X89960Y-48326D01*
X91535Y-46751D02*
X92263Y-46751D01*
X89960Y-48326D02*
X90748Y-47539D01*
X90748Y-47539D02*
X91535Y-46751D01*
X81692Y-47145D02*
X83562Y-47145D01*
X86803Y-49877D02*
X86803Y-48811D01*
X84645Y-47834D02*
X84645Y-47145D01*
X85039Y-48228D02*
X84645Y-47834D01*
X86220Y-48228D02*
X85039Y-48228D01*
X86803Y-48811D02*
X86220Y-48228D01*
X83562Y-47145D02*
X84645Y-47145D01*
X84645Y-47145D02*
X85570Y-47145D01*
X85570Y-47145D02*
X85629Y-47086D01*
X103401Y-78190D02*
X104742Y-78190D01*
X104742Y-78190D02*
X104799Y-78133D01*
X103401Y-74155D02*
X104742Y-74155D01*
X104742Y-74155D02*
X104799Y-74098D01*
X103401Y-70120D02*
X104742Y-70120D01*
X104742Y-70120D02*
X104799Y-70062D01*
X79724Y-43562D02*
X81692Y-43562D01*
X95812Y-46496D02*
X95812Y-46411D01*
X104192Y-47381D02*
X103641Y-47381D01*
X104724Y-46850D02*
X104192Y-47381D01*
X104724Y-43602D02*
X104724Y-46850D01*
X103937Y-42814D02*
X104724Y-43602D01*
X101574Y-42814D02*
X103937Y-42814D01*
X98818Y-45570D02*
X101574Y-42814D01*
X96653Y-45570D02*
X98818Y-45570D01*
X95812Y-46411D02*
X96653Y-45570D01*
X92224Y-48326D02*
X94389Y-48326D01*
X95531Y-46496D02*
X95812Y-46496D01*
X94783Y-47244D02*
X95531Y-46496D01*
X94783Y-47933D02*
X94783Y-47244D01*
X94389Y-48326D02*
X94783Y-47933D01*
G54D31*
X107799Y-49885D02*
X107799Y-49681D01*
X110826Y-48622D02*
X110826Y-51181D01*
X110629Y-48425D02*
X110826Y-48622D01*
X109055Y-48425D02*
X110629Y-48425D01*
X107799Y-49681D02*
X109055Y-48425D01*
X107799Y-53921D02*
X107799Y-53421D01*
X108661Y-52559D02*
X110826Y-52559D01*
X107799Y-53421D02*
X108661Y-52559D01*
X107799Y-58055D02*
X107799Y-57555D01*
X108858Y-56496D02*
X110826Y-56496D01*
X107799Y-57555D02*
X108858Y-56496D01*
X107799Y-61992D02*
X107799Y-61492D01*
X108661Y-60629D02*
X110826Y-60629D01*
X107799Y-61492D02*
X108661Y-60629D01*
X107799Y-66027D02*
X107799Y-65625D01*
X109055Y-64370D02*
X110826Y-64370D01*
X107799Y-65625D02*
X109055Y-64370D01*
X107799Y-70062D02*
X107799Y-69562D01*
X109055Y-68307D02*
X110826Y-68307D01*
X107799Y-69562D02*
X109055Y-68307D01*
X107799Y-74098D02*
X107799Y-73500D01*
X109448Y-71850D02*
X110826Y-71850D01*
X107799Y-73500D02*
X109448Y-71850D01*
X114566Y-50885D02*
X111122Y-50885D01*
G54D30*
X110826Y-51181D02*
X110826Y-52559D01*
X110826Y-52559D02*
X110826Y-54921D01*
G54D31*
X111122Y-50885D02*
X110826Y-51181D01*
X114566Y-54921D02*
X110826Y-54921D01*
X114566Y-58956D02*
X110826Y-58956D01*
X114566Y-62992D02*
X110826Y-62992D01*
X114566Y-67027D02*
X110826Y-67027D01*
X114566Y-71062D02*
X110826Y-71062D01*
X114566Y-75098D02*
X110826Y-75098D01*
X107799Y-78133D02*
X107799Y-77633D01*
X109055Y-76377D02*
X110826Y-76377D01*
X107799Y-77633D02*
X109055Y-76377D01*
X114566Y-79133D02*
X110826Y-79133D01*
X110826Y-79133D02*
X110826Y-79330D01*
G54D30*
X108799Y-84251D02*
X108799Y-82736D01*
X110826Y-80708D02*
X110826Y-79330D01*
X110826Y-79330D02*
X110826Y-76377D01*
X110826Y-76377D02*
X110826Y-75098D01*
X110826Y-75098D02*
X110826Y-71850D01*
X110826Y-71850D02*
X110826Y-71062D01*
X110826Y-71062D02*
X110826Y-68307D01*
X110826Y-68307D02*
X110826Y-67027D01*
X110826Y-67027D02*
X110826Y-64370D01*
X110826Y-64370D02*
X110826Y-62992D01*
X110826Y-62992D02*
X110826Y-60629D01*
X110826Y-60629D02*
X110826Y-58956D01*
X110826Y-58956D02*
X110826Y-56496D01*
X110826Y-56496D02*
X110826Y-54921D01*
X108799Y-82736D02*
X110826Y-80708D01*
X108799Y-84251D02*
X106141Y-84251D01*
G54D27*
X93110Y-70472D02*
X93110Y-72350D01*
X93110Y-72350D02*
X93200Y-72440D01*
G54D29*
X75787Y-76181D02*
X75000Y-76181D01*
X70629Y-71811D02*
X70629Y-70078D01*
X75000Y-76181D02*
X70629Y-71811D01*
X80511Y-76181D02*
X75787Y-76181D01*
X75787Y-76181D02*
X75748Y-76181D01*
X82480Y-80039D02*
X82480Y-80748D01*
X82480Y-80748D02*
X84409Y-82677D01*
X82480Y-80039D02*
X84370Y-80039D01*
X84370Y-80039D02*
X84448Y-80118D01*
G54D31*
X82480Y-80039D02*
X81023Y-80039D01*
X81220Y-75078D02*
X82480Y-75078D01*
X80511Y-75787D02*
X81220Y-75078D01*
X80511Y-79527D02*
X80511Y-76181D01*
X80511Y-76181D02*
X80511Y-75787D01*
X81023Y-80039D02*
X80511Y-79527D01*
G54D29*
X82480Y-77519D02*
X84291Y-77519D01*
X84291Y-77519D02*
X84448Y-77362D01*
X82480Y-82559D02*
X82480Y-83307D01*
X82480Y-83307D02*
X84409Y-85236D01*
G54D28*
X75196Y-70078D02*
X75196Y-68625D01*
G54D27*
X71387Y-46496D02*
X71387Y-46427D01*
X94084Y-45767D02*
X94812Y-46496D01*
X72047Y-45767D02*
X94084Y-45767D01*
X71387Y-46427D02*
X72047Y-45767D01*
X70887Y-47496D02*
X70887Y-46996D01*
X70887Y-46996D02*
X71387Y-46496D01*
X94312Y-47496D02*
X94312Y-46996D01*
X94312Y-46996D02*
X94812Y-46496D01*
X103401Y-66084D02*
X104470Y-66084D01*
X104527Y-66141D02*
X104799Y-66027D01*
X104470Y-66084D02*
X104527Y-66141D01*
G54D29*
X49606Y-75984D02*
X52460Y-75984D01*
X52673Y-76196D02*
X54625Y-76196D01*
X52460Y-75984D02*
X52673Y-76196D01*
X49606Y-80118D02*
X52263Y-80118D01*
X52476Y-80330D02*
X54625Y-80330D01*
X52263Y-80118D02*
X52476Y-80330D01*
G54D27*
X72387Y-46496D02*
X72677Y-46496D01*
X80740Y-48818D02*
X81799Y-49877D01*
X73917Y-48818D02*
X80740Y-48818D01*
X73425Y-48326D02*
X73917Y-48818D01*
X73425Y-47244D02*
X73425Y-48326D01*
X72677Y-46496D02*
X73425Y-47244D01*
G54D28*
X74212Y-70078D02*
X74212Y-68641D01*
X74212Y-68641D02*
X74196Y-68625D01*
G54D27*
X72887Y-47496D02*
X72887Y-48478D01*
X80035Y-49114D02*
X80799Y-49877D01*
X73523Y-49114D02*
X80035Y-49114D01*
X72887Y-48478D02*
X73523Y-49114D01*
X112736Y-49901D02*
X114551Y-49901D01*
X114551Y-49901D02*
X114566Y-49885D01*
X112637Y-53937D02*
X114551Y-53937D01*
X114551Y-53937D02*
X114566Y-53921D01*
X114566Y-57956D02*
X112653Y-57956D01*
X112653Y-57956D02*
X112637Y-57972D01*
X114566Y-61992D02*
X112653Y-61992D01*
X112653Y-61992D02*
X112637Y-62007D01*
X114566Y-66027D02*
X112653Y-66027D01*
X112653Y-66027D02*
X112637Y-66043D01*
X114566Y-70062D02*
X112653Y-70062D01*
X112653Y-70062D02*
X112637Y-70078D01*
G54D29*
X49606Y-71850D02*
X52362Y-71850D01*
X52574Y-72062D02*
X54625Y-72062D01*
X52362Y-71850D02*
X52574Y-72062D01*
G54D27*
X114566Y-74098D02*
X112653Y-74098D01*
X112653Y-74098D02*
X112637Y-74114D01*
X104799Y-71062D02*
X102362Y-71062D01*
X95866Y-62496D02*
X94366Y-60996D01*
X95866Y-64566D02*
X95866Y-62496D01*
X102362Y-71062D02*
X95866Y-64566D01*
X103401Y-58013D02*
X104757Y-58013D01*
X104757Y-58013D02*
X104799Y-58055D01*
X103401Y-53879D02*
X104757Y-53879D01*
X104757Y-53879D02*
X104799Y-53921D01*
X103401Y-50041D02*
X104643Y-50041D01*
X104643Y-50041D02*
X104799Y-49885D01*
X104799Y-62992D02*
X103346Y-62992D01*
X103346Y-62992D02*
X101181Y-60826D01*
X101181Y-60826D02*
X101181Y-51771D01*
X101181Y-51771D02*
X98818Y-49409D01*
X98818Y-49409D02*
X97047Y-49409D01*
X97047Y-49409D02*
X96456Y-50000D01*
X96456Y-50000D02*
X96456Y-56905D01*
X96456Y-56905D02*
X94366Y-58996D01*
X104799Y-67027D02*
X104429Y-67027D01*
X96259Y-61889D02*
X94366Y-59996D01*
X96259Y-63385D02*
X96259Y-61889D01*
X97244Y-64370D02*
X96259Y-63385D01*
X99015Y-64370D02*
X97244Y-64370D01*
X102362Y-67716D02*
X99015Y-64370D01*
X103740Y-67716D02*
X102362Y-67716D01*
X104429Y-67027D02*
X103740Y-67716D01*
X114566Y-78133D02*
X112653Y-78133D01*
X112653Y-78133D02*
X112637Y-78149D01*
X104799Y-75098D02*
X102854Y-75098D01*
X95472Y-63102D02*
X94366Y-61996D01*
X95472Y-64960D02*
X95472Y-63102D01*
X101968Y-71456D02*
X95472Y-64960D01*
X101968Y-74212D02*
X101968Y-71456D01*
X102854Y-75098D02*
X101968Y-74212D01*
X64000Y-80330D02*
X65338Y-80330D01*
X65338Y-80330D02*
X65353Y-80316D01*
G54D29*
X49606Y-67716D02*
X52460Y-67716D01*
X52460Y-67716D02*
X52673Y-67929D01*
X52673Y-67929D02*
X54625Y-67929D01*
G54D27*
X64000Y-76196D02*
X65338Y-76196D01*
X65338Y-76196D02*
X65353Y-76182D01*
X64000Y-72062D02*
X65338Y-72062D01*
X65338Y-72062D02*
X65353Y-72048D01*
X64000Y-67929D02*
X65338Y-67929D01*
X65338Y-67929D02*
X65353Y-67914D01*
X64000Y-63795D02*
X65338Y-63795D01*
X65338Y-63795D02*
X65353Y-63780D01*
X64000Y-59661D02*
X65338Y-59661D01*
X65338Y-59661D02*
X65353Y-59646D01*
X64000Y-55527D02*
X65338Y-55527D01*
X65338Y-55527D02*
X65353Y-55512D01*
X64000Y-51393D02*
X65338Y-51393D01*
X65338Y-51393D02*
X65353Y-51379D01*
X54625Y-65929D02*
X56244Y-65929D01*
X56244Y-65929D02*
X56259Y-65944D01*
X59842Y-65944D02*
X60984Y-65944D01*
X60984Y-65944D02*
X61000Y-65929D01*
X54625Y-70062D02*
X56244Y-70062D01*
X56244Y-70062D02*
X56259Y-70078D01*
G54D29*
X49606Y-63582D02*
X52460Y-63582D01*
X52673Y-63795D02*
X54625Y-63795D01*
X52460Y-63582D02*
X52673Y-63795D01*
G54D27*
X59842Y-70078D02*
X60984Y-70078D01*
X60984Y-70078D02*
X61000Y-70062D01*
X54625Y-74196D02*
X56244Y-74196D01*
X56244Y-74196D02*
X56259Y-74212D01*
X59842Y-74212D02*
X60984Y-74212D01*
X60984Y-74212D02*
X61000Y-74196D01*
X54625Y-78330D02*
X56244Y-78330D01*
X56244Y-78330D02*
X56259Y-78346D01*
X59842Y-78346D02*
X60984Y-78346D01*
X60984Y-78346D02*
X61000Y-78330D01*
G54D31*
X114566Y-51885D02*
X119078Y-51885D01*
X119078Y-51885D02*
X119291Y-51673D01*
X114566Y-80133D02*
X119078Y-80133D01*
X119078Y-80133D02*
X119291Y-79921D01*
X114566Y-76098D02*
X119078Y-76098D01*
X119078Y-76098D02*
X119291Y-75885D01*
X114566Y-72062D02*
X119078Y-72062D01*
X119078Y-72062D02*
X119291Y-71850D01*
X114566Y-68027D02*
X119078Y-68027D01*
X119078Y-68027D02*
X119291Y-67814D01*
G54D29*
X49606Y-59448D02*
X52362Y-59448D01*
X52574Y-59661D02*
X54625Y-59661D01*
X52362Y-59448D02*
X52574Y-59661D01*
G54D31*
X114566Y-63992D02*
X119078Y-63992D01*
X119078Y-63992D02*
X119291Y-63779D01*
X114566Y-59956D02*
X119078Y-59956D01*
X119078Y-59956D02*
X119291Y-59744D01*
X114566Y-55921D02*
X119078Y-55921D01*
X119078Y-55921D02*
X119291Y-55708D01*
G54D27*
X107799Y-51885D02*
X108153Y-51885D01*
X109153Y-50885D02*
X109153Y-49901D01*
X108153Y-51885D02*
X109153Y-50885D01*
X107799Y-55921D02*
X107858Y-55921D01*
X109055Y-54724D02*
X109055Y-53937D01*
X107858Y-55921D02*
X109055Y-54724D01*
X107799Y-60055D02*
X107858Y-60055D01*
X109055Y-58858D02*
X109055Y-57972D01*
X107858Y-60055D02*
X109055Y-58858D01*
X107799Y-63992D02*
X107858Y-63992D01*
X109055Y-62795D02*
X109055Y-62007D01*
X107858Y-63992D02*
X109055Y-62795D01*
X107799Y-68027D02*
X107799Y-67988D01*
X109055Y-66732D02*
X109055Y-66043D01*
X107799Y-67988D02*
X109055Y-66732D01*
X107799Y-72062D02*
X107858Y-72062D01*
X109055Y-70866D02*
X109055Y-70078D01*
X107858Y-72062D02*
X109055Y-70866D01*
X107799Y-76098D02*
X107799Y-76059D01*
X109055Y-74803D02*
X109055Y-74114D01*
X107799Y-76059D02*
X109055Y-74803D01*
G54D29*
X49606Y-55314D02*
X52362Y-55314D01*
X52362Y-55314D02*
X52574Y-55527D01*
X52574Y-55527D02*
X54625Y-55527D01*
G54D27*
X107799Y-80133D02*
X107858Y-80133D01*
X109055Y-78937D02*
X109055Y-78149D01*
X107858Y-80133D02*
X109055Y-78937D01*
X54625Y-49393D02*
X56244Y-49393D01*
X56244Y-49393D02*
X56259Y-49409D01*
X59842Y-49409D02*
X60984Y-49409D01*
X60984Y-49409D02*
X61000Y-49393D01*
X54625Y-53527D02*
X56244Y-53527D01*
X56244Y-53527D02*
X56259Y-53543D01*
X61000Y-53527D02*
X59858Y-53527D01*
X59858Y-53527D02*
X59842Y-53543D01*
X54625Y-57661D02*
X56244Y-57661D01*
X56244Y-57661D02*
X56259Y-57677D01*
X59842Y-57677D02*
X60984Y-57677D01*
X60984Y-57677D02*
X61000Y-57661D01*
X54625Y-61795D02*
X56244Y-61795D01*
X56244Y-61795D02*
X56259Y-61811D01*
X59842Y-61811D02*
X60984Y-61811D01*
X60984Y-61811D02*
X61000Y-61795D01*
G54D30*
X62755Y-84448D02*
X71259Y-84448D01*
X72440Y-77047D02*
X70472Y-75078D01*
X72440Y-83267D02*
X72440Y-77047D01*
X71259Y-84448D02*
X72440Y-83267D01*
G54D29*
X61000Y-51393D02*
X58070Y-51393D01*
X58070Y-51393D02*
X58070Y-51377D01*
X54625Y-50393D02*
X57874Y-50393D01*
G54D32*
X58070Y-50590D02*
X58070Y-51377D01*
X58070Y-51377D02*
X58070Y-54527D01*
G54D29*
X57874Y-50393D02*
X58070Y-50590D01*
X61000Y-55527D02*
X58070Y-55527D01*
X58070Y-55527D02*
X58070Y-55314D01*
X54625Y-54527D02*
X58070Y-54527D01*
X61000Y-59661D02*
X58070Y-59661D01*
X58070Y-59661D02*
X58070Y-59645D01*
X54625Y-58661D02*
X58070Y-58661D01*
X61000Y-63795D02*
X58070Y-63795D01*
X58070Y-63795D02*
X58070Y-63582D01*
X54625Y-62795D02*
X58070Y-62795D01*
X61000Y-67929D02*
X58070Y-67929D01*
X58070Y-67929D02*
X58070Y-67913D01*
X54625Y-66929D02*
X58070Y-66929D01*
X58070Y-66929D02*
X58070Y-67125D01*
X61000Y-72062D02*
X58070Y-72062D01*
X58070Y-72062D02*
X58070Y-71850D01*
X54625Y-71062D02*
X58070Y-71062D01*
X54625Y-75196D02*
X58070Y-75196D01*
X58070Y-75196D02*
X58070Y-75393D01*
X61000Y-76196D02*
X58070Y-76196D01*
X58070Y-76196D02*
X58070Y-76181D01*
X54625Y-79330D02*
X58070Y-79330D01*
X61000Y-80330D02*
X58070Y-80330D01*
X58070Y-80330D02*
X58070Y-80118D01*
G54D32*
X60098Y-84448D02*
X60098Y-83326D01*
X58070Y-81299D02*
X58070Y-80118D01*
X58070Y-80118D02*
X58070Y-79330D01*
X58070Y-79330D02*
X58070Y-76181D01*
X58070Y-76181D02*
X58070Y-75393D01*
X58070Y-75393D02*
X58070Y-71850D01*
X58070Y-71850D02*
X58070Y-71062D01*
X58070Y-71062D02*
X58070Y-67913D01*
X58070Y-67913D02*
X58070Y-67125D01*
X58070Y-67125D02*
X58070Y-63582D01*
X58070Y-63582D02*
X58070Y-62795D01*
X58070Y-62795D02*
X58070Y-59645D01*
X58070Y-59645D02*
X58070Y-58661D01*
X58070Y-58661D02*
X58070Y-55314D01*
X58070Y-55314D02*
X58070Y-54527D01*
X60098Y-83326D02*
X58070Y-81299D01*
X60098Y-84448D02*
X62755Y-84448D01*
G54D27*
X84145Y-68307D02*
X84145Y-67807D01*
X82783Y-66444D02*
X82480Y-66444D01*
X84145Y-67807D02*
X82783Y-66444D01*
X85145Y-68307D02*
X85145Y-68019D01*
X84645Y-67519D02*
X84645Y-66444D01*
X85145Y-68019D02*
X84645Y-67519D01*
X86145Y-68307D02*
X86145Y-67838D01*
X86811Y-67173D02*
X86811Y-66444D01*
X86145Y-67838D02*
X86811Y-67173D01*
X87145Y-68307D02*
X87145Y-67972D01*
X88673Y-66444D02*
X88976Y-66444D01*
X87145Y-67972D02*
X88673Y-66444D01*
G54D32*
X53661Y-84448D02*
X56318Y-84448D01*
X49606Y-84448D02*
X53661Y-84448D01*
G54D27*
X83145Y-68307D02*
X83145Y-67988D01*
X80996Y-67125D02*
X80314Y-66444D01*
X82283Y-67125D02*
X80996Y-67125D01*
X83145Y-67988D02*
X82283Y-67125D01*
X73425Y-64921D02*
X73425Y-64566D01*
X72440Y-51496D02*
X73940Y-49996D01*
X72440Y-63582D02*
X72440Y-51496D01*
X73425Y-64566D02*
X72440Y-63582D01*
X71653Y-64921D02*
X73425Y-64921D01*
X73425Y-64921D02*
X74492Y-64921D01*
X74492Y-64921D02*
X75196Y-65625D01*
M02*
