G04 (created by PCBNEW (2013-07-07 BZR 4022)-stable) date 8/1/2015 6:26:25 AM*
%MOIN*%
G04 Gerber Fmt 3.4, Leading zero omitted, Abs format*
%FSLAX34Y34*%
G01*
G70*
G90*
G04 APERTURE LIST*
%ADD10C,0.00590551*%
%ADD11C,0.00984252*%
%ADD12C,0.011811*%
%ADD13C,0.00738189*%
%ADD14C,0.00787402*%
%ADD15C,0.0001*%
G04 APERTURE END LIST*
G54D10*
G54D11*
X58850Y-35186D02*
X58550Y-35186D01*
X58700Y-35336D02*
X58700Y-35036D01*
X59323Y-45284D02*
X59023Y-45284D01*
X59173Y-45434D02*
X59173Y-45134D01*
G54D12*
X60942Y-39322D02*
X60998Y-39294D01*
X61082Y-39294D01*
X61167Y-39322D01*
X61223Y-39378D01*
X61251Y-39434D01*
X61279Y-39547D01*
X61279Y-39631D01*
X61251Y-39744D01*
X61223Y-39800D01*
X61167Y-39856D01*
X61082Y-39884D01*
X61026Y-39884D01*
X60942Y-39856D01*
X60913Y-39828D01*
X60913Y-39631D01*
X61026Y-39631D01*
X60660Y-39884D02*
X60660Y-39294D01*
X60323Y-39884D01*
X60323Y-39294D01*
X60042Y-39884D02*
X60042Y-39294D01*
X59901Y-39294D01*
X59817Y-39322D01*
X59760Y-39378D01*
X59732Y-39434D01*
X59704Y-39547D01*
X59704Y-39631D01*
X59732Y-39744D01*
X59760Y-39800D01*
X59817Y-39856D01*
X59901Y-39884D01*
X60042Y-39884D01*
X61349Y-38606D02*
X60899Y-38606D01*
X61124Y-38831D02*
X61124Y-38381D01*
X60337Y-38241D02*
X60618Y-38241D01*
X60646Y-38522D01*
X60618Y-38494D01*
X60562Y-38465D01*
X60421Y-38465D01*
X60365Y-38494D01*
X60337Y-38522D01*
X60309Y-38578D01*
X60309Y-38719D01*
X60337Y-38775D01*
X60365Y-38803D01*
X60421Y-38831D01*
X60562Y-38831D01*
X60618Y-38803D01*
X60646Y-38775D01*
X60140Y-38241D02*
X59943Y-38831D01*
X59746Y-38241D01*
G54D13*
X57509Y-35906D02*
X57509Y-36103D01*
X57580Y-35794D02*
X57650Y-36005D01*
X57467Y-36005D01*
X57383Y-35808D02*
X57186Y-35808D01*
X57312Y-36103D01*
X56947Y-35906D02*
X56947Y-36103D01*
X57073Y-35906D02*
X57073Y-36061D01*
X57059Y-36089D01*
X57031Y-36103D01*
X56989Y-36103D01*
X56961Y-36089D01*
X56947Y-36075D01*
X56708Y-35949D02*
X56806Y-35949D01*
X56806Y-36103D02*
X56806Y-35808D01*
X56666Y-35808D01*
G54D11*
X58255Y-46496D02*
X58237Y-46477D01*
X58199Y-46458D01*
X58106Y-46458D01*
X58068Y-46477D01*
X58049Y-46496D01*
X58031Y-46533D01*
X58031Y-46571D01*
X58049Y-46627D01*
X58274Y-46852D01*
X58031Y-46852D01*
X57881Y-46496D02*
X57862Y-46477D01*
X57824Y-46458D01*
X57731Y-46458D01*
X57693Y-46477D01*
X57674Y-46496D01*
X57656Y-46533D01*
X57656Y-46571D01*
X57674Y-46627D01*
X57899Y-46852D01*
X57656Y-46852D01*
X57412Y-46458D02*
X57374Y-46458D01*
X57337Y-46477D01*
X57318Y-46496D01*
X57299Y-46533D01*
X57281Y-46608D01*
X57281Y-46702D01*
X57299Y-46777D01*
X57318Y-46814D01*
X57337Y-46833D01*
X57374Y-46852D01*
X57412Y-46852D01*
X57449Y-46833D01*
X57468Y-46814D01*
X57487Y-46777D01*
X57506Y-46702D01*
X57506Y-46608D01*
X57487Y-46533D01*
X57468Y-46496D01*
X57449Y-46477D01*
X57412Y-46458D01*
X57037Y-46458D02*
X56999Y-46458D01*
X56962Y-46477D01*
X56943Y-46496D01*
X56924Y-46533D01*
X56906Y-46608D01*
X56906Y-46702D01*
X56924Y-46777D01*
X56943Y-46814D01*
X56962Y-46833D01*
X56999Y-46852D01*
X57037Y-46852D01*
X57074Y-46833D01*
X57093Y-46814D01*
X57112Y-46777D01*
X57131Y-46702D01*
X57131Y-46608D01*
X57112Y-46533D01*
X57093Y-46496D01*
X57074Y-46477D01*
X57037Y-46458D01*
X56568Y-46589D02*
X56568Y-46852D01*
X56737Y-46589D02*
X56737Y-46796D01*
X56718Y-46833D01*
X56681Y-46852D01*
X56624Y-46852D01*
X56587Y-46833D01*
X56568Y-46814D01*
X56249Y-46646D02*
X56381Y-46646D01*
X56381Y-46852D02*
X56381Y-46458D01*
X56193Y-46458D01*
X55621Y-38989D02*
X55621Y-38802D01*
X55809Y-38783D01*
X55790Y-38802D01*
X55771Y-38839D01*
X55771Y-38933D01*
X55790Y-38971D01*
X55809Y-38989D01*
X55846Y-39008D01*
X55940Y-39008D01*
X55978Y-38989D01*
X55996Y-38971D01*
X56015Y-38933D01*
X56015Y-38839D01*
X55996Y-38802D01*
X55978Y-38783D01*
X55621Y-39121D02*
X56015Y-39252D01*
X55621Y-39383D01*
X56015Y-40039D02*
X55828Y-39908D01*
X56015Y-39814D02*
X55621Y-39814D01*
X55621Y-39964D01*
X55640Y-40002D01*
X55659Y-40021D01*
X55696Y-40039D01*
X55753Y-40039D01*
X55790Y-40021D01*
X55809Y-40002D01*
X55828Y-39964D01*
X55828Y-39814D01*
X55996Y-40358D02*
X56015Y-40321D01*
X56015Y-40246D01*
X55996Y-40208D01*
X55959Y-40189D01*
X55809Y-40189D01*
X55771Y-40208D01*
X55753Y-40246D01*
X55753Y-40321D01*
X55771Y-40358D01*
X55809Y-40377D01*
X55846Y-40377D01*
X55884Y-40189D01*
X55753Y-40714D02*
X56071Y-40714D01*
X56109Y-40696D01*
X56128Y-40677D01*
X56146Y-40639D01*
X56146Y-40583D01*
X56128Y-40546D01*
X55996Y-40714D02*
X56015Y-40677D01*
X56015Y-40602D01*
X55996Y-40564D01*
X55978Y-40546D01*
X55940Y-40527D01*
X55828Y-40527D01*
X55790Y-40546D01*
X55771Y-40564D01*
X55753Y-40602D01*
X55753Y-40677D01*
X55771Y-40714D01*
X55978Y-40902D02*
X55996Y-40920D01*
X56015Y-40902D01*
X55996Y-40883D01*
X55978Y-40902D01*
X56015Y-40902D01*
G54D14*
X56328Y-41722D02*
X58070Y-41722D01*
X58070Y-37519D02*
X58070Y-37509D01*
X56328Y-37519D02*
X58070Y-37519D01*
G54D11*
X67454Y-48682D02*
X67416Y-48682D01*
X67379Y-48701D01*
X67360Y-48720D01*
X67341Y-48757D01*
X67322Y-48832D01*
X67322Y-48926D01*
X67341Y-49001D01*
X67360Y-49039D01*
X67379Y-49057D01*
X67416Y-49076D01*
X67454Y-49076D01*
X67491Y-49057D01*
X67510Y-49039D01*
X67529Y-49001D01*
X67547Y-48926D01*
X67547Y-48832D01*
X67529Y-48757D01*
X67510Y-48720D01*
X67491Y-48701D01*
X67454Y-48682D01*
X66629Y-49039D02*
X66647Y-49057D01*
X66704Y-49076D01*
X66741Y-49076D01*
X66797Y-49057D01*
X66835Y-49020D01*
X66854Y-48982D01*
X66872Y-48907D01*
X66872Y-48851D01*
X66854Y-48776D01*
X66835Y-48739D01*
X66797Y-48701D01*
X66741Y-48682D01*
X66704Y-48682D01*
X66647Y-48701D01*
X66629Y-48720D01*
X66460Y-49076D02*
X66460Y-48814D01*
X66460Y-48889D02*
X66441Y-48851D01*
X66422Y-48832D01*
X66385Y-48814D01*
X66347Y-48814D01*
X66160Y-49076D02*
X66197Y-49057D01*
X66216Y-49039D01*
X66235Y-49001D01*
X66235Y-48889D01*
X66216Y-48851D01*
X66197Y-48832D01*
X66160Y-48814D01*
X66104Y-48814D01*
X66066Y-48832D01*
X66047Y-48851D01*
X66029Y-48889D01*
X66029Y-49001D01*
X66047Y-49039D01*
X66066Y-49057D01*
X66104Y-49076D01*
X66160Y-49076D01*
X65879Y-49057D02*
X65841Y-49076D01*
X65766Y-49076D01*
X65729Y-49057D01*
X65710Y-49020D01*
X65710Y-49001D01*
X65729Y-48964D01*
X65766Y-48945D01*
X65823Y-48945D01*
X65860Y-48926D01*
X65879Y-48889D01*
X65879Y-48870D01*
X65860Y-48832D01*
X65823Y-48814D01*
X65766Y-48814D01*
X65729Y-48832D01*
X65560Y-49057D02*
X65523Y-49076D01*
X65448Y-49076D01*
X65410Y-49057D01*
X65391Y-49020D01*
X65391Y-49001D01*
X65410Y-48964D01*
X65448Y-48945D01*
X65504Y-48945D01*
X65541Y-48926D01*
X65560Y-48889D01*
X65560Y-48870D01*
X65541Y-48832D01*
X65504Y-48814D01*
X65448Y-48814D01*
X65410Y-48832D01*
X64923Y-49076D02*
X64923Y-48682D01*
X64829Y-48682D01*
X64773Y-48701D01*
X64735Y-48739D01*
X64716Y-48776D01*
X64698Y-48851D01*
X64698Y-48907D01*
X64716Y-48982D01*
X64735Y-49020D01*
X64773Y-49057D01*
X64829Y-49076D01*
X64923Y-49076D01*
X64379Y-49057D02*
X64416Y-49076D01*
X64491Y-49076D01*
X64529Y-49057D01*
X64548Y-49020D01*
X64548Y-48870D01*
X64529Y-48832D01*
X64491Y-48814D01*
X64416Y-48814D01*
X64379Y-48832D01*
X64360Y-48870D01*
X64360Y-48907D01*
X64548Y-48945D01*
X64248Y-48814D02*
X64098Y-48814D01*
X64191Y-48682D02*
X64191Y-49020D01*
X64173Y-49057D01*
X64135Y-49076D01*
X64098Y-49076D01*
X63967Y-49039D02*
X63948Y-49057D01*
X63967Y-49076D01*
X63985Y-49057D01*
X63967Y-49039D01*
X63967Y-49076D01*
X95787Y-39972D02*
X95787Y-39578D01*
X95619Y-39953D02*
X95562Y-39972D01*
X95469Y-39972D01*
X95431Y-39953D01*
X95412Y-39934D01*
X95394Y-39897D01*
X95394Y-39859D01*
X95412Y-39822D01*
X95431Y-39803D01*
X95469Y-39784D01*
X95544Y-39766D01*
X95581Y-39747D01*
X95600Y-39728D01*
X95619Y-39691D01*
X95619Y-39653D01*
X95600Y-39616D01*
X95581Y-39597D01*
X95544Y-39578D01*
X95450Y-39578D01*
X95394Y-39597D01*
X95225Y-39972D02*
X95225Y-39578D01*
X95075Y-39578D01*
X95037Y-39597D01*
X95019Y-39616D01*
X95000Y-39653D01*
X95000Y-39709D01*
X95019Y-39747D01*
X95037Y-39766D01*
X95075Y-39784D01*
X95225Y-39784D01*
X82582Y-38092D02*
X82713Y-37904D01*
X82806Y-38092D02*
X82806Y-37698D01*
X82657Y-37698D01*
X82619Y-37717D01*
X82600Y-37736D01*
X82582Y-37773D01*
X82582Y-37829D01*
X82600Y-37867D01*
X82619Y-37886D01*
X82657Y-37904D01*
X82806Y-37904D01*
X82432Y-38073D02*
X82375Y-38092D01*
X82282Y-38092D01*
X82244Y-38073D01*
X82225Y-38054D01*
X82207Y-38017D01*
X82207Y-37979D01*
X82225Y-37942D01*
X82244Y-37923D01*
X82282Y-37904D01*
X82357Y-37886D01*
X82394Y-37867D01*
X82413Y-37848D01*
X82432Y-37811D01*
X82432Y-37773D01*
X82413Y-37736D01*
X82394Y-37717D01*
X82357Y-37698D01*
X82263Y-37698D01*
X82207Y-37717D01*
X81869Y-37829D02*
X81869Y-38092D01*
X81963Y-37679D02*
X82057Y-37961D01*
X81813Y-37961D01*
X81607Y-37867D02*
X81644Y-37848D01*
X81663Y-37829D01*
X81682Y-37792D01*
X81682Y-37773D01*
X81663Y-37736D01*
X81644Y-37717D01*
X81607Y-37698D01*
X81532Y-37698D01*
X81494Y-37717D01*
X81475Y-37736D01*
X81457Y-37773D01*
X81457Y-37792D01*
X81475Y-37829D01*
X81494Y-37848D01*
X81532Y-37867D01*
X81607Y-37867D01*
X81644Y-37886D01*
X81663Y-37904D01*
X81682Y-37942D01*
X81682Y-38017D01*
X81663Y-38054D01*
X81644Y-38073D01*
X81607Y-38092D01*
X81532Y-38092D01*
X81494Y-38073D01*
X81475Y-38054D01*
X81457Y-38017D01*
X81457Y-37942D01*
X81475Y-37904D01*
X81494Y-37886D01*
X81532Y-37867D01*
X81100Y-37698D02*
X81288Y-37698D01*
X81307Y-37886D01*
X81288Y-37867D01*
X81250Y-37848D01*
X81157Y-37848D01*
X81119Y-37867D01*
X81100Y-37886D01*
X81082Y-37923D01*
X81082Y-38017D01*
X81100Y-38054D01*
X81119Y-38073D01*
X81157Y-38092D01*
X81250Y-38092D01*
X81288Y-38073D01*
X81307Y-38054D01*
X80669Y-37698D02*
X80444Y-37698D01*
X80557Y-38092D02*
X80557Y-37698D01*
X80351Y-37698D02*
X80088Y-38092D01*
X80088Y-37698D02*
X80351Y-38092D01*
X102166Y-38092D02*
X102297Y-37904D01*
X102391Y-38092D02*
X102391Y-37698D01*
X102241Y-37698D01*
X102203Y-37717D01*
X102185Y-37736D01*
X102166Y-37773D01*
X102166Y-37829D01*
X102185Y-37867D01*
X102203Y-37886D01*
X102241Y-37904D01*
X102391Y-37904D01*
X102016Y-38073D02*
X101960Y-38092D01*
X101866Y-38092D01*
X101828Y-38073D01*
X101810Y-38054D01*
X101791Y-38017D01*
X101791Y-37979D01*
X101810Y-37942D01*
X101828Y-37923D01*
X101866Y-37904D01*
X101941Y-37886D01*
X101978Y-37867D01*
X101997Y-37848D01*
X102016Y-37811D01*
X102016Y-37773D01*
X101997Y-37736D01*
X101978Y-37717D01*
X101941Y-37698D01*
X101847Y-37698D01*
X101791Y-37717D01*
X101453Y-37829D02*
X101453Y-38092D01*
X101547Y-37679D02*
X101641Y-37961D01*
X101397Y-37961D01*
X101191Y-37867D02*
X101228Y-37848D01*
X101247Y-37829D01*
X101266Y-37792D01*
X101266Y-37773D01*
X101247Y-37736D01*
X101228Y-37717D01*
X101191Y-37698D01*
X101116Y-37698D01*
X101078Y-37717D01*
X101060Y-37736D01*
X101041Y-37773D01*
X101041Y-37792D01*
X101060Y-37829D01*
X101078Y-37848D01*
X101116Y-37867D01*
X101191Y-37867D01*
X101228Y-37886D01*
X101247Y-37904D01*
X101266Y-37942D01*
X101266Y-38017D01*
X101247Y-38054D01*
X101228Y-38073D01*
X101191Y-38092D01*
X101116Y-38092D01*
X101078Y-38073D01*
X101060Y-38054D01*
X101041Y-38017D01*
X101041Y-37942D01*
X101060Y-37904D01*
X101078Y-37886D01*
X101116Y-37867D01*
X100685Y-37698D02*
X100872Y-37698D01*
X100891Y-37886D01*
X100872Y-37867D01*
X100835Y-37848D01*
X100741Y-37848D01*
X100703Y-37867D01*
X100685Y-37886D01*
X100666Y-37923D01*
X100666Y-38017D01*
X100685Y-38054D01*
X100703Y-38073D01*
X100741Y-38092D01*
X100835Y-38092D01*
X100872Y-38073D01*
X100891Y-38054D01*
X99972Y-38092D02*
X100104Y-37904D01*
X100197Y-38092D02*
X100197Y-37698D01*
X100047Y-37698D01*
X100010Y-37717D01*
X99991Y-37736D01*
X99972Y-37773D01*
X99972Y-37829D01*
X99991Y-37867D01*
X100010Y-37886D01*
X100047Y-37904D01*
X100197Y-37904D01*
X99841Y-37698D02*
X99579Y-38092D01*
X99579Y-37698D02*
X99841Y-38092D01*
X102145Y-32314D02*
X102276Y-32127D01*
X102370Y-32314D02*
X102370Y-31921D01*
X102220Y-31921D01*
X102183Y-31939D01*
X102164Y-31958D01*
X102145Y-31996D01*
X102145Y-32052D01*
X102164Y-32089D01*
X102183Y-32108D01*
X102220Y-32127D01*
X102370Y-32127D01*
X101864Y-31921D02*
X101864Y-32202D01*
X101883Y-32258D01*
X101920Y-32296D01*
X101976Y-32314D01*
X102014Y-32314D01*
X101676Y-32164D02*
X101377Y-32164D01*
X101020Y-32052D02*
X101020Y-32314D01*
X101114Y-31902D02*
X101208Y-32183D01*
X100964Y-32183D01*
X100627Y-31921D02*
X100814Y-31921D01*
X100833Y-32108D01*
X100814Y-32089D01*
X100777Y-32071D01*
X100683Y-32071D01*
X100645Y-32089D01*
X100627Y-32108D01*
X100608Y-32146D01*
X100608Y-32239D01*
X100627Y-32277D01*
X100645Y-32296D01*
X100683Y-32314D01*
X100777Y-32314D01*
X100814Y-32296D01*
X100833Y-32277D01*
X99914Y-32314D02*
X100045Y-32127D01*
X100139Y-32314D02*
X100139Y-31921D01*
X99989Y-31921D01*
X99952Y-31939D01*
X99933Y-31958D01*
X99914Y-31996D01*
X99914Y-32052D01*
X99933Y-32089D01*
X99952Y-32108D01*
X99989Y-32127D01*
X100139Y-32127D01*
X99783Y-31921D02*
X99520Y-32314D01*
X99520Y-31921D02*
X99783Y-32314D01*
X82640Y-32314D02*
X82771Y-32127D01*
X82865Y-32314D02*
X82865Y-31921D01*
X82715Y-31921D01*
X82677Y-31939D01*
X82658Y-31958D01*
X82640Y-31996D01*
X82640Y-32052D01*
X82658Y-32089D01*
X82677Y-32108D01*
X82715Y-32127D01*
X82865Y-32127D01*
X82358Y-31921D02*
X82358Y-32202D01*
X82377Y-32258D01*
X82415Y-32296D01*
X82471Y-32314D01*
X82508Y-32314D01*
X82171Y-32164D02*
X81871Y-32164D01*
X81515Y-32052D02*
X81515Y-32314D01*
X81609Y-31902D02*
X81702Y-32183D01*
X81459Y-32183D01*
X81121Y-31921D02*
X81309Y-31921D01*
X81327Y-32108D01*
X81309Y-32089D01*
X81271Y-32071D01*
X81177Y-32071D01*
X81140Y-32089D01*
X81121Y-32108D01*
X81102Y-32146D01*
X81102Y-32239D01*
X81121Y-32277D01*
X81140Y-32296D01*
X81177Y-32314D01*
X81271Y-32314D01*
X81309Y-32296D01*
X81327Y-32277D01*
X80690Y-31921D02*
X80465Y-31921D01*
X80577Y-32314D02*
X80577Y-31921D01*
X80371Y-31921D02*
X80109Y-32314D01*
X80109Y-31921D02*
X80371Y-32314D01*
G54D12*
X72393Y-31065D02*
X72674Y-31065D01*
X72674Y-30475D01*
X72196Y-30756D02*
X71999Y-30756D01*
X71915Y-31065D02*
X72196Y-31065D01*
X72196Y-30475D01*
X71915Y-30475D01*
X71661Y-31065D02*
X71661Y-30475D01*
X71521Y-30475D01*
X71437Y-30503D01*
X71380Y-30559D01*
X71352Y-30615D01*
X71324Y-30728D01*
X71324Y-30812D01*
X71352Y-30925D01*
X71380Y-30981D01*
X71437Y-31037D01*
X71521Y-31065D01*
X71661Y-31065D01*
X71099Y-31037D02*
X71015Y-31065D01*
X70874Y-31065D01*
X70818Y-31037D01*
X70790Y-31009D01*
X70762Y-30953D01*
X70762Y-30897D01*
X70790Y-30840D01*
X70818Y-30812D01*
X70874Y-30784D01*
X70987Y-30756D01*
X71043Y-30728D01*
X71071Y-30700D01*
X71099Y-30643D01*
X71099Y-30587D01*
X71071Y-30531D01*
X71043Y-30503D01*
X70987Y-30475D01*
X70846Y-30475D01*
X70762Y-30503D01*
X77228Y-43733D02*
X77228Y-43142D01*
X77088Y-43142D01*
X77003Y-43170D01*
X76947Y-43226D01*
X76919Y-43283D01*
X76891Y-43395D01*
X76891Y-43480D01*
X76919Y-43592D01*
X76947Y-43648D01*
X77003Y-43705D01*
X77088Y-43733D01*
X77228Y-43733D01*
X76638Y-43733D02*
X76638Y-43142D01*
X76356Y-43733D02*
X76356Y-43142D01*
X76131Y-43142D01*
X76075Y-43170D01*
X76047Y-43198D01*
X76019Y-43255D01*
X76019Y-43339D01*
X76047Y-43395D01*
X76075Y-43423D01*
X76131Y-43451D01*
X76356Y-43451D01*
X75794Y-43705D02*
X75710Y-43733D01*
X75569Y-43733D01*
X75513Y-43705D01*
X75485Y-43676D01*
X75456Y-43620D01*
X75456Y-43564D01*
X75485Y-43508D01*
X75513Y-43480D01*
X75569Y-43451D01*
X75681Y-43423D01*
X75738Y-43395D01*
X75766Y-43367D01*
X75794Y-43311D01*
X75794Y-43255D01*
X75766Y-43198D01*
X75738Y-43170D01*
X75681Y-43142D01*
X75541Y-43142D01*
X75456Y-43170D01*
X75260Y-43142D02*
X75119Y-43733D01*
X75007Y-43311D01*
X74894Y-43733D01*
X74753Y-43142D01*
X74528Y-43733D02*
X74528Y-43142D01*
X74332Y-43142D02*
X73994Y-43142D01*
X74163Y-43733D02*
X74163Y-43142D01*
X73460Y-43676D02*
X73488Y-43705D01*
X73572Y-43733D01*
X73629Y-43733D01*
X73713Y-43705D01*
X73769Y-43648D01*
X73797Y-43592D01*
X73825Y-43480D01*
X73825Y-43395D01*
X73797Y-43283D01*
X73769Y-43226D01*
X73713Y-43170D01*
X73629Y-43142D01*
X73572Y-43142D01*
X73488Y-43170D01*
X73460Y-43198D01*
X73207Y-43733D02*
X73207Y-43142D01*
X73207Y-43423D02*
X72869Y-43423D01*
X72869Y-43733D02*
X72869Y-43142D01*
X95052Y-44460D02*
X94770Y-44460D01*
X95108Y-44628D02*
X94911Y-44038D01*
X94714Y-44628D01*
X94602Y-44038D02*
X94264Y-44038D01*
X94433Y-44628D02*
X94433Y-44038D01*
X94067Y-44628D02*
X94067Y-44038D01*
X93870Y-44460D01*
X93674Y-44038D01*
X93674Y-44628D01*
X93392Y-44319D02*
X93196Y-44319D01*
X93111Y-44628D02*
X93392Y-44628D01*
X93392Y-44038D01*
X93111Y-44038D01*
X92549Y-44066D02*
X92605Y-44038D01*
X92689Y-44038D01*
X92774Y-44066D01*
X92830Y-44122D01*
X92858Y-44178D01*
X92886Y-44291D01*
X92886Y-44375D01*
X92858Y-44488D01*
X92830Y-44544D01*
X92774Y-44600D01*
X92689Y-44628D01*
X92633Y-44628D01*
X92549Y-44600D01*
X92521Y-44572D01*
X92521Y-44375D01*
X92633Y-44375D01*
X92296Y-44460D02*
X92014Y-44460D01*
X92352Y-44628D02*
X92155Y-44038D01*
X91958Y-44628D01*
X91818Y-44038D02*
X91452Y-44038D01*
X91649Y-44263D01*
X91564Y-44263D01*
X91508Y-44291D01*
X91480Y-44319D01*
X91452Y-44375D01*
X91452Y-44516D01*
X91480Y-44572D01*
X91508Y-44600D01*
X91564Y-44628D01*
X91733Y-44628D01*
X91789Y-44600D01*
X91818Y-44572D01*
X91227Y-44094D02*
X91199Y-44066D01*
X91143Y-44038D01*
X91002Y-44038D01*
X90946Y-44066D01*
X90918Y-44094D01*
X90890Y-44150D01*
X90890Y-44206D01*
X90918Y-44291D01*
X91255Y-44628D01*
X90890Y-44628D01*
X90383Y-44235D02*
X90383Y-44628D01*
X90524Y-44010D02*
X90665Y-44431D01*
X90299Y-44431D01*
X90102Y-44460D02*
X89821Y-44460D01*
X90158Y-44628D02*
X89962Y-44038D01*
X89765Y-44628D01*
X89568Y-44403D02*
X89118Y-44403D01*
X88837Y-44628D02*
X88837Y-44038D01*
X88612Y-44038D01*
X88555Y-44066D01*
X88527Y-44094D01*
X88499Y-44150D01*
X88499Y-44235D01*
X88527Y-44291D01*
X88555Y-44319D01*
X88612Y-44347D01*
X88837Y-44347D01*
X88246Y-44038D02*
X88246Y-44516D01*
X88218Y-44572D01*
X88190Y-44600D01*
X88134Y-44628D01*
X88021Y-44628D01*
X87965Y-44600D01*
X87937Y-44572D01*
X87909Y-44516D01*
X87909Y-44038D01*
G54D11*
X105840Y-43921D02*
X105859Y-43939D01*
X105915Y-43958D01*
X105953Y-43958D01*
X106009Y-43939D01*
X106047Y-43902D01*
X106065Y-43864D01*
X106084Y-43789D01*
X106084Y-43733D01*
X106065Y-43658D01*
X106047Y-43621D01*
X106009Y-43583D01*
X105953Y-43564D01*
X105915Y-43564D01*
X105859Y-43583D01*
X105840Y-43602D01*
X105672Y-43958D02*
X105672Y-43696D01*
X105672Y-43771D02*
X105653Y-43733D01*
X105634Y-43714D01*
X105597Y-43696D01*
X105559Y-43696D01*
X105465Y-43696D02*
X105372Y-43958D01*
X105278Y-43696D02*
X105372Y-43958D01*
X105409Y-44052D01*
X105428Y-44071D01*
X105465Y-44089D01*
X105147Y-43939D02*
X105109Y-43958D01*
X105034Y-43958D01*
X104997Y-43939D01*
X104978Y-43902D01*
X104978Y-43883D01*
X104997Y-43846D01*
X105034Y-43827D01*
X105090Y-43827D01*
X105128Y-43808D01*
X105147Y-43771D01*
X105147Y-43752D01*
X105128Y-43714D01*
X105090Y-43696D01*
X105034Y-43696D01*
X104997Y-43714D01*
X104865Y-43696D02*
X104715Y-43696D01*
X104809Y-43564D02*
X104809Y-43902D01*
X104790Y-43939D01*
X104753Y-43958D01*
X104715Y-43958D01*
X104416Y-43958D02*
X104416Y-43752D01*
X104434Y-43714D01*
X104472Y-43696D01*
X104547Y-43696D01*
X104584Y-43714D01*
X104416Y-43939D02*
X104453Y-43958D01*
X104547Y-43958D01*
X104584Y-43939D01*
X104603Y-43902D01*
X104603Y-43864D01*
X104584Y-43827D01*
X104547Y-43808D01*
X104453Y-43808D01*
X104416Y-43789D01*
X104172Y-43958D02*
X104209Y-43939D01*
X104228Y-43902D01*
X104228Y-43564D01*
X106431Y-44608D02*
X106656Y-44608D01*
X106543Y-44608D02*
X106543Y-44214D01*
X106581Y-44270D01*
X106618Y-44308D01*
X106656Y-44326D01*
X106206Y-44383D02*
X106243Y-44364D01*
X106262Y-44345D01*
X106281Y-44308D01*
X106281Y-44289D01*
X106262Y-44251D01*
X106243Y-44233D01*
X106206Y-44214D01*
X106131Y-44214D01*
X106093Y-44233D01*
X106075Y-44251D01*
X106056Y-44289D01*
X106056Y-44308D01*
X106075Y-44345D01*
X106093Y-44364D01*
X106131Y-44383D01*
X106206Y-44383D01*
X106243Y-44401D01*
X106262Y-44420D01*
X106281Y-44458D01*
X106281Y-44533D01*
X106262Y-44570D01*
X106243Y-44589D01*
X106206Y-44608D01*
X106131Y-44608D01*
X106093Y-44589D01*
X106075Y-44570D01*
X106056Y-44533D01*
X106056Y-44458D01*
X106075Y-44420D01*
X106093Y-44401D01*
X106131Y-44383D01*
X105887Y-44570D02*
X105868Y-44589D01*
X105887Y-44608D01*
X105906Y-44589D01*
X105887Y-44570D01*
X105887Y-44608D01*
X105531Y-44345D02*
X105531Y-44608D01*
X105625Y-44195D02*
X105718Y-44476D01*
X105475Y-44476D01*
X105362Y-44214D02*
X105119Y-44214D01*
X105250Y-44364D01*
X105194Y-44364D01*
X105156Y-44383D01*
X105137Y-44401D01*
X105119Y-44439D01*
X105119Y-44533D01*
X105137Y-44570D01*
X105156Y-44589D01*
X105194Y-44608D01*
X105306Y-44608D01*
X105344Y-44589D01*
X105362Y-44570D01*
X104969Y-44251D02*
X104950Y-44233D01*
X104912Y-44214D01*
X104819Y-44214D01*
X104781Y-44233D01*
X104762Y-44251D01*
X104744Y-44289D01*
X104744Y-44326D01*
X104762Y-44383D01*
X104987Y-44608D01*
X104744Y-44608D01*
X104575Y-44608D02*
X104575Y-44214D01*
X104444Y-44495D01*
X104312Y-44214D01*
X104312Y-44608D01*
X104125Y-44608D02*
X104125Y-44214D01*
X103956Y-44608D02*
X103956Y-44401D01*
X103975Y-44364D01*
X104012Y-44345D01*
X104069Y-44345D01*
X104106Y-44364D01*
X104125Y-44383D01*
X103806Y-44345D02*
X103600Y-44345D01*
X103806Y-44608D01*
X103600Y-44608D01*
G54D14*
X91584Y-37352D02*
X91604Y-37352D01*
X89832Y-35600D02*
X91584Y-37352D01*
X88513Y-37332D02*
X88523Y-37332D01*
X86761Y-35580D02*
X88513Y-37332D01*
X75324Y-32194D02*
X75324Y-32175D01*
X78179Y-32194D02*
X75324Y-32194D01*
X78169Y-30285D02*
X78169Y-30295D01*
X75305Y-30285D02*
X78169Y-30285D01*
X75305Y-34133D02*
X75305Y-30285D01*
X78188Y-34133D02*
X75305Y-34133D01*
X78188Y-30295D02*
X78188Y-34133D01*
X78503Y-30285D02*
X78503Y-30275D01*
X84488Y-30285D02*
X78503Y-30285D01*
X84488Y-35275D02*
X84488Y-30285D01*
X78503Y-35275D02*
X84488Y-35275D01*
X78503Y-30275D02*
X78503Y-35275D01*
X97814Y-32145D02*
X84704Y-32145D01*
X84704Y-30275D02*
X97765Y-30275D01*
X84704Y-34094D02*
X84704Y-30275D01*
X97805Y-34094D02*
X84704Y-34094D01*
X97805Y-30285D02*
X97805Y-34094D01*
X97933Y-30255D02*
X97933Y-30206D01*
X103956Y-30255D02*
X97933Y-30255D01*
X103956Y-35275D02*
X103956Y-30255D01*
X97952Y-35275D02*
X103956Y-35275D01*
X97952Y-30236D02*
X97952Y-35275D01*
X98838Y-35659D02*
X98887Y-35659D01*
X98838Y-39950D02*
X98838Y-35659D01*
X104803Y-39950D02*
X98838Y-39950D01*
X104803Y-35659D02*
X104803Y-39950D01*
X98858Y-35659D02*
X104803Y-35659D01*
X77667Y-35659D02*
X77805Y-35659D01*
X77667Y-35669D02*
X77667Y-35659D01*
X77667Y-39950D02*
X77667Y-35669D01*
X83681Y-39950D02*
X77667Y-39950D01*
X83681Y-35659D02*
X83681Y-39950D01*
X77755Y-35659D02*
X83681Y-35659D01*
X93543Y-39133D02*
X93543Y-39114D01*
X97303Y-39133D02*
X93543Y-39133D01*
X97303Y-36555D02*
X97303Y-39133D01*
X96299Y-36555D02*
X97303Y-36555D01*
X96299Y-36003D02*
X96299Y-36555D01*
X94694Y-36003D02*
X96299Y-36003D01*
X94694Y-36535D02*
X94694Y-36003D01*
X93553Y-36535D02*
X94694Y-36535D01*
X93553Y-39133D02*
X93553Y-36535D01*
X102519Y-42775D02*
X102529Y-42775D01*
X102519Y-45679D02*
X102519Y-42775D01*
X103602Y-46761D02*
X102519Y-45679D01*
X107608Y-46761D02*
X103602Y-46761D01*
X107608Y-42716D02*
X107608Y-46761D01*
X106653Y-41761D02*
X107608Y-42716D01*
X103533Y-41761D02*
X106653Y-41761D01*
X102529Y-42765D02*
X103533Y-41761D01*
X81112Y-47824D02*
X81151Y-47824D01*
X81112Y-40679D02*
X81112Y-47824D01*
X81112Y-40679D02*
X81112Y-40669D01*
X101574Y-40679D02*
X81112Y-40679D01*
X101574Y-47824D02*
X101574Y-40679D01*
X81112Y-47824D02*
X101574Y-47824D01*
X70915Y-40600D02*
X70925Y-40600D01*
X70698Y-40600D02*
X70915Y-40600D01*
X70698Y-44881D02*
X70698Y-40600D01*
X79360Y-44881D02*
X70698Y-44881D01*
X79360Y-40600D02*
X79360Y-44881D01*
X70915Y-40600D02*
X79360Y-40600D01*
X70334Y-31309D02*
X70531Y-31309D01*
X70334Y-40196D02*
X70334Y-31309D01*
X73001Y-40196D02*
X70334Y-40196D01*
X73001Y-31309D02*
X73001Y-40196D01*
X70501Y-31309D02*
X73001Y-31309D01*
X63454Y-53818D02*
X63454Y-53828D01*
X68041Y-53818D02*
X63454Y-53818D01*
X68041Y-43031D02*
X68041Y-53818D01*
X63454Y-43031D02*
X68041Y-43031D01*
X63454Y-53818D02*
X63454Y-43031D01*
X58070Y-41732D02*
X58070Y-37500D01*
X56328Y-37509D02*
X56328Y-41722D01*
X58340Y-35177D02*
G75*
G03X58340Y-35177I-1214J0D01*
G74*
G01*
X59862Y-45275D02*
G75*
G03X59862Y-45275I-2559J0D01*
G74*
G01*
X54074Y-67913D02*
X54074Y-54232D01*
X68070Y-67913D02*
X54074Y-67913D01*
X68070Y-54232D02*
X68070Y-67913D01*
X54074Y-54232D02*
X68070Y-54232D01*
G54D11*
X91011Y-62334D02*
X90786Y-62334D01*
X90898Y-62728D02*
X90898Y-62334D01*
X90430Y-62728D02*
X90561Y-62540D01*
X90655Y-62728D02*
X90655Y-62334D01*
X90505Y-62334D01*
X90467Y-62353D01*
X90449Y-62372D01*
X90430Y-62409D01*
X90430Y-62465D01*
X90449Y-62503D01*
X90467Y-62522D01*
X90505Y-62540D01*
X90655Y-62540D01*
X90261Y-62728D02*
X90261Y-62334D01*
X90092Y-62615D02*
X89905Y-62615D01*
X90130Y-62728D02*
X89999Y-62334D01*
X89867Y-62728D01*
X89511Y-62690D02*
X89530Y-62709D01*
X89586Y-62728D01*
X89624Y-62728D01*
X89680Y-62709D01*
X89717Y-62672D01*
X89736Y-62634D01*
X89755Y-62559D01*
X89755Y-62503D01*
X89736Y-62428D01*
X89717Y-62390D01*
X89680Y-62353D01*
X89624Y-62334D01*
X89586Y-62334D01*
X89530Y-62353D01*
X89511Y-62372D01*
X89061Y-62615D02*
X88874Y-62615D01*
X89099Y-62728D02*
X88967Y-62334D01*
X88836Y-62728D01*
X88480Y-62728D02*
X88611Y-62540D01*
X88705Y-62728D02*
X88705Y-62334D01*
X88555Y-62334D01*
X88517Y-62353D01*
X88499Y-62372D01*
X88480Y-62409D01*
X88480Y-62465D01*
X88499Y-62503D01*
X88517Y-62522D01*
X88555Y-62540D01*
X88705Y-62540D01*
X88086Y-62728D02*
X88218Y-62540D01*
X88311Y-62728D02*
X88311Y-62334D01*
X88161Y-62334D01*
X88124Y-62353D01*
X88105Y-62372D01*
X88086Y-62409D01*
X88086Y-62465D01*
X88105Y-62503D01*
X88124Y-62522D01*
X88161Y-62540D01*
X88311Y-62540D01*
X87936Y-62615D02*
X87749Y-62615D01*
X87974Y-62728D02*
X87843Y-62334D01*
X87711Y-62728D01*
X87505Y-62540D02*
X87505Y-62728D01*
X87636Y-62334D02*
X87505Y-62540D01*
X87374Y-62334D01*
G54D14*
X75177Y-50787D02*
X73425Y-49035D01*
G54D11*
X54677Y-49684D02*
X54377Y-49684D01*
X54527Y-49834D02*
X54527Y-49534D01*
X58132Y-53277D02*
X57832Y-53277D01*
X57982Y-53427D02*
X57982Y-53127D01*
X59303Y-49704D02*
X59003Y-49704D01*
X59153Y-49854D02*
X59153Y-49554D01*
X62649Y-53247D02*
X62350Y-53247D01*
X62499Y-53397D02*
X62499Y-53097D01*
G54D14*
X82086Y-59586D02*
X82086Y-57165D01*
X87874Y-50787D02*
X86141Y-49055D01*
X79370Y-50787D02*
X77637Y-49055D01*
X83622Y-50787D02*
X81889Y-49055D01*
X92047Y-50787D02*
X90393Y-49133D01*
X96377Y-50787D02*
X94645Y-49055D01*
X100629Y-50787D02*
X98897Y-49055D01*
X104881Y-50787D02*
X103149Y-49055D01*
X102598Y-59448D02*
X102598Y-59527D01*
X73622Y-59606D02*
X73622Y-57165D01*
X77874Y-59606D02*
X77874Y-57165D01*
X86299Y-59606D02*
X86299Y-57165D01*
X90551Y-59606D02*
X90551Y-57165D01*
X94881Y-59527D02*
X94881Y-57165D01*
X99133Y-59606D02*
X99133Y-57086D01*
X102598Y-59448D02*
X102598Y-57007D01*
G54D12*
X92993Y-53468D02*
X92843Y-53468D01*
X92768Y-53505D01*
X92693Y-53580D01*
X92655Y-53730D01*
X92655Y-53993D01*
X92693Y-54143D01*
X92768Y-54218D01*
X92843Y-54255D01*
X92993Y-54255D01*
X93068Y-54218D01*
X93143Y-54143D01*
X93180Y-53993D01*
X93180Y-53730D01*
X93143Y-53580D01*
X93068Y-53505D01*
X92993Y-53468D01*
X92318Y-53730D02*
X92318Y-54518D01*
X92318Y-53768D02*
X92243Y-53730D01*
X92093Y-53730D01*
X92018Y-53768D01*
X91980Y-53805D01*
X91943Y-53880D01*
X91943Y-54105D01*
X91980Y-54180D01*
X92018Y-54218D01*
X92093Y-54255D01*
X92243Y-54255D01*
X92318Y-54218D01*
X91718Y-53730D02*
X91418Y-53730D01*
X91605Y-53468D02*
X91605Y-54143D01*
X91568Y-54218D01*
X91493Y-54255D01*
X91418Y-54255D01*
X91043Y-54255D02*
X91118Y-54218D01*
X91155Y-54180D01*
X91193Y-54105D01*
X91193Y-53880D01*
X91155Y-53805D01*
X91118Y-53768D01*
X91043Y-53730D01*
X90930Y-53730D01*
X90855Y-53768D01*
X90818Y-53805D01*
X90780Y-53880D01*
X90780Y-54105D01*
X90818Y-54180D01*
X90855Y-54218D01*
X90930Y-54255D01*
X91043Y-54255D01*
X90105Y-54218D02*
X90180Y-54255D01*
X90330Y-54255D01*
X90405Y-54218D01*
X90443Y-54180D01*
X90480Y-54105D01*
X90480Y-53880D01*
X90443Y-53805D01*
X90405Y-53768D01*
X90330Y-53730D01*
X90180Y-53730D01*
X90105Y-53768D01*
X89655Y-54255D02*
X89730Y-54218D01*
X89768Y-54180D01*
X89805Y-54105D01*
X89805Y-53880D01*
X89768Y-53805D01*
X89730Y-53768D01*
X89655Y-53730D01*
X89543Y-53730D01*
X89468Y-53768D01*
X89431Y-53805D01*
X89393Y-53880D01*
X89393Y-54105D01*
X89431Y-54180D01*
X89468Y-54218D01*
X89543Y-54255D01*
X89655Y-54255D01*
X88718Y-53730D02*
X88718Y-54255D01*
X89056Y-53730D02*
X89056Y-54143D01*
X89018Y-54218D01*
X88943Y-54255D01*
X88831Y-54255D01*
X88756Y-54218D01*
X88718Y-54180D01*
X88343Y-53730D02*
X88343Y-54518D01*
X88343Y-53768D02*
X88268Y-53730D01*
X88118Y-53730D01*
X88043Y-53768D01*
X88006Y-53805D01*
X87968Y-53880D01*
X87968Y-54105D01*
X88006Y-54180D01*
X88043Y-54218D01*
X88118Y-54255D01*
X88268Y-54255D01*
X88343Y-54218D01*
X87518Y-54255D02*
X87593Y-54218D01*
X87631Y-54143D01*
X87631Y-53468D01*
X86918Y-54218D02*
X86993Y-54255D01*
X87143Y-54255D01*
X87218Y-54218D01*
X87256Y-54143D01*
X87256Y-53843D01*
X87218Y-53768D01*
X87143Y-53730D01*
X86993Y-53730D01*
X86918Y-53768D01*
X86881Y-53843D01*
X86881Y-53918D01*
X87256Y-53993D01*
X86543Y-54255D02*
X86543Y-53730D01*
X86543Y-53880D02*
X86506Y-53805D01*
X86468Y-53768D01*
X86393Y-53730D01*
X86318Y-53730D01*
X86093Y-54218D02*
X86018Y-54255D01*
X85868Y-54255D01*
X85793Y-54218D01*
X85756Y-54143D01*
X85756Y-54105D01*
X85793Y-54030D01*
X85868Y-53993D01*
X85981Y-53993D01*
X86056Y-53955D01*
X86093Y-53880D01*
X86093Y-53843D01*
X86056Y-53768D01*
X85981Y-53730D01*
X85868Y-53730D01*
X85793Y-53768D01*
X70922Y-67463D02*
X71259Y-67463D01*
X71091Y-67463D02*
X71091Y-66872D01*
X71147Y-66957D01*
X71203Y-67013D01*
X71259Y-67041D01*
X70697Y-66929D02*
X70669Y-66901D01*
X70613Y-66872D01*
X70472Y-66872D01*
X70416Y-66901D01*
X70388Y-66929D01*
X70359Y-66985D01*
X70359Y-67041D01*
X70388Y-67125D01*
X70725Y-67463D01*
X70359Y-67463D01*
X69994Y-66872D02*
X69938Y-66872D01*
X69881Y-66901D01*
X69853Y-66929D01*
X69825Y-66985D01*
X69797Y-67097D01*
X69797Y-67238D01*
X69825Y-67350D01*
X69853Y-67407D01*
X69881Y-67435D01*
X69938Y-67463D01*
X69994Y-67463D01*
X70050Y-67435D01*
X70078Y-67407D01*
X70106Y-67350D01*
X70134Y-67238D01*
X70134Y-67097D01*
X70106Y-66985D01*
X70078Y-66929D01*
X70050Y-66901D01*
X69994Y-66872D01*
X69628Y-66872D02*
X69431Y-67463D01*
X69235Y-66872D01*
X75112Y-67407D02*
X75140Y-67435D01*
X75224Y-67463D01*
X75281Y-67463D01*
X75365Y-67435D01*
X75421Y-67379D01*
X75449Y-67322D01*
X75478Y-67210D01*
X75478Y-67125D01*
X75449Y-67013D01*
X75421Y-66957D01*
X75365Y-66901D01*
X75281Y-66872D01*
X75224Y-66872D01*
X75140Y-66901D01*
X75112Y-66929D01*
X74859Y-67463D02*
X74859Y-66872D01*
X74859Y-67154D02*
X74521Y-67154D01*
X74521Y-67463D02*
X74521Y-66872D01*
X74156Y-67125D02*
X74212Y-67097D01*
X74240Y-67069D01*
X74268Y-67013D01*
X74268Y-66985D01*
X74240Y-66929D01*
X74212Y-66901D01*
X74156Y-66872D01*
X74043Y-66872D01*
X73987Y-66901D01*
X73959Y-66929D01*
X73931Y-66985D01*
X73931Y-67013D01*
X73959Y-67069D01*
X73987Y-67097D01*
X74043Y-67125D01*
X74156Y-67125D01*
X74212Y-67154D01*
X74240Y-67182D01*
X74268Y-67238D01*
X74268Y-67350D01*
X74240Y-67407D01*
X74212Y-67435D01*
X74156Y-67463D01*
X74043Y-67463D01*
X73987Y-67435D01*
X73959Y-67407D01*
X73931Y-67350D01*
X73931Y-67238D01*
X73959Y-67182D01*
X73987Y-67154D01*
X74043Y-67125D01*
X79344Y-67407D02*
X79372Y-67435D01*
X79457Y-67463D01*
X79513Y-67463D01*
X79597Y-67435D01*
X79654Y-67379D01*
X79682Y-67322D01*
X79710Y-67210D01*
X79710Y-67125D01*
X79682Y-67013D01*
X79654Y-66957D01*
X79597Y-66901D01*
X79513Y-66872D01*
X79457Y-66872D01*
X79372Y-66901D01*
X79344Y-66929D01*
X79091Y-67463D02*
X79091Y-66872D01*
X79091Y-67154D02*
X78754Y-67154D01*
X78754Y-67463D02*
X78754Y-66872D01*
X78529Y-66872D02*
X78135Y-66872D01*
X78388Y-67463D01*
X83577Y-67407D02*
X83605Y-67435D01*
X83689Y-67463D01*
X83745Y-67463D01*
X83830Y-67435D01*
X83886Y-67379D01*
X83914Y-67322D01*
X83942Y-67210D01*
X83942Y-67125D01*
X83914Y-67013D01*
X83886Y-66957D01*
X83830Y-66901D01*
X83745Y-66872D01*
X83689Y-66872D01*
X83605Y-66901D01*
X83577Y-66929D01*
X83323Y-67463D02*
X83323Y-66872D01*
X83323Y-67154D02*
X82986Y-67154D01*
X82986Y-67463D02*
X82986Y-66872D01*
X82452Y-66872D02*
X82564Y-66872D01*
X82620Y-66901D01*
X82649Y-66929D01*
X82705Y-67013D01*
X82733Y-67125D01*
X82733Y-67350D01*
X82705Y-67407D01*
X82677Y-67435D01*
X82620Y-67463D01*
X82508Y-67463D01*
X82452Y-67435D01*
X82424Y-67407D01*
X82395Y-67350D01*
X82395Y-67210D01*
X82424Y-67154D01*
X82452Y-67125D01*
X82508Y-67097D01*
X82620Y-67097D01*
X82677Y-67125D01*
X82705Y-67154D01*
X82733Y-67210D01*
X87809Y-67407D02*
X87837Y-67435D01*
X87921Y-67463D01*
X87978Y-67463D01*
X88062Y-67435D01*
X88118Y-67379D01*
X88146Y-67322D01*
X88174Y-67210D01*
X88174Y-67125D01*
X88146Y-67013D01*
X88118Y-66957D01*
X88062Y-66901D01*
X87978Y-66872D01*
X87921Y-66872D01*
X87837Y-66901D01*
X87809Y-66929D01*
X87556Y-67463D02*
X87556Y-66872D01*
X87556Y-67154D02*
X87218Y-67154D01*
X87218Y-67463D02*
X87218Y-66872D01*
X86656Y-66872D02*
X86937Y-66872D01*
X86965Y-67154D01*
X86937Y-67125D01*
X86881Y-67097D01*
X86740Y-67097D01*
X86684Y-67125D01*
X86656Y-67154D01*
X86628Y-67210D01*
X86628Y-67350D01*
X86656Y-67407D01*
X86684Y-67435D01*
X86740Y-67463D01*
X86881Y-67463D01*
X86937Y-67435D01*
X86965Y-67407D01*
X92041Y-67407D02*
X92069Y-67435D01*
X92154Y-67463D01*
X92210Y-67463D01*
X92294Y-67435D01*
X92350Y-67379D01*
X92379Y-67322D01*
X92407Y-67210D01*
X92407Y-67125D01*
X92379Y-67013D01*
X92350Y-66957D01*
X92294Y-66901D01*
X92210Y-66872D01*
X92154Y-66872D01*
X92069Y-66901D01*
X92041Y-66929D01*
X91788Y-67463D02*
X91788Y-66872D01*
X91788Y-67154D02*
X91451Y-67154D01*
X91451Y-67463D02*
X91451Y-66872D01*
X90916Y-67069D02*
X90916Y-67463D01*
X91057Y-66844D02*
X91197Y-67266D01*
X90832Y-67266D01*
X96372Y-67407D02*
X96400Y-67435D01*
X96484Y-67463D01*
X96541Y-67463D01*
X96625Y-67435D01*
X96681Y-67379D01*
X96709Y-67322D01*
X96737Y-67210D01*
X96737Y-67125D01*
X96709Y-67013D01*
X96681Y-66957D01*
X96625Y-66901D01*
X96541Y-66872D01*
X96484Y-66872D01*
X96400Y-66901D01*
X96372Y-66929D01*
X96119Y-67463D02*
X96119Y-66872D01*
X96119Y-67154D02*
X95781Y-67154D01*
X95781Y-67463D02*
X95781Y-66872D01*
X95556Y-66872D02*
X95191Y-66872D01*
X95388Y-67097D01*
X95303Y-67097D01*
X95247Y-67125D01*
X95219Y-67154D01*
X95191Y-67210D01*
X95191Y-67350D01*
X95219Y-67407D01*
X95247Y-67435D01*
X95303Y-67463D01*
X95472Y-67463D01*
X95528Y-67435D01*
X95556Y-67407D01*
X100604Y-67407D02*
X100632Y-67435D01*
X100717Y-67463D01*
X100773Y-67463D01*
X100857Y-67435D01*
X100913Y-67379D01*
X100942Y-67322D01*
X100970Y-67210D01*
X100970Y-67125D01*
X100942Y-67013D01*
X100913Y-66957D01*
X100857Y-66901D01*
X100773Y-66872D01*
X100717Y-66872D01*
X100632Y-66901D01*
X100604Y-66929D01*
X100351Y-67463D02*
X100351Y-66872D01*
X100351Y-67154D02*
X100014Y-67154D01*
X100014Y-67463D02*
X100014Y-66872D01*
X99760Y-66929D02*
X99732Y-66901D01*
X99676Y-66872D01*
X99535Y-66872D01*
X99479Y-66901D01*
X99451Y-66929D01*
X99423Y-66985D01*
X99423Y-67041D01*
X99451Y-67125D01*
X99789Y-67463D01*
X99423Y-67463D01*
X104836Y-67407D02*
X104865Y-67435D01*
X104949Y-67463D01*
X105005Y-67463D01*
X105089Y-67435D01*
X105146Y-67379D01*
X105174Y-67322D01*
X105202Y-67210D01*
X105202Y-67125D01*
X105174Y-67013D01*
X105146Y-66957D01*
X105089Y-66901D01*
X105005Y-66872D01*
X104949Y-66872D01*
X104865Y-66901D01*
X104836Y-66929D01*
X104583Y-67463D02*
X104583Y-66872D01*
X104583Y-67154D02*
X104246Y-67154D01*
X104246Y-67463D02*
X104246Y-66872D01*
X103655Y-67463D02*
X103993Y-67463D01*
X103824Y-67463D02*
X103824Y-66872D01*
X103880Y-66957D01*
X103937Y-67013D01*
X103993Y-67041D01*
G54D14*
X72342Y-63976D02*
X72342Y-67913D01*
X106889Y-67913D02*
X106692Y-67913D01*
X106889Y-63976D02*
X106889Y-67913D01*
X106692Y-63976D02*
X106889Y-63976D01*
X106692Y-67913D02*
X72637Y-67913D01*
X72637Y-63976D02*
X106692Y-63976D01*
X68208Y-63976D02*
X72637Y-63976D01*
X68208Y-67913D02*
X68208Y-63976D01*
X72637Y-67913D02*
X68208Y-67913D01*
X72342Y-62893D02*
X72342Y-60728D01*
X106889Y-62893D02*
X72342Y-62893D01*
X106889Y-60728D02*
X106889Y-62893D01*
X72342Y-60728D02*
X106889Y-60728D01*
X72342Y-55905D02*
X72342Y-51771D01*
X106889Y-55905D02*
X72342Y-55905D01*
X106889Y-51771D02*
X106889Y-55905D01*
X72342Y-51771D02*
X106889Y-51771D01*
G54D11*
X61110Y-51340D02*
X61242Y-51340D01*
X61242Y-51547D02*
X61242Y-51153D01*
X61054Y-51153D01*
X60735Y-51284D02*
X60735Y-51547D01*
X60904Y-51284D02*
X60904Y-51490D01*
X60885Y-51528D01*
X60848Y-51547D01*
X60792Y-51547D01*
X60754Y-51528D01*
X60735Y-51509D01*
X60492Y-51547D02*
X60529Y-51528D01*
X60548Y-51490D01*
X60548Y-51153D01*
X60285Y-51547D02*
X60323Y-51528D01*
X60342Y-51490D01*
X60342Y-51153D01*
X59873Y-51153D02*
X59779Y-51547D01*
X59704Y-51265D01*
X59629Y-51547D01*
X59535Y-51153D01*
X59217Y-51547D02*
X59217Y-51340D01*
X59236Y-51303D01*
X59273Y-51284D01*
X59348Y-51284D01*
X59386Y-51303D01*
X59217Y-51528D02*
X59254Y-51547D01*
X59348Y-51547D01*
X59386Y-51528D01*
X59404Y-51490D01*
X59404Y-51453D01*
X59386Y-51415D01*
X59348Y-51397D01*
X59254Y-51397D01*
X59217Y-51378D01*
X59067Y-51284D02*
X58973Y-51547D01*
X58879Y-51284D01*
X58579Y-51528D02*
X58617Y-51547D01*
X58692Y-51547D01*
X58729Y-51528D01*
X58748Y-51490D01*
X58748Y-51340D01*
X58729Y-51303D01*
X58692Y-51284D01*
X58617Y-51284D01*
X58579Y-51303D01*
X58561Y-51340D01*
X58561Y-51378D01*
X58748Y-51415D01*
X57867Y-51547D02*
X57998Y-51359D01*
X58092Y-51547D02*
X58092Y-51153D01*
X57942Y-51153D01*
X57904Y-51172D01*
X57886Y-51190D01*
X57867Y-51228D01*
X57867Y-51284D01*
X57886Y-51322D01*
X57904Y-51340D01*
X57942Y-51359D01*
X58092Y-51359D01*
X57548Y-51528D02*
X57586Y-51547D01*
X57661Y-51547D01*
X57698Y-51528D01*
X57717Y-51490D01*
X57717Y-51340D01*
X57698Y-51303D01*
X57661Y-51284D01*
X57586Y-51284D01*
X57548Y-51303D01*
X57529Y-51340D01*
X57529Y-51378D01*
X57717Y-51415D01*
X57192Y-51528D02*
X57230Y-51547D01*
X57305Y-51547D01*
X57342Y-51528D01*
X57361Y-51509D01*
X57380Y-51472D01*
X57380Y-51359D01*
X57361Y-51322D01*
X57342Y-51303D01*
X57305Y-51284D01*
X57230Y-51284D01*
X57192Y-51303D01*
X57080Y-51284D02*
X56930Y-51284D01*
X57023Y-51153D02*
X57023Y-51490D01*
X57005Y-51528D01*
X56967Y-51547D01*
X56930Y-51547D01*
X56798Y-51547D02*
X56798Y-51284D01*
X56798Y-51153D02*
X56817Y-51172D01*
X56798Y-51190D01*
X56780Y-51172D01*
X56798Y-51153D01*
X56798Y-51190D01*
X56667Y-51284D02*
X56517Y-51284D01*
X56611Y-51547D02*
X56611Y-51209D01*
X56592Y-51172D01*
X56555Y-51153D01*
X56517Y-51153D01*
X56386Y-51547D02*
X56386Y-51284D01*
X56386Y-51153D02*
X56405Y-51172D01*
X56386Y-51190D01*
X56367Y-51172D01*
X56386Y-51153D01*
X56386Y-51190D01*
X56048Y-51528D02*
X56086Y-51547D01*
X56161Y-51547D01*
X56198Y-51528D01*
X56217Y-51490D01*
X56217Y-51340D01*
X56198Y-51303D01*
X56161Y-51284D01*
X56086Y-51284D01*
X56048Y-51303D01*
X56030Y-51340D01*
X56030Y-51378D01*
X56217Y-51415D01*
X55861Y-51547D02*
X55861Y-51284D01*
X55861Y-51359D02*
X55842Y-51322D01*
X55823Y-51303D01*
X55786Y-51284D01*
X55748Y-51284D01*
G54D14*
X54035Y-48917D02*
X54035Y-49606D01*
X63090Y-48917D02*
X54035Y-48917D01*
X63090Y-53838D02*
X63090Y-48917D01*
X54035Y-53838D02*
X63090Y-53838D01*
X54035Y-49015D02*
X54035Y-53838D01*
G54D15*
G36*
X61807Y-65527D02*
X61786Y-65540D01*
X61729Y-65550D01*
X61630Y-65558D01*
X61484Y-65563D01*
X61285Y-65567D01*
X61027Y-65568D01*
X60915Y-65568D01*
X60679Y-65567D01*
X60467Y-65564D01*
X60285Y-65560D01*
X60144Y-65554D01*
X60053Y-65548D01*
X60019Y-65541D01*
X60022Y-65501D01*
X60040Y-65411D01*
X60069Y-65282D01*
X60107Y-65126D01*
X60150Y-64958D01*
X60195Y-64789D01*
X60238Y-64632D01*
X60276Y-64500D01*
X60306Y-64406D01*
X60325Y-64362D01*
X60366Y-64353D01*
X60459Y-64345D01*
X60592Y-64338D01*
X60752Y-64333D01*
X60925Y-64329D01*
X61097Y-64327D01*
X61256Y-64327D01*
X61388Y-64329D01*
X61479Y-64334D01*
X61516Y-64341D01*
X61533Y-64382D01*
X61561Y-64475D01*
X61598Y-64607D01*
X61639Y-64764D01*
X61682Y-64935D01*
X61723Y-65106D01*
X61759Y-65264D01*
X61787Y-65395D01*
X61804Y-65488D01*
X61807Y-65527D01*
X61807Y-65527D01*
X61807Y-65527D01*
G37*
G36*
X62438Y-65192D02*
X62281Y-65280D01*
X62188Y-65329D01*
X62118Y-65361D01*
X62094Y-65368D01*
X62076Y-65361D01*
X62056Y-65336D01*
X62033Y-65284D01*
X62003Y-65197D01*
X61964Y-65068D01*
X61912Y-64888D01*
X61864Y-64718D01*
X61813Y-64541D01*
X61767Y-64384D01*
X61728Y-64259D01*
X61701Y-64179D01*
X61693Y-64159D01*
X61679Y-64140D01*
X61652Y-64126D01*
X61605Y-64116D01*
X61529Y-64110D01*
X61416Y-64107D01*
X61257Y-64106D01*
X61045Y-64108D01*
X60907Y-64109D01*
X60152Y-64118D01*
X60112Y-64252D01*
X60025Y-64535D01*
X59947Y-64785D01*
X59880Y-64994D01*
X59825Y-65158D01*
X59784Y-65270D01*
X59759Y-65324D01*
X59758Y-65327D01*
X59715Y-65360D01*
X59660Y-65357D01*
X59575Y-65315D01*
X59524Y-65282D01*
X59399Y-65201D01*
X59399Y-63638D01*
X59399Y-62076D01*
X59674Y-61831D01*
X59828Y-61693D01*
X59940Y-61595D01*
X60017Y-61530D01*
X60067Y-61492D01*
X60096Y-61475D01*
X60114Y-61475D01*
X60124Y-61482D01*
X60131Y-61521D01*
X60138Y-61617D01*
X60145Y-61764D01*
X60152Y-61952D01*
X60158Y-62174D01*
X60164Y-62421D01*
X60166Y-62529D01*
X60182Y-63552D01*
X60916Y-63552D01*
X61649Y-63552D01*
X61666Y-62518D01*
X61671Y-62223D01*
X61676Y-61989D01*
X61681Y-61808D01*
X61688Y-61676D01*
X61696Y-61584D01*
X61705Y-61528D01*
X61716Y-61500D01*
X61729Y-61495D01*
X61771Y-61520D01*
X61850Y-61583D01*
X61955Y-61672D01*
X62076Y-61780D01*
X62088Y-61791D01*
X62399Y-62076D01*
X62400Y-62447D01*
X62401Y-62570D01*
X62403Y-62749D01*
X62405Y-62973D01*
X62409Y-63230D01*
X62413Y-63510D01*
X62417Y-63803D01*
X62420Y-64005D01*
X62438Y-65192D01*
X62438Y-65192D01*
X62438Y-65192D01*
G37*
G36*
X59132Y-63958D02*
X59131Y-64248D01*
X59130Y-64483D01*
X59128Y-64668D01*
X59125Y-64809D01*
X59120Y-64913D01*
X59114Y-64984D01*
X59106Y-65030D01*
X59097Y-65054D01*
X59084Y-65064D01*
X59074Y-65065D01*
X59028Y-65051D01*
X58931Y-65013D01*
X58791Y-64955D01*
X58617Y-64881D01*
X58419Y-64795D01*
X58263Y-64725D01*
X57510Y-64388D01*
X57469Y-63886D01*
X57424Y-63328D01*
X57384Y-62832D01*
X57349Y-62395D01*
X57318Y-62014D01*
X57292Y-61684D01*
X57270Y-61402D01*
X57252Y-61164D01*
X57238Y-60966D01*
X57227Y-60806D01*
X57219Y-60678D01*
X57214Y-60580D01*
X57212Y-60507D01*
X57212Y-60456D01*
X57214Y-60423D01*
X57218Y-60405D01*
X57222Y-60399D01*
X57257Y-60406D01*
X57334Y-60444D01*
X57439Y-60504D01*
X57559Y-60578D01*
X57682Y-60658D01*
X57793Y-60735D01*
X57880Y-60801D01*
X57928Y-60846D01*
X57951Y-60901D01*
X57975Y-61001D01*
X57995Y-61125D01*
X57996Y-61128D01*
X58013Y-61249D01*
X58031Y-61345D01*
X58045Y-61395D01*
X58045Y-61396D01*
X58079Y-61423D01*
X58160Y-61479D01*
X58278Y-61558D01*
X58424Y-61652D01*
X58557Y-61736D01*
X58721Y-61840D01*
X58866Y-61935D01*
X58984Y-62015D01*
X59062Y-62072D01*
X59091Y-62096D01*
X59101Y-62125D01*
X59110Y-62186D01*
X59117Y-62283D01*
X59123Y-62423D01*
X59127Y-62609D01*
X59130Y-62845D01*
X59131Y-63138D01*
X59132Y-63491D01*
X59132Y-63608D01*
X59132Y-63958D01*
X59132Y-63958D01*
X59132Y-63958D01*
G37*
G36*
X64547Y-60472D02*
X64541Y-60621D01*
X64533Y-60736D01*
X64519Y-60918D01*
X64502Y-61140D01*
X64484Y-61376D01*
X64468Y-61597D01*
X64466Y-61618D01*
X64431Y-62099D01*
X64398Y-62541D01*
X64368Y-62942D01*
X64340Y-63298D01*
X64316Y-63606D01*
X64294Y-63862D01*
X64276Y-64063D01*
X64262Y-64207D01*
X64252Y-64289D01*
X64249Y-64307D01*
X64214Y-64335D01*
X64128Y-64388D01*
X63999Y-64459D01*
X63835Y-64544D01*
X63646Y-64640D01*
X63522Y-64700D01*
X63287Y-64814D01*
X63104Y-64902D01*
X62968Y-64967D01*
X62871Y-65013D01*
X62806Y-65042D01*
X62766Y-65057D01*
X62744Y-65062D01*
X62733Y-65059D01*
X62726Y-65051D01*
X62722Y-65047D01*
X62717Y-65010D01*
X62713Y-64913D01*
X62709Y-64763D01*
X62706Y-64567D01*
X62703Y-64332D01*
X62701Y-64064D01*
X62700Y-63771D01*
X62700Y-63554D01*
X62701Y-62085D01*
X63225Y-61735D01*
X63749Y-61385D01*
X63790Y-61135D01*
X63812Y-61004D01*
X63832Y-60891D01*
X63846Y-60820D01*
X63847Y-60816D01*
X63879Y-60769D01*
X63951Y-60701D01*
X64052Y-60619D01*
X64167Y-60532D01*
X64285Y-60450D01*
X64392Y-60381D01*
X64478Y-60335D01*
X64528Y-60321D01*
X64534Y-60323D01*
X64545Y-60370D01*
X64547Y-60472D01*
X64547Y-60472D01*
X64547Y-60472D01*
G37*
G36*
X61645Y-59162D02*
X61643Y-59200D01*
X61630Y-59294D01*
X61608Y-59433D01*
X61578Y-59608D01*
X61542Y-59809D01*
X61528Y-59885D01*
X61397Y-60585D01*
X61399Y-61956D01*
X61399Y-62297D01*
X61399Y-62576D01*
X61398Y-62802D01*
X61395Y-62978D01*
X61392Y-63112D01*
X61387Y-63209D01*
X61380Y-63275D01*
X61371Y-63316D01*
X61359Y-63339D01*
X61347Y-63348D01*
X61281Y-63360D01*
X61170Y-63367D01*
X61029Y-63370D01*
X60875Y-63369D01*
X60723Y-63363D01*
X60590Y-63355D01*
X60490Y-63343D01*
X60440Y-63329D01*
X60439Y-63328D01*
X60428Y-63299D01*
X60419Y-63233D01*
X60412Y-63124D01*
X60407Y-62969D01*
X60403Y-62763D01*
X60400Y-62503D01*
X60399Y-62183D01*
X60399Y-61935D01*
X60399Y-61591D01*
X60398Y-61305D01*
X60396Y-61071D01*
X60392Y-60880D01*
X60387Y-60723D01*
X60380Y-60594D01*
X60371Y-60485D01*
X60359Y-60386D01*
X60344Y-60292D01*
X60330Y-60216D01*
X60296Y-60029D01*
X60259Y-59829D01*
X60226Y-59646D01*
X60212Y-59568D01*
X60187Y-59432D01*
X60165Y-59316D01*
X60149Y-59240D01*
X60145Y-59227D01*
X60145Y-59185D01*
X60183Y-59171D01*
X60263Y-59186D01*
X60391Y-59231D01*
X60561Y-59302D01*
X60698Y-59358D01*
X60818Y-59403D01*
X60903Y-59430D01*
X60931Y-59435D01*
X60987Y-59421D01*
X61086Y-59385D01*
X61214Y-59331D01*
X61313Y-59287D01*
X61444Y-59228D01*
X61552Y-59185D01*
X61624Y-59163D01*
X61645Y-59162D01*
X61645Y-59162D01*
X61645Y-59162D01*
G37*
G36*
X60115Y-60701D02*
X60114Y-60704D01*
X60076Y-60713D01*
X59979Y-60720D01*
X59831Y-60726D01*
X59638Y-60730D01*
X59593Y-60730D01*
X59593Y-60208D01*
X59586Y-60156D01*
X59572Y-60131D01*
X59537Y-60101D01*
X59475Y-60064D01*
X59380Y-60016D01*
X59359Y-60006D01*
X59359Y-59380D01*
X59355Y-59329D01*
X59323Y-59281D01*
X59255Y-59230D01*
X59144Y-59171D01*
X58980Y-59099D01*
X58882Y-59059D01*
X58714Y-58990D01*
X58507Y-58906D01*
X58285Y-58815D01*
X58071Y-58727D01*
X58018Y-58706D01*
X57847Y-58636D01*
X57696Y-58577D01*
X57577Y-58533D01*
X57500Y-58506D01*
X57480Y-58502D01*
X57432Y-58528D01*
X57415Y-58591D01*
X57434Y-58666D01*
X57441Y-58677D01*
X57480Y-58704D01*
X57572Y-58750D01*
X57707Y-58813D01*
X57875Y-58888D01*
X58067Y-58971D01*
X58273Y-59058D01*
X58484Y-59145D01*
X58690Y-59229D01*
X58882Y-59305D01*
X59051Y-59370D01*
X59185Y-59419D01*
X59277Y-59448D01*
X59316Y-59455D01*
X59347Y-59419D01*
X59359Y-59380D01*
X59359Y-60006D01*
X59246Y-59954D01*
X59067Y-59876D01*
X58837Y-59779D01*
X58625Y-59691D01*
X58390Y-59594D01*
X58174Y-59506D01*
X57986Y-59430D01*
X57834Y-59368D01*
X57724Y-59325D01*
X57665Y-59303D01*
X57657Y-59301D01*
X57640Y-59330D01*
X57632Y-59400D01*
X57632Y-59401D01*
X57635Y-59445D01*
X57648Y-59484D01*
X57680Y-59521D01*
X57737Y-59560D01*
X57827Y-59607D01*
X57958Y-59666D01*
X58137Y-59741D01*
X58332Y-59821D01*
X58538Y-59905D01*
X58748Y-59991D01*
X58944Y-60071D01*
X59108Y-60139D01*
X59182Y-60170D01*
X59339Y-60235D01*
X59445Y-60275D01*
X59513Y-60293D01*
X59553Y-60293D01*
X59577Y-60276D01*
X59583Y-60266D01*
X59593Y-60208D01*
X59593Y-60730D01*
X59408Y-60732D01*
X59172Y-60732D01*
X58249Y-60729D01*
X57709Y-60373D01*
X57541Y-60262D01*
X57393Y-60163D01*
X57273Y-60082D01*
X57190Y-60026D01*
X57153Y-60000D01*
X57152Y-59999D01*
X57138Y-59959D01*
X57115Y-59860D01*
X57083Y-59707D01*
X57044Y-59507D01*
X56999Y-59267D01*
X56948Y-58992D01*
X56893Y-58689D01*
X56836Y-58364D01*
X56814Y-58235D01*
X56775Y-58009D01*
X56736Y-57791D01*
X56701Y-57594D01*
X56672Y-57433D01*
X56651Y-57320D01*
X56647Y-57302D01*
X56625Y-57162D01*
X56625Y-57076D01*
X56639Y-57044D01*
X56675Y-57026D01*
X56753Y-57014D01*
X56882Y-57006D01*
X57066Y-57002D01*
X57204Y-57001D01*
X57407Y-57000D01*
X57554Y-57002D01*
X57657Y-57014D01*
X57727Y-57046D01*
X57774Y-57104D01*
X57809Y-57198D01*
X57844Y-57334D01*
X57883Y-57502D01*
X57922Y-57660D01*
X57959Y-57809D01*
X57989Y-57926D01*
X58002Y-57976D01*
X58013Y-58013D01*
X58028Y-58045D01*
X58056Y-58077D01*
X58101Y-58114D01*
X58171Y-58159D01*
X58273Y-58215D01*
X58412Y-58288D01*
X58596Y-58382D01*
X58831Y-58500D01*
X58917Y-58543D01*
X59172Y-58671D01*
X59374Y-58774D01*
X59529Y-58855D01*
X59643Y-58919D01*
X59723Y-58968D01*
X59776Y-59008D01*
X59808Y-59042D01*
X59826Y-59073D01*
X59830Y-59085D01*
X59850Y-59161D01*
X59876Y-59284D01*
X59908Y-59443D01*
X59943Y-59628D01*
X59979Y-59827D01*
X60014Y-60029D01*
X60047Y-60223D01*
X60076Y-60398D01*
X60098Y-60544D01*
X60111Y-60648D01*
X60115Y-60701D01*
X60115Y-60701D01*
X60115Y-60701D01*
G37*
G36*
X65116Y-57018D02*
X65108Y-57168D01*
X65099Y-57254D01*
X65079Y-57390D01*
X65051Y-57559D01*
X65017Y-57744D01*
X65003Y-57818D01*
X64967Y-58002D01*
X64922Y-58234D01*
X64871Y-58495D01*
X64818Y-58768D01*
X64766Y-59034D01*
X64749Y-59121D01*
X64705Y-59345D01*
X64664Y-59548D01*
X64627Y-59719D01*
X64598Y-59851D01*
X64578Y-59934D01*
X64571Y-59957D01*
X64537Y-59985D01*
X64458Y-60044D01*
X64340Y-60128D01*
X64299Y-60156D01*
X64299Y-58515D01*
X64299Y-58485D01*
X64299Y-58481D01*
X64291Y-58401D01*
X64272Y-58356D01*
X64271Y-58355D01*
X64235Y-58364D01*
X64146Y-58399D01*
X64013Y-58455D01*
X63842Y-58530D01*
X63641Y-58621D01*
X63418Y-58723D01*
X63329Y-58764D01*
X63071Y-58885D01*
X62866Y-58982D01*
X62709Y-59058D01*
X62593Y-59117D01*
X62511Y-59163D01*
X62459Y-59198D01*
X62428Y-59229D01*
X62412Y-59256D01*
X62406Y-59286D01*
X62405Y-59296D01*
X62407Y-59374D01*
X62437Y-59401D01*
X62446Y-59402D01*
X62491Y-59388D01*
X62587Y-59352D01*
X62724Y-59296D01*
X62891Y-59225D01*
X63079Y-59143D01*
X63123Y-59123D01*
X63422Y-58990D01*
X63665Y-58882D01*
X63858Y-58794D01*
X64008Y-58725D01*
X64119Y-58670D01*
X64198Y-58628D01*
X64249Y-58594D01*
X64280Y-58566D01*
X64294Y-58541D01*
X64299Y-58515D01*
X64299Y-60156D01*
X64194Y-60230D01*
X64192Y-60231D01*
X64192Y-59265D01*
X64174Y-59210D01*
X64131Y-59196D01*
X64087Y-59212D01*
X63992Y-59250D01*
X63855Y-59307D01*
X63686Y-59379D01*
X63495Y-59460D01*
X63291Y-59548D01*
X63084Y-59637D01*
X62884Y-59724D01*
X62700Y-59805D01*
X62543Y-59874D01*
X62460Y-59912D01*
X62306Y-59991D01*
X62212Y-60058D01*
X62183Y-60098D01*
X62177Y-60182D01*
X62215Y-60229D01*
X62246Y-60235D01*
X62286Y-60222D01*
X62379Y-60185D01*
X62518Y-60129D01*
X62692Y-60055D01*
X62895Y-59968D01*
X63119Y-59871D01*
X63164Y-59852D01*
X63390Y-59753D01*
X63595Y-59664D01*
X63773Y-59588D01*
X63916Y-59528D01*
X64014Y-59487D01*
X64062Y-59469D01*
X64064Y-59468D01*
X64103Y-59446D01*
X64146Y-59404D01*
X64183Y-59337D01*
X64192Y-59265D01*
X64192Y-60231D01*
X64027Y-60345D01*
X64001Y-60362D01*
X63454Y-60735D01*
X62578Y-60735D01*
X62344Y-60734D01*
X62131Y-60731D01*
X61950Y-60726D01*
X61810Y-60721D01*
X61718Y-60714D01*
X61685Y-60707D01*
X61686Y-60666D01*
X61699Y-60571D01*
X61723Y-60432D01*
X61754Y-60261D01*
X61791Y-60067D01*
X61832Y-59862D01*
X61874Y-59656D01*
X61916Y-59459D01*
X61955Y-59284D01*
X61989Y-59140D01*
X62015Y-59037D01*
X62033Y-58988D01*
X62034Y-58986D01*
X62072Y-58963D01*
X62161Y-58913D01*
X62294Y-58843D01*
X62464Y-58754D01*
X62661Y-58652D01*
X62879Y-58541D01*
X62925Y-58518D01*
X63782Y-58085D01*
X63866Y-57578D01*
X63897Y-57400D01*
X63927Y-57245D01*
X63955Y-57124D01*
X63977Y-57051D01*
X63985Y-57036D01*
X64035Y-57021D01*
X64150Y-57011D01*
X64326Y-57007D01*
X64562Y-57009D01*
X64568Y-57009D01*
X65116Y-57018D01*
X65116Y-57018D01*
X65116Y-57018D01*
G37*
G36*
X63665Y-57177D02*
X63659Y-57256D01*
X63645Y-57373D01*
X63625Y-57510D01*
X63602Y-57650D01*
X63579Y-57774D01*
X63559Y-57866D01*
X63547Y-57905D01*
X63509Y-57933D01*
X63423Y-57982D01*
X63299Y-58047D01*
X63150Y-58121D01*
X63102Y-58144D01*
X62956Y-58213D01*
X62764Y-58305D01*
X62537Y-58413D01*
X62291Y-58531D01*
X62038Y-58652D01*
X61848Y-58743D01*
X61848Y-57600D01*
X61811Y-57591D01*
X61717Y-57585D01*
X61578Y-57580D01*
X61404Y-57577D01*
X61205Y-57576D01*
X60991Y-57577D01*
X60772Y-57579D01*
X60560Y-57582D01*
X60363Y-57587D01*
X60193Y-57594D01*
X60060Y-57601D01*
X59974Y-57610D01*
X59945Y-57618D01*
X59968Y-57646D01*
X60038Y-57700D01*
X60144Y-57773D01*
X60273Y-57858D01*
X60416Y-57949D01*
X60561Y-58038D01*
X60697Y-58117D01*
X60812Y-58182D01*
X60895Y-58223D01*
X60933Y-58235D01*
X60992Y-58216D01*
X61077Y-58169D01*
X61121Y-58139D01*
X61205Y-58080D01*
X61325Y-57997D01*
X61464Y-57901D01*
X61560Y-57837D01*
X61681Y-57752D01*
X61776Y-57678D01*
X61835Y-57624D01*
X61848Y-57600D01*
X61848Y-58743D01*
X61823Y-58755D01*
X61600Y-58862D01*
X61396Y-58957D01*
X61219Y-59039D01*
X61076Y-59104D01*
X60976Y-59147D01*
X60926Y-59165D01*
X60923Y-59166D01*
X60882Y-59151D01*
X60790Y-59112D01*
X60657Y-59052D01*
X60491Y-58976D01*
X60303Y-58888D01*
X60216Y-58847D01*
X59967Y-58729D01*
X59689Y-58599D01*
X59404Y-58465D01*
X59136Y-58341D01*
X58932Y-58247D01*
X58743Y-58159D01*
X58573Y-58078D01*
X58433Y-58009D01*
X58332Y-57957D01*
X58280Y-57927D01*
X58276Y-57924D01*
X58255Y-57880D01*
X58223Y-57788D01*
X58185Y-57665D01*
X58146Y-57527D01*
X58110Y-57391D01*
X58082Y-57273D01*
X58067Y-57191D01*
X58066Y-57171D01*
X58097Y-57127D01*
X58185Y-57075D01*
X58320Y-57017D01*
X58494Y-56956D01*
X58697Y-56896D01*
X58920Y-56841D01*
X59099Y-56803D01*
X59274Y-56770D01*
X59425Y-56744D01*
X59568Y-56724D01*
X59717Y-56708D01*
X59888Y-56695D01*
X60096Y-56682D01*
X60330Y-56670D01*
X60717Y-56657D01*
X61104Y-56656D01*
X61484Y-56667D01*
X61852Y-56689D01*
X62201Y-56720D01*
X62526Y-56760D01*
X62822Y-56808D01*
X63083Y-56864D01*
X63302Y-56925D01*
X63475Y-56992D01*
X63595Y-57064D01*
X63657Y-57139D01*
X63665Y-57177D01*
X63665Y-57177D01*
X63665Y-57177D01*
G37*
G36*
X66240Y-38997D02*
X66224Y-39306D01*
X66157Y-39608D01*
X66040Y-39895D01*
X65874Y-40159D01*
X65662Y-40391D01*
X65405Y-40584D01*
X65281Y-40653D01*
X65161Y-40711D01*
X65070Y-40751D01*
X65017Y-40770D01*
X65007Y-40764D01*
X65050Y-40733D01*
X65058Y-40728D01*
X65180Y-40626D01*
X65240Y-40515D01*
X65236Y-40399D01*
X65182Y-40302D01*
X65092Y-40240D01*
X64968Y-40226D01*
X64825Y-40262D01*
X64781Y-40282D01*
X64688Y-40324D01*
X64630Y-40330D01*
X64586Y-40294D01*
X64544Y-40230D01*
X64494Y-40141D01*
X64486Y-40097D01*
X64523Y-40086D01*
X64590Y-40094D01*
X64683Y-40096D01*
X64723Y-40072D01*
X64707Y-40030D01*
X64650Y-39991D01*
X64523Y-39900D01*
X64429Y-39783D01*
X64381Y-39658D01*
X64378Y-39619D01*
X64381Y-39543D01*
X64390Y-39506D01*
X64392Y-39505D01*
X64431Y-39528D01*
X64490Y-39585D01*
X64553Y-39656D01*
X64601Y-39721D01*
X64618Y-39760D01*
X64640Y-39796D01*
X64707Y-39829D01*
X64795Y-39855D01*
X64882Y-39864D01*
X64922Y-39859D01*
X65000Y-39866D01*
X65035Y-39901D01*
X65093Y-39951D01*
X65178Y-39983D01*
X65284Y-40021D01*
X65367Y-40070D01*
X65431Y-40113D01*
X65484Y-40115D01*
X65550Y-40085D01*
X65612Y-40047D01*
X65636Y-40004D01*
X65632Y-39928D01*
X65627Y-39894D01*
X65597Y-39761D01*
X65554Y-39673D01*
X65484Y-39608D01*
X65444Y-39583D01*
X65371Y-39522D01*
X65352Y-39451D01*
X65353Y-39444D01*
X65335Y-39361D01*
X65301Y-39326D01*
X65259Y-39308D01*
X65222Y-39321D01*
X65177Y-39376D01*
X65127Y-39456D01*
X65063Y-39505D01*
X64968Y-39507D01*
X64856Y-39463D01*
X64786Y-39415D01*
X64720Y-39355D01*
X64668Y-39297D01*
X64641Y-39255D01*
X64646Y-39240D01*
X64674Y-39253D01*
X64749Y-39265D01*
X64851Y-39240D01*
X64960Y-39187D01*
X65014Y-39147D01*
X65115Y-39062D01*
X65165Y-39134D01*
X65241Y-39197D01*
X65331Y-39208D01*
X65424Y-39177D01*
X65507Y-39113D01*
X65569Y-39024D01*
X65598Y-38921D01*
X65581Y-38812D01*
X65580Y-38809D01*
X65509Y-38704D01*
X65415Y-38654D01*
X65308Y-38664D01*
X65286Y-38673D01*
X65213Y-38710D01*
X65170Y-38732D01*
X65149Y-38715D01*
X65145Y-38685D01*
X65123Y-38616D01*
X65087Y-38563D01*
X65051Y-38519D01*
X65065Y-38510D01*
X65119Y-38522D01*
X65210Y-38514D01*
X65296Y-38459D01*
X65358Y-38372D01*
X65378Y-38287D01*
X65349Y-38190D01*
X65276Y-38098D01*
X65179Y-38029D01*
X65086Y-38005D01*
X64976Y-38034D01*
X64893Y-38109D01*
X64851Y-38213D01*
X64851Y-38270D01*
X64856Y-38337D01*
X64832Y-38366D01*
X64762Y-38372D01*
X64747Y-38372D01*
X64625Y-38392D01*
X64510Y-38446D01*
X64424Y-38519D01*
X64395Y-38571D01*
X64369Y-38619D01*
X64331Y-38607D01*
X64327Y-38604D01*
X64285Y-38542D01*
X64272Y-38494D01*
X64242Y-38436D01*
X64178Y-38422D01*
X64134Y-38425D01*
X64109Y-38446D01*
X64098Y-38498D01*
X64096Y-38597D01*
X64097Y-38645D01*
X64104Y-38786D01*
X64124Y-38878D01*
X64160Y-38937D01*
X64203Y-38991D01*
X64201Y-39007D01*
X64161Y-38988D01*
X64091Y-38938D01*
X63998Y-38862D01*
X63968Y-38836D01*
X63853Y-38722D01*
X63792Y-38635D01*
X63784Y-38565D01*
X63825Y-38507D01*
X63828Y-38505D01*
X63870Y-38448D01*
X63878Y-38417D01*
X63899Y-38366D01*
X63954Y-38293D01*
X63980Y-38264D01*
X64042Y-38196D01*
X64062Y-38157D01*
X64044Y-38126D01*
X64014Y-38101D01*
X63985Y-38074D01*
X63977Y-38047D01*
X63996Y-38011D01*
X64048Y-37955D01*
X64140Y-37869D01*
X64201Y-37814D01*
X64326Y-37695D01*
X64398Y-37613D01*
X64421Y-37570D01*
X64397Y-37567D01*
X64329Y-37603D01*
X64220Y-37680D01*
X64089Y-37785D01*
X63955Y-37894D01*
X63862Y-37962D01*
X63804Y-37993D01*
X63773Y-37991D01*
X63768Y-37985D01*
X63714Y-37946D01*
X63638Y-37941D01*
X63573Y-37969D01*
X63554Y-37997D01*
X63513Y-38061D01*
X63489Y-38081D01*
X63451Y-38135D01*
X63444Y-38169D01*
X63420Y-38241D01*
X63394Y-38272D01*
X63349Y-38347D01*
X63361Y-38443D01*
X63429Y-38550D01*
X63444Y-38566D01*
X63512Y-38641D01*
X63539Y-38696D01*
X63532Y-38759D01*
X63508Y-38834D01*
X63488Y-38923D01*
X63509Y-38996D01*
X63527Y-39024D01*
X63573Y-39080D01*
X63613Y-39082D01*
X63628Y-39071D01*
X63683Y-39050D01*
X63718Y-39070D01*
X63781Y-39120D01*
X63823Y-39150D01*
X63860Y-39180D01*
X63867Y-39214D01*
X63844Y-39274D01*
X63819Y-39324D01*
X63772Y-39429D01*
X63738Y-39530D01*
X63721Y-39610D01*
X63723Y-39655D01*
X63741Y-39657D01*
X63772Y-39663D01*
X63779Y-39695D01*
X63802Y-39801D01*
X63865Y-39933D01*
X63957Y-40075D01*
X64058Y-40198D01*
X64209Y-40359D01*
X64012Y-40295D01*
X63845Y-40257D01*
X63715Y-40261D01*
X63629Y-40305D01*
X63590Y-40386D01*
X63605Y-40500D01*
X63607Y-40507D01*
X63625Y-40575D01*
X63622Y-40605D01*
X63621Y-40605D01*
X63577Y-40584D01*
X63499Y-40528D01*
X63403Y-40451D01*
X63304Y-40363D01*
X63215Y-40279D01*
X63155Y-40213D01*
X62976Y-39944D01*
X62845Y-39645D01*
X62766Y-39334D01*
X62745Y-39080D01*
X62776Y-38734D01*
X62868Y-38408D01*
X63018Y-38109D01*
X63223Y-37846D01*
X63420Y-37658D01*
X63620Y-37516D01*
X63849Y-37403D01*
X63942Y-37366D01*
X64092Y-37316D01*
X64223Y-37287D01*
X64368Y-37274D01*
X64495Y-37272D01*
X64825Y-37302D01*
X65132Y-37393D01*
X65418Y-37547D01*
X65686Y-37764D01*
X65766Y-37846D01*
X65968Y-38105D01*
X66113Y-38388D01*
X66204Y-38688D01*
X66240Y-38997D01*
X66240Y-38997D01*
X66240Y-38997D01*
G37*
M02*
