G04 (created by PCBNEW (2013-07-07 BZR 4022)-stable) date 8/1/2015 6:26:25 AM*
%MOIN*%
G04 Gerber Fmt 3.4, Leading zero omitted, Abs format*
%FSLAX34Y34*%
G01*
G70*
G90*
G04 APERTURE LIST*
%ADD10C,0.00590551*%
%ADD11C,0.0688976*%
%ADD12C,0.07*%
%ADD13R,0.07X0.07*%
%ADD14C,0.066*%
%ADD15R,0.055X0.055*%
%ADD16C,0.055*%
%ADD17C,0.129921*%
%ADD18C,0.0885827*%
%ADD19R,0.108268X0.108268*%
%ADD20C,0.108268*%
%ADD21R,0.0885827X0.0885827*%
%ADD22R,0.0787402X0.0787402*%
%ADD23C,0.0787402*%
%ADD24R,0.0728346X0.0728346*%
%ADD25C,0.0728346*%
%ADD26C,0.275591*%
%ADD27R,0.0629921X0.0629921*%
%ADD28C,0.0629921*%
%ADD29C,0.137795*%
%ADD30R,0.0591X0.0591*%
%ADD31C,0.0591*%
%ADD32C,0.0708661*%
%ADD33C,0.019685*%
%ADD34C,0.01*%
%ADD35C,0.0295276*%
%ADD36C,0.0472441*%
%ADD37C,0.0787402*%
%ADD38C,0.15748*%
%ADD39C,0.137795*%
G04 APERTURE END LIST*
G54D10*
G54D11*
X105316Y-51182D03*
X102782Y-48648D03*
X88288Y-51182D03*
X85755Y-48648D03*
X79823Y-51182D03*
X77290Y-48648D03*
X107037Y-34803D03*
X107037Y-38385D03*
G54D12*
X75606Y-61712D03*
X74606Y-61712D03*
G54D13*
X73606Y-61712D03*
G54D12*
X79838Y-61712D03*
X78838Y-61712D03*
G54D13*
X77838Y-61712D03*
G54D12*
X84070Y-61712D03*
X83070Y-61712D03*
G54D13*
X82070Y-61712D03*
G54D12*
X88303Y-61712D03*
X87303Y-61712D03*
G54D13*
X86303Y-61712D03*
G54D12*
X92535Y-61712D03*
X91535Y-61712D03*
G54D13*
X90535Y-61712D03*
G54D12*
X96866Y-61712D03*
X95866Y-61712D03*
G54D13*
X94866Y-61712D03*
G54D12*
X101098Y-61712D03*
X100098Y-61712D03*
G54D13*
X99098Y-61712D03*
G54D12*
X105330Y-61712D03*
X104330Y-61712D03*
G54D13*
X103330Y-61712D03*
G54D14*
X71173Y-32057D03*
X72173Y-32057D03*
X71173Y-39547D03*
X72173Y-39547D03*
X71173Y-37608D03*
X72173Y-37608D03*
X71173Y-35767D03*
X72173Y-35767D03*
X65287Y-33503D03*
X66287Y-33503D03*
X71173Y-33917D03*
X72173Y-33917D03*
G54D15*
X99464Y-39354D03*
G54D16*
X100464Y-39354D03*
X101464Y-39354D03*
X102464Y-39354D03*
X102464Y-36354D03*
X101464Y-36354D03*
X100464Y-36354D03*
X99464Y-36354D03*
G54D15*
X79996Y-39354D03*
G54D16*
X80996Y-39354D03*
X81996Y-39354D03*
X82996Y-39354D03*
X82996Y-36354D03*
X81996Y-36354D03*
X80996Y-36354D03*
X79996Y-36354D03*
G54D15*
X105330Y-52437D03*
G54D16*
X104330Y-52437D03*
X103330Y-52437D03*
X103330Y-55437D03*
X104330Y-55437D03*
X105330Y-55437D03*
G54D15*
X88303Y-52437D03*
G54D16*
X87303Y-52437D03*
X86303Y-52437D03*
X86303Y-55437D03*
X87303Y-55437D03*
X88303Y-55437D03*
G54D15*
X92535Y-52437D03*
G54D16*
X91535Y-52437D03*
X90535Y-52437D03*
X90535Y-55437D03*
X91535Y-55437D03*
X92535Y-55437D03*
G54D15*
X96866Y-52437D03*
G54D16*
X95866Y-52437D03*
X94866Y-52437D03*
X94866Y-55437D03*
X95866Y-55437D03*
X96866Y-55437D03*
G54D15*
X64905Y-48094D03*
G54D16*
X65905Y-48094D03*
X66905Y-48094D03*
X66905Y-45094D03*
X65905Y-45094D03*
X64905Y-45094D03*
G54D15*
X101098Y-52437D03*
G54D16*
X100098Y-52437D03*
X99098Y-52437D03*
X99098Y-55437D03*
X100098Y-55437D03*
X101098Y-55437D03*
G54D15*
X75606Y-52437D03*
G54D16*
X74606Y-52437D03*
X73606Y-52437D03*
X73606Y-55437D03*
X74606Y-55437D03*
X75606Y-55437D03*
G54D15*
X84070Y-52437D03*
G54D16*
X83070Y-52437D03*
X82070Y-52437D03*
X82070Y-55437D03*
X83070Y-55437D03*
X84070Y-55437D03*
G54D15*
X79838Y-52437D03*
G54D16*
X78838Y-52437D03*
X77838Y-52437D03*
X77838Y-55437D03*
X78838Y-55437D03*
X79838Y-55437D03*
G54D15*
X71637Y-44236D03*
G54D16*
X72637Y-44236D03*
X73637Y-44236D03*
X74637Y-44236D03*
X75637Y-44236D03*
X76637Y-44236D03*
X77637Y-44236D03*
X78637Y-44236D03*
X78637Y-41236D03*
X77637Y-41236D03*
X76637Y-41236D03*
X75637Y-41236D03*
X74637Y-41236D03*
X73637Y-41236D03*
X72637Y-41236D03*
X71637Y-41236D03*
G54D11*
X89980Y-31377D03*
X86397Y-31377D03*
X84056Y-51182D03*
X81522Y-48648D03*
X75591Y-51182D03*
X73058Y-48648D03*
X65905Y-53346D03*
X65905Y-49763D03*
X64311Y-53350D03*
X64311Y-49767D03*
X86358Y-32952D03*
X89940Y-32952D03*
X92559Y-32952D03*
X96141Y-32952D03*
X102559Y-60078D03*
X102559Y-56496D03*
X96181Y-31377D03*
X92598Y-31377D03*
X59448Y-31456D03*
X63031Y-31456D03*
X92520Y-51182D03*
X89987Y-48648D03*
X96851Y-51182D03*
X94318Y-48648D03*
X101083Y-51182D03*
X98550Y-48648D03*
X99114Y-60177D03*
X99114Y-56594D03*
X94881Y-60177D03*
X94881Y-56594D03*
X90551Y-60177D03*
X90551Y-56594D03*
X86318Y-60177D03*
X86318Y-56594D03*
X82086Y-60177D03*
X82086Y-56594D03*
X77854Y-60177D03*
X77854Y-56594D03*
X73622Y-60177D03*
X73622Y-56594D03*
X67460Y-49724D03*
X67460Y-53307D03*
G54D15*
X64311Y-31437D03*
G54D16*
X65311Y-31437D03*
X66311Y-31437D03*
X67311Y-31437D03*
X68311Y-31437D03*
X69311Y-31437D03*
G54D17*
X70570Y-62283D03*
X70570Y-59625D03*
X70570Y-55846D03*
X70570Y-53188D03*
G54D18*
X57234Y-67145D03*
X64714Y-67145D03*
X57234Y-54917D03*
X59675Y-54917D03*
X62194Y-54917D03*
X64714Y-54917D03*
G54D19*
X71322Y-66043D03*
G54D20*
X69429Y-66035D03*
G54D21*
X75688Y-66035D03*
G54D18*
X73716Y-66039D03*
G54D21*
X79921Y-66035D03*
G54D18*
X77948Y-66039D03*
G54D21*
X84153Y-66035D03*
G54D18*
X82181Y-66039D03*
G54D21*
X88385Y-66035D03*
G54D18*
X86413Y-66039D03*
G54D21*
X92618Y-66035D03*
G54D18*
X90645Y-66039D03*
G54D21*
X96948Y-66035D03*
G54D18*
X94976Y-66039D03*
G54D21*
X101181Y-66035D03*
G54D18*
X99208Y-66039D03*
G54D21*
X105413Y-66035D03*
G54D18*
X103440Y-66039D03*
G54D22*
X58287Y-45275D03*
G54D23*
X56318Y-45275D03*
G54D24*
X57649Y-35185D03*
G54D25*
X56614Y-35177D03*
G54D26*
X105984Y-58385D03*
X70275Y-49724D03*
X55039Y-32204D03*
X105984Y-32204D03*
G54D11*
X91999Y-37747D03*
X89465Y-35213D03*
X88908Y-37747D03*
X86375Y-35213D03*
G54D16*
X54488Y-37921D03*
X54488Y-38578D03*
X54488Y-41291D03*
X54488Y-40633D03*
X65539Y-43700D03*
X66196Y-43700D03*
X84692Y-39940D03*
X85350Y-39940D03*
X86622Y-39940D03*
X87279Y-39940D03*
X90952Y-30885D03*
X91610Y-30885D03*
X90933Y-33484D03*
X91590Y-33484D03*
X76405Y-30944D03*
X77062Y-30944D03*
X76405Y-33503D03*
X77062Y-33503D03*
X102547Y-51003D03*
X103204Y-51003D03*
G54D23*
X57185Y-49665D03*
X57185Y-53248D03*
X55314Y-53287D03*
X55314Y-49704D03*
X59940Y-53287D03*
X59940Y-49704D03*
X61712Y-49665D03*
X61712Y-53248D03*
G54D16*
X89185Y-39940D03*
X88527Y-39940D03*
X98216Y-51003D03*
X98874Y-51003D03*
X93807Y-51003D03*
X94464Y-51003D03*
X89594Y-51003D03*
X90251Y-51003D03*
X85500Y-51003D03*
X86157Y-51003D03*
X81090Y-51003D03*
X81748Y-51003D03*
X76838Y-51003D03*
X77496Y-51003D03*
X72527Y-51003D03*
X73185Y-51003D03*
X105641Y-47814D03*
X104984Y-47814D03*
X105661Y-40157D03*
X105003Y-40157D03*
G54D27*
X105570Y-37143D03*
G54D28*
X105570Y-36143D03*
G54D12*
X57204Y-39606D03*
X57204Y-38606D03*
G54D13*
X57204Y-40606D03*
G54D29*
X98696Y-31271D03*
X103196Y-31267D03*
G54D30*
X102694Y-33779D03*
G54D31*
X102194Y-34779D03*
X101694Y-33779D03*
X101194Y-34779D03*
X100694Y-33779D03*
X100194Y-34779D03*
X99694Y-33779D03*
X99194Y-34779D03*
G54D29*
X79248Y-31291D03*
X83748Y-31287D03*
G54D30*
X83246Y-33799D03*
G54D31*
X82746Y-34799D03*
X82246Y-33799D03*
X81746Y-34799D03*
X81246Y-33799D03*
X80746Y-34799D03*
X80246Y-33799D03*
X79746Y-34799D03*
G54D15*
X100740Y-41271D03*
G54D16*
X99740Y-41271D03*
X98740Y-41271D03*
X97740Y-41271D03*
X96740Y-41271D03*
X95740Y-41271D03*
X94740Y-41271D03*
X93740Y-41271D03*
X92740Y-41271D03*
X91740Y-41271D03*
X90740Y-41271D03*
X89740Y-41271D03*
X88740Y-41271D03*
X87740Y-41271D03*
X86740Y-41271D03*
X85740Y-41271D03*
X84740Y-41271D03*
X83740Y-41271D03*
X82740Y-41271D03*
X81740Y-41271D03*
X81740Y-47271D03*
X82740Y-47271D03*
X83740Y-47271D03*
X84740Y-47271D03*
X85740Y-47271D03*
X86740Y-47271D03*
X87740Y-47271D03*
X88740Y-47271D03*
X89740Y-47271D03*
X90740Y-47271D03*
X91740Y-47271D03*
X92740Y-47271D03*
X93740Y-47271D03*
X94740Y-47271D03*
X95740Y-47271D03*
X96740Y-47271D03*
X97740Y-47271D03*
X98740Y-47271D03*
X99740Y-47271D03*
X100740Y-47271D03*
G54D11*
X92637Y-39940D03*
X90748Y-39940D03*
X91230Y-48622D03*
X93120Y-48622D03*
X104133Y-38828D03*
X104133Y-36938D03*
X78307Y-36929D03*
X78307Y-38818D03*
G54D27*
X106594Y-45728D03*
G54D28*
X106594Y-42736D03*
X103602Y-45728D03*
X103602Y-42736D03*
G54D16*
X85647Y-37460D03*
X86305Y-37460D03*
G54D32*
X96480Y-37295D03*
X95496Y-37295D03*
X94511Y-37295D03*
X96480Y-38279D03*
X95496Y-38279D03*
X94511Y-38279D03*
G54D33*
X104133Y-38828D02*
X104133Y-38257D01*
X100728Y-37618D02*
X99464Y-36354D01*
X103494Y-37618D02*
X100728Y-37618D01*
X104133Y-38257D02*
X103494Y-37618D01*
X95925Y-35216D02*
X96240Y-35216D01*
X103287Y-37982D02*
X104133Y-38828D01*
X99005Y-37982D02*
X103287Y-37982D01*
X96240Y-35216D02*
X99005Y-37982D01*
G54D34*
X92637Y-39940D02*
X92637Y-39035D01*
X92942Y-36161D02*
X92386Y-35605D01*
X92942Y-38730D02*
X92942Y-36161D01*
X92637Y-39035D02*
X92942Y-38730D01*
G54D33*
X103602Y-45728D02*
X104744Y-45728D01*
X105641Y-46625D02*
X105641Y-47814D01*
X104744Y-45728D02*
X105641Y-46625D01*
X102782Y-48648D02*
X104150Y-48648D01*
X104150Y-48648D02*
X104984Y-47814D01*
X104984Y-47814D02*
X105641Y-47814D01*
G54D34*
X91740Y-41271D02*
X91740Y-40838D01*
X91740Y-40838D02*
X92637Y-39940D01*
G54D33*
X83228Y-38346D02*
X83740Y-38346D01*
X91496Y-36496D02*
X92386Y-35605D01*
X91240Y-36751D02*
X91496Y-36496D01*
X85334Y-36751D02*
X91240Y-36751D01*
X83740Y-38346D02*
X85334Y-36751D01*
X92775Y-35216D02*
X94783Y-35216D01*
X94783Y-35216D02*
X95925Y-35216D01*
X92386Y-35605D02*
X92775Y-35216D01*
G54D34*
X83228Y-38346D02*
X83228Y-37716D01*
X85019Y-32755D02*
X86397Y-31377D01*
X85019Y-35925D02*
X85019Y-32755D01*
X83228Y-37716D02*
X85019Y-35925D01*
X81996Y-39354D02*
X81996Y-38830D01*
X81996Y-38830D02*
X82480Y-38346D01*
X80996Y-39354D02*
X80996Y-38255D01*
X80996Y-38255D02*
X81446Y-37805D01*
G54D33*
X81988Y-38346D02*
X81446Y-37805D01*
X81446Y-37805D02*
X79996Y-36354D01*
X83228Y-38346D02*
X82480Y-38346D01*
X82480Y-38346D02*
X81988Y-38346D01*
G54D35*
X57204Y-38606D02*
X63015Y-38606D01*
G54D33*
X63015Y-38606D02*
X73058Y-48648D01*
G54D34*
X67460Y-53307D02*
X67460Y-51259D01*
X67460Y-51259D02*
X68248Y-50472D01*
X68248Y-50472D02*
X68248Y-48582D01*
X68248Y-48582D02*
X69271Y-47559D01*
X69271Y-47559D02*
X71968Y-47559D01*
X71968Y-47559D02*
X73058Y-48648D01*
X57649Y-35185D02*
X57649Y-33255D01*
X57649Y-33255D02*
X59448Y-31456D01*
G54D36*
X57649Y-36444D02*
X57649Y-35185D01*
X57204Y-38606D02*
X57204Y-36889D01*
X57204Y-36889D02*
X57649Y-36444D01*
G54D34*
X102194Y-34779D02*
X102194Y-34803D01*
X102464Y-35072D02*
X102464Y-36354D01*
X102194Y-34803D02*
X102464Y-35072D01*
G54D36*
X105661Y-40157D02*
X106141Y-40157D01*
X106594Y-40610D02*
X106594Y-42736D01*
X106141Y-40157D02*
X106594Y-40610D01*
G54D33*
X91740Y-47271D02*
X91740Y-47812D01*
X92549Y-48622D02*
X93120Y-48622D01*
X91740Y-47812D02*
X92549Y-48622D01*
X93248Y-46250D02*
X93248Y-48494D01*
X93248Y-48494D02*
X93120Y-48622D01*
G54D35*
X78637Y-41236D02*
X78637Y-42141D01*
X78637Y-42141D02*
X80492Y-43996D01*
X80492Y-43996D02*
X90994Y-43996D01*
X90994Y-43996D02*
X93248Y-46250D01*
X93248Y-46250D02*
X93257Y-46259D01*
G54D34*
X82996Y-36354D02*
X82996Y-35505D01*
X82746Y-35255D02*
X82746Y-34799D01*
X82996Y-35505D02*
X82746Y-35255D01*
X86358Y-32952D02*
X86358Y-35196D01*
X86358Y-35196D02*
X86375Y-35213D01*
X82746Y-34799D02*
X82746Y-34299D01*
X82746Y-34299D02*
X83246Y-33799D01*
X66287Y-33503D02*
X66287Y-35885D01*
X66287Y-35885D02*
X71637Y-41236D01*
G54D36*
X57204Y-39606D02*
X56220Y-39606D01*
X56220Y-39606D02*
X55866Y-39251D01*
X55866Y-35925D02*
X56614Y-35177D01*
X55866Y-39251D02*
X55866Y-35925D01*
X56318Y-45275D02*
X56318Y-42519D01*
X55826Y-40000D02*
X56220Y-39606D01*
X55826Y-42027D02*
X55826Y-40000D01*
X56318Y-42519D02*
X55826Y-42027D01*
X57185Y-49665D02*
X57185Y-47578D01*
X56318Y-46712D02*
X56318Y-45275D01*
X57185Y-47578D02*
X56318Y-46712D01*
G54D34*
X64311Y-49767D02*
X64311Y-48688D01*
X64311Y-48688D02*
X64905Y-48094D01*
X65905Y-49763D02*
X65905Y-48094D01*
X95740Y-47271D02*
X95740Y-47501D01*
X95740Y-47501D02*
X95740Y-47501D01*
X91909Y-49911D02*
X95167Y-49911D01*
X91614Y-50206D02*
X91909Y-49911D01*
X83956Y-50206D02*
X91614Y-50206D01*
X81748Y-51003D02*
X83159Y-51003D01*
X95740Y-49338D02*
X95740Y-47501D01*
X95167Y-49911D02*
X95740Y-49338D01*
X83159Y-51003D02*
X83956Y-50206D01*
X83070Y-52437D02*
X83070Y-52326D01*
X83070Y-52326D02*
X81748Y-51003D01*
X81748Y-51003D02*
X81090Y-51003D01*
X93740Y-47271D02*
X93740Y-47293D01*
X74503Y-49685D02*
X73185Y-51003D01*
X91072Y-49685D02*
X74503Y-49685D01*
X91397Y-49360D02*
X91072Y-49685D01*
X94852Y-49360D02*
X91397Y-49360D01*
X95049Y-49163D02*
X94852Y-49360D01*
X95049Y-48277D02*
X95049Y-49163D01*
X94704Y-47933D02*
X95049Y-48277D01*
X94379Y-47933D02*
X94704Y-47933D01*
X93740Y-47293D02*
X94379Y-47933D01*
X74606Y-52437D02*
X74606Y-52425D01*
X74606Y-52425D02*
X73185Y-51003D01*
X73185Y-51003D02*
X72527Y-51003D01*
X86157Y-51003D02*
X87490Y-51003D01*
X96740Y-49194D02*
X96740Y-47271D01*
X95748Y-50187D02*
X96740Y-49194D01*
X92047Y-50187D02*
X95748Y-50187D01*
X91771Y-50462D02*
X92047Y-50187D01*
X88031Y-50462D02*
X91771Y-50462D01*
X87490Y-51003D02*
X88031Y-50462D01*
X87303Y-52437D02*
X87303Y-52149D01*
X87303Y-52149D02*
X86157Y-51003D01*
X86157Y-51003D02*
X85500Y-51003D01*
X94740Y-47271D02*
X94870Y-47271D01*
X78568Y-49931D02*
X77496Y-51003D01*
X91397Y-49931D02*
X78568Y-49931D01*
X91673Y-49655D02*
X91397Y-49931D01*
X94980Y-49655D02*
X91673Y-49655D01*
X95413Y-49222D02*
X94980Y-49655D01*
X95413Y-47814D02*
X95413Y-49222D01*
X95403Y-47805D02*
X95413Y-47814D01*
X95403Y-47805D02*
X95403Y-47805D01*
X94870Y-47271D02*
X95403Y-47805D01*
X76838Y-51003D02*
X77496Y-51003D01*
X77496Y-51003D02*
X78838Y-52346D01*
X78838Y-52346D02*
X78838Y-52437D01*
X100740Y-47271D02*
X100740Y-48539D01*
X100740Y-48539D02*
X103204Y-51003D01*
X104330Y-52437D02*
X104330Y-52129D01*
X104330Y-52129D02*
X103204Y-51003D01*
X103204Y-51003D02*
X102547Y-51003D01*
X99740Y-47271D02*
X99740Y-50137D01*
X99740Y-50137D02*
X98874Y-51003D01*
X100098Y-52437D02*
X100098Y-52228D01*
X100098Y-52228D02*
X98874Y-51003D01*
X98874Y-51003D02*
X98216Y-51003D01*
X94464Y-51003D02*
X96013Y-51003D01*
X98740Y-47490D02*
X98740Y-47271D01*
X97952Y-48277D02*
X98740Y-47490D01*
X97952Y-49685D02*
X97952Y-48277D01*
X97332Y-50305D02*
X97952Y-49685D01*
X96712Y-50305D02*
X97332Y-50305D01*
X96013Y-51003D02*
X96712Y-50305D01*
X95866Y-52437D02*
X95866Y-52405D01*
X95866Y-52405D02*
X94464Y-51003D01*
X94464Y-51003D02*
X93807Y-51003D01*
X90251Y-51003D02*
X91653Y-51003D01*
X97637Y-47374D02*
X97740Y-47271D01*
X97637Y-49557D02*
X97637Y-47374D01*
X97224Y-49970D02*
X97637Y-49557D01*
X96466Y-49970D02*
X97224Y-49970D01*
X96003Y-50433D02*
X96466Y-49970D01*
X92224Y-50433D02*
X96003Y-50433D01*
X91653Y-51003D02*
X92224Y-50433D01*
X91535Y-52437D02*
X91535Y-52287D01*
X91535Y-52287D02*
X90251Y-51003D01*
X90251Y-51003D02*
X89594Y-51003D01*
G54D37*
X57234Y-54917D02*
X57259Y-54917D01*
X60566Y-56545D02*
X62194Y-54917D01*
X58887Y-56545D02*
X60566Y-56545D01*
X57259Y-54917D02*
X58887Y-56545D01*
G54D34*
X90535Y-61712D02*
X90535Y-60192D01*
X90535Y-60192D02*
X90551Y-60177D01*
X86318Y-56594D02*
X86318Y-55452D01*
X86318Y-55452D02*
X86303Y-55437D01*
X86303Y-61712D02*
X86303Y-60192D01*
X86303Y-60192D02*
X86318Y-60177D01*
X82086Y-56594D02*
X82086Y-55452D01*
X82086Y-55452D02*
X82070Y-55437D01*
X82070Y-61712D02*
X82070Y-60192D01*
X82070Y-60192D02*
X82086Y-60177D01*
X77854Y-56594D02*
X77854Y-55452D01*
X77854Y-55452D02*
X77838Y-55437D01*
X77838Y-61712D02*
X77838Y-60192D01*
X77838Y-60192D02*
X77854Y-60177D01*
X75591Y-51182D02*
X75591Y-52422D01*
X75591Y-52422D02*
X75606Y-52437D01*
X73622Y-56594D02*
X73622Y-55452D01*
X73622Y-55452D02*
X73606Y-55437D01*
X73606Y-61712D02*
X73606Y-60192D01*
X73606Y-60192D02*
X73622Y-60177D01*
X65905Y-45094D02*
X65905Y-45570D01*
X67460Y-47125D02*
X67460Y-49724D01*
X65905Y-45570D02*
X67460Y-47125D01*
X65905Y-45094D02*
X65905Y-44066D01*
X65905Y-44066D02*
X66196Y-43775D01*
X66196Y-43775D02*
X65614Y-43775D01*
X65614Y-43775D02*
X65905Y-44066D01*
X65905Y-44066D02*
X65905Y-44074D01*
X90551Y-56594D02*
X90551Y-55452D01*
X90551Y-55452D02*
X90535Y-55437D01*
X63031Y-31456D02*
X63031Y-32185D01*
X64350Y-33503D02*
X65287Y-33503D01*
X63031Y-32185D02*
X64350Y-33503D01*
G54D37*
X105330Y-61712D02*
X105374Y-61712D01*
G54D38*
X106151Y-65297D02*
X105413Y-66035D01*
X106151Y-62490D02*
X106151Y-65297D01*
G54D37*
X105374Y-61712D02*
X106151Y-62490D01*
G54D34*
X88908Y-37747D02*
X91999Y-37747D01*
X81746Y-34799D02*
X81746Y-34777D01*
X77637Y-33503D02*
X77062Y-33503D01*
X78405Y-34271D02*
X77637Y-33503D01*
X81240Y-34271D02*
X78405Y-34271D01*
X81746Y-34777D02*
X81240Y-34271D01*
X80996Y-36354D02*
X80996Y-36228D01*
X81746Y-35478D02*
X81746Y-34799D01*
X80996Y-36228D02*
X81746Y-35478D01*
X76405Y-33503D02*
X77062Y-33503D01*
X79823Y-51182D02*
X79823Y-52422D01*
X79823Y-52422D02*
X79838Y-52437D01*
X81996Y-36354D02*
X81996Y-35641D01*
X81496Y-33799D02*
X81246Y-33799D01*
X82224Y-34527D02*
X81496Y-33799D01*
X82224Y-35413D02*
X82224Y-34527D01*
X81996Y-35641D02*
X82224Y-35413D01*
X77062Y-30944D02*
X77224Y-30944D01*
X80261Y-32814D02*
X81246Y-33799D01*
X79094Y-32814D02*
X80261Y-32814D01*
X77224Y-30944D02*
X79094Y-32814D01*
X76405Y-30944D02*
X77062Y-30944D01*
G54D36*
X58287Y-45275D02*
X58287Y-42716D01*
X57204Y-41633D02*
X57204Y-40606D01*
X58287Y-42716D02*
X57204Y-41633D01*
X59940Y-49704D02*
X59940Y-48307D01*
X58287Y-46653D02*
X58287Y-45275D01*
X59940Y-48307D02*
X58287Y-46653D01*
G54D34*
X102559Y-60078D02*
X102559Y-60940D01*
X102559Y-60940D02*
X103330Y-61712D01*
G54D37*
X79838Y-61712D02*
X79842Y-61712D01*
G54D38*
X80629Y-65326D02*
X79921Y-66035D01*
X80629Y-62500D02*
X80629Y-65326D01*
G54D37*
X79842Y-61712D02*
X80629Y-62500D01*
X84070Y-61712D02*
X84070Y-61718D01*
G54D38*
X84960Y-65228D02*
X84153Y-66035D01*
X84960Y-62608D02*
X84960Y-65228D01*
G54D37*
X84070Y-61718D02*
X84960Y-62608D01*
X88303Y-61712D02*
X88303Y-61718D01*
G54D38*
X89114Y-65307D02*
X88385Y-66035D01*
X89114Y-62529D02*
X89114Y-65307D01*
G54D37*
X88303Y-61718D02*
X89114Y-62529D01*
X92535Y-61712D02*
X92535Y-61718D01*
G54D38*
X93543Y-65110D02*
X92618Y-66035D01*
X93543Y-62726D02*
X93543Y-65110D01*
G54D37*
X92535Y-61718D02*
X93543Y-62726D01*
X96866Y-61712D02*
X96899Y-61712D01*
G54D38*
X97834Y-65149D02*
X96948Y-66035D01*
X97834Y-62647D02*
X97834Y-65149D01*
G54D37*
X96899Y-61712D02*
X97834Y-62647D01*
X101098Y-61712D02*
X101141Y-61712D01*
G54D38*
X101958Y-65257D02*
X101181Y-66035D01*
X101958Y-62529D02*
X101958Y-65257D01*
G54D37*
X101141Y-61712D02*
X101958Y-62529D01*
X75606Y-61712D02*
X75606Y-61738D01*
G54D38*
X76368Y-65356D02*
X75688Y-66035D01*
X76368Y-62500D02*
X76368Y-65356D01*
G54D37*
X75606Y-61738D02*
X76368Y-62500D01*
G54D34*
X84056Y-51182D02*
X84056Y-52422D01*
X84056Y-52422D02*
X84070Y-52437D01*
X102559Y-56496D02*
X102559Y-56208D01*
X102559Y-56208D02*
X103330Y-55437D01*
X99114Y-56594D02*
X99114Y-55452D01*
X99114Y-55452D02*
X99098Y-55437D01*
X99098Y-61712D02*
X99098Y-60192D01*
X99098Y-60192D02*
X99114Y-60177D01*
X94881Y-56594D02*
X94881Y-55452D01*
X94881Y-55452D02*
X94866Y-55437D01*
X94866Y-61712D02*
X94866Y-60192D01*
X94866Y-60192D02*
X94881Y-60177D01*
G54D38*
X71322Y-66043D02*
X71322Y-64629D01*
X71322Y-64629D02*
X70570Y-63877D01*
X70570Y-63877D02*
X70570Y-62283D01*
X70570Y-62283D02*
X70570Y-59625D01*
G54D34*
X78897Y-40088D02*
X76840Y-40088D01*
X76840Y-40088D02*
X74360Y-37608D01*
X72173Y-37608D02*
X74360Y-37608D01*
X82748Y-42263D02*
X83740Y-41271D01*
X81072Y-42263D02*
X82748Y-42263D01*
X78897Y-40088D02*
X81072Y-42263D01*
X78922Y-39768D02*
X77002Y-39768D01*
X77002Y-39768D02*
X73001Y-35767D01*
X72173Y-35767D02*
X73001Y-35767D01*
X82033Y-41978D02*
X82740Y-41271D01*
X81131Y-41978D02*
X82033Y-41978D01*
X78922Y-39768D02*
X81131Y-41978D01*
X81740Y-41271D02*
X80769Y-41271D01*
X80769Y-41271D02*
X79753Y-40255D01*
X79030Y-39532D02*
X77788Y-39532D01*
X77788Y-39532D02*
X72173Y-33917D01*
X79030Y-39532D02*
X79753Y-40255D01*
X72173Y-32057D02*
X72173Y-32045D01*
X70777Y-30649D02*
X70620Y-30649D01*
X72173Y-32045D02*
X70777Y-30649D01*
X81740Y-47271D02*
X73551Y-47271D01*
X62421Y-30649D02*
X70620Y-30649D01*
X61535Y-31535D02*
X62421Y-30649D01*
X61535Y-35255D02*
X61535Y-31535D01*
X73551Y-47271D02*
X61535Y-35255D01*
X88288Y-51182D02*
X88288Y-52422D01*
X88288Y-52422D02*
X88303Y-52437D01*
X96181Y-31377D02*
X96988Y-31377D01*
X99887Y-32972D02*
X100694Y-33779D01*
X98582Y-32972D02*
X99887Y-32972D01*
X96988Y-31377D02*
X98582Y-32972D01*
X68311Y-31437D02*
X68311Y-32435D01*
X69793Y-33917D02*
X71173Y-33917D01*
X68311Y-32435D02*
X69793Y-33917D01*
X73637Y-44236D02*
X73645Y-44236D01*
X83393Y-45925D02*
X84740Y-47271D01*
X75334Y-45925D02*
X83393Y-45925D01*
X73645Y-44236D02*
X75334Y-45925D01*
X74637Y-44236D02*
X74637Y-44244D01*
X84177Y-45708D02*
X85740Y-47271D01*
X76102Y-45708D02*
X84177Y-45708D01*
X74637Y-44244D02*
X76102Y-45708D01*
X75637Y-44236D02*
X75653Y-44236D01*
X84960Y-45492D02*
X86740Y-47271D01*
X76909Y-45492D02*
X84960Y-45492D01*
X75653Y-44236D02*
X76909Y-45492D01*
X76637Y-44236D02*
X76637Y-44255D01*
X85724Y-45255D02*
X87740Y-47271D01*
X77637Y-45255D02*
X85724Y-45255D01*
X76637Y-44255D02*
X77637Y-45255D01*
X77637Y-44236D02*
X77637Y-44271D01*
X86488Y-45019D02*
X88740Y-47271D01*
X78385Y-45019D02*
X86488Y-45019D01*
X77637Y-44271D02*
X78385Y-45019D01*
X78637Y-44236D02*
X78637Y-44248D01*
X87271Y-44803D02*
X89740Y-47271D01*
X79192Y-44803D02*
X87271Y-44803D01*
X78637Y-44248D02*
X79192Y-44803D01*
X67311Y-31437D02*
X67311Y-31905D01*
X67311Y-31905D02*
X71173Y-35767D01*
X92520Y-51182D02*
X92520Y-52164D01*
X92519Y-52165D02*
X92535Y-52437D01*
X92520Y-52164D02*
X92519Y-52165D01*
X69311Y-31437D02*
X70553Y-31437D01*
X70553Y-31437D02*
X71173Y-32057D01*
X66311Y-31437D02*
X66427Y-31437D01*
X67618Y-34053D02*
X71173Y-37608D01*
X67618Y-32706D02*
X67618Y-34053D01*
X66402Y-31491D02*
X67618Y-32706D01*
X65311Y-31437D02*
X65374Y-31437D01*
X67283Y-35657D02*
X71173Y-39547D01*
X67283Y-32834D02*
X67283Y-35657D01*
X66850Y-32401D02*
X67283Y-32834D01*
X66338Y-32401D02*
X66850Y-32401D01*
X65374Y-31437D02*
X66338Y-32401D01*
X72173Y-39547D02*
X75895Y-39547D01*
X97740Y-42131D02*
X97740Y-41271D01*
X97273Y-42598D02*
X97740Y-42131D01*
X80994Y-42598D02*
X97273Y-42598D01*
X78779Y-40383D02*
X80994Y-42598D01*
X76732Y-40383D02*
X78779Y-40383D01*
X75895Y-39547D02*
X76732Y-40383D01*
X99464Y-39354D02*
X97574Y-39354D01*
X88421Y-40590D02*
X87740Y-41271D01*
X90000Y-40590D02*
X88421Y-40590D01*
X90236Y-40826D02*
X90000Y-40590D01*
X90236Y-41732D02*
X90236Y-40826D01*
X90590Y-42086D02*
X90236Y-41732D01*
X95807Y-42086D02*
X90590Y-42086D01*
X96240Y-41653D02*
X95807Y-42086D01*
X96240Y-40688D02*
X96240Y-41653D01*
X97574Y-39354D02*
X96240Y-40688D01*
X101464Y-36354D02*
X101464Y-36307D01*
X92271Y-32204D02*
X90952Y-30885D01*
X94291Y-32204D02*
X92271Y-32204D01*
X97519Y-35433D02*
X94291Y-32204D01*
X100590Y-35433D02*
X97519Y-35433D01*
X101464Y-36307D02*
X100590Y-35433D01*
X90952Y-30885D02*
X91610Y-30885D01*
X91610Y-30885D02*
X92102Y-31377D01*
X92102Y-31377D02*
X92598Y-31377D01*
X89980Y-31377D02*
X90460Y-31377D01*
X90460Y-31377D02*
X90952Y-30885D01*
X84740Y-41271D02*
X84740Y-41226D01*
X83996Y-39112D02*
X85647Y-37460D01*
X83996Y-40482D02*
X83996Y-39112D01*
X84740Y-41226D02*
X83996Y-40482D01*
X85647Y-37460D02*
X86305Y-37460D01*
X84740Y-41271D02*
X84740Y-41846D01*
X103543Y-33779D02*
X102694Y-33779D01*
X104872Y-35108D02*
X103543Y-33779D01*
X104872Y-39271D02*
X104872Y-35108D01*
X103868Y-40275D02*
X104872Y-39271D01*
X97854Y-40275D02*
X103868Y-40275D01*
X97234Y-40895D02*
X97854Y-40275D01*
X97234Y-41938D02*
X97234Y-40895D01*
X96830Y-42342D02*
X97234Y-41938D01*
X85236Y-42342D02*
X96830Y-42342D01*
X84740Y-41846D02*
X85236Y-42342D01*
X96141Y-32952D02*
X97933Y-32952D01*
X100706Y-34291D02*
X101194Y-34779D01*
X99271Y-34291D02*
X100706Y-34291D01*
X97933Y-32952D02*
X99271Y-34291D01*
X96851Y-51182D02*
X96851Y-52422D01*
X96851Y-52422D02*
X96866Y-52437D01*
X92740Y-41271D02*
X92740Y-41224D01*
X93905Y-37295D02*
X94511Y-37295D01*
X93464Y-37736D02*
X93905Y-37295D01*
X93464Y-40500D02*
X93464Y-37736D01*
X92740Y-41224D02*
X93464Y-40500D01*
X89465Y-35213D02*
X90514Y-35213D01*
X90933Y-34795D02*
X90933Y-33484D01*
X90514Y-35213D02*
X90933Y-34795D01*
X100464Y-36354D02*
X100464Y-36350D01*
X92732Y-34625D02*
X91590Y-33484D01*
X96161Y-34625D02*
X92732Y-34625D01*
X97381Y-35846D02*
X96161Y-34625D01*
X99960Y-35846D02*
X97381Y-35846D01*
X100464Y-36350D02*
X99960Y-35846D01*
X89940Y-32952D02*
X90401Y-32952D01*
X90401Y-32952D02*
X90933Y-33484D01*
X90933Y-33484D02*
X91590Y-33484D01*
X91590Y-33484D02*
X92122Y-32952D01*
X92122Y-32952D02*
X92559Y-32952D01*
X71637Y-44236D02*
X71637Y-44255D01*
X81866Y-46397D02*
X82740Y-47271D01*
X73779Y-46397D02*
X81866Y-46397D01*
X71637Y-44255D02*
X73779Y-46397D01*
X72637Y-44236D02*
X72637Y-44251D01*
X82629Y-46161D02*
X83740Y-47271D01*
X74547Y-46161D02*
X82629Y-46161D01*
X72637Y-44251D02*
X74547Y-46161D01*
X94740Y-41271D02*
X94740Y-40759D01*
X96937Y-37295D02*
X96480Y-37295D01*
X97263Y-37622D02*
X96937Y-37295D01*
X97263Y-38657D02*
X97263Y-37622D01*
X96925Y-38996D02*
X97263Y-38657D01*
X96503Y-38996D02*
X96925Y-38996D01*
X94740Y-40759D02*
X96503Y-38996D01*
X95740Y-41271D02*
X95732Y-41271D01*
X94110Y-39665D02*
X95496Y-38279D01*
X94110Y-40161D02*
X94110Y-39665D01*
X93241Y-41029D02*
X94110Y-40161D01*
X93241Y-41659D02*
X93241Y-41029D01*
X93448Y-41866D02*
X93241Y-41659D01*
X95137Y-41866D02*
X93448Y-41866D01*
X95732Y-41271D02*
X95137Y-41866D01*
X101083Y-51182D02*
X101083Y-52164D01*
X101082Y-52165D02*
X101098Y-52437D01*
X101083Y-52164D02*
X101082Y-52165D01*
G54D37*
X103494Y-59399D02*
X103494Y-57332D01*
X101098Y-55437D02*
X101098Y-58350D01*
X96866Y-55437D02*
X96866Y-58366D01*
X96948Y-58448D02*
X96948Y-58562D01*
X96866Y-58366D02*
X96948Y-58448D01*
X92535Y-55437D02*
X92535Y-58185D01*
X92535Y-58185D02*
X92716Y-58366D01*
X88303Y-55437D02*
X88303Y-57988D01*
X88303Y-57988D02*
X88681Y-58366D01*
X84070Y-55437D02*
X84070Y-58086D01*
X84070Y-58086D02*
X84350Y-58366D01*
X79838Y-55437D02*
X79838Y-58366D01*
X79838Y-58366D02*
X79921Y-58366D01*
X75606Y-55437D02*
X75606Y-58350D01*
G54D38*
X102444Y-58350D02*
X102476Y-58350D01*
G54D37*
X102476Y-58350D02*
X103494Y-57332D01*
X105330Y-55692D02*
X105330Y-55437D01*
X104527Y-56496D02*
X105330Y-55692D01*
X104330Y-56496D02*
X104527Y-56496D01*
X103494Y-57332D02*
X104330Y-56496D01*
G54D38*
X70570Y-55846D02*
X68533Y-55846D01*
X68533Y-55846D02*
X57234Y-67145D01*
X75606Y-58350D02*
X74901Y-58350D01*
X74901Y-58350D02*
X72917Y-58350D01*
G54D39*
X70570Y-56003D02*
X70570Y-55846D01*
G54D38*
X72917Y-58350D02*
X70570Y-56003D01*
X101098Y-58350D02*
X102444Y-58350D01*
G54D37*
X104330Y-60236D02*
X104330Y-61712D01*
X104133Y-60039D02*
X104330Y-60236D01*
X102444Y-58350D02*
X103494Y-59399D01*
X103494Y-59399D02*
X104133Y-60039D01*
X101098Y-58350D02*
X101082Y-58366D01*
X100098Y-61712D02*
X100098Y-60826D01*
X101082Y-59842D02*
X101082Y-58366D01*
X100098Y-60826D02*
X101082Y-59842D01*
X95866Y-61712D02*
X95866Y-61023D01*
X96948Y-59940D02*
X96948Y-58562D01*
X96948Y-58562D02*
X96948Y-58366D01*
X95866Y-61023D02*
X96948Y-59940D01*
X91535Y-61712D02*
X91535Y-61023D01*
X92716Y-59842D02*
X92716Y-58366D01*
X91535Y-61023D02*
X92716Y-59842D01*
X87303Y-61712D02*
X87303Y-60925D01*
X88681Y-59547D02*
X88681Y-58366D01*
X87303Y-60925D02*
X88681Y-59547D01*
X83070Y-61712D02*
X83070Y-60925D01*
X84350Y-59645D02*
X84350Y-58366D01*
X83070Y-60925D02*
X84350Y-59645D01*
X78838Y-61712D02*
X78838Y-61023D01*
X78838Y-61023D02*
X79921Y-59940D01*
X79921Y-59940D02*
X79921Y-58366D01*
X75606Y-58350D02*
X75590Y-58366D01*
X74606Y-61712D02*
X74606Y-60826D01*
X74606Y-60826D02*
X75590Y-59842D01*
X75590Y-59842D02*
X75590Y-58366D01*
G54D38*
X75590Y-58366D02*
X79035Y-58366D01*
X79035Y-58366D02*
X79921Y-58366D01*
X79921Y-58366D02*
X83366Y-58366D01*
X83366Y-58366D02*
X84350Y-58366D01*
X84350Y-58366D02*
X87696Y-58366D01*
X87696Y-58366D02*
X88681Y-58366D01*
X88681Y-58366D02*
X91732Y-58366D01*
X91732Y-58366D02*
X92716Y-58366D01*
X92716Y-58366D02*
X95866Y-58366D01*
X95866Y-58366D02*
X96948Y-58366D01*
X96948Y-58366D02*
X99803Y-58366D01*
X99803Y-58366D02*
X101082Y-58366D01*
X70570Y-55846D02*
X70570Y-53188D01*
G54D34*
X105316Y-51182D02*
X105316Y-52422D01*
X105316Y-52422D02*
X105330Y-52437D01*
M02*
