G04 (created by PCBNEW (2013-07-07 BZR 4022)-stable) date 8/1/2015 6:26:25 AM*
%MOIN*%
G04 Gerber Fmt 3.4, Leading zero omitted, Abs format*
%FSLAX34Y34*%
G01*
G70*
G90*
G04 APERTURE LIST*
%ADD10C,0.00590551*%
%ADD11C,0.0688976*%
%ADD12C,0.07*%
%ADD13R,0.07X0.07*%
%ADD14C,0.066*%
%ADD15R,0.055X0.055*%
%ADD16C,0.055*%
%ADD17C,0.129921*%
%ADD18C,0.0885827*%
%ADD19R,0.108268X0.108268*%
%ADD20C,0.108268*%
%ADD21R,0.0885827X0.0885827*%
%ADD22R,0.0787402X0.0787402*%
%ADD23C,0.0787402*%
%ADD24R,0.0728346X0.0728346*%
%ADD25C,0.0728346*%
%ADD26C,0.275591*%
%ADD27R,0.0629921X0.0629921*%
%ADD28C,0.0629921*%
%ADD29C,0.137795*%
%ADD30R,0.0591X0.0591*%
%ADD31C,0.0591*%
%ADD32C,0.0708661*%
G04 APERTURE END LIST*
G54D10*
G54D11*
X105316Y-51182D03*
X102782Y-48648D03*
X88288Y-51182D03*
X85755Y-48648D03*
X79823Y-51182D03*
X77290Y-48648D03*
X107037Y-34803D03*
X107037Y-38385D03*
G54D12*
X75606Y-61712D03*
X74606Y-61712D03*
G54D13*
X73606Y-61712D03*
G54D12*
X79838Y-61712D03*
X78838Y-61712D03*
G54D13*
X77838Y-61712D03*
G54D12*
X84070Y-61712D03*
X83070Y-61712D03*
G54D13*
X82070Y-61712D03*
G54D12*
X88303Y-61712D03*
X87303Y-61712D03*
G54D13*
X86303Y-61712D03*
G54D12*
X92535Y-61712D03*
X91535Y-61712D03*
G54D13*
X90535Y-61712D03*
G54D12*
X96866Y-61712D03*
X95866Y-61712D03*
G54D13*
X94866Y-61712D03*
G54D12*
X101098Y-61712D03*
X100098Y-61712D03*
G54D13*
X99098Y-61712D03*
G54D12*
X105330Y-61712D03*
X104330Y-61712D03*
G54D13*
X103330Y-61712D03*
G54D14*
X71173Y-32057D03*
X72173Y-32057D03*
X71173Y-39547D03*
X72173Y-39547D03*
X71173Y-37608D03*
X72173Y-37608D03*
X71173Y-35767D03*
X72173Y-35767D03*
X65287Y-33503D03*
X66287Y-33503D03*
X71173Y-33917D03*
X72173Y-33917D03*
G54D15*
X99464Y-39354D03*
G54D16*
X100464Y-39354D03*
X101464Y-39354D03*
X102464Y-39354D03*
X102464Y-36354D03*
X101464Y-36354D03*
X100464Y-36354D03*
X99464Y-36354D03*
G54D15*
X79996Y-39354D03*
G54D16*
X80996Y-39354D03*
X81996Y-39354D03*
X82996Y-39354D03*
X82996Y-36354D03*
X81996Y-36354D03*
X80996Y-36354D03*
X79996Y-36354D03*
G54D15*
X105330Y-52437D03*
G54D16*
X104330Y-52437D03*
X103330Y-52437D03*
X103330Y-55437D03*
X104330Y-55437D03*
X105330Y-55437D03*
G54D15*
X88303Y-52437D03*
G54D16*
X87303Y-52437D03*
X86303Y-52437D03*
X86303Y-55437D03*
X87303Y-55437D03*
X88303Y-55437D03*
G54D15*
X92535Y-52437D03*
G54D16*
X91535Y-52437D03*
X90535Y-52437D03*
X90535Y-55437D03*
X91535Y-55437D03*
X92535Y-55437D03*
G54D15*
X96866Y-52437D03*
G54D16*
X95866Y-52437D03*
X94866Y-52437D03*
X94866Y-55437D03*
X95866Y-55437D03*
X96866Y-55437D03*
G54D15*
X64905Y-48094D03*
G54D16*
X65905Y-48094D03*
X66905Y-48094D03*
X66905Y-45094D03*
X65905Y-45094D03*
X64905Y-45094D03*
G54D15*
X101098Y-52437D03*
G54D16*
X100098Y-52437D03*
X99098Y-52437D03*
X99098Y-55437D03*
X100098Y-55437D03*
X101098Y-55437D03*
G54D15*
X75606Y-52437D03*
G54D16*
X74606Y-52437D03*
X73606Y-52437D03*
X73606Y-55437D03*
X74606Y-55437D03*
X75606Y-55437D03*
G54D15*
X84070Y-52437D03*
G54D16*
X83070Y-52437D03*
X82070Y-52437D03*
X82070Y-55437D03*
X83070Y-55437D03*
X84070Y-55437D03*
G54D15*
X79838Y-52437D03*
G54D16*
X78838Y-52437D03*
X77838Y-52437D03*
X77838Y-55437D03*
X78838Y-55437D03*
X79838Y-55437D03*
G54D15*
X71637Y-44236D03*
G54D16*
X72637Y-44236D03*
X73637Y-44236D03*
X74637Y-44236D03*
X75637Y-44236D03*
X76637Y-44236D03*
X77637Y-44236D03*
X78637Y-44236D03*
X78637Y-41236D03*
X77637Y-41236D03*
X76637Y-41236D03*
X75637Y-41236D03*
X74637Y-41236D03*
X73637Y-41236D03*
X72637Y-41236D03*
X71637Y-41236D03*
G54D11*
X89980Y-31377D03*
X86397Y-31377D03*
X84056Y-51182D03*
X81522Y-48648D03*
X75591Y-51182D03*
X73058Y-48648D03*
X65905Y-53346D03*
X65905Y-49763D03*
X64311Y-53350D03*
X64311Y-49767D03*
X86358Y-32952D03*
X89940Y-32952D03*
X92559Y-32952D03*
X96141Y-32952D03*
X102559Y-60078D03*
X102559Y-56496D03*
X96181Y-31377D03*
X92598Y-31377D03*
X59448Y-31456D03*
X63031Y-31456D03*
X92520Y-51182D03*
X89987Y-48648D03*
X96851Y-51182D03*
X94318Y-48648D03*
X101083Y-51182D03*
X98550Y-48648D03*
X99114Y-60177D03*
X99114Y-56594D03*
X94881Y-60177D03*
X94881Y-56594D03*
X90551Y-60177D03*
X90551Y-56594D03*
X86318Y-60177D03*
X86318Y-56594D03*
X82086Y-60177D03*
X82086Y-56594D03*
X77854Y-60177D03*
X77854Y-56594D03*
X73622Y-60177D03*
X73622Y-56594D03*
X67460Y-49724D03*
X67460Y-53307D03*
G54D15*
X64311Y-31437D03*
G54D16*
X65311Y-31437D03*
X66311Y-31437D03*
X67311Y-31437D03*
X68311Y-31437D03*
X69311Y-31437D03*
G54D17*
X70570Y-62283D03*
X70570Y-59625D03*
X70570Y-55846D03*
X70570Y-53188D03*
G54D18*
X57234Y-67145D03*
X64714Y-67145D03*
X57234Y-54917D03*
X59675Y-54917D03*
X62194Y-54917D03*
X64714Y-54917D03*
G54D19*
X71322Y-66043D03*
G54D20*
X69429Y-66035D03*
G54D21*
X75688Y-66035D03*
G54D18*
X73716Y-66039D03*
G54D21*
X79921Y-66035D03*
G54D18*
X77948Y-66039D03*
G54D21*
X84153Y-66035D03*
G54D18*
X82181Y-66039D03*
G54D21*
X88385Y-66035D03*
G54D18*
X86413Y-66039D03*
G54D21*
X92618Y-66035D03*
G54D18*
X90645Y-66039D03*
G54D21*
X96948Y-66035D03*
G54D18*
X94976Y-66039D03*
G54D21*
X101181Y-66035D03*
G54D18*
X99208Y-66039D03*
G54D21*
X105413Y-66035D03*
G54D18*
X103440Y-66039D03*
G54D22*
X58287Y-45275D03*
G54D23*
X56318Y-45275D03*
G54D24*
X57649Y-35185D03*
G54D25*
X56614Y-35177D03*
G54D26*
X105984Y-58385D03*
X70275Y-49724D03*
X55039Y-32204D03*
X105984Y-32204D03*
G54D11*
X91999Y-37747D03*
X89465Y-35213D03*
X88908Y-37747D03*
X86375Y-35213D03*
G54D16*
X54488Y-37921D03*
X54488Y-38578D03*
X54488Y-41291D03*
X54488Y-40633D03*
X65539Y-43700D03*
X66196Y-43700D03*
X84692Y-39940D03*
X85350Y-39940D03*
X86622Y-39940D03*
X87279Y-39940D03*
X90952Y-30885D03*
X91610Y-30885D03*
X90933Y-33484D03*
X91590Y-33484D03*
X76405Y-30944D03*
X77062Y-30944D03*
X76405Y-33503D03*
X77062Y-33503D03*
X102547Y-51003D03*
X103204Y-51003D03*
G54D23*
X57185Y-49665D03*
X57185Y-53248D03*
X55314Y-53287D03*
X55314Y-49704D03*
X59940Y-53287D03*
X59940Y-49704D03*
X61712Y-49665D03*
X61712Y-53248D03*
G54D16*
X89185Y-39940D03*
X88527Y-39940D03*
X98216Y-51003D03*
X98874Y-51003D03*
X93807Y-51003D03*
X94464Y-51003D03*
X89594Y-51003D03*
X90251Y-51003D03*
X85500Y-51003D03*
X86157Y-51003D03*
X81090Y-51003D03*
X81748Y-51003D03*
X76838Y-51003D03*
X77496Y-51003D03*
X72527Y-51003D03*
X73185Y-51003D03*
X105641Y-47814D03*
X104984Y-47814D03*
X105661Y-40157D03*
X105003Y-40157D03*
G54D27*
X105570Y-37143D03*
G54D28*
X105570Y-36143D03*
G54D12*
X57204Y-39606D03*
X57204Y-38606D03*
G54D13*
X57204Y-40606D03*
G54D29*
X98696Y-31271D03*
X103196Y-31267D03*
G54D30*
X102694Y-33779D03*
G54D31*
X102194Y-34779D03*
X101694Y-33779D03*
X101194Y-34779D03*
X100694Y-33779D03*
X100194Y-34779D03*
X99694Y-33779D03*
X99194Y-34779D03*
G54D29*
X79248Y-31291D03*
X83748Y-31287D03*
G54D30*
X83246Y-33799D03*
G54D31*
X82746Y-34799D03*
X82246Y-33799D03*
X81746Y-34799D03*
X81246Y-33799D03*
X80746Y-34799D03*
X80246Y-33799D03*
X79746Y-34799D03*
G54D15*
X100740Y-41271D03*
G54D16*
X99740Y-41271D03*
X98740Y-41271D03*
X97740Y-41271D03*
X96740Y-41271D03*
X95740Y-41271D03*
X94740Y-41271D03*
X93740Y-41271D03*
X92740Y-41271D03*
X91740Y-41271D03*
X90740Y-41271D03*
X89740Y-41271D03*
X88740Y-41271D03*
X87740Y-41271D03*
X86740Y-41271D03*
X85740Y-41271D03*
X84740Y-41271D03*
X83740Y-41271D03*
X82740Y-41271D03*
X81740Y-41271D03*
X81740Y-47271D03*
X82740Y-47271D03*
X83740Y-47271D03*
X84740Y-47271D03*
X85740Y-47271D03*
X86740Y-47271D03*
X87740Y-47271D03*
X88740Y-47271D03*
X89740Y-47271D03*
X90740Y-47271D03*
X91740Y-47271D03*
X92740Y-47271D03*
X93740Y-47271D03*
X94740Y-47271D03*
X95740Y-47271D03*
X96740Y-47271D03*
X97740Y-47271D03*
X98740Y-47271D03*
X99740Y-47271D03*
X100740Y-47271D03*
G54D11*
X92637Y-39940D03*
X90748Y-39940D03*
X91230Y-48622D03*
X93120Y-48622D03*
X104133Y-38828D03*
X104133Y-36938D03*
X78307Y-36929D03*
X78307Y-38818D03*
G54D27*
X106594Y-45728D03*
G54D28*
X106594Y-42736D03*
X103602Y-45728D03*
X103602Y-42736D03*
G54D16*
X85647Y-37460D03*
X86305Y-37460D03*
G54D32*
X96480Y-37295D03*
X95496Y-37295D03*
X94511Y-37295D03*
X96480Y-38279D03*
X95496Y-38279D03*
X94511Y-38279D03*
M02*
