M48
INCH,TZ
T1C0.024
T2C0.030
T3C0.032
T4C0.033
T5C0.035
T6C0.039
T7C0.040
T8C0.043
T9C0.049
T10C0.067
T11C0.069
T12C0.134
T13C0.138
%
G90
G05
T1
X103602Y-42736
X103602Y-45728
X106594Y-42736
X106594Y-45728
T2
X59449Y-31457
X63031Y-31457
X64311Y-49768
X64311Y-53350
X65906Y-49764
X65906Y-53346
X67461Y-49724
X67461Y-53307
X73058Y-48649
X73622Y-56594
X73622Y-60177
X75592Y-51182
X77291Y-48649
X77854Y-56594
X77854Y-60177
X78307Y-36929
X78307Y-38819
X79824Y-51182
X81523Y-48649
X82087Y-56594
X82087Y-60177
X84056Y-51182
X85755Y-48649
X86319Y-56594
X86319Y-60177
X86358Y-32953
X86375Y-35214
X86398Y-31378
X88288Y-51182
X88909Y-37747
X89466Y-35214
X89941Y-32953
X89980Y-31378
X89987Y-48649
X90551Y-56594
X90551Y-60177
X90748Y-39941
X91230Y-48622
X91999Y-37747
X92521Y-51182
X92559Y-32953
X92598Y-31378
X92638Y-39941
X93120Y-48622
X94318Y-48649
X94882Y-56594
X94882Y-60177
X96142Y-32953
X96181Y-31378
X96851Y-51182
X98550Y-48649
X99114Y-56594
X99114Y-60177
X101084Y-51182
X102559Y-56496
X102559Y-60079
X102783Y-48649
X104134Y-36939
X104134Y-38829
X105316Y-51182
X107037Y-34803
X107037Y-38386
T3
X54488Y-37921
X54488Y-38579
X54488Y-40634
X54488Y-41291
X64311Y-31437
X64906Y-45094
X64906Y-48094
X65287Y-33504
X65311Y-31437
X65539Y-43701
X65906Y-45094
X65906Y-48094
X66197Y-43701
X66287Y-33504
X66311Y-31437
X66906Y-45094
X66906Y-48094
X67311Y-31437
X68311Y-31437
X69311Y-31437
X71173Y-32057
X71173Y-33917
X71173Y-35768
X71173Y-37608
X71173Y-39547
X71638Y-41236
X71638Y-44236
X72173Y-32057
X72173Y-33917
X72173Y-35768
X72173Y-37608
X72173Y-39547
X72528Y-51004
X72638Y-41236
X72638Y-44236
X73185Y-51004
X73606Y-52437
X73606Y-55437
X73638Y-41236
X73638Y-44236
X74606Y-52437
X74606Y-55437
X74638Y-41236
X74638Y-44236
X75606Y-52437
X75606Y-55437
X75638Y-41236
X75638Y-44236
X76406Y-30945
X76406Y-33504
X76638Y-41236
X76638Y-44236
X76839Y-51004
X77063Y-30945
X77063Y-33504
X77496Y-51004
X77638Y-41236
X77638Y-44236
X77839Y-52437
X77839Y-55437
X78638Y-41236
X78638Y-44236
X78839Y-52437
X78839Y-55437
X79839Y-52437
X79839Y-55437
X79996Y-36354
X79996Y-39354
X80996Y-36354
X80996Y-39354
X81091Y-51004
X81740Y-41272
X81740Y-47272
X81748Y-51004
X81996Y-36354
X81996Y-39354
X82071Y-52437
X82071Y-55437
X82740Y-41272
X82740Y-47272
X82996Y-36354
X82996Y-39354
X83071Y-52437
X83071Y-55437
X83740Y-41272
X83740Y-47272
X84071Y-52437
X84071Y-55437
X84693Y-39941
X84740Y-41272
X84740Y-47272
X85350Y-39941
X85500Y-51004
X85648Y-37461
X85740Y-41272
X85740Y-47272
X86157Y-51004
X86303Y-52437
X86303Y-55437
X86305Y-37461
X86622Y-39941
X86740Y-41272
X86740Y-47272
X87280Y-39941
X87303Y-52437
X87303Y-55437
X87740Y-41272
X87740Y-47272
X88303Y-52437
X88303Y-55437
X88528Y-39941
X88740Y-41272
X88740Y-47272
X89185Y-39941
X89594Y-51004
X89740Y-41272
X89740Y-47272
X90252Y-51004
X90535Y-52437
X90535Y-55437
X90740Y-41272
X90740Y-47272
X90933Y-33484
X90953Y-30886
X91535Y-52437
X91535Y-55437
X91591Y-33484
X91610Y-30886
X91740Y-41272
X91740Y-47272
X92535Y-52437
X92535Y-55437
X92740Y-41272
X92740Y-47272
X93740Y-41272
X93740Y-47272
X93807Y-51004
X94465Y-51004
X94740Y-41272
X94740Y-47272
X94866Y-52437
X94866Y-55437
X95740Y-41272
X95740Y-47272
X95866Y-52437
X95866Y-55437
X96740Y-41272
X96740Y-47272
X96866Y-52437
X96866Y-55437
X97740Y-41272
X97740Y-47272
X98217Y-51004
X98740Y-41272
X98740Y-47272
X98874Y-51004
X99098Y-52437
X99098Y-55437
X99465Y-36354
X99465Y-39354
X99740Y-41272
X99740Y-47272
X100098Y-52437
X100098Y-55437
X100465Y-36354
X100465Y-39354
X100740Y-41272
X100740Y-47272
X101098Y-52437
X101098Y-55437
X101465Y-36354
X101465Y-39354
X102465Y-36354
X102465Y-39354
X102547Y-51004
X103205Y-51004
X103331Y-52437
X103331Y-55437
X104331Y-52437
X104331Y-55437
X104984Y-47815
X105004Y-40157
X105331Y-52437
X105331Y-55437
X105642Y-47815
X105661Y-40157
T4
X56614Y-35177
X57650Y-35185
T5
X79746Y-34799
X80246Y-33799
X80746Y-34799
X81246Y-33799
X81746Y-34799
X82246Y-33799
X82746Y-34799
X83246Y-33799
X99195Y-34780
X99695Y-33780
X100195Y-34780
X100695Y-33780
X101195Y-34780
X101695Y-33780
X102195Y-34780
X102695Y-33780
T6
X55315Y-49705
X55315Y-53287
X56319Y-45276
X57185Y-49665
X57185Y-53248
X58287Y-45276
X59941Y-49705
X59941Y-53287
X61713Y-49665
X61713Y-53248
X105571Y-36144
X105571Y-37144
T7
X57205Y-38606
X57205Y-39606
X57205Y-40606
X73606Y-61713
X74606Y-61713
X75606Y-61713
X77839Y-61713
X78839Y-61713
X79839Y-61713
X82071Y-61713
X83071Y-61713
X84071Y-61713
X86303Y-61713
X87303Y-61713
X88303Y-61713
X90535Y-61713
X91535Y-61713
X92535Y-61713
X94866Y-61713
X95866Y-61713
X96866Y-61713
X99098Y-61713
X100098Y-61713
X101098Y-61713
X103331Y-61713
X104331Y-61713
X105331Y-61713
T8
X94512Y-37295
X94512Y-38280
X95496Y-37295
X95496Y-38280
X96480Y-37295
X96480Y-38280
T9
X57234Y-54917
X57234Y-67146
X59675Y-54917
X62195Y-54917
X64715Y-54917
X64715Y-67146
X73717Y-66039
X75689Y-66035
X77949Y-66039
X79921Y-66035
X82181Y-66039
X84154Y-66035
X86413Y-66039
X88386Y-66035
X90646Y-66039
X92618Y-66035
X94976Y-66039
X96949Y-66035
X99209Y-66039
X101181Y-66035
X103441Y-66039
X105413Y-66035
T10
X70571Y-53189
X70571Y-55846
X70571Y-59626
X70571Y-62283
T11
X69429Y-66035
X71323Y-66043
T12
X79248Y-31291
X83748Y-31287
X98697Y-31272
X103197Y-31268
T13
X55039Y-32205
X70276Y-49724
X105984Y-32205
X105984Y-58386
T0
M30
