G04 (created by PCBNEW (2013-07-07 BZR 4022)-stable) date 8/1/2015 6:26:25 AM*
%MOIN*%
G04 Gerber Fmt 3.4, Leading zero omitted, Abs format*
%FSLAX34Y34*%
G01*
G70*
G90*
G04 APERTURE LIST*
%ADD10C,0.00590551*%
%ADD11C,0.0688976*%
%ADD12C,0.07*%
%ADD13R,0.07X0.07*%
%ADD14C,0.066*%
%ADD15R,0.055X0.055*%
%ADD16C,0.055*%
%ADD17C,0.129921*%
%ADD18C,0.0885827*%
%ADD19R,0.108268X0.108268*%
%ADD20C,0.108268*%
%ADD21R,0.0885827X0.0885827*%
%ADD22R,0.0787402X0.0787402*%
%ADD23C,0.0787402*%
%ADD24R,0.0728346X0.0728346*%
%ADD25C,0.0728346*%
%ADD26C,0.275591*%
%ADD27R,0.0629921X0.0629921*%
%ADD28C,0.0629921*%
%ADD29C,0.137795*%
%ADD30R,0.0591X0.0591*%
%ADD31C,0.0591*%
%ADD32C,0.0708661*%
%ADD33C,0.01*%
%ADD34C,0.0295276*%
%ADD35C,0.019685*%
%ADD36C,0.0472441*%
%ADD37C,0.0787402*%
%ADD38C,0.15748*%
%ADD39C,0.137795*%
G04 APERTURE END LIST*
G54D10*
G54D11*
X105316Y-51182D03*
X102782Y-48648D03*
X88288Y-51182D03*
X85755Y-48648D03*
X79823Y-51182D03*
X77290Y-48648D03*
X107037Y-34803D03*
X107037Y-38385D03*
G54D12*
X75606Y-61712D03*
X74606Y-61712D03*
G54D13*
X73606Y-61712D03*
G54D12*
X79838Y-61712D03*
X78838Y-61712D03*
G54D13*
X77838Y-61712D03*
G54D12*
X84070Y-61712D03*
X83070Y-61712D03*
G54D13*
X82070Y-61712D03*
G54D12*
X88303Y-61712D03*
X87303Y-61712D03*
G54D13*
X86303Y-61712D03*
G54D12*
X92535Y-61712D03*
X91535Y-61712D03*
G54D13*
X90535Y-61712D03*
G54D12*
X96866Y-61712D03*
X95866Y-61712D03*
G54D13*
X94866Y-61712D03*
G54D12*
X101098Y-61712D03*
X100098Y-61712D03*
G54D13*
X99098Y-61712D03*
G54D12*
X105330Y-61712D03*
X104330Y-61712D03*
G54D13*
X103330Y-61712D03*
G54D14*
X71173Y-32057D03*
X72173Y-32057D03*
X71173Y-39547D03*
X72173Y-39547D03*
X71173Y-37608D03*
X72173Y-37608D03*
X71173Y-35767D03*
X72173Y-35767D03*
X65287Y-33503D03*
X66287Y-33503D03*
X71173Y-33917D03*
X72173Y-33917D03*
G54D15*
X99464Y-39354D03*
G54D16*
X100464Y-39354D03*
X101464Y-39354D03*
X102464Y-39354D03*
X102464Y-36354D03*
X101464Y-36354D03*
X100464Y-36354D03*
X99464Y-36354D03*
G54D15*
X79996Y-39354D03*
G54D16*
X80996Y-39354D03*
X81996Y-39354D03*
X82996Y-39354D03*
X82996Y-36354D03*
X81996Y-36354D03*
X80996Y-36354D03*
X79996Y-36354D03*
G54D15*
X105330Y-52437D03*
G54D16*
X104330Y-52437D03*
X103330Y-52437D03*
X103330Y-55437D03*
X104330Y-55437D03*
X105330Y-55437D03*
G54D15*
X88303Y-52437D03*
G54D16*
X87303Y-52437D03*
X86303Y-52437D03*
X86303Y-55437D03*
X87303Y-55437D03*
X88303Y-55437D03*
G54D15*
X92535Y-52437D03*
G54D16*
X91535Y-52437D03*
X90535Y-52437D03*
X90535Y-55437D03*
X91535Y-55437D03*
X92535Y-55437D03*
G54D15*
X96866Y-52437D03*
G54D16*
X95866Y-52437D03*
X94866Y-52437D03*
X94866Y-55437D03*
X95866Y-55437D03*
X96866Y-55437D03*
G54D15*
X64905Y-48094D03*
G54D16*
X65905Y-48094D03*
X66905Y-48094D03*
X66905Y-45094D03*
X65905Y-45094D03*
X64905Y-45094D03*
G54D15*
X101098Y-52437D03*
G54D16*
X100098Y-52437D03*
X99098Y-52437D03*
X99098Y-55437D03*
X100098Y-55437D03*
X101098Y-55437D03*
G54D15*
X75606Y-52437D03*
G54D16*
X74606Y-52437D03*
X73606Y-52437D03*
X73606Y-55437D03*
X74606Y-55437D03*
X75606Y-55437D03*
G54D15*
X84070Y-52437D03*
G54D16*
X83070Y-52437D03*
X82070Y-52437D03*
X82070Y-55437D03*
X83070Y-55437D03*
X84070Y-55437D03*
G54D15*
X79838Y-52437D03*
G54D16*
X78838Y-52437D03*
X77838Y-52437D03*
X77838Y-55437D03*
X78838Y-55437D03*
X79838Y-55437D03*
G54D15*
X71637Y-44236D03*
G54D16*
X72637Y-44236D03*
X73637Y-44236D03*
X74637Y-44236D03*
X75637Y-44236D03*
X76637Y-44236D03*
X77637Y-44236D03*
X78637Y-44236D03*
X78637Y-41236D03*
X77637Y-41236D03*
X76637Y-41236D03*
X75637Y-41236D03*
X74637Y-41236D03*
X73637Y-41236D03*
X72637Y-41236D03*
X71637Y-41236D03*
G54D11*
X89980Y-31377D03*
X86397Y-31377D03*
X84056Y-51182D03*
X81522Y-48648D03*
X75591Y-51182D03*
X73058Y-48648D03*
X65905Y-53346D03*
X65905Y-49763D03*
X64311Y-53350D03*
X64311Y-49767D03*
X86358Y-32952D03*
X89940Y-32952D03*
X92559Y-32952D03*
X96141Y-32952D03*
X102559Y-60078D03*
X102559Y-56496D03*
X96181Y-31377D03*
X92598Y-31377D03*
X59448Y-31456D03*
X63031Y-31456D03*
X92520Y-51182D03*
X89987Y-48648D03*
X96851Y-51182D03*
X94318Y-48648D03*
X101083Y-51182D03*
X98550Y-48648D03*
X99114Y-60177D03*
X99114Y-56594D03*
X94881Y-60177D03*
X94881Y-56594D03*
X90551Y-60177D03*
X90551Y-56594D03*
X86318Y-60177D03*
X86318Y-56594D03*
X82086Y-60177D03*
X82086Y-56594D03*
X77854Y-60177D03*
X77854Y-56594D03*
X73622Y-60177D03*
X73622Y-56594D03*
X67460Y-49724D03*
X67460Y-53307D03*
G54D15*
X64311Y-31437D03*
G54D16*
X65311Y-31437D03*
X66311Y-31437D03*
X67311Y-31437D03*
X68311Y-31437D03*
X69311Y-31437D03*
G54D17*
X70570Y-62283D03*
X70570Y-59625D03*
X70570Y-55846D03*
X70570Y-53188D03*
G54D18*
X57234Y-67145D03*
X64714Y-67145D03*
X57234Y-54917D03*
X59675Y-54917D03*
X62194Y-54917D03*
X64714Y-54917D03*
G54D19*
X71322Y-66043D03*
G54D20*
X69429Y-66035D03*
G54D21*
X75688Y-66035D03*
G54D18*
X73716Y-66039D03*
G54D21*
X79921Y-66035D03*
G54D18*
X77948Y-66039D03*
G54D21*
X84153Y-66035D03*
G54D18*
X82181Y-66039D03*
G54D21*
X88385Y-66035D03*
G54D18*
X86413Y-66039D03*
G54D21*
X92618Y-66035D03*
G54D18*
X90645Y-66039D03*
G54D21*
X96948Y-66035D03*
G54D18*
X94976Y-66039D03*
G54D21*
X101181Y-66035D03*
G54D18*
X99208Y-66039D03*
G54D21*
X105413Y-66035D03*
G54D18*
X103440Y-66039D03*
G54D22*
X58287Y-45275D03*
G54D23*
X56318Y-45275D03*
G54D24*
X57649Y-35185D03*
G54D25*
X56614Y-35177D03*
G54D26*
X105984Y-58385D03*
X70275Y-49724D03*
X55039Y-32204D03*
X105984Y-32204D03*
G54D11*
X91999Y-37747D03*
X89465Y-35213D03*
X88908Y-37747D03*
X86375Y-35213D03*
G54D16*
X54488Y-37921D03*
X54488Y-38578D03*
X54488Y-41291D03*
X54488Y-40633D03*
X65539Y-43700D03*
X66196Y-43700D03*
X84692Y-39940D03*
X85350Y-39940D03*
X86622Y-39940D03*
X87279Y-39940D03*
X90952Y-30885D03*
X91610Y-30885D03*
X90933Y-33484D03*
X91590Y-33484D03*
X76405Y-30944D03*
X77062Y-30944D03*
X76405Y-33503D03*
X77062Y-33503D03*
X102547Y-51003D03*
X103204Y-51003D03*
G54D23*
X57185Y-49665D03*
X57185Y-53248D03*
X55314Y-53287D03*
X55314Y-49704D03*
X59940Y-53287D03*
X59940Y-49704D03*
X61712Y-49665D03*
X61712Y-53248D03*
G54D16*
X89185Y-39940D03*
X88527Y-39940D03*
X98216Y-51003D03*
X98874Y-51003D03*
X93807Y-51003D03*
X94464Y-51003D03*
X89594Y-51003D03*
X90251Y-51003D03*
X85500Y-51003D03*
X86157Y-51003D03*
X81090Y-51003D03*
X81748Y-51003D03*
X76838Y-51003D03*
X77496Y-51003D03*
X72527Y-51003D03*
X73185Y-51003D03*
X105641Y-47814D03*
X104984Y-47814D03*
X105661Y-40157D03*
X105003Y-40157D03*
G54D27*
X105570Y-37143D03*
G54D28*
X105570Y-36143D03*
G54D12*
X57204Y-39606D03*
X57204Y-38606D03*
G54D13*
X57204Y-40606D03*
G54D29*
X98696Y-31271D03*
X103196Y-31267D03*
G54D30*
X102694Y-33779D03*
G54D31*
X102194Y-34779D03*
X101694Y-33779D03*
X101194Y-34779D03*
X100694Y-33779D03*
X100194Y-34779D03*
X99694Y-33779D03*
X99194Y-34779D03*
G54D29*
X79248Y-31291D03*
X83748Y-31287D03*
G54D30*
X83246Y-33799D03*
G54D31*
X82746Y-34799D03*
X82246Y-33799D03*
X81746Y-34799D03*
X81246Y-33799D03*
X80746Y-34799D03*
X80246Y-33799D03*
X79746Y-34799D03*
G54D15*
X100740Y-41271D03*
G54D16*
X99740Y-41271D03*
X98740Y-41271D03*
X97740Y-41271D03*
X96740Y-41271D03*
X95740Y-41271D03*
X94740Y-41271D03*
X93740Y-41271D03*
X92740Y-41271D03*
X91740Y-41271D03*
X90740Y-41271D03*
X89740Y-41271D03*
X88740Y-41271D03*
X87740Y-41271D03*
X86740Y-41271D03*
X85740Y-41271D03*
X84740Y-41271D03*
X83740Y-41271D03*
X82740Y-41271D03*
X81740Y-41271D03*
X81740Y-47271D03*
X82740Y-47271D03*
X83740Y-47271D03*
X84740Y-47271D03*
X85740Y-47271D03*
X86740Y-47271D03*
X87740Y-47271D03*
X88740Y-47271D03*
X89740Y-47271D03*
X90740Y-47271D03*
X91740Y-47271D03*
X92740Y-47271D03*
X93740Y-47271D03*
X94740Y-47271D03*
X95740Y-47271D03*
X96740Y-47271D03*
X97740Y-47271D03*
X98740Y-47271D03*
X99740Y-47271D03*
X100740Y-47271D03*
G54D11*
X92637Y-39940D03*
X90748Y-39940D03*
X91230Y-48622D03*
X93120Y-48622D03*
X104133Y-38828D03*
X104133Y-36938D03*
X78307Y-36929D03*
X78307Y-38818D03*
G54D27*
X106594Y-45728D03*
G54D28*
X106594Y-42736D03*
X103602Y-45728D03*
X103602Y-42736D03*
G54D16*
X85647Y-37460D03*
X86305Y-37460D03*
G54D32*
X96480Y-37295D03*
X95496Y-37295D03*
X94511Y-37295D03*
X96480Y-38279D03*
X95496Y-38279D03*
X94511Y-38279D03*
G54D33*
X92637Y-39940D02*
X94818Y-39940D01*
X94818Y-39940D02*
X96480Y-38279D01*
G54D34*
X78307Y-36929D02*
X78316Y-36929D01*
X78891Y-36354D02*
X79996Y-36354D01*
X78316Y-36929D02*
X78891Y-36354D01*
X57204Y-38606D02*
X74809Y-38606D01*
X76486Y-36929D02*
X78307Y-36929D01*
X74809Y-38606D02*
X76486Y-36929D01*
G54D35*
X91230Y-48622D02*
X91240Y-48622D01*
X93655Y-49311D02*
X94318Y-48648D01*
X91929Y-49311D02*
X93655Y-49311D01*
X91240Y-48622D02*
X91929Y-49311D01*
X89987Y-48648D02*
X91203Y-48648D01*
X91203Y-48648D02*
X91230Y-48622D01*
G54D33*
X91230Y-48622D02*
X91938Y-48622D01*
X91938Y-48622D02*
X92740Y-47820D01*
X92740Y-47820D02*
X92740Y-47271D01*
X90740Y-47271D02*
X90740Y-48131D01*
X90740Y-48131D02*
X91230Y-48622D01*
X59448Y-31456D02*
X60866Y-31456D01*
X63661Y-30787D02*
X64311Y-31437D01*
X61535Y-30787D02*
X63661Y-30787D01*
X60866Y-31456D02*
X61535Y-30787D01*
G54D35*
X77290Y-48648D02*
X81522Y-48648D01*
X81522Y-48648D02*
X85755Y-48648D01*
X85755Y-48648D02*
X89987Y-48648D01*
X94318Y-48648D02*
X98550Y-48648D01*
X98550Y-48648D02*
X102782Y-48648D01*
X73058Y-48648D02*
X77290Y-48648D01*
G54D36*
X57204Y-38606D02*
X57188Y-38606D01*
X57188Y-38606D02*
X56503Y-37921D01*
X56503Y-37921D02*
X54488Y-37921D01*
X54488Y-37921D02*
X54488Y-38578D01*
G54D33*
X90748Y-39940D02*
X91279Y-39940D01*
X91279Y-39940D02*
X92913Y-38307D01*
X92913Y-38307D02*
X94468Y-38307D01*
G54D36*
X82996Y-36354D02*
X82996Y-36610D01*
X78307Y-38267D02*
X78307Y-38818D01*
X79084Y-37490D02*
X78307Y-38267D01*
X82116Y-37490D02*
X79084Y-37490D01*
X82996Y-36610D02*
X82116Y-37490D01*
X78307Y-38818D02*
X79015Y-38818D01*
X79015Y-38818D02*
X79370Y-38464D01*
X79370Y-38464D02*
X83218Y-38464D01*
X83218Y-38464D02*
X83759Y-37923D01*
X83759Y-37923D02*
X83759Y-37106D01*
X89320Y-36633D02*
X89734Y-36633D01*
X90748Y-37647D02*
X90748Y-39940D01*
X89734Y-36633D02*
X90748Y-37647D01*
X90748Y-39940D02*
X90740Y-39948D01*
X90740Y-39948D02*
X90740Y-41271D01*
X78637Y-41236D02*
X78637Y-40379D01*
X78637Y-40379D02*
X78307Y-40049D01*
X78307Y-40049D02*
X78307Y-38818D01*
X102464Y-36354D02*
X103549Y-36354D01*
X103549Y-36354D02*
X104133Y-36938D01*
X102185Y-37972D02*
X103100Y-37972D01*
X103100Y-37972D02*
X104133Y-36938D01*
G54D33*
X86375Y-35213D02*
X86375Y-35947D01*
X86375Y-35947D02*
X85688Y-36633D01*
G54D36*
X76712Y-42755D02*
X78031Y-42755D01*
X78637Y-42149D02*
X78637Y-41236D01*
X78031Y-42755D02*
X78637Y-42149D01*
X90019Y-36633D02*
X89320Y-36633D01*
X89320Y-36633D02*
X85688Y-36633D01*
X85688Y-36633D02*
X84232Y-36633D01*
X84232Y-36633D02*
X83759Y-37106D01*
X98198Y-37214D02*
X98198Y-39852D01*
X104846Y-40314D02*
X105003Y-40157D01*
X98661Y-40314D02*
X104846Y-40314D01*
X98198Y-39852D02*
X98661Y-40314D01*
G54D33*
X100194Y-34779D02*
X100194Y-34942D01*
X99566Y-35570D02*
X96555Y-35570D01*
X100194Y-34942D02*
X99566Y-35570D01*
G54D36*
X98956Y-37972D02*
X101220Y-37972D01*
X96082Y-35098D02*
X96555Y-35570D01*
X96555Y-35570D02*
X98198Y-37214D01*
X98198Y-37214D02*
X98956Y-37972D01*
X92874Y-35098D02*
X93740Y-35098D01*
X93740Y-35098D02*
X94950Y-35098D01*
X91338Y-36633D02*
X92874Y-35098D01*
X90019Y-36633D02*
X91338Y-36633D01*
X94950Y-35098D02*
X96082Y-35098D01*
G54D33*
X80746Y-34799D02*
X80746Y-34998D01*
X83759Y-35984D02*
X83759Y-37106D01*
X83385Y-35610D02*
X83759Y-35984D01*
X81358Y-35610D02*
X83385Y-35610D01*
X80746Y-34998D02*
X81358Y-35610D01*
X101464Y-39354D02*
X101464Y-38692D01*
X101464Y-38692D02*
X102185Y-37972D01*
X100464Y-39354D02*
X100464Y-38728D01*
X100464Y-38728D02*
X101220Y-37972D01*
X66905Y-45094D02*
X66905Y-42858D01*
X66905Y-42858D02*
X68297Y-41466D01*
X77637Y-41236D02*
X77637Y-41830D01*
X77637Y-41830D02*
X76712Y-42755D01*
X76637Y-41236D02*
X76637Y-41866D01*
X76637Y-41866D02*
X75748Y-42755D01*
X75637Y-41236D02*
X75637Y-41803D01*
X75637Y-41803D02*
X74685Y-42755D01*
X74637Y-41236D02*
X74637Y-41799D01*
X74637Y-41799D02*
X73681Y-42755D01*
X73637Y-41236D02*
X73637Y-41874D01*
X73637Y-41874D02*
X72755Y-42755D01*
X72637Y-41236D02*
X72637Y-41811D01*
X72637Y-41811D02*
X71692Y-42755D01*
X71637Y-41236D02*
X71637Y-42023D01*
X71637Y-42023D02*
X70905Y-42755D01*
G54D36*
X105003Y-40157D02*
X105661Y-40157D01*
X57204Y-39606D02*
X66259Y-39606D01*
X66259Y-39606D02*
X66437Y-39606D01*
X66437Y-39606D02*
X68297Y-41466D01*
X68297Y-41466D02*
X69586Y-42755D01*
X69586Y-42755D02*
X70905Y-42755D01*
X101220Y-37972D02*
X101791Y-37972D01*
X101791Y-37972D02*
X102185Y-37972D01*
X71692Y-42755D02*
X72755Y-42755D01*
X72755Y-42755D02*
X73681Y-42755D01*
X73681Y-42755D02*
X74685Y-42755D01*
X74685Y-42755D02*
X75748Y-42755D01*
X75748Y-42755D02*
X76712Y-42755D01*
X70905Y-42755D02*
X71692Y-42755D01*
X57185Y-49665D02*
X58385Y-50866D01*
X61692Y-49665D02*
X61712Y-49665D01*
X60492Y-50866D02*
X61692Y-49665D01*
X58385Y-50866D02*
X60492Y-50866D01*
X57204Y-39606D02*
X55515Y-39606D01*
X55515Y-39606D02*
X54488Y-40633D01*
X54488Y-40633D02*
X54488Y-41291D01*
X64714Y-54917D02*
X65279Y-54917D01*
X65905Y-54291D02*
X65905Y-53346D01*
X65279Y-54917D02*
X65905Y-54291D01*
X59940Y-53287D02*
X59094Y-53287D01*
X59094Y-53287D02*
X58569Y-53812D01*
X57185Y-53248D02*
X58005Y-53248D01*
X58005Y-53248D02*
X58569Y-53812D01*
X58569Y-53812D02*
X59675Y-54917D01*
G54D37*
X59675Y-54917D02*
X59730Y-54917D01*
X59730Y-54917D02*
X61210Y-56397D01*
X61210Y-56397D02*
X63234Y-56397D01*
X63234Y-56397D02*
X64714Y-54917D01*
G54D36*
X55314Y-53287D02*
X55314Y-54311D01*
X55921Y-54917D02*
X57234Y-54917D01*
X55314Y-54311D02*
X55921Y-54917D01*
X62194Y-54917D02*
X62779Y-54917D01*
X63677Y-53350D02*
X64311Y-53350D01*
X63326Y-53700D02*
X63677Y-53350D01*
X63326Y-54370D02*
X63326Y-53700D01*
X62779Y-54917D02*
X63326Y-54370D01*
X61712Y-53248D02*
X61476Y-53248D01*
X61472Y-54917D02*
X62194Y-54917D01*
X61102Y-54547D02*
X61472Y-54917D01*
X61102Y-53622D02*
X61102Y-54547D01*
X61476Y-53248D02*
X61102Y-53622D01*
G54D33*
X65905Y-45094D02*
X65905Y-46062D01*
X80122Y-46889D02*
X85740Y-41271D01*
X66732Y-46889D02*
X80122Y-46889D01*
X65905Y-46062D02*
X66732Y-46889D01*
X105570Y-37143D02*
X105570Y-37903D01*
X106053Y-38385D02*
X107037Y-38385D01*
X105570Y-37903D02*
X106053Y-38385D01*
G54D38*
X64714Y-67145D02*
X68318Y-67145D01*
X68318Y-67145D02*
X69429Y-66035D01*
X69429Y-66035D02*
X69429Y-65019D01*
X69429Y-65019D02*
X70364Y-64084D01*
X70364Y-64084D02*
X73716Y-64084D01*
X103440Y-66039D02*
X103440Y-64937D01*
X102588Y-64084D02*
X101643Y-64084D01*
X103440Y-64937D02*
X102588Y-64084D01*
X98887Y-64084D02*
X101643Y-64084D01*
G54D39*
X101643Y-64084D02*
X101673Y-64114D01*
G54D38*
X99208Y-66039D02*
X99208Y-64405D01*
G54D37*
X99208Y-64405D02*
X98887Y-64084D01*
G54D38*
X94976Y-66039D02*
X94976Y-64375D01*
G54D37*
X94976Y-64375D02*
X94685Y-64084D01*
G54D38*
X90645Y-66039D02*
X90645Y-64265D01*
G54D37*
X90645Y-64265D02*
X90826Y-64084D01*
G54D38*
X86413Y-66039D02*
X86413Y-64147D01*
G54D37*
X86413Y-64147D02*
X86476Y-64084D01*
G54D38*
X82181Y-66039D02*
X82181Y-64238D01*
G54D37*
X82145Y-64183D02*
X82145Y-64084D01*
X82047Y-64084D02*
X82145Y-64183D01*
X82027Y-64084D02*
X82047Y-64084D01*
X82181Y-64238D02*
X82027Y-64084D01*
G54D38*
X77948Y-66039D02*
X77948Y-64307D01*
X77948Y-64307D02*
X77726Y-64084D01*
X73716Y-66039D02*
X73716Y-64084D01*
X73716Y-64084D02*
X73622Y-64084D01*
X73622Y-64084D02*
X77726Y-64084D01*
X77726Y-64084D02*
X82145Y-64084D01*
X82145Y-64084D02*
X86476Y-64084D01*
X86476Y-64084D02*
X90826Y-64084D01*
X90826Y-64084D02*
X94685Y-64084D01*
X94685Y-64084D02*
X98887Y-64084D01*
G54D36*
X55314Y-49704D02*
X56397Y-48622D01*
X58858Y-48622D02*
X59940Y-49704D01*
X56397Y-48622D02*
X58858Y-48622D01*
G54D33*
X103602Y-42736D02*
X90204Y-42736D01*
X90204Y-42736D02*
X88740Y-41271D01*
X88740Y-41271D02*
X88740Y-40153D01*
X88740Y-40153D02*
X88527Y-39940D01*
X88527Y-39940D02*
X89185Y-39940D01*
X89185Y-39940D02*
X88968Y-40157D01*
X88968Y-40157D02*
X88740Y-40157D01*
X100694Y-33779D02*
X100826Y-33779D01*
X106525Y-34291D02*
X107037Y-34803D01*
X101338Y-34291D02*
X106525Y-34291D01*
X100826Y-33779D02*
X101338Y-34291D01*
X82996Y-39354D02*
X84374Y-39354D01*
X84692Y-39673D02*
X84692Y-39940D01*
X84374Y-39354D02*
X84692Y-39673D01*
X84692Y-39940D02*
X85350Y-39940D01*
X85350Y-39940D02*
X86059Y-40649D01*
X86059Y-40649D02*
X86118Y-40649D01*
X86118Y-40649D02*
X86740Y-41271D01*
X86622Y-39940D02*
X87279Y-39940D01*
X87279Y-39940D02*
X87740Y-40401D01*
X87740Y-40401D02*
X87740Y-41271D01*
X101194Y-34779D02*
X101194Y-34807D01*
X105037Y-35610D02*
X105570Y-36143D01*
X101998Y-35610D02*
X105037Y-35610D01*
X101194Y-34807D02*
X101998Y-35610D01*
X93740Y-41271D02*
X93740Y-41251D01*
X95496Y-36811D02*
X95496Y-37295D01*
X95728Y-36578D02*
X95496Y-36811D01*
X96736Y-36578D02*
X95728Y-36578D01*
X97578Y-37421D02*
X96736Y-36578D01*
X97578Y-38622D02*
X97578Y-37421D01*
X95811Y-40389D02*
X97578Y-38622D01*
X94602Y-40389D02*
X95811Y-40389D01*
X93740Y-41251D02*
X94602Y-40389D01*
X82246Y-33799D02*
X82246Y-33718D01*
X100887Y-32972D02*
X101694Y-33779D01*
X98267Y-32972D02*
X100887Y-32972D01*
X97460Y-32165D02*
X98267Y-32972D01*
X85196Y-32165D02*
X97460Y-32165D01*
X84429Y-32933D02*
X85196Y-32165D01*
X83031Y-32933D02*
X84429Y-32933D01*
X82246Y-33718D02*
X83031Y-32933D01*
X80246Y-33799D02*
X80246Y-33986D01*
X98746Y-34330D02*
X99194Y-34779D01*
X80590Y-34330D02*
X98746Y-34330D01*
X80246Y-33986D02*
X80590Y-34330D01*
X79746Y-34799D02*
X79746Y-34299D01*
X79746Y-34299D02*
X80246Y-33799D01*
X99194Y-34779D02*
X99194Y-34279D01*
X99194Y-34279D02*
X99694Y-33779D01*
M02*
