G04 (created by PCBNEW (2013-07-07 BZR 4022)-stable) date 8/1/2015 6:26:25 AM*
%MOIN*%
G04 Gerber Fmt 3.4, Leading zero omitted, Abs format*
%FSLAX34Y34*%
G01*
G70*
G90*
G04 APERTURE LIST*
%ADD10C,0.00590551*%
%ADD11C,0.00492126*%
%ADD12C,0.00787402*%
%ADD13C,0.00984252*%
%ADD14C,0.011811*%
%ADD15C,0.00738189*%
%ADD16C,0.015*%
%ADD17C,0.01*%
%ADD18C,0.006*%
%ADD19C,0.012*%
%ADD20C,0.00393701*%
%ADD21C,0.0001*%
%ADD22C,0.005*%
%ADD23C,0.008*%
%ADD24C,0.01125*%
G04 APERTURE END LIST*
G54D10*
G54D11*
X63813Y-33934D02*
X63860Y-34065D01*
X63907Y-33934D01*
X64085Y-34065D02*
X63972Y-34065D01*
X64028Y-34065D02*
X64028Y-33869D01*
X64010Y-33897D01*
X63991Y-33915D01*
X63972Y-33925D01*
X64169Y-34047D02*
X64178Y-34056D01*
X64169Y-34065D01*
X64160Y-34056D01*
X64169Y-34047D01*
X64169Y-34065D01*
X64366Y-34065D02*
X64253Y-34065D01*
X64310Y-34065D02*
X64310Y-33869D01*
X64291Y-33897D01*
X64272Y-33915D01*
X64253Y-33925D01*
G54D12*
X59596Y-32431D02*
X59744Y-32431D01*
G54D13*
X85221Y-38082D02*
X85446Y-38082D01*
X85333Y-38476D02*
X85333Y-38082D01*
X85539Y-38082D02*
X85802Y-38476D01*
X85802Y-38082D02*
X85539Y-38476D01*
X85952Y-38476D02*
X85952Y-38082D01*
X86046Y-38082D01*
X86102Y-38101D01*
X86139Y-38138D01*
X86158Y-38176D01*
X86177Y-38251D01*
X86177Y-38307D01*
X86158Y-38382D01*
X86139Y-38420D01*
X86102Y-38457D01*
X86046Y-38476D01*
X85952Y-38476D01*
X86552Y-38476D02*
X86327Y-38476D01*
X86439Y-38476D02*
X86439Y-38082D01*
X86402Y-38138D01*
X86364Y-38176D01*
X86327Y-38195D01*
X67358Y-33673D02*
X67358Y-33279D01*
X67508Y-33279D01*
X67546Y-33298D01*
X67565Y-33316D01*
X67583Y-33354D01*
X67583Y-33410D01*
X67565Y-33448D01*
X67546Y-33466D01*
X67508Y-33485D01*
X67358Y-33485D01*
X67715Y-33279D02*
X67808Y-33673D01*
X67883Y-33391D01*
X67958Y-33673D01*
X68052Y-33279D01*
X68427Y-33673D02*
X68296Y-33485D01*
X68202Y-33673D02*
X68202Y-33279D01*
X68352Y-33279D01*
X68390Y-33298D01*
X68408Y-33316D01*
X68427Y-33354D01*
X68427Y-33410D01*
X68408Y-33448D01*
X68390Y-33466D01*
X68352Y-33485D01*
X68202Y-33485D01*
G54D14*
X94945Y-40052D02*
X94945Y-39461D01*
X95198Y-40023D02*
X95282Y-40052D01*
X95423Y-40052D01*
X95479Y-40023D01*
X95507Y-39995D01*
X95535Y-39939D01*
X95535Y-39883D01*
X95507Y-39827D01*
X95479Y-39798D01*
X95423Y-39770D01*
X95310Y-39742D01*
X95254Y-39714D01*
X95226Y-39686D01*
X95198Y-39630D01*
X95198Y-39573D01*
X95226Y-39517D01*
X95254Y-39489D01*
X95310Y-39461D01*
X95451Y-39461D01*
X95535Y-39489D01*
X95788Y-40052D02*
X95788Y-39461D01*
X96013Y-39461D01*
X96070Y-39489D01*
X96098Y-39517D01*
X96126Y-39573D01*
X96126Y-39658D01*
X96098Y-39714D01*
X96070Y-39742D01*
X96013Y-39770D01*
X95788Y-39770D01*
G54D13*
X77517Y-46230D02*
X77649Y-46097D01*
X77570Y-46336D02*
X77384Y-45965D01*
X77755Y-46150D01*
X77848Y-46057D02*
X77570Y-45779D01*
X77636Y-45713D01*
X77689Y-45686D01*
X77742Y-45686D01*
X77782Y-45700D01*
X77848Y-45739D01*
X77888Y-45779D01*
X77928Y-45845D01*
X77941Y-45885D01*
X77941Y-45938D01*
X77914Y-45991D01*
X77848Y-46057D01*
X78126Y-45779D02*
X77848Y-45501D01*
X77914Y-45434D01*
X77967Y-45408D01*
X78020Y-45408D01*
X78060Y-45421D01*
X78126Y-45461D01*
X78166Y-45501D01*
X78206Y-45567D01*
X78219Y-45607D01*
X78219Y-45660D01*
X78193Y-45713D01*
X78126Y-45779D01*
X78564Y-45342D02*
X78339Y-45302D01*
X78405Y-45501D02*
X78126Y-45222D01*
X78232Y-45116D01*
X78272Y-45103D01*
X78299Y-45103D01*
X78339Y-45116D01*
X78378Y-45156D01*
X78392Y-45196D01*
X78392Y-45222D01*
X78378Y-45262D01*
X78272Y-45368D01*
X78829Y-45076D02*
X78670Y-45236D01*
X78749Y-45156D02*
X78471Y-44878D01*
X78484Y-44944D01*
X78484Y-44997D01*
X78471Y-45037D01*
X76503Y-46190D02*
X76635Y-46058D01*
X76556Y-46296D02*
X76370Y-45925D01*
X76741Y-46111D01*
X76834Y-46018D02*
X76556Y-45740D01*
X76622Y-45673D01*
X76675Y-45647D01*
X76728Y-45647D01*
X76768Y-45660D01*
X76834Y-45700D01*
X76874Y-45740D01*
X76914Y-45806D01*
X76927Y-45846D01*
X76927Y-45899D01*
X76901Y-45952D01*
X76834Y-46018D01*
X77113Y-45740D02*
X76834Y-45461D01*
X76901Y-45395D01*
X76954Y-45369D01*
X77007Y-45369D01*
X77046Y-45382D01*
X77113Y-45422D01*
X77152Y-45461D01*
X77192Y-45528D01*
X77205Y-45567D01*
X77205Y-45620D01*
X77179Y-45673D01*
X77113Y-45740D01*
X77550Y-45302D02*
X77325Y-45262D01*
X77391Y-45461D02*
X77113Y-45183D01*
X77219Y-45077D01*
X77258Y-45064D01*
X77285Y-45064D01*
X77325Y-45077D01*
X77365Y-45117D01*
X77378Y-45156D01*
X77378Y-45183D01*
X77365Y-45223D01*
X77258Y-45329D01*
X77404Y-44944D02*
X77404Y-44918D01*
X77418Y-44878D01*
X77484Y-44812D01*
X77524Y-44798D01*
X77550Y-44798D01*
X77590Y-44812D01*
X77616Y-44838D01*
X77643Y-44891D01*
X77643Y-45209D01*
X77815Y-45037D01*
X75450Y-46230D02*
X75582Y-46097D01*
X75503Y-46336D02*
X75317Y-45965D01*
X75688Y-46150D01*
X75781Y-46057D02*
X75503Y-45779D01*
X75569Y-45713D01*
X75622Y-45686D01*
X75675Y-45686D01*
X75715Y-45700D01*
X75781Y-45739D01*
X75821Y-45779D01*
X75861Y-45845D01*
X75874Y-45885D01*
X75874Y-45938D01*
X75847Y-45991D01*
X75781Y-46057D01*
X76059Y-45779D02*
X75781Y-45501D01*
X75847Y-45434D01*
X75900Y-45408D01*
X75953Y-45408D01*
X75993Y-45421D01*
X76059Y-45461D01*
X76099Y-45501D01*
X76139Y-45567D01*
X76152Y-45607D01*
X76152Y-45660D01*
X76126Y-45713D01*
X76059Y-45779D01*
X76497Y-45342D02*
X76272Y-45302D01*
X76338Y-45501D02*
X76059Y-45222D01*
X76166Y-45116D01*
X76205Y-45103D01*
X76232Y-45103D01*
X76272Y-45116D01*
X76311Y-45156D01*
X76325Y-45196D01*
X76325Y-45222D01*
X76311Y-45262D01*
X76205Y-45368D01*
X76550Y-44917D02*
X76736Y-45103D01*
X76378Y-44878D02*
X76510Y-45143D01*
X76683Y-44970D01*
X74485Y-46259D02*
X74618Y-46127D01*
X74538Y-46365D02*
X74353Y-45994D01*
X74724Y-46180D01*
X74817Y-46087D02*
X74538Y-45809D01*
X74604Y-45742D01*
X74657Y-45716D01*
X74710Y-45716D01*
X74750Y-45729D01*
X74817Y-45769D01*
X74856Y-45809D01*
X74896Y-45875D01*
X74909Y-45915D01*
X74909Y-45968D01*
X74883Y-46021D01*
X74817Y-46087D01*
X75095Y-45809D02*
X74817Y-45530D01*
X74883Y-45464D01*
X74936Y-45437D01*
X74989Y-45437D01*
X75029Y-45451D01*
X75095Y-45490D01*
X75135Y-45530D01*
X75174Y-45596D01*
X75188Y-45636D01*
X75188Y-45689D01*
X75161Y-45742D01*
X75095Y-45809D01*
X75532Y-45371D02*
X75307Y-45331D01*
X75373Y-45530D02*
X75095Y-45252D01*
X75201Y-45146D01*
X75241Y-45132D01*
X75267Y-45132D01*
X75307Y-45146D01*
X75347Y-45186D01*
X75360Y-45225D01*
X75360Y-45252D01*
X75347Y-45292D01*
X75241Y-45398D01*
X75532Y-45053D02*
X75493Y-45066D01*
X75466Y-45066D01*
X75426Y-45053D01*
X75413Y-45040D01*
X75400Y-45000D01*
X75400Y-44973D01*
X75413Y-44934D01*
X75466Y-44881D01*
X75506Y-44867D01*
X75532Y-44867D01*
X75572Y-44881D01*
X75585Y-44894D01*
X75599Y-44934D01*
X75599Y-44960D01*
X75585Y-45000D01*
X75532Y-45053D01*
X75519Y-45093D01*
X75519Y-45119D01*
X75532Y-45159D01*
X75585Y-45212D01*
X75625Y-45225D01*
X75652Y-45225D01*
X75691Y-45212D01*
X75744Y-45159D01*
X75758Y-45119D01*
X75758Y-45093D01*
X75744Y-45053D01*
X75691Y-45000D01*
X75652Y-44987D01*
X75625Y-44987D01*
X75585Y-45000D01*
X73309Y-46392D02*
X73442Y-46259D01*
X73362Y-46498D02*
X73177Y-46127D01*
X73548Y-46312D01*
X73641Y-46220D02*
X73362Y-45941D01*
X73429Y-45875D01*
X73482Y-45848D01*
X73535Y-45848D01*
X73574Y-45862D01*
X73641Y-45901D01*
X73680Y-45941D01*
X73720Y-46007D01*
X73733Y-46047D01*
X73733Y-46100D01*
X73707Y-46153D01*
X73641Y-46220D01*
X73919Y-45941D02*
X73641Y-45663D01*
X73707Y-45596D01*
X73760Y-45570D01*
X73813Y-45570D01*
X73853Y-45583D01*
X73919Y-45623D01*
X73959Y-45663D01*
X73999Y-45729D01*
X74012Y-45769D01*
X74012Y-45822D01*
X73985Y-45875D01*
X73919Y-45941D01*
X74357Y-45504D02*
X74131Y-45464D01*
X74197Y-45663D02*
X73919Y-45384D01*
X74025Y-45278D01*
X74065Y-45265D01*
X74091Y-45265D01*
X74131Y-45278D01*
X74171Y-45318D01*
X74184Y-45358D01*
X74184Y-45384D01*
X74171Y-45424D01*
X74065Y-45530D01*
X74622Y-45239D02*
X74463Y-45398D01*
X74542Y-45318D02*
X74264Y-45040D01*
X74277Y-45106D01*
X74277Y-45159D01*
X74264Y-45199D01*
X74582Y-44722D02*
X74529Y-44775D01*
X74516Y-44814D01*
X74516Y-44841D01*
X74529Y-44907D01*
X74569Y-44973D01*
X74675Y-45079D01*
X74714Y-45093D01*
X74741Y-45093D01*
X74781Y-45079D01*
X74834Y-45026D01*
X74847Y-44987D01*
X74847Y-44960D01*
X74834Y-44920D01*
X74767Y-44854D01*
X74728Y-44841D01*
X74701Y-44841D01*
X74661Y-44854D01*
X74608Y-44907D01*
X74595Y-44947D01*
X74595Y-44973D01*
X74608Y-45013D01*
X72158Y-46441D02*
X72290Y-46309D01*
X72211Y-46547D02*
X72025Y-46176D01*
X72396Y-46362D01*
X72489Y-46269D02*
X72211Y-45990D01*
X72277Y-45924D01*
X72330Y-45898D01*
X72383Y-45898D01*
X72423Y-45911D01*
X72489Y-45951D01*
X72529Y-45990D01*
X72569Y-46057D01*
X72582Y-46096D01*
X72582Y-46149D01*
X72555Y-46202D01*
X72489Y-46269D01*
X72767Y-45990D02*
X72489Y-45712D01*
X72555Y-45646D01*
X72608Y-45619D01*
X72661Y-45619D01*
X72701Y-45632D01*
X72767Y-45672D01*
X72807Y-45712D01*
X72847Y-45778D01*
X72860Y-45818D01*
X72860Y-45871D01*
X72834Y-45924D01*
X72767Y-45990D01*
X73205Y-45553D02*
X72980Y-45513D01*
X73046Y-45712D02*
X72767Y-45434D01*
X72874Y-45328D01*
X72913Y-45314D01*
X72940Y-45314D01*
X72980Y-45328D01*
X73019Y-45367D01*
X73033Y-45407D01*
X73033Y-45434D01*
X73019Y-45473D01*
X72913Y-45579D01*
X73019Y-45182D02*
X73192Y-45009D01*
X73205Y-45208D01*
X73245Y-45168D01*
X73284Y-45155D01*
X73311Y-45155D01*
X73351Y-45168D01*
X73417Y-45235D01*
X73430Y-45275D01*
X73430Y-45301D01*
X73417Y-45341D01*
X73337Y-45420D01*
X73298Y-45434D01*
X73271Y-45434D01*
X73324Y-44930D02*
X73324Y-44903D01*
X73337Y-44864D01*
X73404Y-44797D01*
X73444Y-44784D01*
X73470Y-44784D01*
X73510Y-44797D01*
X73536Y-44824D01*
X73563Y-44877D01*
X73563Y-45195D01*
X73735Y-45023D01*
X71085Y-46471D02*
X71217Y-46338D01*
X71138Y-46577D02*
X70952Y-46205D01*
X71323Y-46391D01*
X71416Y-46298D02*
X71138Y-46020D01*
X71204Y-45954D01*
X71257Y-45927D01*
X71310Y-45927D01*
X71350Y-45940D01*
X71416Y-45980D01*
X71456Y-46020D01*
X71496Y-46086D01*
X71509Y-46126D01*
X71509Y-46179D01*
X71483Y-46232D01*
X71416Y-46298D01*
X71695Y-46020D02*
X71416Y-45742D01*
X71483Y-45675D01*
X71536Y-45649D01*
X71589Y-45649D01*
X71628Y-45662D01*
X71695Y-45702D01*
X71734Y-45742D01*
X71774Y-45808D01*
X71787Y-45848D01*
X71787Y-45901D01*
X71761Y-45954D01*
X71695Y-46020D01*
X72132Y-45582D02*
X71907Y-45543D01*
X71973Y-45742D02*
X71695Y-45463D01*
X71801Y-45357D01*
X71840Y-45344D01*
X71867Y-45344D01*
X71907Y-45357D01*
X71947Y-45397D01*
X71960Y-45437D01*
X71960Y-45463D01*
X71947Y-45503D01*
X71840Y-45609D01*
X72092Y-45065D02*
X72039Y-45118D01*
X72026Y-45158D01*
X72026Y-45185D01*
X72039Y-45251D01*
X72079Y-45317D01*
X72185Y-45423D01*
X72225Y-45437D01*
X72251Y-45437D01*
X72291Y-45423D01*
X72344Y-45370D01*
X72357Y-45331D01*
X72357Y-45304D01*
X72344Y-45264D01*
X72278Y-45198D01*
X72238Y-45185D01*
X72212Y-45185D01*
X72172Y-45198D01*
X72119Y-45251D01*
X72106Y-45291D01*
X72106Y-45317D01*
X72119Y-45357D01*
X72450Y-44893D02*
X72636Y-45079D01*
X72278Y-44853D02*
X72410Y-45118D01*
X72583Y-44946D01*
X70291Y-46233D02*
X70158Y-46365D01*
X69880Y-46087D01*
X70384Y-46140D02*
X70105Y-45861D01*
X70490Y-46007D02*
X70543Y-45981D01*
X70609Y-45914D01*
X70622Y-45875D01*
X70622Y-45848D01*
X70609Y-45808D01*
X70583Y-45782D01*
X70543Y-45769D01*
X70516Y-45769D01*
X70477Y-45782D01*
X70410Y-45822D01*
X70371Y-45835D01*
X70344Y-45835D01*
X70304Y-45822D01*
X70278Y-45795D01*
X70264Y-45755D01*
X70264Y-45729D01*
X70278Y-45689D01*
X70344Y-45623D01*
X70397Y-45596D01*
X70463Y-45503D02*
X70622Y-45344D01*
X70821Y-45702D02*
X70543Y-45424D01*
X70848Y-45384D02*
X70941Y-45291D01*
X71126Y-45397D02*
X70994Y-45530D01*
X70715Y-45252D01*
X70848Y-45119D01*
X71245Y-45278D02*
X70967Y-45000D01*
X71405Y-45119D01*
X71126Y-44841D01*
G54D12*
X59153Y-42716D02*
X59153Y-42578D01*
X69862Y-42716D02*
X59153Y-42716D01*
X69862Y-32421D02*
X69862Y-42716D01*
X59153Y-32421D02*
X69862Y-32421D01*
X59153Y-42637D02*
X59153Y-32421D01*
G54D13*
X106550Y-39981D02*
X106512Y-39962D01*
X106456Y-39962D01*
X106400Y-39981D01*
X106362Y-40018D01*
X106344Y-40056D01*
X106325Y-40131D01*
X106325Y-40187D01*
X106344Y-40262D01*
X106362Y-40299D01*
X106400Y-40337D01*
X106456Y-40356D01*
X106494Y-40356D01*
X106550Y-40337D01*
X106569Y-40318D01*
X106569Y-40187D01*
X106494Y-40187D01*
X106737Y-40356D02*
X106737Y-39962D01*
X106962Y-40356D01*
X106962Y-39962D01*
X107150Y-40356D02*
X107150Y-39962D01*
X107244Y-39962D01*
X107300Y-39981D01*
X107337Y-40018D01*
X107356Y-40056D01*
X107375Y-40131D01*
X107375Y-40187D01*
X107356Y-40262D01*
X107337Y-40299D01*
X107300Y-40337D01*
X107244Y-40356D01*
X107150Y-40356D01*
G54D12*
X75314Y-34114D02*
X75314Y-32185D01*
X78188Y-34114D02*
X75314Y-34114D01*
X75314Y-30295D02*
X78208Y-30295D01*
X75314Y-32185D02*
X75314Y-30295D01*
X78208Y-32185D02*
X75314Y-32185D01*
X78188Y-30275D02*
X78188Y-34114D01*
X84724Y-32165D02*
X84724Y-34094D01*
X97814Y-32165D02*
X97814Y-34114D01*
X84724Y-34114D02*
X97814Y-34114D01*
G54D13*
X53844Y-37155D02*
X54144Y-37155D01*
X53994Y-37305D02*
X53994Y-37005D01*
X54519Y-36911D02*
X54331Y-36911D01*
X54312Y-37098D01*
X54331Y-37080D01*
X54369Y-37061D01*
X54462Y-37061D01*
X54500Y-37080D01*
X54519Y-37098D01*
X54537Y-37136D01*
X54537Y-37230D01*
X54519Y-37267D01*
X54500Y-37286D01*
X54462Y-37305D01*
X54369Y-37305D01*
X54331Y-37286D01*
X54312Y-37267D01*
X54650Y-36911D02*
X54781Y-37305D01*
X54912Y-36911D01*
X72149Y-50279D02*
X72130Y-50298D01*
X72074Y-50316D01*
X72036Y-50316D01*
X71980Y-50298D01*
X71943Y-50260D01*
X71924Y-50223D01*
X71905Y-50148D01*
X71905Y-50091D01*
X71924Y-50016D01*
X71943Y-49979D01*
X71980Y-49941D01*
X72036Y-49923D01*
X72074Y-49923D01*
X72130Y-49941D01*
X72149Y-49960D01*
X72318Y-50316D02*
X72318Y-49923D01*
X72318Y-50110D02*
X72543Y-50110D01*
X72543Y-50316D02*
X72543Y-49923D01*
X72786Y-50091D02*
X72749Y-50073D01*
X72730Y-50054D01*
X72711Y-50016D01*
X72711Y-49998D01*
X72730Y-49960D01*
X72749Y-49941D01*
X72786Y-49923D01*
X72861Y-49923D01*
X72899Y-49941D01*
X72918Y-49960D01*
X72936Y-49998D01*
X72936Y-50016D01*
X72918Y-50054D01*
X72899Y-50073D01*
X72861Y-50091D01*
X72786Y-50091D01*
X72749Y-50110D01*
X72730Y-50129D01*
X72711Y-50166D01*
X72711Y-50241D01*
X72730Y-50279D01*
X72749Y-50298D01*
X72786Y-50316D01*
X72861Y-50316D01*
X72899Y-50298D01*
X72918Y-50279D01*
X72936Y-50241D01*
X72936Y-50166D01*
X72918Y-50129D01*
X72899Y-50110D01*
X72861Y-50091D01*
X76381Y-50279D02*
X76362Y-50298D01*
X76306Y-50316D01*
X76269Y-50316D01*
X76212Y-50298D01*
X76175Y-50260D01*
X76156Y-50223D01*
X76137Y-50148D01*
X76137Y-50091D01*
X76156Y-50016D01*
X76175Y-49979D01*
X76212Y-49941D01*
X76269Y-49923D01*
X76306Y-49923D01*
X76362Y-49941D01*
X76381Y-49960D01*
X76550Y-50316D02*
X76550Y-49923D01*
X76550Y-50110D02*
X76775Y-50110D01*
X76775Y-50316D02*
X76775Y-49923D01*
X76925Y-49923D02*
X77187Y-49923D01*
X77019Y-50316D01*
X80436Y-50279D02*
X80418Y-50298D01*
X80361Y-50316D01*
X80324Y-50316D01*
X80268Y-50298D01*
X80230Y-50260D01*
X80211Y-50223D01*
X80193Y-50148D01*
X80193Y-50091D01*
X80211Y-50016D01*
X80230Y-49979D01*
X80268Y-49941D01*
X80324Y-49923D01*
X80361Y-49923D01*
X80418Y-49941D01*
X80436Y-49960D01*
X80605Y-50316D02*
X80605Y-49923D01*
X80605Y-50110D02*
X80830Y-50110D01*
X80830Y-50316D02*
X80830Y-49923D01*
X81186Y-49923D02*
X81111Y-49923D01*
X81074Y-49941D01*
X81055Y-49960D01*
X81017Y-50016D01*
X80999Y-50091D01*
X80999Y-50241D01*
X81017Y-50279D01*
X81036Y-50298D01*
X81074Y-50316D01*
X81149Y-50316D01*
X81186Y-50298D01*
X81205Y-50279D01*
X81224Y-50241D01*
X81224Y-50148D01*
X81205Y-50110D01*
X81186Y-50091D01*
X81149Y-50073D01*
X81074Y-50073D01*
X81036Y-50091D01*
X81017Y-50110D01*
X80999Y-50148D01*
X84787Y-50279D02*
X84768Y-50298D01*
X84712Y-50316D01*
X84674Y-50316D01*
X84618Y-50298D01*
X84580Y-50260D01*
X84562Y-50223D01*
X84543Y-50148D01*
X84543Y-50091D01*
X84562Y-50016D01*
X84580Y-49979D01*
X84618Y-49941D01*
X84674Y-49923D01*
X84712Y-49923D01*
X84768Y-49941D01*
X84787Y-49960D01*
X84955Y-50316D02*
X84955Y-49923D01*
X84955Y-50110D02*
X85180Y-50110D01*
X85180Y-50316D02*
X85180Y-49923D01*
X85555Y-49923D02*
X85368Y-49923D01*
X85349Y-50110D01*
X85368Y-50091D01*
X85405Y-50073D01*
X85499Y-50073D01*
X85537Y-50091D01*
X85555Y-50110D01*
X85574Y-50148D01*
X85574Y-50241D01*
X85555Y-50279D01*
X85537Y-50298D01*
X85499Y-50316D01*
X85405Y-50316D01*
X85368Y-50298D01*
X85349Y-50279D01*
X89039Y-50279D02*
X89020Y-50298D01*
X88964Y-50316D01*
X88926Y-50316D01*
X88870Y-50298D01*
X88832Y-50260D01*
X88814Y-50223D01*
X88795Y-50148D01*
X88795Y-50091D01*
X88814Y-50016D01*
X88832Y-49979D01*
X88870Y-49941D01*
X88926Y-49923D01*
X88964Y-49923D01*
X89020Y-49941D01*
X89039Y-49960D01*
X89207Y-50316D02*
X89207Y-49923D01*
X89207Y-50110D02*
X89432Y-50110D01*
X89432Y-50316D02*
X89432Y-49923D01*
X89789Y-50054D02*
X89789Y-50316D01*
X89695Y-49904D02*
X89601Y-50185D01*
X89845Y-50185D01*
X93192Y-50279D02*
X93173Y-50298D01*
X93117Y-50316D01*
X93080Y-50316D01*
X93023Y-50298D01*
X92986Y-50260D01*
X92967Y-50223D01*
X92949Y-50148D01*
X92949Y-50091D01*
X92967Y-50016D01*
X92986Y-49979D01*
X93023Y-49941D01*
X93080Y-49923D01*
X93117Y-49923D01*
X93173Y-49941D01*
X93192Y-49960D01*
X93361Y-50316D02*
X93361Y-49923D01*
X93361Y-50110D02*
X93586Y-50110D01*
X93586Y-50316D02*
X93586Y-49923D01*
X93736Y-49923D02*
X93980Y-49923D01*
X93848Y-50073D01*
X93905Y-50073D01*
X93942Y-50091D01*
X93961Y-50110D01*
X93980Y-50148D01*
X93980Y-50241D01*
X93961Y-50279D01*
X93942Y-50298D01*
X93905Y-50316D01*
X93792Y-50316D01*
X93755Y-50298D01*
X93736Y-50279D01*
X97484Y-50279D02*
X97465Y-50298D01*
X97409Y-50316D01*
X97371Y-50316D01*
X97315Y-50298D01*
X97277Y-50260D01*
X97259Y-50223D01*
X97240Y-50148D01*
X97240Y-50091D01*
X97259Y-50016D01*
X97277Y-49979D01*
X97315Y-49941D01*
X97371Y-49923D01*
X97409Y-49923D01*
X97465Y-49941D01*
X97484Y-49960D01*
X97652Y-50316D02*
X97652Y-49923D01*
X97652Y-50110D02*
X97877Y-50110D01*
X97877Y-50316D02*
X97877Y-49923D01*
X98046Y-49960D02*
X98065Y-49941D01*
X98102Y-49923D01*
X98196Y-49923D01*
X98233Y-49941D01*
X98252Y-49960D01*
X98271Y-49998D01*
X98271Y-50035D01*
X98252Y-50091D01*
X98027Y-50316D01*
X98271Y-50316D01*
X88594Y-39226D02*
X88575Y-39244D01*
X88519Y-39263D01*
X88481Y-39263D01*
X88425Y-39244D01*
X88388Y-39207D01*
X88369Y-39169D01*
X88350Y-39094D01*
X88350Y-39038D01*
X88369Y-38963D01*
X88388Y-38926D01*
X88425Y-38888D01*
X88481Y-38869D01*
X88519Y-38869D01*
X88575Y-38888D01*
X88594Y-38907D01*
X88950Y-39263D02*
X88763Y-39263D01*
X88763Y-38869D01*
X89081Y-39263D02*
X89081Y-38869D01*
X89306Y-39263D02*
X89138Y-39038D01*
X89306Y-38869D02*
X89081Y-39094D01*
X76263Y-31576D02*
X76488Y-31576D01*
X76376Y-31970D02*
X76376Y-31576D01*
X76582Y-31576D02*
X76844Y-31970D01*
X76844Y-31576D02*
X76582Y-31970D01*
X76976Y-31857D02*
X77163Y-31857D01*
X76938Y-31970D02*
X77069Y-31576D01*
X77200Y-31970D01*
X76255Y-32423D02*
X76480Y-32423D01*
X76367Y-32816D02*
X76367Y-32423D01*
X76573Y-32423D02*
X76836Y-32816D01*
X76836Y-32423D02*
X76573Y-32816D01*
X77117Y-32610D02*
X77173Y-32629D01*
X77192Y-32648D01*
X77211Y-32685D01*
X77211Y-32741D01*
X77192Y-32779D01*
X77173Y-32798D01*
X77136Y-32816D01*
X76986Y-32816D01*
X76986Y-32423D01*
X77117Y-32423D01*
X77155Y-32441D01*
X77173Y-32460D01*
X77192Y-32498D01*
X77192Y-32535D01*
X77173Y-32573D01*
X77155Y-32591D01*
X77117Y-32610D01*
X76986Y-32610D01*
X101893Y-50279D02*
X101874Y-50298D01*
X101818Y-50316D01*
X101781Y-50316D01*
X101724Y-50298D01*
X101687Y-50260D01*
X101668Y-50223D01*
X101649Y-50148D01*
X101649Y-50091D01*
X101668Y-50016D01*
X101687Y-49979D01*
X101724Y-49941D01*
X101781Y-49923D01*
X101818Y-49923D01*
X101874Y-49941D01*
X101893Y-49960D01*
X102062Y-50316D02*
X102062Y-49923D01*
X102062Y-50110D02*
X102287Y-50110D01*
X102287Y-50316D02*
X102287Y-49923D01*
X102680Y-50316D02*
X102455Y-50316D01*
X102568Y-50316D02*
X102568Y-49923D01*
X102530Y-49979D01*
X102493Y-50016D01*
X102455Y-50035D01*
X86508Y-39263D02*
X86377Y-39076D01*
X86283Y-39263D02*
X86283Y-38869D01*
X86433Y-38869D01*
X86471Y-38888D01*
X86489Y-38907D01*
X86508Y-38944D01*
X86508Y-39001D01*
X86489Y-39038D01*
X86471Y-39057D01*
X86433Y-39076D01*
X86283Y-39076D01*
X86639Y-38869D02*
X86902Y-39263D01*
X86902Y-38869D02*
X86639Y-39263D01*
X87052Y-39263D02*
X87052Y-38869D01*
X87146Y-38869D01*
X87202Y-38888D01*
X87239Y-38926D01*
X87258Y-38963D01*
X87277Y-39038D01*
X87277Y-39094D01*
X87258Y-39169D01*
X87239Y-39207D01*
X87202Y-39244D01*
X87146Y-39263D01*
X87052Y-39263D01*
X87521Y-38869D02*
X87558Y-38869D01*
X87596Y-38888D01*
X87614Y-38907D01*
X87633Y-38944D01*
X87652Y-39019D01*
X87652Y-39113D01*
X87633Y-39188D01*
X87614Y-39226D01*
X87596Y-39244D01*
X87558Y-39263D01*
X87521Y-39263D01*
X87483Y-39244D01*
X87464Y-39226D01*
X87446Y-39188D01*
X87427Y-39113D01*
X87427Y-39019D01*
X87446Y-38944D01*
X87464Y-38907D01*
X87483Y-38888D01*
X87521Y-38869D01*
X84355Y-38869D02*
X84580Y-38869D01*
X84467Y-39263D02*
X84467Y-38869D01*
X84673Y-38869D02*
X84936Y-39263D01*
X84936Y-38869D02*
X84673Y-39263D01*
X85086Y-39263D02*
X85086Y-38869D01*
X85179Y-38869D01*
X85236Y-38888D01*
X85273Y-38926D01*
X85292Y-38963D01*
X85311Y-39038D01*
X85311Y-39094D01*
X85292Y-39169D01*
X85273Y-39207D01*
X85236Y-39244D01*
X85179Y-39263D01*
X85086Y-39263D01*
X85554Y-38869D02*
X85592Y-38869D01*
X85629Y-38888D01*
X85648Y-38907D01*
X85667Y-38944D01*
X85686Y-39019D01*
X85686Y-39113D01*
X85667Y-39188D01*
X85648Y-39226D01*
X85629Y-39244D01*
X85592Y-39263D01*
X85554Y-39263D01*
X85517Y-39244D01*
X85498Y-39226D01*
X85479Y-39188D01*
X85461Y-39113D01*
X85461Y-39019D01*
X85479Y-38944D01*
X85498Y-38907D01*
X85517Y-38888D01*
X85554Y-38869D01*
X66801Y-43486D02*
X66839Y-43486D01*
X66876Y-43504D01*
X66895Y-43523D01*
X66914Y-43561D01*
X66932Y-43636D01*
X66932Y-43729D01*
X66914Y-43804D01*
X66895Y-43842D01*
X66876Y-43861D01*
X66839Y-43879D01*
X66801Y-43879D01*
X66764Y-43861D01*
X66745Y-43842D01*
X66726Y-43804D01*
X66707Y-43729D01*
X66707Y-43636D01*
X66726Y-43561D01*
X66745Y-43523D01*
X66764Y-43504D01*
X66801Y-43486D01*
X67064Y-43486D02*
X67326Y-43879D01*
X67326Y-43486D02*
X67064Y-43879D01*
G54D15*
X90235Y-36162D02*
X90443Y-35953D01*
X90334Y-36261D02*
X90543Y-36052D01*
X90453Y-36380D01*
X90662Y-36172D01*
X90861Y-36370D02*
X90762Y-36271D01*
X90652Y-36360D01*
X90672Y-36360D01*
X90702Y-36370D01*
X90752Y-36420D01*
X90762Y-36450D01*
X90762Y-36470D01*
X90752Y-36500D01*
X90702Y-36549D01*
X90672Y-36559D01*
X90652Y-36559D01*
X90622Y-36549D01*
X90573Y-36500D01*
X90563Y-36470D01*
X90563Y-36450D01*
X90931Y-36480D02*
X90951Y-36480D01*
X90980Y-36490D01*
X91030Y-36539D01*
X91040Y-36569D01*
X91040Y-36589D01*
X91030Y-36619D01*
X91010Y-36639D01*
X90970Y-36659D01*
X90732Y-36659D01*
X90861Y-36788D01*
X91139Y-36649D02*
X91269Y-36778D01*
X91120Y-36788D01*
X91149Y-36818D01*
X91159Y-36848D01*
X91159Y-36868D01*
X91149Y-36897D01*
X91100Y-36947D01*
X91070Y-36957D01*
X91050Y-36957D01*
X91020Y-36947D01*
X90960Y-36887D01*
X90951Y-36858D01*
X90951Y-36838D01*
X91159Y-37086D02*
X91199Y-37126D01*
X91229Y-37136D01*
X91249Y-37136D01*
X91299Y-37126D01*
X91348Y-37096D01*
X91428Y-37017D01*
X91438Y-36987D01*
X91438Y-36967D01*
X91428Y-36937D01*
X91388Y-36897D01*
X91358Y-36887D01*
X91338Y-36887D01*
X91308Y-36897D01*
X91259Y-36947D01*
X91249Y-36977D01*
X91249Y-36997D01*
X91259Y-37027D01*
X91299Y-37066D01*
X91328Y-37076D01*
X91348Y-37076D01*
X91378Y-37066D01*
X87115Y-36162D02*
X87323Y-35953D01*
X87214Y-36261D02*
X87423Y-36052D01*
X87333Y-36380D01*
X87542Y-36172D01*
X87741Y-36370D02*
X87642Y-36271D01*
X87532Y-36360D01*
X87552Y-36360D01*
X87582Y-36370D01*
X87632Y-36420D01*
X87642Y-36450D01*
X87642Y-36470D01*
X87632Y-36500D01*
X87582Y-36549D01*
X87552Y-36559D01*
X87532Y-36559D01*
X87502Y-36549D01*
X87453Y-36500D01*
X87443Y-36470D01*
X87443Y-36450D01*
X87811Y-36480D02*
X87830Y-36480D01*
X87860Y-36490D01*
X87910Y-36539D01*
X87920Y-36569D01*
X87920Y-36589D01*
X87910Y-36619D01*
X87890Y-36639D01*
X87850Y-36659D01*
X87612Y-36659D01*
X87741Y-36788D01*
X88009Y-36679D02*
X88029Y-36679D01*
X88059Y-36689D01*
X88109Y-36738D01*
X88119Y-36768D01*
X88119Y-36788D01*
X88109Y-36818D01*
X88089Y-36838D01*
X88049Y-36858D01*
X87811Y-36858D01*
X87940Y-36987D01*
X88039Y-37086D02*
X88079Y-37126D01*
X88109Y-37136D01*
X88129Y-37136D01*
X88178Y-37126D01*
X88228Y-37096D01*
X88308Y-37017D01*
X88318Y-36987D01*
X88318Y-36967D01*
X88308Y-36937D01*
X88268Y-36897D01*
X88238Y-36887D01*
X88218Y-36887D01*
X88188Y-36897D01*
X88139Y-36947D01*
X88129Y-36977D01*
X88129Y-36997D01*
X88139Y-37027D01*
X88178Y-37066D01*
X88208Y-37076D01*
X88228Y-37076D01*
X88258Y-37066D01*
G54D13*
X70327Y-57541D02*
X70102Y-57541D01*
X70214Y-57541D02*
X70214Y-57147D01*
X70177Y-57203D01*
X70139Y-57241D01*
X70102Y-57260D01*
X70570Y-57147D02*
X70608Y-57147D01*
X70645Y-57166D01*
X70664Y-57185D01*
X70683Y-57222D01*
X70702Y-57297D01*
X70702Y-57391D01*
X70683Y-57466D01*
X70664Y-57503D01*
X70645Y-57522D01*
X70608Y-57541D01*
X70570Y-57541D01*
X70533Y-57522D01*
X70514Y-57503D01*
X70495Y-57466D01*
X70477Y-57391D01*
X70477Y-57297D01*
X70495Y-57222D01*
X70514Y-57185D01*
X70533Y-57166D01*
X70570Y-57147D01*
X70852Y-57428D02*
X71039Y-57428D01*
X70814Y-57541D02*
X70945Y-57147D01*
X71077Y-57541D01*
X70055Y-57984D02*
X69924Y-57984D01*
X69924Y-58190D02*
X69924Y-57797D01*
X70111Y-57797D01*
X70261Y-57797D02*
X70261Y-58115D01*
X70280Y-58153D01*
X70299Y-58172D01*
X70336Y-58190D01*
X70411Y-58190D01*
X70449Y-58172D01*
X70467Y-58153D01*
X70486Y-58115D01*
X70486Y-57797D01*
X70655Y-58172D02*
X70711Y-58190D01*
X70805Y-58190D01*
X70842Y-58172D01*
X70861Y-58153D01*
X70880Y-58115D01*
X70880Y-58078D01*
X70861Y-58040D01*
X70842Y-58022D01*
X70805Y-58003D01*
X70730Y-57984D01*
X70692Y-57965D01*
X70673Y-57947D01*
X70655Y-57909D01*
X70655Y-57872D01*
X70673Y-57834D01*
X70692Y-57815D01*
X70730Y-57797D01*
X70823Y-57797D01*
X70880Y-57815D01*
X71048Y-57984D02*
X71180Y-57984D01*
X71236Y-58190D02*
X71048Y-58190D01*
X71048Y-57797D01*
X71236Y-57797D01*
X104944Y-68368D02*
X104944Y-67974D01*
X104944Y-68161D02*
X105169Y-68161D01*
X105169Y-68368D02*
X105169Y-67974D01*
X105432Y-67974D02*
X105507Y-67974D01*
X105544Y-67993D01*
X105582Y-68030D01*
X105600Y-68105D01*
X105600Y-68236D01*
X105582Y-68311D01*
X105544Y-68349D01*
X105507Y-68368D01*
X105432Y-68368D01*
X105394Y-68349D01*
X105357Y-68311D01*
X105338Y-68236D01*
X105338Y-68105D01*
X105357Y-68030D01*
X105394Y-67993D01*
X105432Y-67974D01*
X105713Y-67974D02*
X105938Y-67974D01*
X105825Y-68368D02*
X105825Y-67974D01*
X100712Y-68368D02*
X100712Y-67974D01*
X100712Y-68161D02*
X100937Y-68161D01*
X100937Y-68368D02*
X100937Y-67974D01*
X101199Y-67974D02*
X101274Y-67974D01*
X101312Y-67993D01*
X101349Y-68030D01*
X101368Y-68105D01*
X101368Y-68236D01*
X101349Y-68311D01*
X101312Y-68349D01*
X101274Y-68368D01*
X101199Y-68368D01*
X101162Y-68349D01*
X101124Y-68311D01*
X101106Y-68236D01*
X101106Y-68105D01*
X101124Y-68030D01*
X101162Y-67993D01*
X101199Y-67974D01*
X101481Y-67974D02*
X101706Y-67974D01*
X101593Y-68368D02*
X101593Y-67974D01*
X96480Y-68368D02*
X96480Y-67974D01*
X96480Y-68161D02*
X96705Y-68161D01*
X96705Y-68368D02*
X96705Y-67974D01*
X96967Y-67974D02*
X97042Y-67974D01*
X97080Y-67993D01*
X97117Y-68030D01*
X97136Y-68105D01*
X97136Y-68236D01*
X97117Y-68311D01*
X97080Y-68349D01*
X97042Y-68368D01*
X96967Y-68368D01*
X96930Y-68349D01*
X96892Y-68311D01*
X96873Y-68236D01*
X96873Y-68105D01*
X96892Y-68030D01*
X96930Y-67993D01*
X96967Y-67974D01*
X97248Y-67974D02*
X97473Y-67974D01*
X97361Y-68368D02*
X97361Y-67974D01*
X92149Y-68368D02*
X92149Y-67974D01*
X92149Y-68161D02*
X92374Y-68161D01*
X92374Y-68368D02*
X92374Y-67974D01*
X92636Y-67974D02*
X92711Y-67974D01*
X92749Y-67993D01*
X92786Y-68030D01*
X92805Y-68105D01*
X92805Y-68236D01*
X92786Y-68311D01*
X92749Y-68349D01*
X92711Y-68368D01*
X92636Y-68368D01*
X92599Y-68349D01*
X92561Y-68311D01*
X92543Y-68236D01*
X92543Y-68105D01*
X92561Y-68030D01*
X92599Y-67993D01*
X92636Y-67974D01*
X92918Y-67974D02*
X93143Y-67974D01*
X93030Y-68368D02*
X93030Y-67974D01*
X87917Y-68368D02*
X87917Y-67974D01*
X87917Y-68161D02*
X88142Y-68161D01*
X88142Y-68368D02*
X88142Y-67974D01*
X88404Y-67974D02*
X88479Y-67974D01*
X88517Y-67993D01*
X88554Y-68030D01*
X88573Y-68105D01*
X88573Y-68236D01*
X88554Y-68311D01*
X88517Y-68349D01*
X88479Y-68368D01*
X88404Y-68368D01*
X88367Y-68349D01*
X88329Y-68311D01*
X88310Y-68236D01*
X88310Y-68105D01*
X88329Y-68030D01*
X88367Y-67993D01*
X88404Y-67974D01*
X88685Y-67974D02*
X88910Y-67974D01*
X88798Y-68368D02*
X88798Y-67974D01*
X83684Y-68368D02*
X83684Y-67974D01*
X83684Y-68161D02*
X83909Y-68161D01*
X83909Y-68368D02*
X83909Y-67974D01*
X84172Y-67974D02*
X84247Y-67974D01*
X84284Y-67993D01*
X84322Y-68030D01*
X84341Y-68105D01*
X84341Y-68236D01*
X84322Y-68311D01*
X84284Y-68349D01*
X84247Y-68368D01*
X84172Y-68368D01*
X84134Y-68349D01*
X84097Y-68311D01*
X84078Y-68236D01*
X84078Y-68105D01*
X84097Y-68030D01*
X84134Y-67993D01*
X84172Y-67974D01*
X84453Y-67974D02*
X84678Y-67974D01*
X84565Y-68368D02*
X84565Y-67974D01*
X79452Y-68368D02*
X79452Y-67974D01*
X79452Y-68161D02*
X79677Y-68161D01*
X79677Y-68368D02*
X79677Y-67974D01*
X79940Y-67974D02*
X80014Y-67974D01*
X80052Y-67993D01*
X80089Y-68030D01*
X80108Y-68105D01*
X80108Y-68236D01*
X80089Y-68311D01*
X80052Y-68349D01*
X80014Y-68368D01*
X79940Y-68368D01*
X79902Y-68349D01*
X79865Y-68311D01*
X79846Y-68236D01*
X79846Y-68105D01*
X79865Y-68030D01*
X79902Y-67993D01*
X79940Y-67974D01*
X80221Y-67974D02*
X80446Y-67974D01*
X80333Y-68368D02*
X80333Y-67974D01*
X75220Y-68368D02*
X75220Y-67974D01*
X75220Y-68161D02*
X75445Y-68161D01*
X75445Y-68368D02*
X75445Y-67974D01*
X75707Y-67974D02*
X75782Y-67974D01*
X75820Y-67993D01*
X75857Y-68030D01*
X75876Y-68105D01*
X75876Y-68236D01*
X75857Y-68311D01*
X75820Y-68349D01*
X75782Y-68368D01*
X75707Y-68368D01*
X75670Y-68349D01*
X75632Y-68311D01*
X75613Y-68236D01*
X75613Y-68105D01*
X75632Y-68030D01*
X75670Y-67993D01*
X75707Y-67974D01*
X75988Y-67974D02*
X76213Y-67974D01*
X76101Y-68368D02*
X76101Y-67974D01*
G54D12*
X84724Y-32165D02*
X84822Y-32165D01*
X84724Y-30295D02*
X84724Y-32165D01*
X97814Y-30295D02*
X84724Y-30295D01*
X97814Y-32165D02*
X97814Y-30295D01*
X84724Y-32165D02*
X97814Y-32165D01*
X73094Y-35976D02*
X72963Y-35788D01*
X72869Y-35976D02*
X72869Y-35582D01*
X73019Y-35582D01*
X73057Y-35601D01*
X73076Y-35620D01*
X73094Y-35657D01*
X73094Y-35713D01*
X73076Y-35751D01*
X73057Y-35770D01*
X73019Y-35788D01*
X72869Y-35788D01*
X73263Y-35770D02*
X73394Y-35770D01*
X73450Y-35976D02*
X73263Y-35976D01*
X73263Y-35582D01*
X73450Y-35582D01*
X73844Y-35938D02*
X73825Y-35957D01*
X73769Y-35976D01*
X73732Y-35976D01*
X73675Y-35957D01*
X73638Y-35920D01*
X73619Y-35882D01*
X73600Y-35807D01*
X73600Y-35751D01*
X73619Y-35676D01*
X73638Y-35638D01*
X73675Y-35601D01*
X73732Y-35582D01*
X73769Y-35582D01*
X73825Y-35601D01*
X73844Y-35620D01*
X74013Y-35770D02*
X74144Y-35770D01*
X74200Y-35976D02*
X74013Y-35976D01*
X74013Y-35582D01*
X74200Y-35582D01*
X74369Y-35976D02*
X74369Y-35582D01*
X74500Y-35582D02*
X74632Y-35976D01*
X74763Y-35582D01*
X74894Y-35770D02*
X75025Y-35770D01*
X75082Y-35976D02*
X74894Y-35976D01*
X74894Y-35582D01*
X75082Y-35582D01*
X72813Y-37432D02*
X73038Y-37432D01*
X72925Y-37826D02*
X72925Y-37432D01*
X73394Y-37826D02*
X73263Y-37639D01*
X73169Y-37826D02*
X73169Y-37432D01*
X73319Y-37432D01*
X73356Y-37451D01*
X73375Y-37470D01*
X73394Y-37507D01*
X73394Y-37564D01*
X73375Y-37601D01*
X73356Y-37620D01*
X73319Y-37639D01*
X73169Y-37639D01*
X73544Y-37714D02*
X73731Y-37714D01*
X73506Y-37826D02*
X73637Y-37432D01*
X73769Y-37826D01*
X73900Y-37826D02*
X73900Y-37432D01*
X74125Y-37826D01*
X74125Y-37432D01*
X74294Y-37807D02*
X74350Y-37826D01*
X74444Y-37826D01*
X74481Y-37807D01*
X74500Y-37789D01*
X74519Y-37751D01*
X74519Y-37714D01*
X74500Y-37676D01*
X74481Y-37657D01*
X74444Y-37639D01*
X74369Y-37620D01*
X74331Y-37601D01*
X74312Y-37582D01*
X74294Y-37545D01*
X74294Y-37507D01*
X74312Y-37470D01*
X74331Y-37451D01*
X74369Y-37432D01*
X74462Y-37432D01*
X74519Y-37451D01*
X74687Y-37826D02*
X74687Y-37432D01*
X74819Y-37714D01*
X74950Y-37432D01*
X74950Y-37826D01*
X75137Y-37826D02*
X75137Y-37432D01*
X75269Y-37432D02*
X75494Y-37432D01*
X75381Y-37826D02*
X75381Y-37432D01*
X73135Y-39716D02*
X72947Y-39716D01*
X72947Y-39322D01*
X73266Y-39716D02*
X73266Y-39322D01*
X73435Y-39697D02*
X73491Y-39716D01*
X73585Y-39716D01*
X73622Y-39697D01*
X73641Y-39678D01*
X73660Y-39641D01*
X73660Y-39603D01*
X73641Y-39566D01*
X73622Y-39547D01*
X73585Y-39528D01*
X73510Y-39510D01*
X73472Y-39491D01*
X73453Y-39472D01*
X73435Y-39435D01*
X73435Y-39397D01*
X73453Y-39360D01*
X73472Y-39341D01*
X73510Y-39322D01*
X73603Y-39322D01*
X73660Y-39341D01*
X73772Y-39322D02*
X73997Y-39322D01*
X73884Y-39716D02*
X73884Y-39322D01*
X74128Y-39510D02*
X74259Y-39510D01*
X74316Y-39716D02*
X74128Y-39716D01*
X74128Y-39322D01*
X74316Y-39322D01*
X74484Y-39716D02*
X74484Y-39322D01*
X74709Y-39716D01*
X74709Y-39322D01*
X72918Y-33929D02*
X73049Y-33929D01*
X73105Y-34135D02*
X72918Y-34135D01*
X72918Y-33742D01*
X73105Y-33742D01*
X73499Y-34135D02*
X73368Y-33948D01*
X73274Y-34135D02*
X73274Y-33742D01*
X73424Y-33742D01*
X73461Y-33760D01*
X73480Y-33779D01*
X73499Y-33817D01*
X73499Y-33873D01*
X73480Y-33910D01*
X73461Y-33929D01*
X73424Y-33948D01*
X73274Y-33948D01*
X73892Y-34135D02*
X73761Y-33948D01*
X73667Y-34135D02*
X73667Y-33742D01*
X73817Y-33742D01*
X73855Y-33760D01*
X73874Y-33779D01*
X73892Y-33817D01*
X73892Y-33873D01*
X73874Y-33910D01*
X73855Y-33929D01*
X73817Y-33948D01*
X73667Y-33948D01*
X74136Y-33742D02*
X74211Y-33742D01*
X74249Y-33760D01*
X74286Y-33798D01*
X74305Y-33873D01*
X74305Y-34004D01*
X74286Y-34079D01*
X74249Y-34116D01*
X74211Y-34135D01*
X74136Y-34135D01*
X74099Y-34116D01*
X74061Y-34079D01*
X74042Y-34004D01*
X74042Y-33873D01*
X74061Y-33798D01*
X74099Y-33760D01*
X74136Y-33742D01*
X74699Y-34135D02*
X74567Y-33948D01*
X74474Y-34135D02*
X74474Y-33742D01*
X74624Y-33742D01*
X74661Y-33760D01*
X74680Y-33779D01*
X74699Y-33817D01*
X74699Y-33873D01*
X74680Y-33910D01*
X74661Y-33929D01*
X74624Y-33948D01*
X74474Y-33948D01*
X72916Y-32113D02*
X73104Y-32113D01*
X72879Y-32226D02*
X73010Y-31832D01*
X73141Y-32226D01*
X73216Y-31832D02*
X73347Y-32226D01*
X73479Y-31832D01*
X73835Y-32226D02*
X73704Y-32038D01*
X73610Y-32226D02*
X73610Y-31832D01*
X73760Y-31832D01*
X73797Y-31851D01*
X73816Y-31870D01*
X73835Y-31907D01*
X73835Y-31963D01*
X73816Y-32001D01*
X73797Y-32020D01*
X73760Y-32038D01*
X73610Y-32038D01*
G54D13*
X104887Y-34637D02*
X105112Y-34637D01*
X105000Y-35031D02*
X105000Y-34637D01*
X105244Y-34825D02*
X105375Y-34825D01*
X105431Y-35031D02*
X105244Y-35031D01*
X105244Y-34637D01*
X105431Y-34637D01*
X105825Y-35031D02*
X105694Y-34843D01*
X105600Y-35031D02*
X105600Y-34637D01*
X105750Y-34637D01*
X105787Y-34656D01*
X105806Y-34675D01*
X105825Y-34712D01*
X105825Y-34768D01*
X105806Y-34806D01*
X105787Y-34825D01*
X105750Y-34843D01*
X105600Y-34843D01*
X105994Y-35031D02*
X105994Y-34637D01*
X106125Y-34918D01*
X106256Y-34637D01*
X106256Y-35031D01*
G54D12*
X91017Y-32797D02*
X90885Y-32609D01*
X90792Y-32797D02*
X90792Y-32403D01*
X90942Y-32403D01*
X90979Y-32422D01*
X90998Y-32440D01*
X91017Y-32478D01*
X91017Y-32534D01*
X90998Y-32572D01*
X90979Y-32590D01*
X90942Y-32609D01*
X90792Y-32609D01*
X91148Y-32403D02*
X91410Y-32797D01*
X91410Y-32403D02*
X91148Y-32797D01*
X91691Y-32590D02*
X91748Y-32609D01*
X91766Y-32628D01*
X91785Y-32665D01*
X91785Y-32722D01*
X91766Y-32759D01*
X91748Y-32778D01*
X91710Y-32797D01*
X91560Y-32797D01*
X91560Y-32403D01*
X91691Y-32403D01*
X91729Y-32422D01*
X91748Y-32440D01*
X91766Y-32478D01*
X91766Y-32515D01*
X91748Y-32553D01*
X91729Y-32572D01*
X91691Y-32590D01*
X91560Y-32590D01*
X91005Y-31950D02*
X90874Y-31763D01*
X90780Y-31950D02*
X90780Y-31556D01*
X90930Y-31556D01*
X90968Y-31575D01*
X90987Y-31594D01*
X91005Y-31631D01*
X91005Y-31688D01*
X90987Y-31725D01*
X90968Y-31744D01*
X90930Y-31763D01*
X90780Y-31763D01*
X91137Y-31556D02*
X91399Y-31950D01*
X91399Y-31556D02*
X91137Y-31950D01*
X91530Y-31838D02*
X91718Y-31838D01*
X91493Y-31950D02*
X91624Y-31556D01*
X91755Y-31950D01*
G54D13*
X106245Y-47784D02*
X106545Y-47784D01*
X106395Y-47934D02*
X106395Y-47634D01*
X106920Y-47541D02*
X106733Y-47541D01*
X106714Y-47728D01*
X106733Y-47709D01*
X106770Y-47691D01*
X106864Y-47691D01*
X106901Y-47709D01*
X106920Y-47728D01*
X106939Y-47766D01*
X106939Y-47859D01*
X106920Y-47897D01*
X106901Y-47916D01*
X106864Y-47934D01*
X106770Y-47934D01*
X106733Y-47916D01*
X106714Y-47897D01*
X107051Y-47541D02*
X107183Y-47934D01*
X107314Y-47541D01*
X62350Y-52470D02*
X62649Y-52470D01*
X62500Y-52619D02*
X62500Y-52320D01*
X59003Y-50501D02*
X59303Y-50501D01*
X59153Y-50651D02*
X59153Y-50351D01*
X57822Y-52470D02*
X58122Y-52470D01*
X57972Y-52619D02*
X57972Y-52320D01*
X54377Y-50403D02*
X54677Y-50403D01*
X54527Y-50553D02*
X54527Y-50253D01*
X54148Y-41890D02*
X54111Y-41871D01*
X54055Y-41871D01*
X53998Y-41890D01*
X53961Y-41928D01*
X53942Y-41965D01*
X53923Y-42040D01*
X53923Y-42096D01*
X53942Y-42171D01*
X53961Y-42209D01*
X53998Y-42246D01*
X54055Y-42265D01*
X54092Y-42265D01*
X54148Y-42246D01*
X54167Y-42228D01*
X54167Y-42096D01*
X54092Y-42096D01*
X54336Y-42265D02*
X54336Y-41871D01*
X54561Y-42265D01*
X54561Y-41871D01*
X54748Y-42265D02*
X54748Y-41871D01*
X54842Y-41871D01*
X54898Y-41890D01*
X54936Y-41928D01*
X54955Y-41965D01*
X54973Y-42040D01*
X54973Y-42096D01*
X54955Y-42171D01*
X54936Y-42209D01*
X54898Y-42246D01*
X54842Y-42265D01*
X54748Y-42265D01*
X64282Y-41877D02*
X64470Y-41877D01*
X64245Y-41990D02*
X64376Y-41596D01*
X64507Y-41990D01*
X64807Y-41727D02*
X64807Y-41990D01*
X64639Y-41727D02*
X64639Y-41933D01*
X64657Y-41971D01*
X64695Y-41990D01*
X64751Y-41990D01*
X64789Y-41971D01*
X64807Y-41952D01*
X65164Y-41727D02*
X65164Y-42046D01*
X65145Y-42083D01*
X65126Y-42102D01*
X65089Y-42121D01*
X65032Y-42121D01*
X64995Y-42102D01*
X65164Y-41971D02*
X65126Y-41990D01*
X65051Y-41990D01*
X65014Y-41971D01*
X64995Y-41952D01*
X64976Y-41915D01*
X64976Y-41802D01*
X64995Y-41765D01*
X65014Y-41746D01*
X65051Y-41727D01*
X65126Y-41727D01*
X65164Y-41746D01*
X65520Y-41727D02*
X65520Y-41990D01*
X65351Y-41727D02*
X65351Y-41933D01*
X65370Y-41971D01*
X65407Y-41990D01*
X65464Y-41990D01*
X65501Y-41971D01*
X65520Y-41952D01*
X65688Y-41971D02*
X65726Y-41990D01*
X65801Y-41990D01*
X65838Y-41971D01*
X65857Y-41933D01*
X65857Y-41915D01*
X65838Y-41877D01*
X65801Y-41858D01*
X65745Y-41858D01*
X65707Y-41840D01*
X65688Y-41802D01*
X65688Y-41783D01*
X65707Y-41746D01*
X65745Y-41727D01*
X65801Y-41727D01*
X65838Y-41746D01*
X65970Y-41727D02*
X66120Y-41727D01*
X66026Y-41596D02*
X66026Y-41933D01*
X66045Y-41971D01*
X66082Y-41990D01*
X66120Y-41990D01*
X66532Y-41633D02*
X66551Y-41615D01*
X66588Y-41596D01*
X66682Y-41596D01*
X66720Y-41615D01*
X66738Y-41633D01*
X66757Y-41671D01*
X66757Y-41708D01*
X66738Y-41765D01*
X66513Y-41990D01*
X66757Y-41990D01*
X67001Y-41596D02*
X67038Y-41596D01*
X67076Y-41615D01*
X67095Y-41633D01*
X67113Y-41671D01*
X67132Y-41746D01*
X67132Y-41840D01*
X67113Y-41915D01*
X67095Y-41952D01*
X67076Y-41971D01*
X67038Y-41990D01*
X67001Y-41990D01*
X66963Y-41971D01*
X66945Y-41952D01*
X66926Y-41915D01*
X66907Y-41840D01*
X66907Y-41746D01*
X66926Y-41671D01*
X66945Y-41633D01*
X66963Y-41615D01*
X67001Y-41596D01*
X67507Y-41990D02*
X67282Y-41990D01*
X67395Y-41990D02*
X67395Y-41596D01*
X67357Y-41652D01*
X67320Y-41690D01*
X67282Y-41708D01*
X67863Y-41596D02*
X67676Y-41596D01*
X67657Y-41783D01*
X67676Y-41765D01*
X67713Y-41746D01*
X67807Y-41746D01*
X67844Y-41765D01*
X67863Y-41783D01*
X67882Y-41821D01*
X67882Y-41915D01*
X67863Y-41952D01*
X67844Y-41971D01*
X67807Y-41990D01*
X67713Y-41990D01*
X67676Y-41971D01*
X67657Y-41952D01*
G54D14*
X59846Y-34579D02*
X59914Y-34602D01*
X59936Y-34624D01*
X59959Y-34669D01*
X59959Y-34737D01*
X59936Y-34782D01*
X59914Y-34804D01*
X59869Y-34827D01*
X59689Y-34827D01*
X59689Y-34354D01*
X59846Y-34354D01*
X59891Y-34377D01*
X59914Y-34399D01*
X59936Y-34444D01*
X59936Y-34489D01*
X59914Y-34534D01*
X59891Y-34557D01*
X59846Y-34579D01*
X59689Y-34579D01*
X60116Y-34512D02*
X60229Y-34827D01*
X60341Y-34512D02*
X60229Y-34827D01*
X60184Y-34939D01*
X60161Y-34962D01*
X60116Y-34984D01*
X60521Y-34782D02*
X60544Y-34804D01*
X60521Y-34827D01*
X60499Y-34804D01*
X60521Y-34782D01*
X60521Y-34827D01*
X60521Y-34534D02*
X60544Y-34557D01*
X60521Y-34579D01*
X60499Y-34557D01*
X60521Y-34534D01*
X60521Y-34579D01*
X61106Y-34827D02*
X61106Y-34354D01*
X61219Y-34354D01*
X61286Y-34377D01*
X61331Y-34422D01*
X61354Y-34467D01*
X61376Y-34557D01*
X61376Y-34624D01*
X61354Y-34714D01*
X61331Y-34759D01*
X61286Y-34804D01*
X61219Y-34827D01*
X61106Y-34827D01*
X61781Y-34827D02*
X61781Y-34579D01*
X61758Y-34534D01*
X61714Y-34512D01*
X61624Y-34512D01*
X61579Y-34534D01*
X61781Y-34804D02*
X61736Y-34827D01*
X61624Y-34827D01*
X61579Y-34804D01*
X61556Y-34759D01*
X61556Y-34714D01*
X61579Y-34669D01*
X61624Y-34647D01*
X61736Y-34647D01*
X61781Y-34624D01*
X61961Y-34512D02*
X62073Y-34827D01*
X62186Y-34512D01*
X62366Y-34827D02*
X62366Y-34512D01*
X62366Y-34354D02*
X62343Y-34377D01*
X62366Y-34399D01*
X62388Y-34377D01*
X62366Y-34354D01*
X62366Y-34399D01*
X62793Y-34827D02*
X62793Y-34354D01*
X62793Y-34804D02*
X62748Y-34827D01*
X62658Y-34827D01*
X62613Y-34804D01*
X62591Y-34782D01*
X62568Y-34737D01*
X62568Y-34602D01*
X62591Y-34557D01*
X62613Y-34534D01*
X62658Y-34512D01*
X62748Y-34512D01*
X62793Y-34534D01*
X59689Y-35606D02*
X59689Y-35134D01*
X59869Y-35134D01*
X59914Y-35156D01*
X59936Y-35179D01*
X59959Y-35224D01*
X59959Y-35291D01*
X59936Y-35336D01*
X59914Y-35359D01*
X59869Y-35381D01*
X59689Y-35381D01*
X60341Y-35584D02*
X60296Y-35606D01*
X60206Y-35606D01*
X60161Y-35584D01*
X60139Y-35539D01*
X60139Y-35359D01*
X60161Y-35314D01*
X60206Y-35291D01*
X60296Y-35291D01*
X60341Y-35314D01*
X60364Y-35359D01*
X60364Y-35404D01*
X60139Y-35449D01*
X60769Y-35606D02*
X60769Y-35359D01*
X60746Y-35314D01*
X60701Y-35291D01*
X60611Y-35291D01*
X60566Y-35314D01*
X60769Y-35584D02*
X60724Y-35606D01*
X60611Y-35606D01*
X60566Y-35584D01*
X60544Y-35539D01*
X60544Y-35494D01*
X60566Y-35449D01*
X60611Y-35426D01*
X60724Y-35426D01*
X60769Y-35404D01*
X61196Y-35584D02*
X61151Y-35606D01*
X61061Y-35606D01*
X61016Y-35584D01*
X60994Y-35561D01*
X60971Y-35516D01*
X60971Y-35381D01*
X60994Y-35336D01*
X61016Y-35314D01*
X61061Y-35291D01*
X61151Y-35291D01*
X61196Y-35314D01*
X61579Y-35584D02*
X61534Y-35606D01*
X61444Y-35606D01*
X61399Y-35584D01*
X61376Y-35539D01*
X61376Y-35359D01*
X61399Y-35314D01*
X61444Y-35291D01*
X61534Y-35291D01*
X61579Y-35314D01*
X61601Y-35359D01*
X61601Y-35404D01*
X61376Y-35449D01*
X59876Y-39343D02*
X59718Y-39343D01*
X59718Y-39590D02*
X59718Y-39118D01*
X59943Y-39118D01*
X60191Y-39590D02*
X60146Y-39568D01*
X60123Y-39545D01*
X60101Y-39500D01*
X60101Y-39365D01*
X60123Y-39320D01*
X60146Y-39298D01*
X60191Y-39275D01*
X60258Y-39275D01*
X60303Y-39298D01*
X60326Y-39320D01*
X60348Y-39365D01*
X60348Y-39500D01*
X60326Y-39545D01*
X60303Y-39568D01*
X60258Y-39590D01*
X60191Y-39590D01*
X60551Y-39590D02*
X60551Y-39275D01*
X60551Y-39365D02*
X60573Y-39320D01*
X60596Y-39298D01*
X60641Y-39275D01*
X60686Y-39275D01*
X60843Y-39545D02*
X60866Y-39568D01*
X60843Y-39590D01*
X60821Y-39568D01*
X60843Y-39545D01*
X60843Y-39590D01*
X60843Y-39298D02*
X60866Y-39320D01*
X60843Y-39343D01*
X60821Y-39320D01*
X60843Y-39298D01*
X60843Y-39343D01*
X59651Y-39897D02*
X59921Y-39897D01*
X59786Y-40370D02*
X59786Y-39897D01*
X60078Y-40370D02*
X60078Y-40055D01*
X60078Y-39897D02*
X60056Y-39920D01*
X60078Y-39942D01*
X60101Y-39920D01*
X60078Y-39897D01*
X60078Y-39942D01*
X60303Y-40370D02*
X60303Y-39897D01*
X60348Y-40190D02*
X60483Y-40370D01*
X60483Y-40055D02*
X60303Y-40235D01*
X60641Y-40055D02*
X60753Y-40370D01*
X60866Y-40055D01*
X61248Y-40370D02*
X61248Y-40122D01*
X61226Y-40077D01*
X61181Y-40055D01*
X61091Y-40055D01*
X61046Y-40077D01*
X61248Y-40347D02*
X61203Y-40370D01*
X61091Y-40370D01*
X61046Y-40347D01*
X61023Y-40302D01*
X61023Y-40257D01*
X61046Y-40212D01*
X61091Y-40190D01*
X61203Y-40190D01*
X61248Y-40167D01*
X61496Y-40347D02*
X61496Y-40370D01*
X61473Y-40415D01*
X61451Y-40437D01*
X59696Y-41127D02*
X59763Y-41149D01*
X59876Y-41149D01*
X59921Y-41127D01*
X59943Y-41104D01*
X59966Y-41059D01*
X59966Y-41014D01*
X59943Y-40969D01*
X59921Y-40947D01*
X59876Y-40924D01*
X59786Y-40902D01*
X59741Y-40879D01*
X59718Y-40857D01*
X59696Y-40812D01*
X59696Y-40767D01*
X59718Y-40722D01*
X59741Y-40699D01*
X59786Y-40677D01*
X59898Y-40677D01*
X59966Y-40699D01*
X60348Y-41127D02*
X60303Y-41149D01*
X60213Y-41149D01*
X60168Y-41127D01*
X60146Y-41082D01*
X60146Y-40902D01*
X60168Y-40857D01*
X60213Y-40834D01*
X60303Y-40834D01*
X60348Y-40857D01*
X60371Y-40902D01*
X60371Y-40947D01*
X60146Y-40992D01*
X60506Y-40834D02*
X60686Y-40834D01*
X60573Y-40677D02*
X60573Y-41082D01*
X60596Y-41127D01*
X60641Y-41149D01*
X60686Y-41149D01*
X60843Y-41149D02*
X60843Y-40677D01*
X61046Y-41149D02*
X61046Y-40902D01*
X61023Y-40857D01*
X60978Y-40834D01*
X60911Y-40834D01*
X60866Y-40857D01*
X60843Y-40879D01*
X62013Y-41149D02*
X61991Y-41149D01*
X61946Y-41127D01*
X61878Y-41059D01*
X61766Y-40924D01*
X61721Y-40857D01*
X61698Y-40789D01*
X61698Y-40744D01*
X61721Y-40699D01*
X61766Y-40677D01*
X61788Y-40677D01*
X61833Y-40699D01*
X61856Y-40744D01*
X61856Y-40767D01*
X61833Y-40812D01*
X61811Y-40834D01*
X61676Y-40924D01*
X61653Y-40947D01*
X61631Y-40992D01*
X61631Y-41059D01*
X61653Y-41104D01*
X61676Y-41127D01*
X61721Y-41149D01*
X61788Y-41149D01*
X61833Y-41127D01*
X61856Y-41104D01*
X61923Y-41014D01*
X61946Y-40947D01*
X61946Y-40902D01*
X59988Y-41884D02*
X59966Y-41906D01*
X59898Y-41929D01*
X59853Y-41929D01*
X59786Y-41906D01*
X59741Y-41861D01*
X59718Y-41816D01*
X59696Y-41726D01*
X59696Y-41659D01*
X59718Y-41569D01*
X59741Y-41524D01*
X59786Y-41479D01*
X59853Y-41456D01*
X59898Y-41456D01*
X59966Y-41479D01*
X59988Y-41501D01*
X60393Y-41929D02*
X60393Y-41681D01*
X60371Y-41636D01*
X60326Y-41614D01*
X60236Y-41614D01*
X60191Y-41636D01*
X60393Y-41906D02*
X60348Y-41929D01*
X60236Y-41929D01*
X60191Y-41906D01*
X60168Y-41861D01*
X60168Y-41816D01*
X60191Y-41771D01*
X60236Y-41749D01*
X60348Y-41749D01*
X60393Y-41726D01*
X60686Y-41929D02*
X60641Y-41906D01*
X60618Y-41861D01*
X60618Y-41456D01*
X61046Y-41906D02*
X61001Y-41929D01*
X60911Y-41929D01*
X60866Y-41906D01*
X60843Y-41861D01*
X60843Y-41681D01*
X60866Y-41636D01*
X60911Y-41614D01*
X61001Y-41614D01*
X61046Y-41636D01*
X61068Y-41681D01*
X61068Y-41726D01*
X60843Y-41771D01*
X61271Y-41929D02*
X61271Y-41456D01*
X61271Y-41636D02*
X61316Y-41614D01*
X61406Y-41614D01*
X61451Y-41636D01*
X61473Y-41659D01*
X61496Y-41704D01*
X61496Y-41839D01*
X61473Y-41884D01*
X61451Y-41906D01*
X61406Y-41929D01*
X61316Y-41929D01*
X61271Y-41906D01*
X61698Y-41884D02*
X61721Y-41906D01*
X61698Y-41929D01*
X61676Y-41906D01*
X61698Y-41884D01*
X61698Y-41929D01*
X61698Y-41749D02*
X61676Y-41479D01*
X61698Y-41456D01*
X61721Y-41479D01*
X61698Y-41749D01*
X61698Y-41456D01*
X60063Y-33696D02*
X60035Y-33724D01*
X59950Y-33752D01*
X59894Y-33752D01*
X59810Y-33724D01*
X59753Y-33668D01*
X59725Y-33612D01*
X59697Y-33499D01*
X59697Y-33415D01*
X59725Y-33302D01*
X59753Y-33246D01*
X59810Y-33190D01*
X59894Y-33162D01*
X59950Y-33162D01*
X60035Y-33190D01*
X60063Y-33218D01*
X60400Y-33752D02*
X60344Y-33724D01*
X60316Y-33696D01*
X60288Y-33640D01*
X60288Y-33471D01*
X60316Y-33415D01*
X60344Y-33387D01*
X60400Y-33359D01*
X60485Y-33359D01*
X60541Y-33387D01*
X60569Y-33415D01*
X60597Y-33471D01*
X60597Y-33640D01*
X60569Y-33696D01*
X60541Y-33724D01*
X60485Y-33752D01*
X60400Y-33752D01*
X60935Y-33752D02*
X60878Y-33724D01*
X60850Y-33668D01*
X60850Y-33162D01*
X61244Y-33752D02*
X61188Y-33724D01*
X61160Y-33696D01*
X61131Y-33640D01*
X61131Y-33471D01*
X61160Y-33415D01*
X61188Y-33387D01*
X61244Y-33359D01*
X61328Y-33359D01*
X61384Y-33387D01*
X61413Y-33415D01*
X61441Y-33471D01*
X61441Y-33640D01*
X61413Y-33696D01*
X61384Y-33724D01*
X61328Y-33752D01*
X61244Y-33752D01*
X61694Y-33752D02*
X61694Y-33359D01*
X61694Y-33471D02*
X61722Y-33415D01*
X61750Y-33387D01*
X61806Y-33359D01*
X61863Y-33359D01*
X62059Y-33752D02*
X62059Y-33162D01*
X62256Y-33584D01*
X62453Y-33162D01*
X62453Y-33752D01*
X62987Y-33752D02*
X62987Y-33443D01*
X62959Y-33387D01*
X62903Y-33359D01*
X62791Y-33359D01*
X62734Y-33387D01*
X62987Y-33724D02*
X62931Y-33752D01*
X62791Y-33752D01*
X62734Y-33724D01*
X62706Y-33668D01*
X62706Y-33612D01*
X62734Y-33555D01*
X62791Y-33527D01*
X62931Y-33527D01*
X62987Y-33499D01*
X63522Y-33359D02*
X63522Y-33837D01*
X63494Y-33893D01*
X63465Y-33921D01*
X63409Y-33949D01*
X63325Y-33949D01*
X63269Y-33921D01*
X63522Y-33724D02*
X63465Y-33752D01*
X63353Y-33752D01*
X63297Y-33724D01*
X63269Y-33696D01*
X63241Y-33640D01*
X63241Y-33471D01*
X63269Y-33415D01*
X63297Y-33387D01*
X63353Y-33359D01*
X63465Y-33359D01*
X63522Y-33387D01*
X63803Y-33752D02*
X63803Y-33359D01*
X63803Y-33162D02*
X63775Y-33190D01*
X63803Y-33218D01*
X63831Y-33190D01*
X63803Y-33162D01*
X63803Y-33218D01*
X64337Y-33724D02*
X64281Y-33752D01*
X64169Y-33752D01*
X64112Y-33724D01*
X64084Y-33696D01*
X64056Y-33640D01*
X64056Y-33471D01*
X64084Y-33415D01*
X64112Y-33387D01*
X64169Y-33359D01*
X64281Y-33359D01*
X64337Y-33387D01*
G54D13*
X70830Y-68368D02*
X70830Y-67974D01*
X70830Y-68161D02*
X71055Y-68161D01*
X71055Y-68368D02*
X71055Y-67974D01*
X71317Y-67974D02*
X71392Y-67974D01*
X71430Y-67993D01*
X71467Y-68030D01*
X71486Y-68105D01*
X71486Y-68236D01*
X71467Y-68311D01*
X71430Y-68349D01*
X71392Y-68368D01*
X71317Y-68368D01*
X71280Y-68349D01*
X71242Y-68311D01*
X71224Y-68236D01*
X71224Y-68105D01*
X71242Y-68030D01*
X71280Y-67993D01*
X71317Y-67974D01*
X71599Y-67974D02*
X71824Y-67974D01*
X71711Y-68368D02*
X71711Y-67974D01*
G54D10*
X103506Y-48704D02*
X102838Y-49372D01*
X105232Y-50430D02*
X104564Y-51098D01*
X105232Y-50430D02*
X103506Y-48704D01*
X102838Y-49372D02*
X104564Y-51098D01*
X86478Y-48704D02*
X85810Y-49372D01*
X88204Y-50430D02*
X87536Y-51098D01*
X88204Y-50430D02*
X86478Y-48704D01*
X85810Y-49372D02*
X87536Y-51098D01*
X78014Y-48704D02*
X77346Y-49372D01*
X79740Y-50430D02*
X79072Y-51098D01*
X79740Y-50430D02*
X78014Y-48704D01*
X77346Y-49372D02*
X79072Y-51098D01*
X106564Y-37834D02*
X107509Y-37834D01*
X106564Y-35393D02*
X107509Y-35393D01*
X106564Y-35393D02*
X106564Y-37834D01*
X107509Y-37834D02*
X107509Y-35393D01*
G54D16*
X76606Y-62462D02*
X76606Y-62712D01*
X76606Y-62712D02*
X72606Y-62712D01*
X72606Y-62712D02*
X72606Y-62462D01*
X76606Y-60962D02*
X76606Y-62462D01*
X76606Y-62462D02*
X72606Y-62462D01*
X72606Y-62462D02*
X72606Y-60962D01*
X72606Y-60962D02*
X76606Y-60962D01*
X80838Y-62462D02*
X80838Y-62712D01*
X80838Y-62712D02*
X76838Y-62712D01*
X76838Y-62712D02*
X76838Y-62462D01*
X80838Y-60962D02*
X80838Y-62462D01*
X80838Y-62462D02*
X76838Y-62462D01*
X76838Y-62462D02*
X76838Y-60962D01*
X76838Y-60962D02*
X80838Y-60962D01*
X85070Y-62462D02*
X85070Y-62712D01*
X85070Y-62712D02*
X81070Y-62712D01*
X81070Y-62712D02*
X81070Y-62462D01*
X85070Y-60962D02*
X85070Y-62462D01*
X85070Y-62462D02*
X81070Y-62462D01*
X81070Y-62462D02*
X81070Y-60962D01*
X81070Y-60962D02*
X85070Y-60962D01*
X89303Y-62462D02*
X89303Y-62712D01*
X89303Y-62712D02*
X85303Y-62712D01*
X85303Y-62712D02*
X85303Y-62462D01*
X89303Y-60962D02*
X89303Y-62462D01*
X89303Y-62462D02*
X85303Y-62462D01*
X85303Y-62462D02*
X85303Y-60962D01*
X85303Y-60962D02*
X89303Y-60962D01*
X93535Y-62462D02*
X93535Y-62712D01*
X93535Y-62712D02*
X89535Y-62712D01*
X89535Y-62712D02*
X89535Y-62462D01*
X93535Y-60962D02*
X93535Y-62462D01*
X93535Y-62462D02*
X89535Y-62462D01*
X89535Y-62462D02*
X89535Y-60962D01*
X89535Y-60962D02*
X93535Y-60962D01*
X97866Y-62462D02*
X97866Y-62712D01*
X97866Y-62712D02*
X93866Y-62712D01*
X93866Y-62712D02*
X93866Y-62462D01*
X97866Y-60962D02*
X97866Y-62462D01*
X97866Y-62462D02*
X93866Y-62462D01*
X93866Y-62462D02*
X93866Y-60962D01*
X93866Y-60962D02*
X97866Y-60962D01*
X102098Y-62462D02*
X102098Y-62712D01*
X102098Y-62712D02*
X98098Y-62712D01*
X98098Y-62712D02*
X98098Y-62462D01*
X102098Y-60962D02*
X102098Y-62462D01*
X102098Y-62462D02*
X98098Y-62462D01*
X98098Y-62462D02*
X98098Y-60962D01*
X98098Y-60962D02*
X102098Y-60962D01*
X106330Y-62462D02*
X106330Y-62712D01*
X106330Y-62712D02*
X102330Y-62712D01*
X102330Y-62712D02*
X102330Y-62462D01*
X106330Y-60962D02*
X106330Y-62462D01*
X106330Y-62462D02*
X102330Y-62462D01*
X102330Y-62462D02*
X102330Y-60962D01*
X102330Y-60962D02*
X106330Y-60962D01*
G54D17*
X72393Y-32557D02*
X72393Y-31557D01*
G54D18*
X71312Y-31673D02*
G75*
G03X71173Y-32057I460J-384D01*
G74*
G01*
X71173Y-32057D02*
G75*
G03X71325Y-32454I599J0D01*
G74*
G01*
X72372Y-32057D02*
G75*
G03X72228Y-31667I-599J0D01*
G74*
G01*
X72234Y-32441D02*
G75*
G03X72373Y-32057I-460J384D01*
G74*
G01*
X72261Y-31707D02*
G75*
G03X71773Y-31457I-487J-349D01*
G74*
G01*
X71773Y-31457D02*
G75*
G03X71293Y-31696I0J-600D01*
G74*
G01*
X71773Y-32656D02*
G75*
G03X72246Y-32425I0J599D01*
G74*
G01*
X71299Y-32425D02*
G75*
G03X71773Y-32657I473J368D01*
G74*
G01*
X71773Y-31807D02*
G75*
G03X71523Y-32057I0J-250D01*
G74*
G01*
X71773Y-31657D02*
G75*
G03X71373Y-32057I0J-400D01*
G74*
G01*
X71773Y-32307D02*
G75*
G03X72023Y-32057I0J250D01*
G74*
G01*
X71773Y-32457D02*
G75*
G03X72173Y-32057I0J400D01*
G74*
G01*
G54D17*
X72386Y-31543D02*
G75*
G03X71773Y-31257I-613J-513D01*
G74*
G01*
X71773Y-31258D02*
G75*
G03X71068Y-31680I0J-799D01*
G74*
G01*
X71774Y-32856D02*
G75*
G03X72383Y-32572I-1J798D01*
G74*
G01*
X71079Y-32454D02*
G75*
G03X71773Y-32857I694J397D01*
G74*
G01*
X71068Y-31677D02*
G75*
G03X70973Y-32057I704J-379D01*
G74*
G01*
X70973Y-32057D02*
G75*
G03X71092Y-32476I799J0D01*
G74*
G01*
X72393Y-40047D02*
X72393Y-39047D01*
G54D18*
X71312Y-39163D02*
G75*
G03X71173Y-39547I460J-384D01*
G74*
G01*
X71173Y-39547D02*
G75*
G03X71325Y-39945I599J0D01*
G74*
G01*
X72372Y-39547D02*
G75*
G03X72228Y-39157I-599J0D01*
G74*
G01*
X72234Y-39931D02*
G75*
G03X72373Y-39547I-460J384D01*
G74*
G01*
X72261Y-39197D02*
G75*
G03X71773Y-38947I-487J-349D01*
G74*
G01*
X71773Y-38947D02*
G75*
G03X71293Y-39186I0J-600D01*
G74*
G01*
X71773Y-40146D02*
G75*
G03X72246Y-39915I0J599D01*
G74*
G01*
X71299Y-39915D02*
G75*
G03X71773Y-40147I473J368D01*
G74*
G01*
X71773Y-39297D02*
G75*
G03X71523Y-39547I0J-250D01*
G74*
G01*
X71773Y-39147D02*
G75*
G03X71373Y-39547I0J-400D01*
G74*
G01*
X71773Y-39797D02*
G75*
G03X72023Y-39547I0J250D01*
G74*
G01*
X71773Y-39947D02*
G75*
G03X72173Y-39547I0J400D01*
G74*
G01*
G54D17*
X72386Y-39034D02*
G75*
G03X71773Y-38747I-613J-513D01*
G74*
G01*
X71773Y-38748D02*
G75*
G03X71068Y-39170I0J-799D01*
G74*
G01*
X71774Y-40346D02*
G75*
G03X72383Y-40062I-1J798D01*
G74*
G01*
X71079Y-39944D02*
G75*
G03X71773Y-40347I694J397D01*
G74*
G01*
X71068Y-39167D02*
G75*
G03X70973Y-39547I704J-379D01*
G74*
G01*
X70973Y-39547D02*
G75*
G03X71092Y-39966I799J0D01*
G74*
G01*
X72393Y-38108D02*
X72393Y-37108D01*
G54D18*
X71312Y-37224D02*
G75*
G03X71173Y-37608I460J-384D01*
G74*
G01*
X71173Y-37608D02*
G75*
G03X71325Y-38006I599J0D01*
G74*
G01*
X72372Y-37608D02*
G75*
G03X72228Y-37218I-599J0D01*
G74*
G01*
X72234Y-37992D02*
G75*
G03X72373Y-37608I-460J384D01*
G74*
G01*
X72261Y-37258D02*
G75*
G03X71773Y-37008I-487J-349D01*
G74*
G01*
X71773Y-37008D02*
G75*
G03X71293Y-37248I0J-600D01*
G74*
G01*
X71773Y-38207D02*
G75*
G03X72246Y-37976I0J599D01*
G74*
G01*
X71299Y-37976D02*
G75*
G03X71773Y-38208I473J368D01*
G74*
G01*
X71773Y-37358D02*
G75*
G03X71523Y-37608I0J-250D01*
G74*
G01*
X71773Y-37208D02*
G75*
G03X71373Y-37608I0J-400D01*
G74*
G01*
X71773Y-37858D02*
G75*
G03X72023Y-37608I0J250D01*
G74*
G01*
X71773Y-38008D02*
G75*
G03X72173Y-37608I0J400D01*
G74*
G01*
G54D17*
X72386Y-37095D02*
G75*
G03X71773Y-36808I-613J-513D01*
G74*
G01*
X71773Y-36809D02*
G75*
G03X71068Y-37231I0J-799D01*
G74*
G01*
X71774Y-38407D02*
G75*
G03X72383Y-38123I-1J798D01*
G74*
G01*
X71079Y-38005D02*
G75*
G03X71773Y-38408I694J397D01*
G74*
G01*
X71068Y-37228D02*
G75*
G03X70973Y-37608I704J-379D01*
G74*
G01*
X70973Y-37608D02*
G75*
G03X71092Y-38027I799J0D01*
G74*
G01*
X72393Y-36267D02*
X72393Y-35267D01*
G54D18*
X71312Y-35383D02*
G75*
G03X71173Y-35767I460J-384D01*
G74*
G01*
X71173Y-35767D02*
G75*
G03X71325Y-36165I599J0D01*
G74*
G01*
X72372Y-35767D02*
G75*
G03X72228Y-35377I-599J0D01*
G74*
G01*
X72234Y-36151D02*
G75*
G03X72373Y-35767I-460J384D01*
G74*
G01*
X72261Y-35418D02*
G75*
G03X71773Y-35167I-487J-349D01*
G74*
G01*
X71773Y-35167D02*
G75*
G03X71293Y-35407I0J-600D01*
G74*
G01*
X71773Y-36367D02*
G75*
G03X72246Y-36135I0J599D01*
G74*
G01*
X71299Y-36136D02*
G75*
G03X71773Y-36367I473J368D01*
G74*
G01*
X71773Y-35517D02*
G75*
G03X71523Y-35767I0J-250D01*
G74*
G01*
X71773Y-35367D02*
G75*
G03X71373Y-35767I0J-400D01*
G74*
G01*
X71773Y-36017D02*
G75*
G03X72023Y-35767I0J250D01*
G74*
G01*
X71773Y-36167D02*
G75*
G03X72173Y-35767I0J400D01*
G74*
G01*
G54D17*
X72386Y-35254D02*
G75*
G03X71773Y-34967I-613J-513D01*
G74*
G01*
X71773Y-34968D02*
G75*
G03X71068Y-35391I0J-799D01*
G74*
G01*
X71774Y-36566D02*
G75*
G03X72383Y-36283I-1J798D01*
G74*
G01*
X71079Y-36165D02*
G75*
G03X71773Y-36567I694J397D01*
G74*
G01*
X71068Y-35388D02*
G75*
G03X70973Y-35767I704J-379D01*
G74*
G01*
X70973Y-35767D02*
G75*
G03X71092Y-36186I799J0D01*
G74*
G01*
X66507Y-34003D02*
X66507Y-33003D01*
G54D18*
X65426Y-33119D02*
G75*
G03X65287Y-33503I460J-384D01*
G74*
G01*
X65288Y-33503D02*
G75*
G03X65439Y-33901I599J0D01*
G74*
G01*
X66486Y-33503D02*
G75*
G03X66342Y-33113I-599J0D01*
G74*
G01*
X66348Y-33888D02*
G75*
G03X66487Y-33503I-460J384D01*
G74*
G01*
X66375Y-33154D02*
G75*
G03X65887Y-32903I-487J-349D01*
G74*
G01*
X65887Y-32903D02*
G75*
G03X65407Y-33143I0J-600D01*
G74*
G01*
X65887Y-34103D02*
G75*
G03X66360Y-33872I0J599D01*
G74*
G01*
X65413Y-33872D02*
G75*
G03X65887Y-34103I473J368D01*
G74*
G01*
X65887Y-33253D02*
G75*
G03X65637Y-33503I0J-250D01*
G74*
G01*
X65887Y-33103D02*
G75*
G03X65487Y-33503I0J-400D01*
G74*
G01*
X65887Y-33753D02*
G75*
G03X66137Y-33503I0J250D01*
G74*
G01*
X65887Y-33903D02*
G75*
G03X66287Y-33503I0J400D01*
G74*
G01*
G54D17*
X66501Y-32990D02*
G75*
G03X65887Y-32703I-613J-513D01*
G74*
G01*
X65887Y-32704D02*
G75*
G03X65182Y-33127I0J-799D01*
G74*
G01*
X65888Y-34302D02*
G75*
G03X66497Y-34019I-1J798D01*
G74*
G01*
X65193Y-33901D02*
G75*
G03X65887Y-34303I694J397D01*
G74*
G01*
X65183Y-33124D02*
G75*
G03X65087Y-33503I704J-379D01*
G74*
G01*
X65087Y-33503D02*
G75*
G03X65206Y-33922I799J0D01*
G74*
G01*
X72393Y-34417D02*
X72393Y-33417D01*
G54D18*
X71312Y-33533D02*
G75*
G03X71173Y-33917I460J-384D01*
G74*
G01*
X71173Y-33917D02*
G75*
G03X71325Y-34315I599J0D01*
G74*
G01*
X72372Y-33917D02*
G75*
G03X72228Y-33527I-599J0D01*
G74*
G01*
X72234Y-34301D02*
G75*
G03X72373Y-33917I-460J384D01*
G74*
G01*
X72261Y-33568D02*
G75*
G03X71773Y-33317I-487J-349D01*
G74*
G01*
X71773Y-33317D02*
G75*
G03X71293Y-33557I0J-600D01*
G74*
G01*
X71773Y-34516D02*
G75*
G03X72246Y-34285I0J599D01*
G74*
G01*
X71299Y-34285D02*
G75*
G03X71773Y-34517I473J368D01*
G74*
G01*
X71773Y-33667D02*
G75*
G03X71523Y-33917I0J-250D01*
G74*
G01*
X71773Y-33517D02*
G75*
G03X71373Y-33917I0J-400D01*
G74*
G01*
X71773Y-34167D02*
G75*
G03X72023Y-33917I0J250D01*
G74*
G01*
X71773Y-34317D02*
G75*
G03X72173Y-33917I0J400D01*
G74*
G01*
G54D17*
X72386Y-33404D02*
G75*
G03X71773Y-33117I-613J-513D01*
G74*
G01*
X71773Y-33118D02*
G75*
G03X71068Y-33540I0J-799D01*
G74*
G01*
X71774Y-34716D02*
G75*
G03X72383Y-34433I-1J798D01*
G74*
G01*
X71079Y-34314D02*
G75*
G03X71773Y-34717I694J397D01*
G74*
G01*
X71068Y-33538D02*
G75*
G03X70973Y-33917I704J-379D01*
G74*
G01*
X70973Y-33917D02*
G75*
G03X71092Y-34336I799J0D01*
G74*
G01*
X98964Y-37354D02*
X99464Y-37354D01*
X99464Y-37354D02*
X99464Y-38354D01*
X99464Y-38354D02*
X98964Y-38354D01*
X98964Y-36854D02*
X102964Y-36854D01*
X102964Y-36854D02*
X102964Y-38854D01*
X102964Y-38854D02*
X98964Y-38854D01*
X98964Y-38854D02*
X98964Y-36854D01*
X79496Y-37354D02*
X79996Y-37354D01*
X79996Y-37354D02*
X79996Y-38354D01*
X79996Y-38354D02*
X79496Y-38354D01*
X79496Y-36854D02*
X83496Y-36854D01*
X83496Y-36854D02*
X83496Y-38854D01*
X83496Y-38854D02*
X79496Y-38854D01*
X79496Y-38854D02*
X79496Y-36854D01*
G54D16*
X106080Y-54937D02*
X102580Y-54937D01*
X102580Y-54937D02*
X102580Y-52937D01*
X102580Y-52937D02*
X106080Y-52937D01*
X106080Y-52937D02*
X106080Y-54937D01*
X106080Y-54187D02*
X105580Y-54187D01*
X105580Y-54187D02*
X105580Y-53687D01*
X105580Y-53687D02*
X106080Y-53687D01*
X89053Y-54937D02*
X85553Y-54937D01*
X85553Y-54937D02*
X85553Y-52937D01*
X85553Y-52937D02*
X89053Y-52937D01*
X89053Y-52937D02*
X89053Y-54937D01*
X89053Y-54187D02*
X88553Y-54187D01*
X88553Y-54187D02*
X88553Y-53687D01*
X88553Y-53687D02*
X89053Y-53687D01*
X93285Y-54937D02*
X89785Y-54937D01*
X89785Y-54937D02*
X89785Y-52937D01*
X89785Y-52937D02*
X93285Y-52937D01*
X93285Y-52937D02*
X93285Y-54937D01*
X93285Y-54187D02*
X92785Y-54187D01*
X92785Y-54187D02*
X92785Y-53687D01*
X92785Y-53687D02*
X93285Y-53687D01*
X97616Y-54937D02*
X94116Y-54937D01*
X94116Y-54937D02*
X94116Y-52937D01*
X94116Y-52937D02*
X97616Y-52937D01*
X97616Y-52937D02*
X97616Y-54937D01*
X97616Y-54187D02*
X97116Y-54187D01*
X97116Y-54187D02*
X97116Y-53687D01*
X97116Y-53687D02*
X97616Y-53687D01*
X64155Y-45594D02*
X67655Y-45594D01*
X67655Y-45594D02*
X67655Y-47594D01*
X67655Y-47594D02*
X64155Y-47594D01*
X64155Y-47594D02*
X64155Y-45594D01*
X64155Y-46344D02*
X64655Y-46344D01*
X64655Y-46344D02*
X64655Y-46844D01*
X64655Y-46844D02*
X64155Y-46844D01*
X101848Y-54937D02*
X98348Y-54937D01*
X98348Y-54937D02*
X98348Y-52937D01*
X98348Y-52937D02*
X101848Y-52937D01*
X101848Y-52937D02*
X101848Y-54937D01*
X101848Y-54187D02*
X101348Y-54187D01*
X101348Y-54187D02*
X101348Y-53687D01*
X101348Y-53687D02*
X101848Y-53687D01*
X76356Y-54937D02*
X72856Y-54937D01*
X72856Y-54937D02*
X72856Y-52937D01*
X72856Y-52937D02*
X76356Y-52937D01*
X76356Y-52937D02*
X76356Y-54937D01*
X76356Y-54187D02*
X75856Y-54187D01*
X75856Y-54187D02*
X75856Y-53687D01*
X75856Y-53687D02*
X76356Y-53687D01*
X84820Y-54937D02*
X81320Y-54937D01*
X81320Y-54937D02*
X81320Y-52937D01*
X81320Y-52937D02*
X84820Y-52937D01*
X84820Y-52937D02*
X84820Y-54937D01*
X84820Y-54187D02*
X84320Y-54187D01*
X84320Y-54187D02*
X84320Y-53687D01*
X84320Y-53687D02*
X84820Y-53687D01*
X80588Y-54937D02*
X77088Y-54937D01*
X77088Y-54937D02*
X77088Y-52937D01*
X77088Y-52937D02*
X80588Y-52937D01*
X80588Y-52937D02*
X80588Y-54937D01*
X80588Y-54187D02*
X80088Y-54187D01*
X80088Y-54187D02*
X80088Y-53687D01*
X80088Y-53687D02*
X80588Y-53687D01*
X70637Y-42236D02*
X70637Y-42236D01*
X70637Y-42236D02*
X71137Y-42236D01*
X71137Y-42236D02*
X71137Y-43236D01*
X71137Y-43236D02*
X70637Y-43236D01*
X70637Y-41736D02*
X79637Y-41736D01*
X79637Y-41736D02*
X79637Y-43736D01*
X79637Y-43736D02*
X70637Y-43736D01*
X70637Y-43736D02*
X70637Y-41736D01*
G54D10*
X86948Y-30905D02*
X86948Y-31850D01*
X89389Y-30905D02*
X89389Y-31850D01*
X89389Y-30905D02*
X86948Y-30905D01*
X86948Y-31850D02*
X89389Y-31850D01*
X82246Y-48704D02*
X81578Y-49372D01*
X83972Y-50430D02*
X83304Y-51098D01*
X83972Y-50430D02*
X82246Y-48704D01*
X81578Y-49372D02*
X83304Y-51098D01*
X73782Y-48704D02*
X73113Y-49372D01*
X75508Y-50430D02*
X74839Y-51098D01*
X75508Y-50430D02*
X73782Y-48704D01*
X73113Y-49372D02*
X74839Y-51098D01*
X66377Y-50314D02*
X65433Y-50314D01*
X66377Y-52755D02*
X65433Y-52755D01*
X66377Y-52755D02*
X66377Y-50314D01*
X65433Y-50314D02*
X65433Y-52755D01*
X64783Y-50318D02*
X63838Y-50318D01*
X64783Y-52759D02*
X63838Y-52759D01*
X64783Y-52759D02*
X64783Y-50318D01*
X63838Y-50318D02*
X63838Y-52759D01*
X89389Y-33425D02*
X89389Y-32480D01*
X86948Y-33425D02*
X86948Y-32480D01*
X86948Y-33425D02*
X89389Y-33425D01*
X89389Y-32480D02*
X86948Y-32480D01*
X95590Y-33425D02*
X95590Y-32480D01*
X93149Y-33425D02*
X93149Y-32480D01*
X93149Y-33425D02*
X95590Y-33425D01*
X95590Y-32480D02*
X93149Y-32480D01*
X103031Y-57047D02*
X102086Y-57047D01*
X103031Y-59488D02*
X102086Y-59488D01*
X103031Y-59488D02*
X103031Y-57047D01*
X102086Y-57047D02*
X102086Y-59488D01*
X93149Y-30905D02*
X93149Y-31850D01*
X95590Y-30905D02*
X95590Y-31850D01*
X95590Y-30905D02*
X93149Y-30905D01*
X93149Y-31850D02*
X95590Y-31850D01*
X62480Y-31929D02*
X62480Y-30984D01*
X60039Y-31929D02*
X60039Y-30984D01*
X60039Y-31929D02*
X62480Y-31929D01*
X62480Y-30984D02*
X60039Y-30984D01*
X90711Y-48704D02*
X90043Y-49372D01*
X92437Y-50430D02*
X91769Y-51098D01*
X92437Y-50430D02*
X90711Y-48704D01*
X90043Y-49372D02*
X91769Y-51098D01*
X95041Y-48704D02*
X94373Y-49372D01*
X96767Y-50430D02*
X96099Y-51098D01*
X96767Y-50430D02*
X95041Y-48704D01*
X94373Y-49372D02*
X96099Y-51098D01*
X99274Y-48704D02*
X98606Y-49372D01*
X101000Y-50430D02*
X100332Y-51098D01*
X101000Y-50430D02*
X99274Y-48704D01*
X98606Y-49372D02*
X100332Y-51098D01*
X99586Y-57145D02*
X98641Y-57145D01*
X99586Y-59586D02*
X98641Y-59586D01*
X99586Y-59586D02*
X99586Y-57145D01*
X98641Y-57145D02*
X98641Y-59586D01*
X95354Y-57145D02*
X94409Y-57145D01*
X95354Y-59586D02*
X94409Y-59586D01*
X95354Y-59586D02*
X95354Y-57145D01*
X94409Y-57145D02*
X94409Y-59586D01*
X91023Y-57145D02*
X90078Y-57145D01*
X91023Y-59586D02*
X90078Y-59586D01*
X91023Y-59586D02*
X91023Y-57145D01*
X90078Y-57145D02*
X90078Y-59586D01*
X86791Y-57145D02*
X85846Y-57145D01*
X86791Y-59586D02*
X85846Y-59586D01*
X86791Y-59586D02*
X86791Y-57145D01*
X85846Y-57145D02*
X85846Y-59586D01*
X82559Y-57145D02*
X81614Y-57145D01*
X82559Y-59586D02*
X81614Y-59586D01*
X82559Y-59586D02*
X82559Y-57145D01*
X81614Y-57145D02*
X81614Y-59586D01*
X78326Y-57145D02*
X77381Y-57145D01*
X78326Y-59586D02*
X77381Y-59586D01*
X78326Y-59586D02*
X78326Y-57145D01*
X77381Y-57145D02*
X77381Y-59586D01*
X74094Y-57145D02*
X73149Y-57145D01*
X74094Y-59586D02*
X73149Y-59586D01*
X74094Y-59586D02*
X74094Y-57145D01*
X73149Y-57145D02*
X73149Y-59586D01*
X66988Y-52755D02*
X67933Y-52755D01*
X66988Y-50314D02*
X67933Y-50314D01*
X66988Y-50314D02*
X66988Y-52755D01*
X67933Y-52755D02*
X67933Y-50314D01*
G54D13*
X69811Y-30937D02*
X63811Y-30937D01*
X63811Y-30937D02*
X63811Y-31937D01*
X63811Y-31937D02*
X69811Y-31937D01*
X69811Y-30937D02*
X69811Y-31937D01*
G54D19*
X63811Y-31937D02*
X63811Y-30937D01*
X64811Y-30937D02*
X64811Y-31937D01*
G54D10*
X71456Y-62303D02*
X71850Y-62303D01*
X71850Y-62303D02*
X71850Y-53149D01*
X71850Y-53149D02*
X71456Y-53149D01*
X69291Y-62303D02*
X69291Y-53149D01*
X69291Y-53149D02*
X69685Y-53149D01*
X69291Y-62303D02*
X69685Y-62303D01*
X54084Y-54472D02*
X54084Y-54248D01*
X54084Y-54248D02*
X54230Y-54248D01*
X68061Y-54472D02*
X68061Y-54248D01*
X68061Y-54248D02*
X67899Y-54248D01*
X54202Y-67736D02*
X54084Y-67736D01*
X68061Y-67736D02*
X67942Y-67736D01*
X64320Y-54248D02*
X54202Y-54248D01*
X54084Y-54468D02*
X54084Y-55255D01*
X64320Y-54248D02*
X67942Y-54248D01*
X68061Y-54468D02*
X68061Y-55295D01*
X68061Y-67066D02*
X68061Y-67736D01*
X67942Y-67736D02*
X54202Y-67736D01*
X54084Y-67736D02*
X54084Y-67066D01*
X68061Y-67066D02*
X68061Y-55255D01*
X54084Y-55255D02*
X54084Y-67066D01*
X72381Y-64370D02*
X68444Y-64350D01*
X68444Y-67716D02*
X72381Y-67716D01*
X72381Y-67716D02*
X72381Y-64370D01*
X68444Y-64370D02*
X68444Y-67716D01*
X76712Y-64370D02*
X72775Y-64350D01*
X72775Y-67716D02*
X76712Y-67716D01*
X76712Y-67716D02*
X76712Y-64370D01*
X72775Y-64370D02*
X72775Y-67716D01*
X80944Y-64370D02*
X77007Y-64350D01*
X77007Y-67716D02*
X80944Y-67716D01*
X80944Y-67716D02*
X80944Y-64370D01*
X77007Y-64370D02*
X77007Y-67716D01*
X85177Y-64370D02*
X81240Y-64350D01*
X81240Y-67716D02*
X85177Y-67716D01*
X85177Y-67716D02*
X85177Y-64370D01*
X81240Y-64370D02*
X81240Y-67716D01*
X89409Y-64370D02*
X85472Y-64350D01*
X85472Y-67716D02*
X89409Y-67716D01*
X89409Y-67716D02*
X89409Y-64370D01*
X85472Y-64370D02*
X85472Y-67716D01*
X93641Y-64370D02*
X89704Y-64350D01*
X89704Y-67716D02*
X93641Y-67716D01*
X93641Y-67716D02*
X93641Y-64370D01*
X89704Y-64370D02*
X89704Y-67716D01*
X97972Y-64370D02*
X94035Y-64350D01*
X94035Y-67716D02*
X97972Y-67716D01*
X97972Y-67716D02*
X97972Y-64370D01*
X94035Y-64370D02*
X94035Y-67716D01*
X102204Y-64370D02*
X98267Y-64350D01*
X98267Y-67716D02*
X102204Y-67716D01*
X102204Y-67716D02*
X102204Y-64370D01*
X98267Y-64370D02*
X98267Y-67716D01*
X106437Y-64370D02*
X102500Y-64350D01*
X102500Y-67716D02*
X106437Y-67716D01*
X106437Y-67716D02*
X106437Y-64370D01*
X102500Y-64370D02*
X102500Y-67716D01*
X55413Y-43463D02*
G75*
G03X55491Y-47164I1889J-1811D01*
G74*
G01*
X59862Y-45275D02*
G75*
G03X59862Y-45275I-2559J0D01*
G74*
G01*
G54D20*
X56299Y-34310D02*
G75*
G03X56180Y-35924I747J-866D01*
G74*
G01*
X58311Y-35177D02*
G75*
G03X58311Y-35177I-1185J0D01*
G74*
G01*
X89744Y-36188D02*
X90440Y-35492D01*
G54D10*
X90189Y-35269D02*
X89521Y-35937D01*
X91915Y-36995D02*
X91247Y-37663D01*
X91915Y-36995D02*
X90189Y-35269D01*
X89521Y-35937D02*
X91247Y-37663D01*
G54D20*
X86653Y-36188D02*
X87349Y-35492D01*
G54D10*
X87099Y-35269D02*
X86430Y-35937D01*
X88825Y-36995D02*
X88156Y-37663D01*
X88825Y-36995D02*
X87099Y-35269D01*
X86430Y-35937D02*
X88156Y-37663D01*
G54D21*
G36*
X61767Y-65547D02*
X61746Y-65560D01*
X61689Y-65570D01*
X61590Y-65578D01*
X61444Y-65583D01*
X61245Y-65587D01*
X60987Y-65588D01*
X60875Y-65588D01*
X60639Y-65587D01*
X60427Y-65584D01*
X60245Y-65580D01*
X60104Y-65574D01*
X60013Y-65568D01*
X59979Y-65561D01*
X59982Y-65521D01*
X60000Y-65431D01*
X60029Y-65302D01*
X60067Y-65146D01*
X60110Y-64978D01*
X60155Y-64809D01*
X60198Y-64652D01*
X60236Y-64520D01*
X60266Y-64426D01*
X60285Y-64382D01*
X60326Y-64373D01*
X60419Y-64365D01*
X60552Y-64358D01*
X60712Y-64353D01*
X60885Y-64349D01*
X61057Y-64347D01*
X61216Y-64347D01*
X61348Y-64349D01*
X61439Y-64354D01*
X61476Y-64361D01*
X61493Y-64402D01*
X61521Y-64495D01*
X61558Y-64627D01*
X61599Y-64784D01*
X61642Y-64955D01*
X61683Y-65126D01*
X61719Y-65284D01*
X61747Y-65415D01*
X61764Y-65508D01*
X61767Y-65547D01*
X61767Y-65547D01*
X61767Y-65547D01*
G37*
G36*
X62398Y-65212D02*
X62241Y-65300D01*
X62148Y-65349D01*
X62078Y-65381D01*
X62054Y-65388D01*
X62036Y-65381D01*
X62016Y-65356D01*
X61993Y-65304D01*
X61963Y-65217D01*
X61924Y-65088D01*
X61872Y-64908D01*
X61824Y-64738D01*
X61773Y-64561D01*
X61727Y-64404D01*
X61688Y-64279D01*
X61661Y-64199D01*
X61653Y-64179D01*
X61639Y-64160D01*
X61612Y-64146D01*
X61565Y-64136D01*
X61489Y-64130D01*
X61376Y-64127D01*
X61217Y-64126D01*
X61005Y-64128D01*
X60867Y-64129D01*
X60112Y-64138D01*
X60072Y-64272D01*
X59985Y-64555D01*
X59907Y-64805D01*
X59840Y-65014D01*
X59785Y-65178D01*
X59744Y-65290D01*
X59719Y-65344D01*
X59718Y-65347D01*
X59675Y-65380D01*
X59620Y-65377D01*
X59535Y-65335D01*
X59484Y-65302D01*
X59359Y-65221D01*
X59359Y-63658D01*
X59359Y-62096D01*
X59634Y-61851D01*
X59788Y-61713D01*
X59900Y-61615D01*
X59977Y-61550D01*
X60027Y-61512D01*
X60056Y-61495D01*
X60074Y-61495D01*
X60084Y-61502D01*
X60091Y-61541D01*
X60098Y-61637D01*
X60105Y-61784D01*
X60112Y-61972D01*
X60118Y-62194D01*
X60124Y-62441D01*
X60126Y-62549D01*
X60142Y-63572D01*
X60876Y-63572D01*
X61609Y-63572D01*
X61626Y-62538D01*
X61631Y-62243D01*
X61636Y-62009D01*
X61641Y-61828D01*
X61648Y-61696D01*
X61656Y-61604D01*
X61665Y-61548D01*
X61676Y-61520D01*
X61689Y-61515D01*
X61731Y-61540D01*
X61810Y-61603D01*
X61915Y-61692D01*
X62036Y-61800D01*
X62048Y-61811D01*
X62359Y-62096D01*
X62360Y-62467D01*
X62361Y-62590D01*
X62363Y-62769D01*
X62365Y-62993D01*
X62369Y-63250D01*
X62373Y-63530D01*
X62377Y-63823D01*
X62380Y-64025D01*
X62398Y-65212D01*
X62398Y-65212D01*
X62398Y-65212D01*
G37*
G36*
X59092Y-63978D02*
X59091Y-64268D01*
X59090Y-64503D01*
X59088Y-64688D01*
X59085Y-64829D01*
X59080Y-64933D01*
X59074Y-65004D01*
X59066Y-65050D01*
X59057Y-65074D01*
X59044Y-65084D01*
X59034Y-65085D01*
X58988Y-65071D01*
X58891Y-65033D01*
X58751Y-64975D01*
X58577Y-64901D01*
X58379Y-64815D01*
X58223Y-64745D01*
X57470Y-64408D01*
X57429Y-63906D01*
X57384Y-63348D01*
X57344Y-62852D01*
X57309Y-62415D01*
X57278Y-62034D01*
X57252Y-61704D01*
X57230Y-61422D01*
X57212Y-61184D01*
X57198Y-60986D01*
X57187Y-60826D01*
X57179Y-60698D01*
X57174Y-60600D01*
X57172Y-60527D01*
X57172Y-60476D01*
X57174Y-60443D01*
X57178Y-60425D01*
X57182Y-60419D01*
X57217Y-60426D01*
X57294Y-60464D01*
X57399Y-60524D01*
X57519Y-60598D01*
X57642Y-60678D01*
X57753Y-60755D01*
X57840Y-60821D01*
X57888Y-60866D01*
X57911Y-60921D01*
X57935Y-61021D01*
X57955Y-61145D01*
X57956Y-61148D01*
X57973Y-61269D01*
X57991Y-61365D01*
X58005Y-61415D01*
X58005Y-61416D01*
X58039Y-61443D01*
X58120Y-61499D01*
X58238Y-61578D01*
X58384Y-61672D01*
X58517Y-61756D01*
X58681Y-61860D01*
X58826Y-61955D01*
X58944Y-62035D01*
X59022Y-62092D01*
X59051Y-62116D01*
X59061Y-62145D01*
X59070Y-62206D01*
X59077Y-62303D01*
X59083Y-62443D01*
X59087Y-62629D01*
X59090Y-62865D01*
X59091Y-63158D01*
X59092Y-63511D01*
X59092Y-63628D01*
X59092Y-63978D01*
X59092Y-63978D01*
X59092Y-63978D01*
G37*
G36*
X64507Y-60492D02*
X64501Y-60641D01*
X64493Y-60756D01*
X64479Y-60938D01*
X64462Y-61160D01*
X64444Y-61396D01*
X64428Y-61617D01*
X64426Y-61638D01*
X64391Y-62119D01*
X64358Y-62561D01*
X64328Y-62962D01*
X64300Y-63318D01*
X64276Y-63626D01*
X64254Y-63882D01*
X64236Y-64083D01*
X64222Y-64227D01*
X64212Y-64309D01*
X64209Y-64327D01*
X64174Y-64355D01*
X64088Y-64408D01*
X63959Y-64479D01*
X63795Y-64564D01*
X63606Y-64660D01*
X63482Y-64720D01*
X63247Y-64834D01*
X63064Y-64922D01*
X62928Y-64987D01*
X62831Y-65033D01*
X62766Y-65062D01*
X62726Y-65077D01*
X62704Y-65082D01*
X62693Y-65079D01*
X62686Y-65071D01*
X62682Y-65067D01*
X62677Y-65030D01*
X62673Y-64933D01*
X62669Y-64783D01*
X62666Y-64587D01*
X62663Y-64352D01*
X62661Y-64084D01*
X62660Y-63791D01*
X62660Y-63574D01*
X62661Y-62105D01*
X63185Y-61755D01*
X63709Y-61405D01*
X63750Y-61155D01*
X63772Y-61024D01*
X63792Y-60911D01*
X63806Y-60840D01*
X63807Y-60836D01*
X63839Y-60789D01*
X63911Y-60721D01*
X64012Y-60639D01*
X64127Y-60552D01*
X64245Y-60470D01*
X64352Y-60401D01*
X64438Y-60355D01*
X64488Y-60341D01*
X64494Y-60343D01*
X64505Y-60390D01*
X64507Y-60492D01*
X64507Y-60492D01*
X64507Y-60492D01*
G37*
G36*
X61605Y-59182D02*
X61603Y-59220D01*
X61590Y-59314D01*
X61568Y-59453D01*
X61538Y-59628D01*
X61502Y-59829D01*
X61488Y-59905D01*
X61357Y-60605D01*
X61359Y-61976D01*
X61359Y-62317D01*
X61359Y-62596D01*
X61358Y-62822D01*
X61355Y-62998D01*
X61352Y-63132D01*
X61347Y-63229D01*
X61340Y-63295D01*
X61331Y-63336D01*
X61319Y-63359D01*
X61307Y-63368D01*
X61241Y-63380D01*
X61130Y-63387D01*
X60989Y-63390D01*
X60835Y-63389D01*
X60683Y-63383D01*
X60550Y-63375D01*
X60450Y-63363D01*
X60400Y-63349D01*
X60399Y-63348D01*
X60388Y-63319D01*
X60379Y-63253D01*
X60372Y-63144D01*
X60367Y-62989D01*
X60363Y-62783D01*
X60360Y-62523D01*
X60359Y-62203D01*
X60359Y-61955D01*
X60359Y-61611D01*
X60358Y-61325D01*
X60356Y-61091D01*
X60352Y-60900D01*
X60347Y-60743D01*
X60340Y-60614D01*
X60331Y-60505D01*
X60319Y-60406D01*
X60304Y-60312D01*
X60290Y-60236D01*
X60256Y-60049D01*
X60219Y-59849D01*
X60186Y-59666D01*
X60172Y-59588D01*
X60147Y-59452D01*
X60125Y-59336D01*
X60109Y-59260D01*
X60105Y-59247D01*
X60105Y-59205D01*
X60143Y-59191D01*
X60223Y-59206D01*
X60351Y-59251D01*
X60521Y-59322D01*
X60658Y-59378D01*
X60778Y-59423D01*
X60863Y-59450D01*
X60891Y-59455D01*
X60947Y-59441D01*
X61046Y-59405D01*
X61174Y-59351D01*
X61273Y-59307D01*
X61404Y-59248D01*
X61512Y-59205D01*
X61584Y-59183D01*
X61605Y-59182D01*
X61605Y-59182D01*
X61605Y-59182D01*
G37*
G36*
X60075Y-60721D02*
X60074Y-60724D01*
X60036Y-60733D01*
X59939Y-60740D01*
X59791Y-60746D01*
X59598Y-60750D01*
X59553Y-60750D01*
X59553Y-60228D01*
X59546Y-60176D01*
X59532Y-60151D01*
X59497Y-60121D01*
X59435Y-60084D01*
X59340Y-60036D01*
X59319Y-60026D01*
X59319Y-59400D01*
X59315Y-59349D01*
X59283Y-59301D01*
X59215Y-59250D01*
X59104Y-59191D01*
X58940Y-59119D01*
X58842Y-59079D01*
X58674Y-59010D01*
X58467Y-58926D01*
X58245Y-58835D01*
X58031Y-58747D01*
X57978Y-58726D01*
X57807Y-58656D01*
X57656Y-58597D01*
X57537Y-58553D01*
X57460Y-58526D01*
X57440Y-58522D01*
X57392Y-58548D01*
X57375Y-58611D01*
X57394Y-58686D01*
X57401Y-58697D01*
X57440Y-58724D01*
X57532Y-58770D01*
X57667Y-58833D01*
X57835Y-58908D01*
X58027Y-58991D01*
X58233Y-59078D01*
X58444Y-59165D01*
X58650Y-59249D01*
X58842Y-59325D01*
X59011Y-59390D01*
X59145Y-59439D01*
X59237Y-59468D01*
X59276Y-59475D01*
X59307Y-59439D01*
X59319Y-59400D01*
X59319Y-60026D01*
X59206Y-59974D01*
X59027Y-59896D01*
X58797Y-59799D01*
X58585Y-59711D01*
X58350Y-59614D01*
X58134Y-59526D01*
X57946Y-59450D01*
X57794Y-59388D01*
X57684Y-59345D01*
X57625Y-59323D01*
X57617Y-59321D01*
X57600Y-59350D01*
X57592Y-59420D01*
X57592Y-59421D01*
X57595Y-59465D01*
X57608Y-59504D01*
X57640Y-59541D01*
X57697Y-59580D01*
X57787Y-59627D01*
X57918Y-59686D01*
X58097Y-59761D01*
X58292Y-59841D01*
X58498Y-59925D01*
X58708Y-60011D01*
X58904Y-60091D01*
X59068Y-60159D01*
X59142Y-60190D01*
X59299Y-60255D01*
X59405Y-60295D01*
X59473Y-60313D01*
X59513Y-60313D01*
X59537Y-60296D01*
X59543Y-60286D01*
X59553Y-60228D01*
X59553Y-60750D01*
X59368Y-60752D01*
X59132Y-60752D01*
X58209Y-60749D01*
X57669Y-60393D01*
X57501Y-60282D01*
X57353Y-60183D01*
X57233Y-60102D01*
X57150Y-60046D01*
X57113Y-60020D01*
X57112Y-60019D01*
X57098Y-59979D01*
X57075Y-59880D01*
X57043Y-59727D01*
X57004Y-59527D01*
X56959Y-59287D01*
X56908Y-59012D01*
X56853Y-58709D01*
X56796Y-58384D01*
X56774Y-58255D01*
X56735Y-58029D01*
X56696Y-57811D01*
X56661Y-57614D01*
X56632Y-57453D01*
X56611Y-57340D01*
X56607Y-57322D01*
X56585Y-57182D01*
X56585Y-57096D01*
X56599Y-57064D01*
X56635Y-57046D01*
X56713Y-57034D01*
X56842Y-57026D01*
X57026Y-57022D01*
X57164Y-57021D01*
X57367Y-57020D01*
X57514Y-57022D01*
X57617Y-57034D01*
X57687Y-57066D01*
X57734Y-57124D01*
X57769Y-57218D01*
X57804Y-57354D01*
X57843Y-57522D01*
X57882Y-57680D01*
X57919Y-57829D01*
X57949Y-57946D01*
X57962Y-57996D01*
X57973Y-58033D01*
X57988Y-58065D01*
X58016Y-58097D01*
X58061Y-58134D01*
X58131Y-58179D01*
X58233Y-58235D01*
X58372Y-58308D01*
X58556Y-58402D01*
X58791Y-58520D01*
X58877Y-58563D01*
X59132Y-58691D01*
X59334Y-58794D01*
X59489Y-58875D01*
X59603Y-58939D01*
X59683Y-58988D01*
X59736Y-59028D01*
X59768Y-59062D01*
X59786Y-59093D01*
X59790Y-59105D01*
X59810Y-59181D01*
X59836Y-59304D01*
X59868Y-59463D01*
X59903Y-59648D01*
X59939Y-59847D01*
X59974Y-60049D01*
X60007Y-60243D01*
X60036Y-60418D01*
X60058Y-60564D01*
X60071Y-60668D01*
X60075Y-60721D01*
X60075Y-60721D01*
X60075Y-60721D01*
G37*
G36*
X65076Y-57038D02*
X65068Y-57188D01*
X65059Y-57274D01*
X65039Y-57410D01*
X65011Y-57579D01*
X64977Y-57764D01*
X64963Y-57838D01*
X64927Y-58022D01*
X64882Y-58254D01*
X64831Y-58515D01*
X64778Y-58788D01*
X64726Y-59054D01*
X64709Y-59141D01*
X64665Y-59365D01*
X64624Y-59568D01*
X64587Y-59739D01*
X64558Y-59871D01*
X64538Y-59954D01*
X64531Y-59977D01*
X64497Y-60005D01*
X64418Y-60064D01*
X64300Y-60148D01*
X64259Y-60176D01*
X64259Y-58535D01*
X64259Y-58505D01*
X64259Y-58501D01*
X64251Y-58421D01*
X64232Y-58376D01*
X64231Y-58375D01*
X64195Y-58384D01*
X64106Y-58419D01*
X63973Y-58475D01*
X63802Y-58550D01*
X63601Y-58641D01*
X63378Y-58743D01*
X63289Y-58784D01*
X63031Y-58905D01*
X62826Y-59002D01*
X62669Y-59078D01*
X62553Y-59137D01*
X62471Y-59183D01*
X62419Y-59218D01*
X62388Y-59249D01*
X62372Y-59276D01*
X62366Y-59306D01*
X62365Y-59316D01*
X62367Y-59394D01*
X62397Y-59421D01*
X62406Y-59422D01*
X62451Y-59408D01*
X62547Y-59372D01*
X62684Y-59316D01*
X62851Y-59245D01*
X63039Y-59163D01*
X63083Y-59143D01*
X63382Y-59010D01*
X63625Y-58902D01*
X63818Y-58814D01*
X63968Y-58745D01*
X64079Y-58690D01*
X64158Y-58648D01*
X64209Y-58614D01*
X64240Y-58586D01*
X64254Y-58561D01*
X64259Y-58535D01*
X64259Y-60176D01*
X64154Y-60250D01*
X64152Y-60251D01*
X64152Y-59285D01*
X64134Y-59230D01*
X64091Y-59216D01*
X64047Y-59232D01*
X63952Y-59270D01*
X63815Y-59327D01*
X63646Y-59399D01*
X63455Y-59480D01*
X63251Y-59568D01*
X63044Y-59657D01*
X62844Y-59744D01*
X62660Y-59825D01*
X62503Y-59894D01*
X62420Y-59932D01*
X62266Y-60011D01*
X62172Y-60078D01*
X62143Y-60118D01*
X62137Y-60202D01*
X62175Y-60249D01*
X62206Y-60255D01*
X62246Y-60242D01*
X62339Y-60205D01*
X62478Y-60149D01*
X62652Y-60075D01*
X62855Y-59988D01*
X63079Y-59891D01*
X63124Y-59872D01*
X63350Y-59773D01*
X63555Y-59684D01*
X63733Y-59608D01*
X63876Y-59548D01*
X63974Y-59507D01*
X64022Y-59489D01*
X64024Y-59488D01*
X64063Y-59466D01*
X64106Y-59424D01*
X64143Y-59357D01*
X64152Y-59285D01*
X64152Y-60251D01*
X63987Y-60365D01*
X63961Y-60382D01*
X63414Y-60755D01*
X62538Y-60755D01*
X62304Y-60754D01*
X62091Y-60751D01*
X61910Y-60746D01*
X61770Y-60741D01*
X61678Y-60734D01*
X61645Y-60727D01*
X61646Y-60686D01*
X61659Y-60591D01*
X61683Y-60452D01*
X61714Y-60281D01*
X61751Y-60087D01*
X61792Y-59882D01*
X61834Y-59676D01*
X61876Y-59479D01*
X61915Y-59304D01*
X61949Y-59160D01*
X61975Y-59057D01*
X61993Y-59008D01*
X61994Y-59006D01*
X62032Y-58983D01*
X62121Y-58933D01*
X62254Y-58863D01*
X62424Y-58774D01*
X62621Y-58672D01*
X62839Y-58561D01*
X62885Y-58538D01*
X63742Y-58105D01*
X63826Y-57598D01*
X63857Y-57420D01*
X63887Y-57265D01*
X63915Y-57144D01*
X63937Y-57071D01*
X63945Y-57056D01*
X63995Y-57041D01*
X64110Y-57031D01*
X64286Y-57027D01*
X64522Y-57029D01*
X64528Y-57029D01*
X65076Y-57038D01*
X65076Y-57038D01*
X65076Y-57038D01*
G37*
G36*
X63625Y-57197D02*
X63619Y-57276D01*
X63605Y-57393D01*
X63585Y-57530D01*
X63562Y-57670D01*
X63539Y-57794D01*
X63519Y-57886D01*
X63507Y-57925D01*
X63469Y-57953D01*
X63383Y-58002D01*
X63259Y-58067D01*
X63110Y-58141D01*
X63062Y-58164D01*
X62916Y-58233D01*
X62724Y-58325D01*
X62497Y-58433D01*
X62251Y-58551D01*
X61998Y-58672D01*
X61808Y-58763D01*
X61808Y-57620D01*
X61771Y-57611D01*
X61677Y-57605D01*
X61538Y-57600D01*
X61364Y-57597D01*
X61165Y-57596D01*
X60951Y-57597D01*
X60732Y-57599D01*
X60520Y-57602D01*
X60323Y-57607D01*
X60153Y-57614D01*
X60020Y-57621D01*
X59934Y-57630D01*
X59905Y-57638D01*
X59928Y-57666D01*
X59998Y-57720D01*
X60104Y-57793D01*
X60233Y-57878D01*
X60376Y-57969D01*
X60521Y-58058D01*
X60657Y-58137D01*
X60772Y-58202D01*
X60855Y-58243D01*
X60893Y-58255D01*
X60952Y-58236D01*
X61037Y-58189D01*
X61081Y-58159D01*
X61165Y-58100D01*
X61285Y-58017D01*
X61424Y-57921D01*
X61520Y-57857D01*
X61641Y-57772D01*
X61736Y-57698D01*
X61795Y-57644D01*
X61808Y-57620D01*
X61808Y-58763D01*
X61783Y-58775D01*
X61560Y-58882D01*
X61356Y-58977D01*
X61179Y-59059D01*
X61036Y-59124D01*
X60936Y-59167D01*
X60886Y-59185D01*
X60883Y-59186D01*
X60842Y-59171D01*
X60750Y-59132D01*
X60617Y-59072D01*
X60451Y-58996D01*
X60263Y-58908D01*
X60176Y-58867D01*
X59927Y-58749D01*
X59649Y-58619D01*
X59364Y-58485D01*
X59096Y-58361D01*
X58892Y-58267D01*
X58703Y-58179D01*
X58533Y-58098D01*
X58393Y-58029D01*
X58292Y-57977D01*
X58240Y-57947D01*
X58236Y-57944D01*
X58215Y-57900D01*
X58183Y-57808D01*
X58145Y-57685D01*
X58106Y-57547D01*
X58070Y-57411D01*
X58042Y-57293D01*
X58027Y-57211D01*
X58026Y-57191D01*
X58057Y-57147D01*
X58145Y-57095D01*
X58280Y-57037D01*
X58454Y-56976D01*
X58657Y-56916D01*
X58880Y-56861D01*
X59059Y-56823D01*
X59234Y-56790D01*
X59385Y-56764D01*
X59528Y-56744D01*
X59677Y-56728D01*
X59848Y-56715D01*
X60056Y-56702D01*
X60290Y-56690D01*
X60677Y-56677D01*
X61064Y-56676D01*
X61444Y-56687D01*
X61812Y-56709D01*
X62161Y-56740D01*
X62486Y-56780D01*
X62782Y-56828D01*
X63043Y-56884D01*
X63262Y-56945D01*
X63435Y-57012D01*
X63555Y-57084D01*
X63617Y-57159D01*
X63625Y-57197D01*
X63625Y-57197D01*
X63625Y-57197D01*
G37*
G36*
X69246Y-40375D02*
X69207Y-40371D01*
X69112Y-40353D01*
X68967Y-40322D01*
X68781Y-40279D01*
X68561Y-40226D01*
X68314Y-40166D01*
X68100Y-40113D01*
X67838Y-40047D01*
X67596Y-39987D01*
X67382Y-39934D01*
X67204Y-39890D01*
X67069Y-39857D01*
X66985Y-39837D01*
X66960Y-39832D01*
X66952Y-39863D01*
X66945Y-39951D01*
X66940Y-40083D01*
X66936Y-40251D01*
X66935Y-40415D01*
X66935Y-40998D01*
X66085Y-40998D01*
X65235Y-40998D01*
X65235Y-40420D01*
X65234Y-40231D01*
X65232Y-40065D01*
X65228Y-39935D01*
X65223Y-39851D01*
X65218Y-39825D01*
X65183Y-39830D01*
X65092Y-39850D01*
X64952Y-39885D01*
X64772Y-39932D01*
X64559Y-39990D01*
X64322Y-40055D01*
X64210Y-40087D01*
X63960Y-40157D01*
X63729Y-40222D01*
X63524Y-40279D01*
X63354Y-40327D01*
X63228Y-40362D01*
X63153Y-40382D01*
X63140Y-40386D01*
X63131Y-40376D01*
X63151Y-40333D01*
X63203Y-40252D01*
X63289Y-40132D01*
X63411Y-39970D01*
X63572Y-39762D01*
X63772Y-39506D01*
X63799Y-39472D01*
X63969Y-39256D01*
X64125Y-39057D01*
X64262Y-38881D01*
X64377Y-38734D01*
X64463Y-38622D01*
X64518Y-38550D01*
X64535Y-38525D01*
X64504Y-38524D01*
X64417Y-38529D01*
X64284Y-38539D01*
X64117Y-38554D01*
X63944Y-38570D01*
X63754Y-38588D01*
X63587Y-38602D01*
X63456Y-38612D01*
X63370Y-38616D01*
X63342Y-38615D01*
X63359Y-38587D01*
X63413Y-38514D01*
X63499Y-38401D01*
X63613Y-38255D01*
X63749Y-38082D01*
X63903Y-37888D01*
X64002Y-37765D01*
X64164Y-37561D01*
X64312Y-37375D01*
X64440Y-37212D01*
X64543Y-37078D01*
X64617Y-36981D01*
X64657Y-36925D01*
X64662Y-36914D01*
X64627Y-36913D01*
X64538Y-36921D01*
X64411Y-36935D01*
X64259Y-36955D01*
X64104Y-36974D01*
X63976Y-36987D01*
X63886Y-36992D01*
X63849Y-36989D01*
X63864Y-36960D01*
X63913Y-36882D01*
X63992Y-36762D01*
X64097Y-36606D01*
X64223Y-36421D01*
X64366Y-36212D01*
X64521Y-35986D01*
X64685Y-35749D01*
X64853Y-35507D01*
X65021Y-35266D01*
X65184Y-35033D01*
X65338Y-34814D01*
X65479Y-34615D01*
X65603Y-34442D01*
X65704Y-34301D01*
X65780Y-34199D01*
X65825Y-34142D01*
X65836Y-34131D01*
X65859Y-34157D01*
X65918Y-34230D01*
X66009Y-34346D01*
X66128Y-34497D01*
X66269Y-34680D01*
X66430Y-34889D01*
X66606Y-35117D01*
X66792Y-35360D01*
X66984Y-35612D01*
X67179Y-35867D01*
X67372Y-36119D01*
X67558Y-36364D01*
X67734Y-36596D01*
X67894Y-36809D01*
X68036Y-36997D01*
X68155Y-37156D01*
X68246Y-37279D01*
X68306Y-37361D01*
X68329Y-37396D01*
X68303Y-37397D01*
X68225Y-37379D01*
X68104Y-37345D01*
X67951Y-37297D01*
X67851Y-37264D01*
X67687Y-37211D01*
X67550Y-37170D01*
X67450Y-37144D01*
X67398Y-37136D01*
X67393Y-37141D01*
X67462Y-37233D01*
X67557Y-37361D01*
X67673Y-37518D01*
X67804Y-37696D01*
X67945Y-37889D01*
X68091Y-38089D01*
X68236Y-38288D01*
X68376Y-38480D01*
X68504Y-38657D01*
X68616Y-38812D01*
X68706Y-38937D01*
X68769Y-39025D01*
X68800Y-39070D01*
X68802Y-39074D01*
X68771Y-39072D01*
X68688Y-39055D01*
X68562Y-39025D01*
X68405Y-38986D01*
X68310Y-38961D01*
X68137Y-38916D01*
X67986Y-38878D01*
X67870Y-38849D01*
X67800Y-38833D01*
X67785Y-38831D01*
X67800Y-38854D01*
X67857Y-38918D01*
X67950Y-39018D01*
X68075Y-39148D01*
X68226Y-39303D01*
X68399Y-39477D01*
X68514Y-39594D01*
X68697Y-39778D01*
X68863Y-39948D01*
X69005Y-40097D01*
X69119Y-40220D01*
X69200Y-40310D01*
X69242Y-40363D01*
X69246Y-40375D01*
X69246Y-40375D01*
X69246Y-40375D01*
G37*
G36*
X65902Y-33881D02*
X65885Y-33898D01*
X65869Y-33881D01*
X65885Y-33865D01*
X65902Y-33881D01*
X65902Y-33881D01*
X65902Y-33881D01*
G37*
G36*
X65969Y-33881D02*
X65952Y-33898D01*
X65935Y-33881D01*
X65952Y-33865D01*
X65969Y-33881D01*
X65969Y-33881D01*
X65969Y-33881D01*
G37*
G54D20*
X54996Y-38251D02*
G75*
G03X54996Y-38251I-507J0D01*
G74*
G01*
X54996Y-40960D02*
G75*
G03X54996Y-40960I-507J0D01*
G74*
G01*
X66377Y-43700D02*
G75*
G03X66377Y-43700I-507J0D01*
G74*
G01*
X85531Y-39940D02*
G75*
G03X85531Y-39940I-507J0D01*
G74*
G01*
X87460Y-39940D02*
G75*
G03X87460Y-39940I-507J0D01*
G74*
G01*
X91791Y-30885D02*
G75*
G03X91791Y-30885I-507J0D01*
G74*
G01*
X91771Y-33484D02*
G75*
G03X91771Y-33484I-507J0D01*
G74*
G01*
X77244Y-30944D02*
G75*
G03X77244Y-30944I-507J0D01*
G74*
G01*
X77244Y-33503D02*
G75*
G03X77244Y-33503I-507J0D01*
G74*
G01*
X103385Y-51003D02*
G75*
G03X103385Y-51003I-507J0D01*
G74*
G01*
X57677Y-52362D02*
X56692Y-52362D01*
G54D10*
X56712Y-52696D02*
X57657Y-52696D01*
X56712Y-50255D02*
X57657Y-50255D01*
X56712Y-50255D02*
X56712Y-52696D01*
X57657Y-52696D02*
X57657Y-50255D01*
G54D20*
X54822Y-50590D02*
X55807Y-50590D01*
G54D10*
X55787Y-50255D02*
X54842Y-50255D01*
X55787Y-52696D02*
X54842Y-52696D01*
X55787Y-52696D02*
X55787Y-50255D01*
X54842Y-50255D02*
X54842Y-52696D01*
G54D20*
X59448Y-50590D02*
X60433Y-50590D01*
G54D10*
X60413Y-50255D02*
X59468Y-50255D01*
X60413Y-52696D02*
X59468Y-52696D01*
X60413Y-52696D02*
X60413Y-50255D01*
X59468Y-50255D02*
X59468Y-52696D01*
G54D20*
X62204Y-52362D02*
X61220Y-52362D01*
G54D10*
X61240Y-52696D02*
X62185Y-52696D01*
X61240Y-50255D02*
X62185Y-50255D01*
X61240Y-50255D02*
X61240Y-52696D01*
X62185Y-52696D02*
X62185Y-50255D01*
G54D20*
X89362Y-39940D02*
G75*
G03X89362Y-39940I-507J0D01*
G74*
G01*
X99055Y-51003D02*
G75*
G03X99055Y-51003I-507J0D01*
G74*
G01*
X94645Y-51003D02*
G75*
G03X94645Y-51003I-507J0D01*
G74*
G01*
X90433Y-51003D02*
G75*
G03X90433Y-51003I-507J0D01*
G74*
G01*
X86338Y-51003D02*
G75*
G03X86338Y-51003I-507J0D01*
G74*
G01*
X81929Y-51003D02*
G75*
G03X81929Y-51003I-507J0D01*
G74*
G01*
X77677Y-51003D02*
G75*
G03X77677Y-51003I-507J0D01*
G74*
G01*
X73366Y-51003D02*
G75*
G03X73366Y-51003I-507J0D01*
G74*
G01*
X105818Y-47814D02*
G75*
G03X105818Y-47814I-507J0D01*
G74*
G01*
X105838Y-40157D02*
G75*
G03X105838Y-40157I-507J0D01*
G74*
G01*
G54D19*
X106070Y-37643D02*
X105070Y-37643D01*
X105070Y-37643D02*
X105070Y-35643D01*
X105070Y-35643D02*
X106070Y-35643D01*
X106070Y-35643D02*
X106070Y-37643D01*
G54D16*
X56454Y-41606D02*
X56204Y-41606D01*
X56204Y-41606D02*
X56204Y-37606D01*
X56204Y-37606D02*
X56454Y-37606D01*
X57954Y-41606D02*
X56454Y-41606D01*
X56454Y-41606D02*
X56454Y-37606D01*
X56454Y-37606D02*
X57954Y-37606D01*
X57954Y-37606D02*
X57954Y-41606D01*
G54D20*
X103940Y-30263D02*
X103940Y-35287D01*
X97944Y-30263D02*
X97940Y-35283D01*
G54D22*
X103944Y-30262D02*
X97944Y-30262D01*
X97944Y-35279D02*
X103944Y-35279D01*
G54D20*
X84492Y-30283D02*
X84492Y-35307D01*
X78496Y-30283D02*
X78492Y-35303D01*
G54D22*
X84496Y-30281D02*
X78496Y-30281D01*
X78496Y-35299D02*
X84496Y-35299D01*
G54D16*
X101740Y-44771D02*
X101240Y-44771D01*
X101240Y-44771D02*
X101240Y-43771D01*
X101240Y-43771D02*
X101740Y-43771D01*
X101740Y-46771D02*
X80740Y-46771D01*
X80740Y-46771D02*
X80740Y-41771D01*
X80740Y-41771D02*
X101740Y-41771D01*
X101740Y-41771D02*
X101740Y-46771D01*
G54D10*
X107559Y-42755D02*
X107559Y-46771D01*
X103582Y-41771D02*
X106673Y-41771D01*
X102539Y-42775D02*
X102539Y-45767D01*
X107539Y-46771D02*
X103523Y-46771D01*
X102539Y-45748D02*
G75*
G03X103562Y-46771I1023J0D01*
G74*
G01*
X103582Y-41771D02*
G75*
G03X102539Y-42775I-19J-1023D01*
G74*
G01*
X107559Y-42774D02*
G75*
G03X106633Y-41771I-964J38D01*
G74*
G01*
G54D20*
X86486Y-37460D02*
G75*
G03X86486Y-37460I-507J0D01*
G74*
G01*
X94708Y-36055D02*
X96283Y-36055D01*
X96283Y-36055D02*
X96283Y-36547D01*
X96283Y-36547D02*
X97267Y-36547D01*
X94511Y-36547D02*
X94708Y-36547D01*
X94708Y-36547D02*
X94708Y-36055D01*
X94511Y-36547D02*
X93625Y-36547D01*
X93625Y-36547D02*
X93625Y-39106D01*
X93625Y-39106D02*
X97267Y-39106D01*
X97267Y-39106D02*
X97267Y-36547D01*
G54D10*
X103890Y-49523D02*
X103837Y-49470D01*
X103797Y-49457D01*
X103771Y-49457D01*
X103705Y-49470D01*
X103638Y-49510D01*
X103532Y-49616D01*
X103519Y-49656D01*
X103519Y-49682D01*
X103532Y-49722D01*
X103585Y-49775D01*
X103625Y-49788D01*
X103651Y-49788D01*
X103691Y-49775D01*
X103758Y-49709D01*
X103771Y-49669D01*
X103771Y-49643D01*
X103758Y-49603D01*
X103705Y-49550D01*
X103665Y-49537D01*
X103638Y-49537D01*
X103598Y-49550D01*
X103956Y-49828D02*
X103943Y-49788D01*
X103943Y-49762D01*
X103956Y-49722D01*
X103970Y-49709D01*
X104009Y-49696D01*
X104036Y-49696D01*
X104076Y-49709D01*
X104129Y-49762D01*
X104142Y-49802D01*
X104142Y-49828D01*
X104129Y-49868D01*
X104115Y-49881D01*
X104076Y-49894D01*
X104049Y-49894D01*
X104009Y-49881D01*
X103956Y-49828D01*
X103917Y-49815D01*
X103890Y-49815D01*
X103850Y-49828D01*
X103797Y-49881D01*
X103784Y-49921D01*
X103784Y-49947D01*
X103797Y-49987D01*
X103850Y-50040D01*
X103890Y-50054D01*
X103917Y-50054D01*
X103956Y-50040D01*
X104009Y-49987D01*
X104023Y-49947D01*
X104023Y-49921D01*
X104009Y-49881D01*
X104354Y-49987D02*
X104381Y-50014D01*
X104394Y-50054D01*
X104394Y-50080D01*
X104381Y-50120D01*
X104341Y-50186D01*
X104275Y-50252D01*
X104208Y-50292D01*
X104168Y-50305D01*
X104142Y-50305D01*
X104102Y-50292D01*
X104076Y-50266D01*
X104062Y-50226D01*
X104062Y-50199D01*
X104076Y-50160D01*
X104115Y-50093D01*
X104182Y-50027D01*
X104248Y-49987D01*
X104288Y-49974D01*
X104314Y-49974D01*
X104354Y-49987D01*
X86961Y-49523D02*
X86908Y-49470D01*
X86868Y-49457D01*
X86842Y-49457D01*
X86775Y-49470D01*
X86709Y-49510D01*
X86603Y-49616D01*
X86590Y-49656D01*
X86590Y-49682D01*
X86603Y-49722D01*
X86656Y-49775D01*
X86696Y-49788D01*
X86722Y-49788D01*
X86762Y-49775D01*
X86828Y-49709D01*
X86842Y-49669D01*
X86842Y-49643D01*
X86828Y-49603D01*
X86775Y-49550D01*
X86736Y-49537D01*
X86709Y-49537D01*
X86669Y-49550D01*
X87027Y-49828D02*
X87014Y-49788D01*
X87014Y-49762D01*
X87027Y-49722D01*
X87041Y-49709D01*
X87080Y-49696D01*
X87107Y-49696D01*
X87147Y-49709D01*
X87200Y-49762D01*
X87213Y-49802D01*
X87213Y-49828D01*
X87200Y-49868D01*
X87186Y-49881D01*
X87147Y-49894D01*
X87120Y-49894D01*
X87080Y-49881D01*
X87027Y-49828D01*
X86987Y-49815D01*
X86961Y-49815D01*
X86921Y-49828D01*
X86868Y-49881D01*
X86855Y-49921D01*
X86855Y-49947D01*
X86868Y-49987D01*
X86921Y-50040D01*
X86961Y-50054D01*
X86987Y-50054D01*
X87027Y-50040D01*
X87080Y-49987D01*
X87094Y-49947D01*
X87094Y-49921D01*
X87080Y-49881D01*
X87425Y-49987D02*
X87451Y-50014D01*
X87465Y-50054D01*
X87465Y-50080D01*
X87451Y-50120D01*
X87412Y-50186D01*
X87345Y-50252D01*
X87279Y-50292D01*
X87239Y-50305D01*
X87213Y-50305D01*
X87173Y-50292D01*
X87147Y-50266D01*
X87133Y-50226D01*
X87133Y-50199D01*
X87147Y-50160D01*
X87186Y-50093D01*
X87253Y-50027D01*
X87319Y-49987D01*
X87359Y-49974D01*
X87385Y-49974D01*
X87425Y-49987D01*
X78398Y-49523D02*
X78345Y-49470D01*
X78305Y-49457D01*
X78279Y-49457D01*
X78212Y-49470D01*
X78146Y-49510D01*
X78040Y-49616D01*
X78027Y-49656D01*
X78027Y-49682D01*
X78040Y-49722D01*
X78093Y-49775D01*
X78133Y-49788D01*
X78159Y-49788D01*
X78199Y-49775D01*
X78265Y-49709D01*
X78279Y-49669D01*
X78279Y-49643D01*
X78265Y-49603D01*
X78212Y-49550D01*
X78173Y-49537D01*
X78146Y-49537D01*
X78106Y-49550D01*
X78464Y-49828D02*
X78451Y-49788D01*
X78451Y-49762D01*
X78464Y-49722D01*
X78478Y-49709D01*
X78517Y-49696D01*
X78544Y-49696D01*
X78584Y-49709D01*
X78637Y-49762D01*
X78650Y-49802D01*
X78650Y-49828D01*
X78637Y-49868D01*
X78623Y-49881D01*
X78584Y-49894D01*
X78557Y-49894D01*
X78517Y-49881D01*
X78464Y-49828D01*
X78424Y-49815D01*
X78398Y-49815D01*
X78358Y-49828D01*
X78305Y-49881D01*
X78292Y-49921D01*
X78292Y-49947D01*
X78305Y-49987D01*
X78358Y-50040D01*
X78398Y-50054D01*
X78424Y-50054D01*
X78464Y-50040D01*
X78517Y-49987D01*
X78531Y-49947D01*
X78531Y-49921D01*
X78517Y-49881D01*
X78862Y-49987D02*
X78888Y-50014D01*
X78902Y-50054D01*
X78902Y-50080D01*
X78888Y-50120D01*
X78849Y-50186D01*
X78782Y-50252D01*
X78716Y-50292D01*
X78676Y-50305D01*
X78650Y-50305D01*
X78610Y-50292D01*
X78584Y-50266D01*
X78570Y-50226D01*
X78570Y-50199D01*
X78584Y-50160D01*
X78623Y-50093D01*
X78690Y-50027D01*
X78756Y-49987D01*
X78796Y-49974D01*
X78822Y-49974D01*
X78862Y-49987D01*
X107196Y-36876D02*
X107196Y-37101D01*
X107196Y-36989D02*
X106803Y-36989D01*
X106859Y-37026D01*
X106896Y-37064D01*
X106915Y-37101D01*
X106840Y-36726D02*
X106821Y-36707D01*
X106803Y-36670D01*
X106803Y-36576D01*
X106821Y-36539D01*
X106840Y-36520D01*
X106878Y-36501D01*
X106915Y-36501D01*
X106971Y-36520D01*
X107196Y-36745D01*
X107196Y-36501D01*
X106803Y-36257D02*
X106803Y-36220D01*
X106821Y-36182D01*
X106840Y-36164D01*
X106878Y-36145D01*
X106953Y-36126D01*
X107046Y-36126D01*
X107121Y-36145D01*
X107159Y-36164D01*
X107178Y-36182D01*
X107196Y-36220D01*
X107196Y-36257D01*
X107178Y-36295D01*
X107159Y-36314D01*
X107121Y-36332D01*
X107046Y-36351D01*
X106953Y-36351D01*
X106878Y-36332D01*
X106840Y-36314D01*
X106821Y-36295D01*
X106803Y-36257D01*
G54D23*
X75876Y-60075D02*
X76104Y-60075D01*
X75990Y-60675D02*
X75990Y-60075D01*
X76295Y-60333D02*
X76257Y-60304D01*
X76238Y-60275D01*
X76219Y-60218D01*
X76219Y-60190D01*
X76238Y-60133D01*
X76257Y-60104D01*
X76295Y-60075D01*
X76371Y-60075D01*
X76409Y-60104D01*
X76428Y-60133D01*
X76447Y-60190D01*
X76447Y-60218D01*
X76428Y-60275D01*
X76409Y-60304D01*
X76371Y-60333D01*
X76295Y-60333D01*
X76257Y-60361D01*
X76238Y-60390D01*
X76219Y-60447D01*
X76219Y-60561D01*
X76238Y-60618D01*
X76257Y-60647D01*
X76295Y-60675D01*
X76371Y-60675D01*
X76409Y-60647D01*
X76428Y-60618D01*
X76447Y-60561D01*
X76447Y-60447D01*
X76428Y-60390D01*
X76409Y-60361D01*
X76371Y-60333D01*
X80108Y-60075D02*
X80337Y-60075D01*
X80222Y-60675D02*
X80222Y-60075D01*
X80432Y-60075D02*
X80699Y-60075D01*
X80527Y-60675D01*
X84340Y-60075D02*
X84569Y-60075D01*
X84455Y-60675D02*
X84455Y-60075D01*
X84874Y-60075D02*
X84798Y-60075D01*
X84759Y-60104D01*
X84740Y-60133D01*
X84702Y-60218D01*
X84683Y-60333D01*
X84683Y-60561D01*
X84702Y-60618D01*
X84721Y-60647D01*
X84759Y-60675D01*
X84836Y-60675D01*
X84874Y-60647D01*
X84893Y-60618D01*
X84912Y-60561D01*
X84912Y-60418D01*
X84893Y-60361D01*
X84874Y-60333D01*
X84836Y-60304D01*
X84759Y-60304D01*
X84721Y-60333D01*
X84702Y-60361D01*
X84683Y-60418D01*
X88573Y-60075D02*
X88801Y-60075D01*
X88687Y-60675D02*
X88687Y-60075D01*
X89125Y-60075D02*
X88935Y-60075D01*
X88916Y-60361D01*
X88935Y-60333D01*
X88973Y-60304D01*
X89068Y-60304D01*
X89106Y-60333D01*
X89125Y-60361D01*
X89144Y-60418D01*
X89144Y-60561D01*
X89125Y-60618D01*
X89106Y-60647D01*
X89068Y-60675D01*
X88973Y-60675D01*
X88935Y-60647D01*
X88916Y-60618D01*
X92805Y-60075D02*
X93034Y-60075D01*
X92919Y-60675D02*
X92919Y-60075D01*
X93338Y-60275D02*
X93338Y-60675D01*
X93243Y-60047D02*
X93148Y-60475D01*
X93395Y-60475D01*
X97136Y-60075D02*
X97364Y-60075D01*
X97250Y-60675D02*
X97250Y-60075D01*
X97459Y-60075D02*
X97707Y-60075D01*
X97574Y-60304D01*
X97631Y-60304D01*
X97669Y-60333D01*
X97688Y-60361D01*
X97707Y-60418D01*
X97707Y-60561D01*
X97688Y-60618D01*
X97669Y-60647D01*
X97631Y-60675D01*
X97517Y-60675D01*
X97479Y-60647D01*
X97459Y-60618D01*
X101368Y-60075D02*
X101597Y-60075D01*
X101482Y-60675D02*
X101482Y-60075D01*
X101711Y-60133D02*
X101730Y-60104D01*
X101768Y-60075D01*
X101863Y-60075D01*
X101901Y-60104D01*
X101920Y-60133D01*
X101939Y-60190D01*
X101939Y-60247D01*
X101920Y-60333D01*
X101692Y-60675D01*
X101939Y-60675D01*
X105502Y-60075D02*
X105730Y-60075D01*
X105616Y-60675D02*
X105616Y-60075D01*
X106073Y-60675D02*
X105845Y-60675D01*
X105959Y-60675D02*
X105959Y-60075D01*
X105921Y-60161D01*
X105883Y-60218D01*
X105845Y-60247D01*
X100720Y-37655D02*
X100720Y-38059D01*
X100741Y-38107D01*
X100762Y-38131D01*
X100805Y-38155D01*
X100891Y-38155D01*
X100934Y-38131D01*
X100955Y-38107D01*
X100977Y-38059D01*
X100977Y-37655D01*
X101148Y-37655D02*
X101427Y-37655D01*
X101277Y-37845D01*
X101341Y-37845D01*
X101384Y-37869D01*
X101405Y-37893D01*
X101427Y-37940D01*
X101427Y-38059D01*
X101405Y-38107D01*
X101384Y-38131D01*
X101341Y-38155D01*
X101212Y-38155D01*
X101170Y-38131D01*
X101148Y-38107D01*
X81153Y-37655D02*
X81153Y-38059D01*
X81174Y-38107D01*
X81196Y-38131D01*
X81238Y-38155D01*
X81324Y-38155D01*
X81367Y-38131D01*
X81388Y-38107D01*
X81410Y-38059D01*
X81410Y-37655D01*
X81817Y-37821D02*
X81817Y-38155D01*
X81710Y-37631D02*
X81603Y-37988D01*
X81881Y-37988D01*
X104006Y-54339D02*
X104006Y-53589D01*
X104140Y-54124D01*
X104273Y-53589D01*
X104273Y-54339D01*
X104673Y-54339D02*
X104444Y-54339D01*
X104559Y-54339D02*
X104559Y-53589D01*
X104521Y-53696D01*
X104483Y-53767D01*
X104444Y-53803D01*
X86880Y-54240D02*
X86880Y-53490D01*
X87014Y-54026D01*
X87147Y-53490D01*
X87147Y-54240D01*
X87528Y-53490D02*
X87338Y-53490D01*
X87319Y-53847D01*
X87338Y-53812D01*
X87376Y-53776D01*
X87471Y-53776D01*
X87509Y-53812D01*
X87528Y-53847D01*
X87547Y-53919D01*
X87547Y-54097D01*
X87528Y-54169D01*
X87509Y-54204D01*
X87471Y-54240D01*
X87376Y-54240D01*
X87338Y-54204D01*
X87319Y-54169D01*
X91113Y-54240D02*
X91113Y-53490D01*
X91246Y-54026D01*
X91379Y-53490D01*
X91379Y-54240D01*
X91741Y-53740D02*
X91741Y-54240D01*
X91646Y-53454D02*
X91551Y-53990D01*
X91798Y-53990D01*
X95542Y-54240D02*
X95542Y-53490D01*
X95675Y-54026D01*
X95808Y-53490D01*
X95808Y-54240D01*
X95961Y-53490D02*
X96208Y-53490D01*
X96075Y-53776D01*
X96132Y-53776D01*
X96170Y-53812D01*
X96189Y-53847D01*
X96208Y-53919D01*
X96208Y-54097D01*
X96189Y-54169D01*
X96170Y-54204D01*
X96132Y-54240D01*
X96018Y-54240D01*
X95980Y-54204D01*
X95961Y-54169D01*
X65359Y-46912D02*
X65359Y-46312D01*
X65359Y-46597D02*
X65559Y-46597D01*
X65559Y-46912D02*
X65559Y-46312D01*
X65909Y-46912D02*
X65709Y-46912D01*
X65809Y-46912D02*
X65809Y-46312D01*
X65776Y-46397D01*
X65743Y-46455D01*
X65709Y-46483D01*
X66243Y-46912D02*
X66043Y-46912D01*
X66143Y-46912D02*
X66143Y-46312D01*
X66109Y-46397D01*
X66076Y-46455D01*
X66043Y-46483D01*
X66376Y-46740D02*
X66543Y-46740D01*
X66343Y-46912D02*
X66459Y-46312D01*
X66576Y-46912D01*
X66676Y-46740D02*
X66843Y-46740D01*
X66643Y-46912D02*
X66759Y-46312D01*
X66876Y-46912D01*
X67176Y-46912D02*
X66976Y-46912D01*
X67076Y-46912D02*
X67076Y-46312D01*
X67043Y-46397D01*
X67009Y-46455D01*
X66976Y-46483D01*
X99774Y-54240D02*
X99774Y-53490D01*
X99907Y-54026D01*
X100041Y-53490D01*
X100041Y-54240D01*
X100212Y-53562D02*
X100231Y-53526D01*
X100269Y-53490D01*
X100365Y-53490D01*
X100403Y-53526D01*
X100422Y-53562D01*
X100441Y-53633D01*
X100441Y-53704D01*
X100422Y-53812D01*
X100193Y-54240D01*
X100441Y-54240D01*
X74282Y-54240D02*
X74282Y-53490D01*
X74415Y-54026D01*
X74549Y-53490D01*
X74549Y-54240D01*
X74796Y-53812D02*
X74758Y-53776D01*
X74739Y-53740D01*
X74720Y-53669D01*
X74720Y-53633D01*
X74739Y-53562D01*
X74758Y-53526D01*
X74796Y-53490D01*
X74872Y-53490D01*
X74911Y-53526D01*
X74930Y-53562D01*
X74949Y-53633D01*
X74949Y-53669D01*
X74930Y-53740D01*
X74911Y-53776D01*
X74872Y-53812D01*
X74796Y-53812D01*
X74758Y-53847D01*
X74739Y-53883D01*
X74720Y-53954D01*
X74720Y-54097D01*
X74739Y-54169D01*
X74758Y-54204D01*
X74796Y-54240D01*
X74872Y-54240D01*
X74911Y-54204D01*
X74930Y-54169D01*
X74949Y-54097D01*
X74949Y-53954D01*
X74930Y-53883D01*
X74911Y-53847D01*
X74872Y-53812D01*
X82648Y-54240D02*
X82648Y-53490D01*
X82781Y-54026D01*
X82915Y-53490D01*
X82915Y-54240D01*
X83277Y-53490D02*
X83201Y-53490D01*
X83162Y-53526D01*
X83143Y-53562D01*
X83105Y-53669D01*
X83086Y-53812D01*
X83086Y-54097D01*
X83105Y-54169D01*
X83124Y-54204D01*
X83162Y-54240D01*
X83239Y-54240D01*
X83277Y-54204D01*
X83296Y-54169D01*
X83315Y-54097D01*
X83315Y-53919D01*
X83296Y-53847D01*
X83277Y-53812D01*
X83239Y-53776D01*
X83162Y-53776D01*
X83124Y-53812D01*
X83105Y-53847D01*
X83086Y-53919D01*
X78514Y-54240D02*
X78514Y-53490D01*
X78648Y-54026D01*
X78781Y-53490D01*
X78781Y-54240D01*
X78933Y-53490D02*
X79200Y-53490D01*
X79029Y-54240D01*
G54D24*
X71594Y-42386D02*
X71594Y-42872D01*
X71615Y-42929D01*
X71637Y-42958D01*
X71679Y-42986D01*
X71765Y-42986D01*
X71808Y-42958D01*
X71829Y-42929D01*
X71851Y-42872D01*
X71851Y-42386D01*
X72129Y-42644D02*
X72087Y-42615D01*
X72065Y-42586D01*
X72044Y-42529D01*
X72044Y-42501D01*
X72065Y-42444D01*
X72087Y-42415D01*
X72129Y-42386D01*
X72215Y-42386D01*
X72258Y-42415D01*
X72279Y-42444D01*
X72301Y-42501D01*
X72301Y-42529D01*
X72279Y-42586D01*
X72258Y-42615D01*
X72215Y-42644D01*
X72129Y-42644D01*
X72087Y-42672D01*
X72065Y-42701D01*
X72044Y-42758D01*
X72044Y-42872D01*
X72065Y-42929D01*
X72087Y-42958D01*
X72129Y-42986D01*
X72215Y-42986D01*
X72258Y-42958D01*
X72279Y-42929D01*
X72301Y-42872D01*
X72301Y-42758D01*
X72279Y-42701D01*
X72258Y-42672D01*
X72215Y-42644D01*
G54D19*
G54D24*
X75719Y-43055D02*
X75719Y-42455D01*
X75826Y-42455D01*
X75890Y-42484D01*
X75933Y-42541D01*
X75954Y-42598D01*
X75976Y-42712D01*
X75976Y-42798D01*
X75954Y-42912D01*
X75933Y-42970D01*
X75890Y-43027D01*
X75826Y-43055D01*
X75719Y-43055D01*
X76169Y-43055D02*
X76169Y-42455D01*
X76383Y-43055D02*
X76383Y-42455D01*
X76554Y-42455D01*
X76597Y-42484D01*
X76619Y-42512D01*
X76640Y-42570D01*
X76640Y-42655D01*
X76619Y-42712D01*
X76597Y-42741D01*
X76554Y-42770D01*
X76383Y-42770D01*
X76812Y-43027D02*
X76876Y-43055D01*
X76983Y-43055D01*
X77026Y-43027D01*
X77047Y-42998D01*
X77069Y-42941D01*
X77069Y-42884D01*
X77047Y-42827D01*
X77026Y-42798D01*
X76983Y-42770D01*
X76897Y-42741D01*
X76854Y-42712D01*
X76833Y-42684D01*
X76812Y-42627D01*
X76812Y-42570D01*
X76833Y-42512D01*
X76854Y-42484D01*
X76897Y-42455D01*
X77004Y-42455D01*
X77069Y-42484D01*
X77219Y-42455D02*
X77326Y-43055D01*
X77412Y-42627D01*
X77497Y-43055D01*
X77604Y-42455D01*
X77776Y-43055D02*
X77776Y-42455D01*
X77926Y-42455D02*
X78183Y-42455D01*
X78054Y-43055D02*
X78054Y-42455D01*
X78590Y-42998D02*
X78569Y-43027D01*
X78504Y-43055D01*
X78462Y-43055D01*
X78397Y-43027D01*
X78354Y-42970D01*
X78333Y-42912D01*
X78312Y-42798D01*
X78312Y-42712D01*
X78333Y-42598D01*
X78354Y-42541D01*
X78397Y-42484D01*
X78462Y-42455D01*
X78504Y-42455D01*
X78569Y-42484D01*
X78590Y-42512D01*
X78783Y-43055D02*
X78783Y-42455D01*
X78783Y-42741D02*
X79040Y-42741D01*
X79040Y-43055D02*
X79040Y-42455D01*
G54D19*
G54D10*
X87574Y-31181D02*
X87592Y-31162D01*
X87630Y-31143D01*
X87724Y-31143D01*
X87761Y-31162D01*
X87780Y-31181D01*
X87799Y-31218D01*
X87799Y-31256D01*
X87780Y-31312D01*
X87555Y-31537D01*
X87799Y-31537D01*
X87930Y-31143D02*
X88192Y-31143D01*
X88023Y-31537D01*
X88342Y-31537D02*
X88342Y-31143D01*
X88567Y-31537D02*
X88398Y-31312D01*
X88567Y-31143D02*
X88342Y-31368D01*
X82729Y-49622D02*
X82676Y-49569D01*
X82636Y-49555D01*
X82609Y-49555D01*
X82543Y-49569D01*
X82477Y-49608D01*
X82371Y-49714D01*
X82358Y-49754D01*
X82358Y-49781D01*
X82371Y-49821D01*
X82424Y-49874D01*
X82464Y-49887D01*
X82490Y-49887D01*
X82530Y-49874D01*
X82596Y-49807D01*
X82609Y-49768D01*
X82609Y-49741D01*
X82596Y-49701D01*
X82543Y-49648D01*
X82503Y-49635D01*
X82477Y-49635D01*
X82437Y-49648D01*
X82795Y-49927D02*
X82782Y-49887D01*
X82782Y-49860D01*
X82795Y-49821D01*
X82808Y-49807D01*
X82848Y-49794D01*
X82875Y-49794D01*
X82914Y-49807D01*
X82967Y-49860D01*
X82981Y-49900D01*
X82981Y-49927D01*
X82967Y-49966D01*
X82954Y-49980D01*
X82914Y-49993D01*
X82888Y-49993D01*
X82848Y-49980D01*
X82795Y-49927D01*
X82755Y-49913D01*
X82729Y-49913D01*
X82689Y-49927D01*
X82636Y-49980D01*
X82623Y-50019D01*
X82623Y-50046D01*
X82636Y-50086D01*
X82689Y-50139D01*
X82729Y-50152D01*
X82755Y-50152D01*
X82795Y-50139D01*
X82848Y-50086D01*
X82861Y-50046D01*
X82861Y-50019D01*
X82848Y-49980D01*
X83193Y-50086D02*
X83219Y-50112D01*
X83232Y-50152D01*
X83232Y-50178D01*
X83219Y-50218D01*
X83179Y-50285D01*
X83113Y-50351D01*
X83047Y-50391D01*
X83007Y-50404D01*
X82981Y-50404D01*
X82941Y-50391D01*
X82914Y-50364D01*
X82901Y-50324D01*
X82901Y-50298D01*
X82914Y-50258D01*
X82954Y-50192D01*
X83020Y-50125D01*
X83087Y-50086D01*
X83126Y-50072D01*
X83153Y-50072D01*
X83193Y-50086D01*
X74264Y-49622D02*
X74211Y-49569D01*
X74171Y-49555D01*
X74145Y-49555D01*
X74079Y-49569D01*
X74012Y-49608D01*
X73906Y-49714D01*
X73893Y-49754D01*
X73893Y-49781D01*
X73906Y-49821D01*
X73959Y-49874D01*
X73999Y-49887D01*
X74026Y-49887D01*
X74065Y-49874D01*
X74132Y-49807D01*
X74145Y-49768D01*
X74145Y-49741D01*
X74132Y-49701D01*
X74079Y-49648D01*
X74039Y-49635D01*
X74012Y-49635D01*
X73972Y-49648D01*
X74330Y-49927D02*
X74317Y-49887D01*
X74317Y-49860D01*
X74330Y-49821D01*
X74344Y-49807D01*
X74383Y-49794D01*
X74410Y-49794D01*
X74450Y-49807D01*
X74503Y-49860D01*
X74516Y-49900D01*
X74516Y-49927D01*
X74503Y-49966D01*
X74489Y-49980D01*
X74450Y-49993D01*
X74423Y-49993D01*
X74383Y-49980D01*
X74330Y-49927D01*
X74291Y-49913D01*
X74264Y-49913D01*
X74224Y-49927D01*
X74171Y-49980D01*
X74158Y-50019D01*
X74158Y-50046D01*
X74171Y-50086D01*
X74224Y-50139D01*
X74264Y-50152D01*
X74291Y-50152D01*
X74330Y-50139D01*
X74383Y-50086D01*
X74397Y-50046D01*
X74397Y-50019D01*
X74383Y-49980D01*
X74728Y-50086D02*
X74755Y-50112D01*
X74768Y-50152D01*
X74768Y-50178D01*
X74755Y-50218D01*
X74715Y-50285D01*
X74649Y-50351D01*
X74582Y-50391D01*
X74543Y-50404D01*
X74516Y-50404D01*
X74476Y-50391D01*
X74450Y-50364D01*
X74436Y-50324D01*
X74436Y-50298D01*
X74450Y-50258D01*
X74489Y-50192D01*
X74556Y-50125D01*
X74622Y-50086D01*
X74662Y-50072D01*
X74688Y-50072D01*
X74728Y-50086D01*
X65694Y-52073D02*
X65694Y-51810D01*
X66088Y-51979D01*
X65694Y-51473D02*
X65694Y-51660D01*
X65882Y-51679D01*
X65863Y-51660D01*
X65844Y-51623D01*
X65844Y-51529D01*
X65863Y-51491D01*
X65882Y-51473D01*
X65919Y-51454D01*
X66013Y-51454D01*
X66050Y-51473D01*
X66069Y-51491D01*
X66088Y-51529D01*
X66088Y-51623D01*
X66069Y-51660D01*
X66050Y-51679D01*
X65694Y-51210D02*
X65694Y-51173D01*
X65713Y-51135D01*
X65732Y-51116D01*
X65769Y-51098D01*
X65844Y-51079D01*
X65938Y-51079D01*
X66013Y-51098D01*
X66050Y-51116D01*
X66069Y-51135D01*
X66088Y-51173D01*
X66088Y-51210D01*
X66069Y-51248D01*
X66050Y-51266D01*
X66013Y-51285D01*
X65938Y-51304D01*
X65844Y-51304D01*
X65769Y-51285D01*
X65732Y-51266D01*
X65713Y-51248D01*
X65694Y-51210D01*
X64068Y-52077D02*
X64068Y-51814D01*
X64462Y-51983D01*
X64068Y-51477D02*
X64068Y-51664D01*
X64256Y-51683D01*
X64237Y-51664D01*
X64218Y-51627D01*
X64218Y-51533D01*
X64237Y-51495D01*
X64256Y-51477D01*
X64293Y-51458D01*
X64387Y-51458D01*
X64425Y-51477D01*
X64443Y-51495D01*
X64462Y-51533D01*
X64462Y-51627D01*
X64443Y-51664D01*
X64425Y-51683D01*
X64068Y-51214D02*
X64068Y-51177D01*
X64087Y-51139D01*
X64106Y-51120D01*
X64143Y-51102D01*
X64218Y-51083D01*
X64312Y-51083D01*
X64387Y-51102D01*
X64425Y-51120D01*
X64443Y-51139D01*
X64462Y-51177D01*
X64462Y-51214D01*
X64443Y-51252D01*
X64425Y-51270D01*
X64387Y-51289D01*
X64312Y-51308D01*
X64218Y-51308D01*
X64143Y-51289D01*
X64106Y-51270D01*
X64087Y-51252D01*
X64068Y-51214D01*
X87672Y-32755D02*
X87691Y-32737D01*
X87728Y-32718D01*
X87822Y-32718D01*
X87859Y-32737D01*
X87878Y-32755D01*
X87897Y-32793D01*
X87897Y-32830D01*
X87878Y-32887D01*
X87653Y-33112D01*
X87897Y-33112D01*
X88028Y-32718D02*
X88291Y-32718D01*
X88122Y-33112D01*
X88441Y-33112D02*
X88441Y-32718D01*
X88666Y-33112D02*
X88497Y-32887D01*
X88666Y-32718D02*
X88441Y-32943D01*
X94285Y-33112D02*
X94060Y-33112D01*
X94173Y-33112D02*
X94173Y-32718D01*
X94135Y-32774D01*
X94098Y-32812D01*
X94060Y-32830D01*
X94454Y-33112D02*
X94454Y-32718D01*
X94679Y-33112D02*
X94510Y-32887D01*
X94679Y-32718D02*
X94454Y-32943D01*
X102718Y-58628D02*
X102718Y-58853D01*
X102718Y-58741D02*
X102324Y-58741D01*
X102380Y-58778D01*
X102418Y-58816D01*
X102437Y-58853D01*
X102493Y-58403D02*
X102474Y-58441D01*
X102455Y-58459D01*
X102418Y-58478D01*
X102399Y-58478D01*
X102362Y-58459D01*
X102343Y-58441D01*
X102324Y-58403D01*
X102324Y-58328D01*
X102343Y-58291D01*
X102362Y-58272D01*
X102399Y-58253D01*
X102418Y-58253D01*
X102455Y-58272D01*
X102474Y-58291D01*
X102493Y-58328D01*
X102493Y-58403D01*
X102512Y-58441D01*
X102530Y-58459D01*
X102568Y-58478D01*
X102643Y-58478D01*
X102680Y-58459D01*
X102699Y-58441D01*
X102718Y-58403D01*
X102718Y-58328D01*
X102699Y-58291D01*
X102680Y-58272D01*
X102643Y-58253D01*
X102568Y-58253D01*
X102530Y-58272D01*
X102512Y-58291D01*
X102493Y-58328D01*
X102324Y-58009D02*
X102324Y-57972D01*
X102343Y-57934D01*
X102362Y-57916D01*
X102399Y-57897D01*
X102474Y-57878D01*
X102568Y-57878D01*
X102643Y-57897D01*
X102680Y-57916D01*
X102699Y-57934D01*
X102718Y-57972D01*
X102718Y-58009D01*
X102699Y-58047D01*
X102680Y-58066D01*
X102643Y-58084D01*
X102568Y-58103D01*
X102474Y-58103D01*
X102399Y-58084D01*
X102362Y-58066D01*
X102343Y-58047D01*
X102324Y-58009D01*
X94187Y-31537D02*
X93962Y-31537D01*
X94074Y-31537D02*
X94074Y-31143D01*
X94037Y-31199D01*
X93999Y-31237D01*
X93962Y-31256D01*
X94356Y-31537D02*
X94356Y-31143D01*
X94580Y-31537D02*
X94412Y-31312D01*
X94580Y-31143D02*
X94356Y-31368D01*
X60979Y-31202D02*
X60904Y-31202D01*
X60867Y-31221D01*
X60848Y-31240D01*
X60810Y-31296D01*
X60792Y-31371D01*
X60792Y-31521D01*
X60810Y-31558D01*
X60829Y-31577D01*
X60867Y-31596D01*
X60942Y-31596D01*
X60979Y-31577D01*
X60998Y-31558D01*
X61017Y-31521D01*
X61017Y-31427D01*
X60998Y-31390D01*
X60979Y-31371D01*
X60942Y-31352D01*
X60867Y-31352D01*
X60829Y-31371D01*
X60810Y-31390D01*
X60792Y-31427D01*
X61242Y-31371D02*
X61204Y-31352D01*
X61185Y-31333D01*
X61167Y-31296D01*
X61167Y-31277D01*
X61185Y-31240D01*
X61204Y-31221D01*
X61242Y-31202D01*
X61317Y-31202D01*
X61354Y-31221D01*
X61373Y-31240D01*
X61392Y-31277D01*
X61392Y-31296D01*
X61373Y-31333D01*
X61354Y-31352D01*
X61317Y-31371D01*
X61242Y-31371D01*
X61204Y-31390D01*
X61185Y-31408D01*
X61167Y-31446D01*
X61167Y-31521D01*
X61185Y-31558D01*
X61204Y-31577D01*
X61242Y-31596D01*
X61317Y-31596D01*
X61354Y-31577D01*
X61373Y-31558D01*
X61392Y-31521D01*
X61392Y-31446D01*
X61373Y-31408D01*
X61354Y-31390D01*
X61317Y-31371D01*
X61635Y-31202D02*
X61673Y-31202D01*
X61710Y-31221D01*
X61729Y-31240D01*
X61748Y-31277D01*
X61766Y-31352D01*
X61766Y-31446D01*
X61748Y-31521D01*
X61729Y-31558D01*
X61710Y-31577D01*
X61673Y-31596D01*
X61635Y-31596D01*
X61598Y-31577D01*
X61579Y-31558D01*
X61560Y-31521D01*
X61541Y-31446D01*
X61541Y-31352D01*
X61560Y-31277D01*
X61579Y-31240D01*
X61598Y-31221D01*
X61635Y-31202D01*
X91095Y-49523D02*
X91042Y-49470D01*
X91002Y-49457D01*
X90976Y-49457D01*
X90909Y-49470D01*
X90843Y-49510D01*
X90737Y-49616D01*
X90724Y-49656D01*
X90724Y-49682D01*
X90737Y-49722D01*
X90790Y-49775D01*
X90830Y-49788D01*
X90856Y-49788D01*
X90896Y-49775D01*
X90962Y-49709D01*
X90976Y-49669D01*
X90976Y-49643D01*
X90962Y-49603D01*
X90909Y-49550D01*
X90869Y-49537D01*
X90843Y-49537D01*
X90803Y-49550D01*
X91161Y-49828D02*
X91148Y-49788D01*
X91148Y-49762D01*
X91161Y-49722D01*
X91174Y-49709D01*
X91214Y-49696D01*
X91241Y-49696D01*
X91280Y-49709D01*
X91333Y-49762D01*
X91347Y-49802D01*
X91347Y-49828D01*
X91333Y-49868D01*
X91320Y-49881D01*
X91280Y-49894D01*
X91254Y-49894D01*
X91214Y-49881D01*
X91161Y-49828D01*
X91121Y-49815D01*
X91095Y-49815D01*
X91055Y-49828D01*
X91002Y-49881D01*
X90989Y-49921D01*
X90989Y-49947D01*
X91002Y-49987D01*
X91055Y-50040D01*
X91095Y-50054D01*
X91121Y-50054D01*
X91161Y-50040D01*
X91214Y-49987D01*
X91227Y-49947D01*
X91227Y-49921D01*
X91214Y-49881D01*
X91559Y-49987D02*
X91585Y-50014D01*
X91599Y-50054D01*
X91599Y-50080D01*
X91585Y-50120D01*
X91546Y-50186D01*
X91479Y-50252D01*
X91413Y-50292D01*
X91373Y-50305D01*
X91347Y-50305D01*
X91307Y-50292D01*
X91280Y-50266D01*
X91267Y-50226D01*
X91267Y-50199D01*
X91280Y-50160D01*
X91320Y-50093D01*
X91386Y-50027D01*
X91453Y-49987D01*
X91493Y-49974D01*
X91519Y-49974D01*
X91559Y-49987D01*
X95426Y-49523D02*
X95373Y-49470D01*
X95333Y-49457D01*
X95306Y-49457D01*
X95240Y-49470D01*
X95174Y-49510D01*
X95068Y-49616D01*
X95054Y-49656D01*
X95054Y-49682D01*
X95068Y-49722D01*
X95121Y-49775D01*
X95160Y-49788D01*
X95187Y-49788D01*
X95227Y-49775D01*
X95293Y-49709D01*
X95306Y-49669D01*
X95306Y-49643D01*
X95293Y-49603D01*
X95240Y-49550D01*
X95200Y-49537D01*
X95174Y-49537D01*
X95134Y-49550D01*
X95492Y-49828D02*
X95479Y-49788D01*
X95479Y-49762D01*
X95492Y-49722D01*
X95505Y-49709D01*
X95545Y-49696D01*
X95571Y-49696D01*
X95611Y-49709D01*
X95664Y-49762D01*
X95677Y-49802D01*
X95677Y-49828D01*
X95664Y-49868D01*
X95651Y-49881D01*
X95611Y-49894D01*
X95585Y-49894D01*
X95545Y-49881D01*
X95492Y-49828D01*
X95452Y-49815D01*
X95426Y-49815D01*
X95386Y-49828D01*
X95333Y-49881D01*
X95319Y-49921D01*
X95319Y-49947D01*
X95333Y-49987D01*
X95386Y-50040D01*
X95426Y-50054D01*
X95452Y-50054D01*
X95492Y-50040D01*
X95545Y-49987D01*
X95558Y-49947D01*
X95558Y-49921D01*
X95545Y-49881D01*
X95890Y-49987D02*
X95916Y-50014D01*
X95929Y-50054D01*
X95929Y-50080D01*
X95916Y-50120D01*
X95876Y-50186D01*
X95810Y-50252D01*
X95744Y-50292D01*
X95704Y-50305D01*
X95677Y-50305D01*
X95638Y-50292D01*
X95611Y-50266D01*
X95598Y-50226D01*
X95598Y-50199D01*
X95611Y-50160D01*
X95651Y-50093D01*
X95717Y-50027D01*
X95783Y-49987D01*
X95823Y-49974D01*
X95850Y-49974D01*
X95890Y-49987D01*
X99756Y-49622D02*
X99703Y-49569D01*
X99663Y-49555D01*
X99637Y-49555D01*
X99571Y-49569D01*
X99504Y-49608D01*
X99398Y-49714D01*
X99385Y-49754D01*
X99385Y-49781D01*
X99398Y-49821D01*
X99451Y-49874D01*
X99491Y-49887D01*
X99518Y-49887D01*
X99557Y-49874D01*
X99624Y-49807D01*
X99637Y-49768D01*
X99637Y-49741D01*
X99624Y-49701D01*
X99571Y-49648D01*
X99531Y-49635D01*
X99504Y-49635D01*
X99465Y-49648D01*
X99823Y-49927D02*
X99809Y-49887D01*
X99809Y-49860D01*
X99823Y-49821D01*
X99836Y-49807D01*
X99876Y-49794D01*
X99902Y-49794D01*
X99942Y-49807D01*
X99995Y-49860D01*
X100008Y-49900D01*
X100008Y-49927D01*
X99995Y-49966D01*
X99982Y-49980D01*
X99942Y-49993D01*
X99915Y-49993D01*
X99876Y-49980D01*
X99823Y-49927D01*
X99783Y-49913D01*
X99756Y-49913D01*
X99716Y-49927D01*
X99663Y-49980D01*
X99650Y-50019D01*
X99650Y-50046D01*
X99663Y-50086D01*
X99716Y-50139D01*
X99756Y-50152D01*
X99783Y-50152D01*
X99823Y-50139D01*
X99876Y-50086D01*
X99889Y-50046D01*
X99889Y-50019D01*
X99876Y-49980D01*
X100220Y-50086D02*
X100247Y-50112D01*
X100260Y-50152D01*
X100260Y-50178D01*
X100247Y-50218D01*
X100207Y-50285D01*
X100141Y-50351D01*
X100074Y-50391D01*
X100035Y-50404D01*
X100008Y-50404D01*
X99968Y-50391D01*
X99942Y-50364D01*
X99929Y-50324D01*
X99929Y-50298D01*
X99942Y-50258D01*
X99982Y-50192D01*
X100048Y-50125D01*
X100114Y-50086D01*
X100154Y-50072D01*
X100180Y-50072D01*
X100220Y-50086D01*
X99273Y-58628D02*
X99273Y-58853D01*
X99273Y-58741D02*
X98879Y-58741D01*
X98936Y-58778D01*
X98973Y-58816D01*
X98992Y-58853D01*
X99048Y-58403D02*
X99029Y-58441D01*
X99011Y-58459D01*
X98973Y-58478D01*
X98954Y-58478D01*
X98917Y-58459D01*
X98898Y-58441D01*
X98879Y-58403D01*
X98879Y-58328D01*
X98898Y-58291D01*
X98917Y-58272D01*
X98954Y-58253D01*
X98973Y-58253D01*
X99011Y-58272D01*
X99029Y-58291D01*
X99048Y-58328D01*
X99048Y-58403D01*
X99067Y-58441D01*
X99086Y-58459D01*
X99123Y-58478D01*
X99198Y-58478D01*
X99236Y-58459D01*
X99254Y-58441D01*
X99273Y-58403D01*
X99273Y-58328D01*
X99254Y-58291D01*
X99236Y-58272D01*
X99198Y-58253D01*
X99123Y-58253D01*
X99086Y-58272D01*
X99067Y-58291D01*
X99048Y-58328D01*
X98879Y-58009D02*
X98879Y-57972D01*
X98898Y-57934D01*
X98917Y-57916D01*
X98954Y-57897D01*
X99029Y-57878D01*
X99123Y-57878D01*
X99198Y-57897D01*
X99236Y-57916D01*
X99254Y-57934D01*
X99273Y-57972D01*
X99273Y-58009D01*
X99254Y-58047D01*
X99236Y-58066D01*
X99198Y-58084D01*
X99123Y-58103D01*
X99029Y-58103D01*
X98954Y-58084D01*
X98917Y-58066D01*
X98898Y-58047D01*
X98879Y-58009D01*
X95041Y-58628D02*
X95041Y-58853D01*
X95041Y-58741D02*
X94647Y-58741D01*
X94703Y-58778D01*
X94741Y-58816D01*
X94760Y-58853D01*
X94816Y-58403D02*
X94797Y-58441D01*
X94778Y-58459D01*
X94741Y-58478D01*
X94722Y-58478D01*
X94685Y-58459D01*
X94666Y-58441D01*
X94647Y-58403D01*
X94647Y-58328D01*
X94666Y-58291D01*
X94685Y-58272D01*
X94722Y-58253D01*
X94741Y-58253D01*
X94778Y-58272D01*
X94797Y-58291D01*
X94816Y-58328D01*
X94816Y-58403D01*
X94835Y-58441D01*
X94853Y-58459D01*
X94891Y-58478D01*
X94966Y-58478D01*
X95003Y-58459D01*
X95022Y-58441D01*
X95041Y-58403D01*
X95041Y-58328D01*
X95022Y-58291D01*
X95003Y-58272D01*
X94966Y-58253D01*
X94891Y-58253D01*
X94853Y-58272D01*
X94835Y-58291D01*
X94816Y-58328D01*
X94647Y-58009D02*
X94647Y-57972D01*
X94666Y-57934D01*
X94685Y-57916D01*
X94722Y-57897D01*
X94797Y-57878D01*
X94891Y-57878D01*
X94966Y-57897D01*
X95003Y-57916D01*
X95022Y-57934D01*
X95041Y-57972D01*
X95041Y-58009D01*
X95022Y-58047D01*
X95003Y-58066D01*
X94966Y-58084D01*
X94891Y-58103D01*
X94797Y-58103D01*
X94722Y-58084D01*
X94685Y-58066D01*
X94666Y-58047D01*
X94647Y-58009D01*
X90710Y-58628D02*
X90710Y-58853D01*
X90710Y-58741D02*
X90316Y-58741D01*
X90373Y-58778D01*
X90410Y-58816D01*
X90429Y-58853D01*
X90485Y-58403D02*
X90466Y-58441D01*
X90448Y-58459D01*
X90410Y-58478D01*
X90391Y-58478D01*
X90354Y-58459D01*
X90335Y-58441D01*
X90316Y-58403D01*
X90316Y-58328D01*
X90335Y-58291D01*
X90354Y-58272D01*
X90391Y-58253D01*
X90410Y-58253D01*
X90448Y-58272D01*
X90466Y-58291D01*
X90485Y-58328D01*
X90485Y-58403D01*
X90504Y-58441D01*
X90523Y-58459D01*
X90560Y-58478D01*
X90635Y-58478D01*
X90673Y-58459D01*
X90691Y-58441D01*
X90710Y-58403D01*
X90710Y-58328D01*
X90691Y-58291D01*
X90673Y-58272D01*
X90635Y-58253D01*
X90560Y-58253D01*
X90523Y-58272D01*
X90504Y-58291D01*
X90485Y-58328D01*
X90316Y-58009D02*
X90316Y-57972D01*
X90335Y-57934D01*
X90354Y-57916D01*
X90391Y-57897D01*
X90466Y-57878D01*
X90560Y-57878D01*
X90635Y-57897D01*
X90673Y-57916D01*
X90691Y-57934D01*
X90710Y-57972D01*
X90710Y-58009D01*
X90691Y-58047D01*
X90673Y-58066D01*
X90635Y-58084D01*
X90560Y-58103D01*
X90466Y-58103D01*
X90391Y-58084D01*
X90354Y-58066D01*
X90335Y-58047D01*
X90316Y-58009D01*
X86478Y-58628D02*
X86478Y-58853D01*
X86478Y-58741D02*
X86084Y-58741D01*
X86140Y-58778D01*
X86178Y-58816D01*
X86197Y-58853D01*
X86253Y-58403D02*
X86234Y-58441D01*
X86215Y-58459D01*
X86178Y-58478D01*
X86159Y-58478D01*
X86122Y-58459D01*
X86103Y-58441D01*
X86084Y-58403D01*
X86084Y-58328D01*
X86103Y-58291D01*
X86122Y-58272D01*
X86159Y-58253D01*
X86178Y-58253D01*
X86215Y-58272D01*
X86234Y-58291D01*
X86253Y-58328D01*
X86253Y-58403D01*
X86272Y-58441D01*
X86290Y-58459D01*
X86328Y-58478D01*
X86403Y-58478D01*
X86440Y-58459D01*
X86459Y-58441D01*
X86478Y-58403D01*
X86478Y-58328D01*
X86459Y-58291D01*
X86440Y-58272D01*
X86403Y-58253D01*
X86328Y-58253D01*
X86290Y-58272D01*
X86272Y-58291D01*
X86253Y-58328D01*
X86084Y-58009D02*
X86084Y-57972D01*
X86103Y-57934D01*
X86122Y-57916D01*
X86159Y-57897D01*
X86234Y-57878D01*
X86328Y-57878D01*
X86403Y-57897D01*
X86440Y-57916D01*
X86459Y-57934D01*
X86478Y-57972D01*
X86478Y-58009D01*
X86459Y-58047D01*
X86440Y-58066D01*
X86403Y-58084D01*
X86328Y-58103D01*
X86234Y-58103D01*
X86159Y-58084D01*
X86122Y-58066D01*
X86103Y-58047D01*
X86084Y-58009D01*
X82245Y-58628D02*
X82245Y-58853D01*
X82245Y-58741D02*
X81852Y-58741D01*
X81908Y-58778D01*
X81946Y-58816D01*
X81964Y-58853D01*
X82020Y-58403D02*
X82002Y-58441D01*
X81983Y-58459D01*
X81946Y-58478D01*
X81927Y-58478D01*
X81889Y-58459D01*
X81871Y-58441D01*
X81852Y-58403D01*
X81852Y-58328D01*
X81871Y-58291D01*
X81889Y-58272D01*
X81927Y-58253D01*
X81946Y-58253D01*
X81983Y-58272D01*
X82002Y-58291D01*
X82020Y-58328D01*
X82020Y-58403D01*
X82039Y-58441D01*
X82058Y-58459D01*
X82095Y-58478D01*
X82170Y-58478D01*
X82208Y-58459D01*
X82227Y-58441D01*
X82245Y-58403D01*
X82245Y-58328D01*
X82227Y-58291D01*
X82208Y-58272D01*
X82170Y-58253D01*
X82095Y-58253D01*
X82058Y-58272D01*
X82039Y-58291D01*
X82020Y-58328D01*
X81852Y-58009D02*
X81852Y-57972D01*
X81871Y-57934D01*
X81889Y-57916D01*
X81927Y-57897D01*
X82002Y-57878D01*
X82095Y-57878D01*
X82170Y-57897D01*
X82208Y-57916D01*
X82227Y-57934D01*
X82245Y-57972D01*
X82245Y-58009D01*
X82227Y-58047D01*
X82208Y-58066D01*
X82170Y-58084D01*
X82095Y-58103D01*
X82002Y-58103D01*
X81927Y-58084D01*
X81889Y-58066D01*
X81871Y-58047D01*
X81852Y-58009D01*
X78013Y-58628D02*
X78013Y-58853D01*
X78013Y-58741D02*
X77619Y-58741D01*
X77676Y-58778D01*
X77713Y-58816D01*
X77732Y-58853D01*
X77788Y-58403D02*
X77769Y-58441D01*
X77751Y-58459D01*
X77713Y-58478D01*
X77694Y-58478D01*
X77657Y-58459D01*
X77638Y-58441D01*
X77619Y-58403D01*
X77619Y-58328D01*
X77638Y-58291D01*
X77657Y-58272D01*
X77694Y-58253D01*
X77713Y-58253D01*
X77751Y-58272D01*
X77769Y-58291D01*
X77788Y-58328D01*
X77788Y-58403D01*
X77807Y-58441D01*
X77826Y-58459D01*
X77863Y-58478D01*
X77938Y-58478D01*
X77976Y-58459D01*
X77994Y-58441D01*
X78013Y-58403D01*
X78013Y-58328D01*
X77994Y-58291D01*
X77976Y-58272D01*
X77938Y-58253D01*
X77863Y-58253D01*
X77826Y-58272D01*
X77807Y-58291D01*
X77788Y-58328D01*
X77619Y-58009D02*
X77619Y-57972D01*
X77638Y-57934D01*
X77657Y-57916D01*
X77694Y-57897D01*
X77769Y-57878D01*
X77863Y-57878D01*
X77938Y-57897D01*
X77976Y-57916D01*
X77994Y-57934D01*
X78013Y-57972D01*
X78013Y-58009D01*
X77994Y-58047D01*
X77976Y-58066D01*
X77938Y-58084D01*
X77863Y-58103D01*
X77769Y-58103D01*
X77694Y-58084D01*
X77657Y-58066D01*
X77638Y-58047D01*
X77619Y-58009D01*
X73781Y-58628D02*
X73781Y-58853D01*
X73781Y-58741D02*
X73387Y-58741D01*
X73443Y-58778D01*
X73481Y-58816D01*
X73500Y-58853D01*
X73556Y-58403D02*
X73537Y-58441D01*
X73518Y-58459D01*
X73481Y-58478D01*
X73462Y-58478D01*
X73425Y-58459D01*
X73406Y-58441D01*
X73387Y-58403D01*
X73387Y-58328D01*
X73406Y-58291D01*
X73425Y-58272D01*
X73462Y-58253D01*
X73481Y-58253D01*
X73518Y-58272D01*
X73537Y-58291D01*
X73556Y-58328D01*
X73556Y-58403D01*
X73575Y-58441D01*
X73593Y-58459D01*
X73631Y-58478D01*
X73706Y-58478D01*
X73743Y-58459D01*
X73762Y-58441D01*
X73781Y-58403D01*
X73781Y-58328D01*
X73762Y-58291D01*
X73743Y-58272D01*
X73706Y-58253D01*
X73631Y-58253D01*
X73593Y-58272D01*
X73575Y-58291D01*
X73556Y-58328D01*
X73387Y-58009D02*
X73387Y-57972D01*
X73406Y-57934D01*
X73425Y-57916D01*
X73462Y-57897D01*
X73537Y-57878D01*
X73631Y-57878D01*
X73706Y-57897D01*
X73743Y-57916D01*
X73762Y-57934D01*
X73781Y-57972D01*
X73781Y-58009D01*
X73762Y-58047D01*
X73743Y-58066D01*
X73706Y-58084D01*
X73631Y-58103D01*
X73537Y-58103D01*
X73462Y-58084D01*
X73425Y-58066D01*
X73406Y-58047D01*
X73387Y-58009D01*
X67263Y-52032D02*
X67245Y-52013D01*
X67226Y-51976D01*
X67226Y-51882D01*
X67245Y-51844D01*
X67263Y-51826D01*
X67301Y-51807D01*
X67338Y-51807D01*
X67395Y-51826D01*
X67619Y-52050D01*
X67619Y-51807D01*
X67226Y-51676D02*
X67226Y-51413D01*
X67619Y-51582D01*
X67619Y-51263D02*
X67226Y-51263D01*
X67619Y-51038D02*
X67395Y-51207D01*
X67226Y-51038D02*
X67451Y-51263D01*
X54391Y-67029D02*
X54616Y-67029D01*
X54504Y-67423D02*
X54504Y-67029D01*
X54878Y-67216D02*
X54747Y-67216D01*
X54747Y-67423D02*
X54747Y-67029D01*
X54935Y-67029D01*
X55291Y-67423D02*
X55066Y-67423D01*
X55178Y-67423D02*
X55178Y-67029D01*
X55141Y-67085D01*
X55103Y-67123D01*
X55066Y-67141D01*
X68958Y-68368D02*
X68733Y-68368D01*
X68846Y-68368D02*
X68846Y-67974D01*
X68808Y-68030D01*
X68771Y-68068D01*
X68733Y-68086D01*
X69108Y-68011D02*
X69127Y-67993D01*
X69164Y-67974D01*
X69258Y-67974D01*
X69296Y-67993D01*
X69314Y-68011D01*
X69333Y-68049D01*
X69333Y-68086D01*
X69314Y-68143D01*
X69089Y-68368D01*
X69333Y-68368D01*
X69577Y-67974D02*
X69614Y-67974D01*
X69652Y-67993D01*
X69670Y-68011D01*
X69689Y-68049D01*
X69708Y-68124D01*
X69708Y-68218D01*
X69689Y-68293D01*
X69670Y-68330D01*
X69652Y-68349D01*
X69614Y-68368D01*
X69577Y-68368D01*
X69539Y-68349D01*
X69520Y-68330D01*
X69502Y-68293D01*
X69483Y-68218D01*
X69483Y-68124D01*
X69502Y-68049D01*
X69520Y-68011D01*
X69539Y-67993D01*
X69577Y-67974D01*
X69820Y-67974D02*
X69952Y-68368D01*
X70083Y-67974D01*
X74207Y-67088D02*
X74432Y-67088D01*
X74320Y-67482D02*
X74320Y-67088D01*
X74789Y-67482D02*
X74657Y-67294D01*
X74564Y-67482D02*
X74564Y-67088D01*
X74714Y-67088D01*
X74751Y-67107D01*
X74770Y-67125D01*
X74789Y-67163D01*
X74789Y-67219D01*
X74770Y-67257D01*
X74751Y-67275D01*
X74714Y-67294D01*
X74564Y-67294D01*
X75014Y-67257D02*
X74976Y-67238D01*
X74957Y-67219D01*
X74939Y-67182D01*
X74939Y-67163D01*
X74957Y-67125D01*
X74976Y-67107D01*
X75014Y-67088D01*
X75089Y-67088D01*
X75126Y-67107D01*
X75145Y-67125D01*
X75164Y-67163D01*
X75164Y-67182D01*
X75145Y-67219D01*
X75126Y-67238D01*
X75089Y-67257D01*
X75014Y-67257D01*
X74976Y-67275D01*
X74957Y-67294D01*
X74939Y-67332D01*
X74939Y-67407D01*
X74957Y-67444D01*
X74976Y-67463D01*
X75014Y-67482D01*
X75089Y-67482D01*
X75126Y-67463D01*
X75145Y-67444D01*
X75164Y-67407D01*
X75164Y-67332D01*
X75145Y-67294D01*
X75126Y-67275D01*
X75089Y-67257D01*
X73476Y-68330D02*
X73458Y-68349D01*
X73401Y-68368D01*
X73364Y-68368D01*
X73308Y-68349D01*
X73270Y-68311D01*
X73251Y-68274D01*
X73233Y-68199D01*
X73233Y-68143D01*
X73251Y-68068D01*
X73270Y-68030D01*
X73308Y-67993D01*
X73364Y-67974D01*
X73401Y-67974D01*
X73458Y-67993D01*
X73476Y-68011D01*
X73645Y-68368D02*
X73645Y-67974D01*
X73814Y-68368D02*
X73814Y-68161D01*
X73795Y-68124D01*
X73757Y-68105D01*
X73701Y-68105D01*
X73664Y-68124D01*
X73645Y-68143D01*
X74057Y-68143D02*
X74020Y-68124D01*
X74001Y-68105D01*
X73982Y-68068D01*
X73982Y-68049D01*
X74001Y-68011D01*
X74020Y-67993D01*
X74057Y-67974D01*
X74132Y-67974D01*
X74170Y-67993D01*
X74189Y-68011D01*
X74207Y-68049D01*
X74207Y-68068D01*
X74189Y-68105D01*
X74170Y-68124D01*
X74132Y-68143D01*
X74057Y-68143D01*
X74020Y-68161D01*
X74001Y-68180D01*
X73982Y-68218D01*
X73982Y-68293D01*
X74001Y-68330D01*
X74020Y-68349D01*
X74057Y-68368D01*
X74132Y-68368D01*
X74170Y-68349D01*
X74189Y-68330D01*
X74207Y-68293D01*
X74207Y-68218D01*
X74189Y-68180D01*
X74170Y-68161D01*
X74132Y-68143D01*
X78440Y-67088D02*
X78665Y-67088D01*
X78552Y-67482D02*
X78552Y-67088D01*
X79021Y-67482D02*
X78890Y-67294D01*
X78796Y-67482D02*
X78796Y-67088D01*
X78946Y-67088D01*
X78983Y-67107D01*
X79002Y-67125D01*
X79021Y-67163D01*
X79021Y-67219D01*
X79002Y-67257D01*
X78983Y-67275D01*
X78946Y-67294D01*
X78796Y-67294D01*
X79152Y-67088D02*
X79415Y-67088D01*
X79246Y-67482D01*
X77709Y-68330D02*
X77690Y-68349D01*
X77634Y-68368D01*
X77596Y-68368D01*
X77540Y-68349D01*
X77502Y-68311D01*
X77484Y-68274D01*
X77465Y-68199D01*
X77465Y-68143D01*
X77484Y-68068D01*
X77502Y-68030D01*
X77540Y-67993D01*
X77596Y-67974D01*
X77634Y-67974D01*
X77690Y-67993D01*
X77709Y-68011D01*
X77877Y-68368D02*
X77877Y-67974D01*
X78046Y-68368D02*
X78046Y-68161D01*
X78027Y-68124D01*
X77990Y-68105D01*
X77934Y-68105D01*
X77896Y-68124D01*
X77877Y-68143D01*
X78196Y-67974D02*
X78458Y-67974D01*
X78290Y-68368D01*
X82672Y-67088D02*
X82897Y-67088D01*
X82784Y-67482D02*
X82784Y-67088D01*
X83253Y-67482D02*
X83122Y-67294D01*
X83028Y-67482D02*
X83028Y-67088D01*
X83178Y-67088D01*
X83216Y-67107D01*
X83234Y-67125D01*
X83253Y-67163D01*
X83253Y-67219D01*
X83234Y-67257D01*
X83216Y-67275D01*
X83178Y-67294D01*
X83028Y-67294D01*
X83591Y-67088D02*
X83516Y-67088D01*
X83478Y-67107D01*
X83459Y-67125D01*
X83422Y-67182D01*
X83403Y-67257D01*
X83403Y-67407D01*
X83422Y-67444D01*
X83441Y-67463D01*
X83478Y-67482D01*
X83553Y-67482D01*
X83591Y-67463D01*
X83609Y-67444D01*
X83628Y-67407D01*
X83628Y-67313D01*
X83609Y-67275D01*
X83591Y-67257D01*
X83553Y-67238D01*
X83478Y-67238D01*
X83441Y-67257D01*
X83422Y-67275D01*
X83403Y-67313D01*
X81842Y-68330D02*
X81824Y-68349D01*
X81767Y-68368D01*
X81730Y-68368D01*
X81674Y-68349D01*
X81636Y-68311D01*
X81617Y-68274D01*
X81599Y-68199D01*
X81599Y-68143D01*
X81617Y-68068D01*
X81636Y-68030D01*
X81674Y-67993D01*
X81730Y-67974D01*
X81767Y-67974D01*
X81824Y-67993D01*
X81842Y-68011D01*
X82011Y-68368D02*
X82011Y-67974D01*
X82180Y-68368D02*
X82180Y-68161D01*
X82161Y-68124D01*
X82124Y-68105D01*
X82067Y-68105D01*
X82030Y-68124D01*
X82011Y-68143D01*
X82536Y-67974D02*
X82461Y-67974D01*
X82424Y-67993D01*
X82405Y-68011D01*
X82367Y-68068D01*
X82349Y-68143D01*
X82349Y-68293D01*
X82367Y-68330D01*
X82386Y-68349D01*
X82424Y-68368D01*
X82499Y-68368D01*
X82536Y-68349D01*
X82555Y-68330D01*
X82574Y-68293D01*
X82574Y-68199D01*
X82555Y-68161D01*
X82536Y-68143D01*
X82499Y-68124D01*
X82424Y-68124D01*
X82386Y-68143D01*
X82367Y-68161D01*
X82349Y-68199D01*
X86904Y-67088D02*
X87129Y-67088D01*
X87017Y-67482D02*
X87017Y-67088D01*
X87485Y-67482D02*
X87354Y-67294D01*
X87260Y-67482D02*
X87260Y-67088D01*
X87410Y-67088D01*
X87448Y-67107D01*
X87467Y-67125D01*
X87485Y-67163D01*
X87485Y-67219D01*
X87467Y-67257D01*
X87448Y-67275D01*
X87410Y-67294D01*
X87260Y-67294D01*
X87842Y-67088D02*
X87654Y-67088D01*
X87635Y-67275D01*
X87654Y-67257D01*
X87692Y-67238D01*
X87785Y-67238D01*
X87823Y-67257D01*
X87842Y-67275D01*
X87860Y-67313D01*
X87860Y-67407D01*
X87842Y-67444D01*
X87823Y-67463D01*
X87785Y-67482D01*
X87692Y-67482D01*
X87654Y-67463D01*
X87635Y-67444D01*
X86075Y-68330D02*
X86056Y-68349D01*
X86000Y-68368D01*
X85962Y-68368D01*
X85906Y-68349D01*
X85868Y-68311D01*
X85850Y-68274D01*
X85831Y-68199D01*
X85831Y-68143D01*
X85850Y-68068D01*
X85868Y-68030D01*
X85906Y-67993D01*
X85962Y-67974D01*
X86000Y-67974D01*
X86056Y-67993D01*
X86075Y-68011D01*
X86243Y-68368D02*
X86243Y-67974D01*
X86412Y-68368D02*
X86412Y-68161D01*
X86393Y-68124D01*
X86356Y-68105D01*
X86300Y-68105D01*
X86262Y-68124D01*
X86243Y-68143D01*
X86787Y-67974D02*
X86600Y-67974D01*
X86581Y-68161D01*
X86600Y-68143D01*
X86637Y-68124D01*
X86731Y-68124D01*
X86768Y-68143D01*
X86787Y-68161D01*
X86806Y-68199D01*
X86806Y-68293D01*
X86787Y-68330D01*
X86768Y-68349D01*
X86731Y-68368D01*
X86637Y-68368D01*
X86600Y-68349D01*
X86581Y-68330D01*
X91137Y-67088D02*
X91362Y-67088D01*
X91249Y-67482D02*
X91249Y-67088D01*
X91718Y-67482D02*
X91586Y-67294D01*
X91493Y-67482D02*
X91493Y-67088D01*
X91643Y-67088D01*
X91680Y-67107D01*
X91699Y-67125D01*
X91718Y-67163D01*
X91718Y-67219D01*
X91699Y-67257D01*
X91680Y-67275D01*
X91643Y-67294D01*
X91493Y-67294D01*
X92055Y-67219D02*
X92055Y-67482D01*
X91961Y-67069D02*
X91868Y-67350D01*
X92111Y-67350D01*
X90405Y-68330D02*
X90387Y-68349D01*
X90330Y-68368D01*
X90293Y-68368D01*
X90237Y-68349D01*
X90199Y-68311D01*
X90180Y-68274D01*
X90162Y-68199D01*
X90162Y-68143D01*
X90180Y-68068D01*
X90199Y-68030D01*
X90237Y-67993D01*
X90293Y-67974D01*
X90330Y-67974D01*
X90387Y-67993D01*
X90405Y-68011D01*
X90574Y-68368D02*
X90574Y-67974D01*
X90743Y-68368D02*
X90743Y-68161D01*
X90724Y-68124D01*
X90687Y-68105D01*
X90630Y-68105D01*
X90593Y-68124D01*
X90574Y-68143D01*
X91099Y-68105D02*
X91099Y-68368D01*
X91005Y-67955D02*
X90912Y-68236D01*
X91155Y-68236D01*
X95467Y-67088D02*
X95692Y-67088D01*
X95580Y-67482D02*
X95580Y-67088D01*
X96048Y-67482D02*
X95917Y-67294D01*
X95823Y-67482D02*
X95823Y-67088D01*
X95973Y-67088D01*
X96011Y-67107D01*
X96030Y-67125D01*
X96048Y-67163D01*
X96048Y-67219D01*
X96030Y-67257D01*
X96011Y-67275D01*
X95973Y-67294D01*
X95823Y-67294D01*
X96180Y-67088D02*
X96423Y-67088D01*
X96292Y-67238D01*
X96348Y-67238D01*
X96386Y-67257D01*
X96405Y-67275D01*
X96423Y-67313D01*
X96423Y-67407D01*
X96405Y-67444D01*
X96386Y-67463D01*
X96348Y-67482D01*
X96236Y-67482D01*
X96198Y-67463D01*
X96180Y-67444D01*
X94638Y-68330D02*
X94619Y-68349D01*
X94563Y-68368D01*
X94525Y-68368D01*
X94469Y-68349D01*
X94431Y-68311D01*
X94413Y-68274D01*
X94394Y-68199D01*
X94394Y-68143D01*
X94413Y-68068D01*
X94431Y-68030D01*
X94469Y-67993D01*
X94525Y-67974D01*
X94563Y-67974D01*
X94619Y-67993D01*
X94638Y-68011D01*
X94806Y-68368D02*
X94806Y-67974D01*
X94975Y-68368D02*
X94975Y-68161D01*
X94956Y-68124D01*
X94919Y-68105D01*
X94863Y-68105D01*
X94825Y-68124D01*
X94806Y-68143D01*
X95125Y-67974D02*
X95369Y-67974D01*
X95238Y-68124D01*
X95294Y-68124D01*
X95331Y-68143D01*
X95350Y-68161D01*
X95369Y-68199D01*
X95369Y-68293D01*
X95350Y-68330D01*
X95331Y-68349D01*
X95294Y-68368D01*
X95181Y-68368D01*
X95144Y-68349D01*
X95125Y-68330D01*
X99700Y-67088D02*
X99925Y-67088D01*
X99812Y-67482D02*
X99812Y-67088D01*
X100281Y-67482D02*
X100149Y-67294D01*
X100056Y-67482D02*
X100056Y-67088D01*
X100206Y-67088D01*
X100243Y-67107D01*
X100262Y-67125D01*
X100281Y-67163D01*
X100281Y-67219D01*
X100262Y-67257D01*
X100243Y-67275D01*
X100206Y-67294D01*
X100056Y-67294D01*
X100431Y-67125D02*
X100449Y-67107D01*
X100487Y-67088D01*
X100581Y-67088D01*
X100618Y-67107D01*
X100637Y-67125D01*
X100656Y-67163D01*
X100656Y-67200D01*
X100637Y-67257D01*
X100412Y-67482D01*
X100656Y-67482D01*
X98870Y-68330D02*
X98851Y-68349D01*
X98795Y-68368D01*
X98757Y-68368D01*
X98701Y-68349D01*
X98664Y-68311D01*
X98645Y-68274D01*
X98626Y-68199D01*
X98626Y-68143D01*
X98645Y-68068D01*
X98664Y-68030D01*
X98701Y-67993D01*
X98757Y-67974D01*
X98795Y-67974D01*
X98851Y-67993D01*
X98870Y-68011D01*
X99039Y-68368D02*
X99039Y-67974D01*
X99207Y-68368D02*
X99207Y-68161D01*
X99189Y-68124D01*
X99151Y-68105D01*
X99095Y-68105D01*
X99057Y-68124D01*
X99039Y-68143D01*
X99376Y-68011D02*
X99395Y-67993D01*
X99432Y-67974D01*
X99526Y-67974D01*
X99564Y-67993D01*
X99582Y-68011D01*
X99601Y-68049D01*
X99601Y-68086D01*
X99582Y-68143D01*
X99357Y-68368D01*
X99601Y-68368D01*
X103932Y-67088D02*
X104157Y-67088D01*
X104044Y-67482D02*
X104044Y-67088D01*
X104513Y-67482D02*
X104382Y-67294D01*
X104288Y-67482D02*
X104288Y-67088D01*
X104438Y-67088D01*
X104476Y-67107D01*
X104494Y-67125D01*
X104513Y-67163D01*
X104513Y-67219D01*
X104494Y-67257D01*
X104476Y-67275D01*
X104438Y-67294D01*
X104288Y-67294D01*
X104888Y-67482D02*
X104663Y-67482D01*
X104775Y-67482D02*
X104775Y-67088D01*
X104738Y-67144D01*
X104700Y-67182D01*
X104663Y-67200D01*
X103201Y-68330D02*
X103182Y-68349D01*
X103126Y-68368D01*
X103088Y-68368D01*
X103032Y-68349D01*
X102994Y-68311D01*
X102976Y-68274D01*
X102957Y-68199D01*
X102957Y-68143D01*
X102976Y-68068D01*
X102994Y-68030D01*
X103032Y-67993D01*
X103088Y-67974D01*
X103126Y-67974D01*
X103182Y-67993D01*
X103201Y-68011D01*
X103369Y-68368D02*
X103369Y-67974D01*
X103538Y-68368D02*
X103538Y-68161D01*
X103519Y-68124D01*
X103482Y-68105D01*
X103426Y-68105D01*
X103388Y-68124D01*
X103369Y-68143D01*
X103932Y-68368D02*
X103707Y-68368D01*
X103819Y-68368D02*
X103819Y-67974D01*
X103782Y-68030D01*
X103744Y-68068D01*
X103707Y-68086D01*
X54038Y-45456D02*
X54019Y-45475D01*
X53963Y-45494D01*
X53926Y-45494D01*
X53869Y-45475D01*
X53832Y-45437D01*
X53813Y-45400D01*
X53794Y-45325D01*
X53794Y-45269D01*
X53813Y-45194D01*
X53832Y-45156D01*
X53869Y-45119D01*
X53926Y-45100D01*
X53963Y-45100D01*
X54019Y-45119D01*
X54038Y-45137D01*
X54413Y-45494D02*
X54188Y-45494D01*
X54301Y-45494D02*
X54301Y-45100D01*
X54263Y-45156D01*
X54226Y-45194D01*
X54188Y-45212D01*
X56281Y-48061D02*
X56300Y-48042D01*
X56337Y-48023D01*
X56431Y-48023D01*
X56468Y-48042D01*
X56487Y-48061D01*
X56506Y-48098D01*
X56506Y-48136D01*
X56487Y-48192D01*
X56262Y-48417D01*
X56506Y-48417D01*
X56656Y-48061D02*
X56675Y-48042D01*
X56712Y-48023D01*
X56806Y-48023D01*
X56843Y-48042D01*
X56862Y-48061D01*
X56881Y-48098D01*
X56881Y-48136D01*
X56862Y-48192D01*
X56637Y-48417D01*
X56881Y-48417D01*
X57125Y-48023D02*
X57162Y-48023D01*
X57200Y-48042D01*
X57218Y-48061D01*
X57237Y-48098D01*
X57256Y-48173D01*
X57256Y-48267D01*
X57237Y-48342D01*
X57218Y-48379D01*
X57200Y-48398D01*
X57162Y-48417D01*
X57125Y-48417D01*
X57087Y-48398D01*
X57068Y-48379D01*
X57050Y-48342D01*
X57031Y-48267D01*
X57031Y-48173D01*
X57050Y-48098D01*
X57068Y-48061D01*
X57087Y-48042D01*
X57125Y-48023D01*
X57500Y-48023D02*
X57537Y-48023D01*
X57574Y-48042D01*
X57593Y-48061D01*
X57612Y-48098D01*
X57631Y-48173D01*
X57631Y-48267D01*
X57612Y-48342D01*
X57593Y-48379D01*
X57574Y-48398D01*
X57537Y-48417D01*
X57500Y-48417D01*
X57462Y-48398D01*
X57443Y-48379D01*
X57425Y-48342D01*
X57406Y-48267D01*
X57406Y-48173D01*
X57425Y-48098D01*
X57443Y-48061D01*
X57462Y-48042D01*
X57500Y-48023D01*
X57968Y-48154D02*
X57968Y-48417D01*
X57799Y-48154D02*
X57799Y-48360D01*
X57818Y-48398D01*
X57856Y-48417D01*
X57912Y-48417D01*
X57949Y-48398D01*
X57968Y-48379D01*
X58287Y-48211D02*
X58156Y-48211D01*
X58156Y-48417D02*
X58156Y-48023D01*
X58343Y-48023D01*
X59023Y-45284D02*
X59323Y-45284D01*
X59173Y-45434D02*
X59173Y-45134D01*
X55328Y-35328D02*
X55309Y-35347D01*
X55253Y-35366D01*
X55215Y-35366D01*
X55159Y-35347D01*
X55121Y-35309D01*
X55103Y-35272D01*
X55084Y-35197D01*
X55084Y-35141D01*
X55103Y-35066D01*
X55121Y-35028D01*
X55159Y-34991D01*
X55215Y-34972D01*
X55253Y-34972D01*
X55309Y-34991D01*
X55328Y-35009D01*
X55478Y-35009D02*
X55496Y-34991D01*
X55534Y-34972D01*
X55628Y-34972D01*
X55665Y-34991D01*
X55684Y-35009D01*
X55703Y-35047D01*
X55703Y-35084D01*
X55684Y-35141D01*
X55459Y-35366D01*
X55703Y-35366D01*
X56666Y-36648D02*
X56666Y-36911D01*
X56572Y-36498D02*
X56479Y-36780D01*
X56722Y-36780D01*
X56835Y-36517D02*
X57097Y-36517D01*
X56929Y-36911D01*
X57416Y-36648D02*
X57416Y-36911D01*
X57247Y-36648D02*
X57247Y-36855D01*
X57266Y-36892D01*
X57304Y-36911D01*
X57360Y-36911D01*
X57397Y-36892D01*
X57416Y-36873D01*
X57735Y-36705D02*
X57604Y-36705D01*
X57604Y-36911D02*
X57604Y-36517D01*
X57791Y-36517D01*
X58550Y-35186D02*
X58850Y-35186D01*
X58700Y-35336D02*
X58700Y-35036D01*
X57344Y-51766D02*
X56950Y-51766D01*
X56950Y-51673D01*
X56969Y-51616D01*
X57006Y-51579D01*
X57044Y-51560D01*
X57119Y-51541D01*
X57175Y-51541D01*
X57250Y-51560D01*
X57288Y-51579D01*
X57325Y-51616D01*
X57344Y-51673D01*
X57344Y-51766D01*
X56950Y-51410D02*
X56950Y-51167D01*
X57100Y-51298D01*
X57100Y-51242D01*
X57119Y-51204D01*
X57138Y-51185D01*
X57175Y-51167D01*
X57269Y-51167D01*
X57306Y-51185D01*
X57325Y-51204D01*
X57344Y-51242D01*
X57344Y-51354D01*
X57325Y-51392D01*
X57306Y-51410D01*
X55474Y-51766D02*
X55080Y-51766D01*
X55080Y-51673D01*
X55099Y-51616D01*
X55136Y-51579D01*
X55174Y-51560D01*
X55249Y-51541D01*
X55305Y-51541D01*
X55380Y-51560D01*
X55418Y-51579D01*
X55455Y-51616D01*
X55474Y-51673D01*
X55474Y-51766D01*
X55118Y-51392D02*
X55099Y-51373D01*
X55080Y-51335D01*
X55080Y-51242D01*
X55099Y-51204D01*
X55118Y-51185D01*
X55155Y-51167D01*
X55193Y-51167D01*
X55249Y-51185D01*
X55474Y-51410D01*
X55474Y-51167D01*
X60100Y-51766D02*
X59706Y-51766D01*
X59706Y-51673D01*
X59725Y-51616D01*
X59762Y-51579D01*
X59800Y-51560D01*
X59875Y-51541D01*
X59931Y-51541D01*
X60006Y-51560D01*
X60044Y-51579D01*
X60081Y-51616D01*
X60100Y-51673D01*
X60100Y-51766D01*
X60100Y-51167D02*
X60100Y-51392D01*
X60100Y-51279D02*
X59706Y-51279D01*
X59762Y-51317D01*
X59800Y-51354D01*
X59819Y-51392D01*
X61871Y-51766D02*
X61478Y-51766D01*
X61478Y-51673D01*
X61497Y-51616D01*
X61534Y-51579D01*
X61571Y-51560D01*
X61646Y-51541D01*
X61703Y-51541D01*
X61778Y-51560D01*
X61815Y-51579D01*
X61853Y-51616D01*
X61871Y-51673D01*
X61871Y-51766D01*
X61609Y-51204D02*
X61871Y-51204D01*
X61459Y-51298D02*
X61740Y-51392D01*
X61740Y-51148D01*
G54D19*
X100774Y-30951D02*
X100774Y-31380D01*
X100745Y-31466D01*
X100688Y-31523D01*
X100602Y-31551D01*
X100545Y-31551D01*
X101031Y-31009D02*
X101060Y-30980D01*
X101117Y-30951D01*
X101260Y-30951D01*
X101317Y-30980D01*
X101345Y-31009D01*
X101374Y-31066D01*
X101374Y-31123D01*
X101345Y-31209D01*
X101002Y-31551D01*
X101374Y-31551D01*
X81325Y-30971D02*
X81325Y-31400D01*
X81297Y-31485D01*
X81239Y-31543D01*
X81154Y-31571D01*
X81097Y-31571D01*
X81925Y-31571D02*
X81582Y-31571D01*
X81754Y-31571D02*
X81754Y-30971D01*
X81697Y-31057D01*
X81639Y-31114D01*
X81582Y-31143D01*
G54D24*
X100592Y-45666D02*
X100592Y-46232D01*
X100613Y-46299D01*
X100635Y-46332D01*
X100677Y-46366D01*
X100763Y-46366D01*
X100806Y-46332D01*
X100827Y-46299D01*
X100849Y-46232D01*
X100849Y-45666D01*
X101085Y-46366D02*
X101170Y-46366D01*
X101213Y-46332D01*
X101235Y-46299D01*
X101277Y-46199D01*
X101299Y-46066D01*
X101299Y-45799D01*
X101277Y-45732D01*
X101256Y-45699D01*
X101213Y-45666D01*
X101127Y-45666D01*
X101085Y-45699D01*
X101063Y-45732D01*
X101042Y-45799D01*
X101042Y-45966D01*
X101063Y-46032D01*
X101085Y-46066D01*
X101127Y-46099D01*
X101213Y-46099D01*
X101256Y-46066D01*
X101277Y-46032D01*
X101299Y-45966D01*
G54D19*
X87068Y-44482D02*
X87402Y-44482D01*
X87002Y-44682D02*
X87235Y-43982D01*
X87468Y-44682D01*
X87602Y-43982D02*
X88002Y-43982D01*
X87802Y-44682D02*
X87802Y-43982D01*
X88235Y-44682D02*
X88235Y-43982D01*
X88468Y-44482D01*
X88702Y-43982D01*
X88702Y-44682D01*
X89035Y-44316D02*
X89268Y-44316D01*
X89368Y-44682D02*
X89035Y-44682D01*
X89035Y-43982D01*
X89368Y-43982D01*
X90035Y-44016D02*
X89968Y-43982D01*
X89868Y-43982D01*
X89768Y-44016D01*
X89702Y-44082D01*
X89668Y-44149D01*
X89635Y-44282D01*
X89635Y-44382D01*
X89668Y-44516D01*
X89702Y-44582D01*
X89768Y-44649D01*
X89868Y-44682D01*
X89935Y-44682D01*
X90035Y-44649D01*
X90068Y-44616D01*
X90068Y-44382D01*
X89935Y-44382D01*
X90335Y-44482D02*
X90668Y-44482D01*
X90268Y-44682D02*
X90502Y-43982D01*
X90735Y-44682D01*
X90902Y-43982D02*
X91335Y-43982D01*
X91102Y-44249D01*
X91202Y-44249D01*
X91268Y-44282D01*
X91302Y-44316D01*
X91335Y-44382D01*
X91335Y-44549D01*
X91302Y-44616D01*
X91268Y-44649D01*
X91202Y-44682D01*
X91002Y-44682D01*
X90935Y-44649D01*
X90902Y-44616D01*
X91602Y-44049D02*
X91635Y-44016D01*
X91702Y-43982D01*
X91868Y-43982D01*
X91935Y-44016D01*
X91968Y-44049D01*
X92002Y-44116D01*
X92002Y-44182D01*
X91968Y-44282D01*
X91568Y-44682D01*
X92002Y-44682D01*
X92602Y-44216D02*
X92602Y-44682D01*
X92435Y-43949D02*
X92268Y-44449D01*
X92702Y-44449D01*
X92935Y-44482D02*
X93268Y-44482D01*
X92868Y-44682D02*
X93102Y-43982D01*
X93335Y-44682D01*
X93568Y-44416D02*
X94102Y-44416D01*
X94435Y-44682D02*
X94435Y-43982D01*
X94702Y-43982D01*
X94768Y-44016D01*
X94802Y-44049D01*
X94835Y-44116D01*
X94835Y-44216D01*
X94802Y-44282D01*
X94768Y-44316D01*
X94702Y-44349D01*
X94435Y-44349D01*
X95135Y-43982D02*
X95135Y-44549D01*
X95168Y-44616D01*
X95202Y-44649D01*
X95268Y-44682D01*
X95402Y-44682D01*
X95468Y-44649D01*
X95502Y-44616D01*
X95535Y-44549D01*
X95535Y-43982D01*
G54D11*
X91445Y-40464D02*
X91454Y-40473D01*
X91445Y-40483D01*
X91436Y-40473D01*
X91445Y-40464D01*
X91445Y-40483D01*
X91642Y-40483D02*
X91529Y-40483D01*
X91586Y-40483D02*
X91586Y-40286D01*
X91567Y-40314D01*
X91548Y-40333D01*
X91529Y-40342D01*
X91811Y-40351D02*
X91811Y-40483D01*
X91726Y-40351D02*
X91726Y-40455D01*
X91736Y-40473D01*
X91754Y-40483D01*
X91782Y-40483D01*
X91801Y-40473D01*
X91811Y-40464D01*
X91970Y-40380D02*
X91904Y-40380D01*
X91904Y-40483D02*
X91904Y-40286D01*
X91998Y-40286D01*
X91947Y-49303D02*
X91956Y-49312D01*
X91947Y-49321D01*
X91938Y-49312D01*
X91947Y-49303D01*
X91947Y-49321D01*
X92144Y-49321D02*
X92031Y-49321D01*
X92088Y-49321D02*
X92088Y-49124D01*
X92069Y-49153D01*
X92050Y-49171D01*
X92031Y-49181D01*
X92312Y-49190D02*
X92312Y-49321D01*
X92228Y-49190D02*
X92228Y-49293D01*
X92238Y-49312D01*
X92256Y-49321D01*
X92284Y-49321D01*
X92303Y-49312D01*
X92312Y-49303D01*
X92472Y-49218D02*
X92406Y-49218D01*
X92406Y-49321D02*
X92406Y-49124D01*
X92500Y-49124D01*
X103856Y-37934D02*
X103866Y-37944D01*
X103856Y-37953D01*
X103847Y-37944D01*
X103856Y-37934D01*
X103856Y-37953D01*
X104053Y-37953D02*
X103941Y-37953D01*
X103997Y-37953D02*
X103997Y-37756D01*
X103978Y-37784D01*
X103959Y-37803D01*
X103941Y-37813D01*
X104222Y-37822D02*
X104222Y-37953D01*
X104138Y-37822D02*
X104138Y-37925D01*
X104147Y-37944D01*
X104166Y-37953D01*
X104194Y-37953D01*
X104213Y-37944D01*
X104222Y-37934D01*
X104381Y-37850D02*
X104316Y-37850D01*
X104316Y-37953D02*
X104316Y-37756D01*
X104409Y-37756D01*
X77961Y-37925D02*
X77970Y-37934D01*
X77961Y-37943D01*
X77951Y-37934D01*
X77961Y-37925D01*
X77961Y-37943D01*
X78158Y-37943D02*
X78045Y-37943D01*
X78101Y-37943D02*
X78101Y-37747D01*
X78083Y-37775D01*
X78064Y-37793D01*
X78045Y-37803D01*
X78326Y-37812D02*
X78326Y-37943D01*
X78242Y-37812D02*
X78242Y-37915D01*
X78251Y-37934D01*
X78270Y-37943D01*
X78298Y-37943D01*
X78317Y-37934D01*
X78326Y-37925D01*
X78486Y-37840D02*
X78420Y-37840D01*
X78420Y-37943D02*
X78420Y-37747D01*
X78514Y-37747D01*
G54D10*
X104743Y-44108D02*
X104743Y-44426D01*
X104762Y-44464D01*
X104780Y-44483D01*
X104818Y-44501D01*
X104893Y-44501D01*
X104930Y-44483D01*
X104949Y-44464D01*
X104968Y-44426D01*
X104968Y-44108D01*
X105343Y-44108D02*
X105155Y-44108D01*
X105137Y-44295D01*
X105155Y-44276D01*
X105193Y-44258D01*
X105287Y-44258D01*
X105324Y-44276D01*
X105343Y-44295D01*
X105362Y-44333D01*
X105362Y-44426D01*
X105343Y-44464D01*
X105324Y-44483D01*
X105287Y-44501D01*
X105193Y-44501D01*
X105155Y-44483D01*
X105137Y-44464D01*
X103709Y-41537D02*
X103484Y-41537D01*
X103596Y-41537D02*
X103596Y-41143D01*
X103559Y-41199D01*
X103521Y-41237D01*
X103484Y-41256D01*
X103934Y-41312D02*
X103896Y-41293D01*
X103877Y-41274D01*
X103859Y-41237D01*
X103859Y-41218D01*
X103877Y-41181D01*
X103896Y-41162D01*
X103934Y-41143D01*
X104009Y-41143D01*
X104046Y-41162D01*
X104065Y-41181D01*
X104084Y-41218D01*
X104084Y-41237D01*
X104065Y-41274D01*
X104046Y-41293D01*
X104009Y-41312D01*
X103934Y-41312D01*
X103896Y-41331D01*
X103877Y-41349D01*
X103859Y-41387D01*
X103859Y-41462D01*
X103877Y-41499D01*
X103896Y-41518D01*
X103934Y-41537D01*
X104009Y-41537D01*
X104046Y-41518D01*
X104065Y-41499D01*
X104084Y-41462D01*
X104084Y-41387D01*
X104065Y-41349D01*
X104046Y-41331D01*
X104009Y-41312D01*
X104252Y-41499D02*
X104271Y-41518D01*
X104252Y-41537D01*
X104234Y-41518D01*
X104252Y-41499D01*
X104252Y-41537D01*
X104609Y-41274D02*
X104609Y-41537D01*
X104515Y-41124D02*
X104421Y-41406D01*
X104665Y-41406D01*
X104777Y-41143D02*
X105021Y-41143D01*
X104890Y-41293D01*
X104946Y-41293D01*
X104984Y-41312D01*
X105002Y-41331D01*
X105021Y-41368D01*
X105021Y-41462D01*
X105002Y-41499D01*
X104984Y-41518D01*
X104946Y-41537D01*
X104834Y-41537D01*
X104796Y-41518D01*
X104777Y-41499D01*
X105171Y-41181D02*
X105190Y-41162D01*
X105227Y-41143D01*
X105321Y-41143D01*
X105359Y-41162D01*
X105377Y-41181D01*
X105396Y-41218D01*
X105396Y-41256D01*
X105377Y-41312D01*
X105152Y-41537D01*
X105396Y-41537D01*
X105565Y-41537D02*
X105565Y-41143D01*
X105696Y-41424D01*
X105827Y-41143D01*
X105827Y-41537D01*
X106015Y-41537D02*
X106015Y-41143D01*
X106015Y-41331D02*
X106240Y-41331D01*
X106240Y-41537D02*
X106240Y-41143D01*
X106390Y-41143D02*
X106652Y-41143D01*
X106390Y-41537D01*
X106652Y-41537D01*
M02*
